M48
; DRILL file {KiCad 8.0.3} date 2024-07-07T15:42:09+0100
; FORMAT={-:-/ absolute / inch / decimal}
; #@! TF.CreationDate,2024-07-07T15:42:09+01:00
; #@! TF.GenerationSoftware,Kicad,Pcbnew,8.0.3
; #@! TF.FileFunction,Plated,1,2,PTH
FMAT,2
INCH
; #@! TA.AperFunction,Plated,PTH,ViaDrill
T1C0.0120
; #@! TA.AperFunction,Plated,PTH,ComponentDrill
T2C0.0236
; #@! TA.AperFunction,Plated,PTH,ComponentDrill
T3C0.0315
; #@! TA.AperFunction,Plated,PTH,ComponentDrill
T4C0.0394
; #@! TA.AperFunction,Plated,PTH,ComponentDrill
T5C0.0433
; #@! TA.AperFunction,Plated,PTH,ComponentDrill
T6C0.0750
; #@! TA.AperFunction,Plated,PTH,ComponentDrill
T7C0.1260
%
G90
G05
T1
X4.43Y-4.57
X4.86Y-3.67
X5.36Y-3.58
X5.45Y-4.36
X5.52Y-3.88
T3
X3.25Y-2.97
X3.25Y-3.37
X3.37Y-2.97
X3.37Y-3.37
X3.6831Y-4.5035
X3.6831Y-4.9035
X4.26Y-5.66
X4.275Y-5.15
X4.275Y-5.55
X4.33Y-3.4863
X4.33Y-3.565
X4.395Y-5.15
X4.395Y-5.55
X4.465Y-4.855
X4.465Y-4.99
X4.49Y-4.05
X4.49Y-4.17
X4.49Y-4.29
X4.49Y-4.41
X4.5024Y-2.845
X4.515Y-5.15
X4.515Y-5.55
X4.56Y-3.6813
X4.56Y-3.76
X4.5811Y-2.845
X4.59Y-4.525
X4.59Y-4.625
X4.59Y-4.725
X4.625Y-5.25
X4.625Y-5.55
X4.66Y-5.66
X4.6619Y-4.855
X4.71Y-3.885
X4.75Y-3.3281
X4.75Y-3.525
X4.77Y-5.24
X4.77Y-5.34
X4.77Y-5.44
X4.785Y-4.555
X4.785Y-4.655
X4.785Y-4.755
X4.785Y-4.855
X4.81Y-3.885
X4.865Y-4.99
X4.885Y-3.225
X4.885Y-3.325
X4.885Y-3.425
X4.885Y-3.525
X4.89Y-4.05
X4.89Y-4.17
X4.89Y-4.29
X4.89Y-4.41
X4.91Y-3.885
X4.96Y-5.24
X4.96Y-5.34
X4.96Y-5.44
X4.9881Y-3.085
X5.04Y-3.81
X5.04Y-3.93
X5.04Y-4.15
X5.04Y-4.41
X5.085Y-4.555
X5.085Y-4.655
X5.085Y-4.755
X5.085Y-4.855
X5.095Y-4.04
X5.14Y-4.26
X5.145Y-4.97
X5.145Y-5.37
X5.185Y-3.085
X5.185Y-3.225
X5.185Y-3.325
X5.185Y-3.425
X5.185Y-3.525
X5.225Y-4.655
X5.225Y-4.855
X5.2369Y-4.41
X5.265Y-4.97
X5.265Y-5.37
X5.325Y-4.655
X5.385Y-4.97
X5.385Y-5.37
X5.395Y-4.04
X5.4219Y-4.855
X5.425Y-4.655
X5.44Y-3.81
X5.44Y-3.93
X5.44Y-4.15
X5.44Y-4.26
X5.4424Y-2.845
X5.495Y-4.97
X5.495Y-5.27
X5.5211Y-2.845
T4
X2.6772Y-3.8583
X2.6772Y-3.9583
X2.6772Y-4.0583
X2.6772Y-4.1583
X2.6772Y-4.2583
X2.6772Y-4.3583
X2.6772Y-4.4583
X2.6772Y-4.5583
X2.6772Y-4.6583
X2.6772Y-4.7583
X2.815Y-2.5394
X2.815Y-3.5236
X2.9134Y-2.5394
X2.9134Y-3.5236
X3.0118Y-2.5394
X3.0118Y-3.5236
X3.2244Y-4.7244
X3.248Y-4.626
X3.248Y-4.8228
X3.4449Y-4.626
X3.4449Y-4.8228
X3.4685Y-4.7244
X3.6811Y-2.5394
X3.6811Y-3.5236
X3.7795Y-2.5394
X3.7795Y-3.5236
X3.878Y-2.5394
X3.878Y-3.5236
X4.0157Y-3.8583
X4.0157Y-3.9583
X4.0157Y-4.0583
X4.0157Y-4.1583
X4.0157Y-4.2583
X4.0157Y-4.3583
X4.0157Y-4.4583
X4.0157Y-4.5583
X4.0157Y-4.6583
X4.0157Y-4.7583
X4.2913Y-3.8583
X4.2913Y-3.9583
X4.2913Y-4.0583
X4.2913Y-4.1583
X4.2913Y-4.2583
X4.2913Y-4.3583
X4.2913Y-4.4583
X4.2913Y-4.5583
X4.2913Y-4.6583
X4.2913Y-4.7583
X4.765Y-2.3
X4.765Y-2.4
X4.865Y-2.3
X4.865Y-2.4
X4.965Y-2.3
X4.965Y-2.4
X5.065Y-2.3
X5.065Y-2.4
X5.165Y-2.3
X5.165Y-2.4
X5.6299Y-3.8583
X5.6299Y-3.9583
X5.6299Y-4.0583
X5.6299Y-4.1583
X5.6299Y-4.2583
X5.6299Y-4.3583
X5.6299Y-4.4583
X5.6299Y-4.5583
X5.6299Y-4.6583
X5.6299Y-4.7583
T5
X4.46Y-2.215
X4.46Y-2.615
X5.57Y-2.215
X5.57Y-2.615
T6
X3.2515Y-3.752
X3.2515Y-3.937
X3.2515Y-4.122
X3.4415Y-3.752
X3.4415Y-3.937
X3.4415Y-4.122
T7
X3.3465Y-2.7264
X3.3465Y-5.6496
X4.9606Y-2.7264
X4.9606Y-5.6496
T2
G00X2.6583Y-5.3346
M15
G01X2.6583Y-5.2953
M16
G05
G00X2.6583Y-5.9646
M15
G01X2.6583Y-5.9252
M16
G05
G00X2.7803Y-5.3346
M15
G01X2.7803Y-5.2953
M16
G05
G00X2.7803Y-5.9646
M15
G01X2.7803Y-5.9252
M16
G05
G00X3.1071Y-5.3346
M15
G01X3.1071Y-5.2953
M16
G05
G00X3.1071Y-5.9646
M15
G01X3.1071Y-5.9252
M16
G05
G00X3.5858Y-5.2953
M15
G01X3.5858Y-5.3346
M16
G05
G00X3.5858Y-5.9252
M15
G01X3.5858Y-5.9646
M16
G05
G00X3.9126Y-5.2953
M15
G01X3.9126Y-5.3346
M16
G05
G00X3.9126Y-5.9252
M15
G01X3.9126Y-5.9646
M16
G05
G00X4.0346Y-5.2953
M15
G01X4.0346Y-5.3346
M16
G05
G00X4.0346Y-5.9252
M15
G01X4.0346Y-5.9646
M16
G05
T5
G00X2.7244Y-2.2303
M15
G01X2.7244Y-2.2579
M16
G05
G00X2.7244Y-3.2146
M15
G01X2.7244Y-3.2421
M16
G05
G00X3.1024Y-2.2303
M15
G01X3.1024Y-2.2579
M16
G05
G00X3.1024Y-3.2146
M15
G01X3.1024Y-3.2421
M16
G05
G00X3.5906Y-2.2303
M15
G01X3.5906Y-2.2579
M16
G05
G00X3.5906Y-3.2146
M15
G01X3.5906Y-3.2421
M16
G05
G00X3.9685Y-2.2303
M15
G01X3.9685Y-2.2579
M16
G05
G00X3.9685Y-3.2146
M15
G01X3.9685Y-3.2421
M16
G05
M30
