%TF.GenerationSoftware,KiCad,Pcbnew,8.0.3*%
%TF.CreationDate,2024-07-07T15:42:06+01:00*%
%TF.ProjectId,555-adsr,3535352d-6164-4737-922e-6b696361645f,rev01*%
%TF.SameCoordinates,Original*%
%TF.FileFunction,Profile,NP*%
%FSLAX46Y46*%
G04 Gerber Fmt 4.6, Leading zero omitted, Abs format (unit mm)*
G04 Created by KiCad (PCBNEW 8.0.3) date 2024-07-07 15:42:06*
%MOMM*%
%LPD*%
G01*
G04 APERTURE LIST*
%TA.AperFunction,Profile*%
%ADD10C,0.050000*%
%TD*%
G04 APERTURE END LIST*
D10*
X106500000Y-123500000D02*
X106500000Y-112500000D01*
X106500000Y-51500000D02*
X106500000Y-63500000D01*
X65500000Y-51500000D02*
G75*
G02*
X66500000Y-50500000I1000000J0D01*
G01*
X145500000Y-156500000D02*
X145500000Y-51500000D01*
X106500000Y-142500000D02*
X106500000Y-156500000D01*
X103500000Y-50500000D02*
G75*
G02*
X104500000Y-51500000I0J-1000000D01*
G01*
X106500000Y-82500000D02*
X106500000Y-93500000D01*
X106500000Y-51500000D02*
G75*
G02*
X107500000Y-50500000I1000000J0D01*
G01*
X144500000Y-50500000D02*
X107500000Y-50500000D01*
X104500000Y-51500000D02*
X104500000Y-63500000D01*
X104500000Y-67500000D02*
X104500000Y-78500000D01*
X106500000Y-127500000D02*
X106500000Y-138500000D01*
X104500000Y-142500000D02*
X104500000Y-156500000D01*
X104500000Y-127500000D02*
X104500000Y-138500000D01*
X104500000Y-112500000D02*
X104500000Y-123500000D01*
X104500000Y-97500000D02*
X104500000Y-108500000D01*
X107500000Y-157500000D02*
X144500000Y-157500000D01*
X103500000Y-50500000D02*
X66500000Y-50500000D01*
X66500000Y-157500000D02*
X103500000Y-157500000D01*
X144500000Y-50500000D02*
G75*
G02*
X145500000Y-51500000I0J-1000000D01*
G01*
X104500000Y-156500000D02*
G75*
G02*
X103500000Y-157500000I-1000000J0D01*
G01*
X106500000Y-97500000D02*
X106500000Y-108500000D01*
X106500000Y-67500000D02*
X106500000Y-78500000D01*
X104500000Y-82500000D02*
X104500000Y-93500000D01*
X145500000Y-156500000D02*
G75*
G02*
X144500000Y-157500000I-1000000J0D01*
G01*
X66500000Y-157500000D02*
G75*
G02*
X65500000Y-156500000I0J1000000D01*
G01*
X107500000Y-157500000D02*
G75*
G02*
X106500000Y-156500000I0J1000000D01*
G01*
X65500000Y-51500000D02*
X65500000Y-156500000D01*
%TO.C,mouse-bite-2mm-slot*%
X104500000Y-142500000D02*
G75*
G02*
X106500000Y-142500000I1000000J0D01*
G01*
X106500000Y-138500000D02*
G75*
G02*
X104500000Y-138500000I-1000000J0D01*
G01*
X104500000Y-112500000D02*
G75*
G02*
X106500000Y-112500000I1000000J0D01*
G01*
X106500000Y-108500000D02*
G75*
G02*
X104500000Y-108500000I-1000000J0D01*
G01*
X104500000Y-97500000D02*
G75*
G02*
X106500000Y-97500000I1000000J0D01*
G01*
X106500000Y-93500000D02*
G75*
G02*
X104500000Y-93500000I-1000000J0D01*
G01*
X104500000Y-127500000D02*
G75*
G02*
X106500000Y-127500000I1000000J0D01*
G01*
X106500000Y-123500000D02*
G75*
G02*
X104500000Y-123500000I-1000000J0D01*
G01*
X104500000Y-82500000D02*
G75*
G02*
X106500000Y-82500000I1000000J0D01*
G01*
X106500000Y-78500000D02*
G75*
G02*
X104500000Y-78500000I-1000000J0D01*
G01*
X104500000Y-67500000D02*
G75*
G02*
X106500000Y-67500000I1000000J0D01*
G01*
X106500000Y-63500000D02*
G75*
G02*
X104500000Y-63500000I-1000000J0D01*
G01*
%TD*%
M02*
