M48
; DRILL file {KiCad 8.0.3} date 2024-07-07T15:42:09+0100
; FORMAT={-:-/ absolute / inch / decimal}
; #@! TF.CreationDate,2024-07-07T15:42:09+01:00
; #@! TF.GenerationSoftware,Kicad,Pcbnew,8.0.3
; #@! TF.FileFunction,NonPlated,1,2,NPTH
FMAT,2
INCH
; #@! TA.AperFunction,NonPlated,NPTH,ComponentDrill
T1C0.0197
%
G90
G05
T1
X4.124Y-2.5492
X4.124Y-2.5787
X4.124Y-2.6083
X4.124Y-3.1398
X4.124Y-3.1693
X4.124Y-3.1988
X4.124Y-3.7303
X4.124Y-3.7598
X4.124Y-3.7894
X4.124Y-4.3209
X4.124Y-4.3504
X4.124Y-4.3799
X4.124Y-4.9114
X4.124Y-4.9409
X4.124Y-4.9705
X4.124Y-5.502
X4.124Y-5.5315
X4.124Y-5.561
X4.1831Y-2.5492
X4.1831Y-2.5787
X4.1831Y-2.6083
X4.1831Y-3.1398
X4.1831Y-3.1693
X4.1831Y-3.1988
X4.1831Y-3.7303
X4.1831Y-3.7598
X4.1831Y-3.7894
X4.1831Y-4.3209
X4.1831Y-4.3504
X4.1831Y-4.3799
X4.1831Y-4.9114
X4.1831Y-4.9409
X4.1831Y-4.9705
X4.1831Y-5.502
X4.1831Y-5.5315
X4.1831Y-5.561
M30
