%TF.GenerationSoftware,KiCad,Pcbnew,8.0.3*%
%TF.CreationDate,2024-07-07T15:42:06+01:00*%
%TF.ProjectId,555-adsr,3535352d-6164-4737-922e-6b696361645f,rev01*%
%TF.SameCoordinates,Original*%
%TF.FileFunction,Legend,Bot*%
%TF.FilePolarity,Positive*%
%FSLAX46Y46*%
G04 Gerber Fmt 4.6, Leading zero omitted, Abs format (unit mm)*
G04 Created by KiCad (PCBNEW 8.0.3) date 2024-07-07 15:42:06*
%MOMM*%
%LPD*%
G01*
G04 APERTURE LIST*
%ADD10C,0.150000*%
%ADD11C,0.200000*%
%ADD12C,0.120000*%
G04 APERTURE END LIST*
D10*
X77784077Y-69903875D02*
X77212649Y-69903875D01*
X77498363Y-70903875D02*
X77498363Y-69903875D01*
X76879315Y-70903875D02*
X76879315Y-69903875D01*
X76879315Y-70380065D02*
X76307887Y-70380065D01*
X76307887Y-70903875D02*
X76307887Y-69903875D01*
X75831696Y-70903875D02*
X75831696Y-69903875D01*
X75403125Y-70856256D02*
X75260268Y-70903875D01*
X75260268Y-70903875D02*
X75022173Y-70903875D01*
X75022173Y-70903875D02*
X74926935Y-70856256D01*
X74926935Y-70856256D02*
X74879316Y-70808636D01*
X74879316Y-70808636D02*
X74831697Y-70713398D01*
X74831697Y-70713398D02*
X74831697Y-70618160D01*
X74831697Y-70618160D02*
X74879316Y-70522922D01*
X74879316Y-70522922D02*
X74926935Y-70475303D01*
X74926935Y-70475303D02*
X75022173Y-70427684D01*
X75022173Y-70427684D02*
X75212649Y-70380065D01*
X75212649Y-70380065D02*
X75307887Y-70332446D01*
X75307887Y-70332446D02*
X75355506Y-70284827D01*
X75355506Y-70284827D02*
X75403125Y-70189589D01*
X75403125Y-70189589D02*
X75403125Y-70094351D01*
X75403125Y-70094351D02*
X75355506Y-69999113D01*
X75355506Y-69999113D02*
X75307887Y-69951494D01*
X75307887Y-69951494D02*
X75212649Y-69903875D01*
X75212649Y-69903875D02*
X74974554Y-69903875D01*
X74974554Y-69903875D02*
X74831697Y-69951494D01*
X73688839Y-70856256D02*
X73545982Y-70903875D01*
X73545982Y-70903875D02*
X73307887Y-70903875D01*
X73307887Y-70903875D02*
X73212649Y-70856256D01*
X73212649Y-70856256D02*
X73165030Y-70808636D01*
X73165030Y-70808636D02*
X73117411Y-70713398D01*
X73117411Y-70713398D02*
X73117411Y-70618160D01*
X73117411Y-70618160D02*
X73165030Y-70522922D01*
X73165030Y-70522922D02*
X73212649Y-70475303D01*
X73212649Y-70475303D02*
X73307887Y-70427684D01*
X73307887Y-70427684D02*
X73498363Y-70380065D01*
X73498363Y-70380065D02*
X73593601Y-70332446D01*
X73593601Y-70332446D02*
X73641220Y-70284827D01*
X73641220Y-70284827D02*
X73688839Y-70189589D01*
X73688839Y-70189589D02*
X73688839Y-70094351D01*
X73688839Y-70094351D02*
X73641220Y-69999113D01*
X73641220Y-69999113D02*
X73593601Y-69951494D01*
X73593601Y-69951494D02*
X73498363Y-69903875D01*
X73498363Y-69903875D02*
X73260268Y-69903875D01*
X73260268Y-69903875D02*
X73117411Y-69951494D01*
X72688839Y-70903875D02*
X72688839Y-69903875D01*
X72212649Y-70903875D02*
X72212649Y-69903875D01*
X72212649Y-69903875D02*
X71974554Y-69903875D01*
X71974554Y-69903875D02*
X71831697Y-69951494D01*
X71831697Y-69951494D02*
X71736459Y-70046732D01*
X71736459Y-70046732D02*
X71688840Y-70141970D01*
X71688840Y-70141970D02*
X71641221Y-70332446D01*
X71641221Y-70332446D02*
X71641221Y-70475303D01*
X71641221Y-70475303D02*
X71688840Y-70665779D01*
X71688840Y-70665779D02*
X71736459Y-70761017D01*
X71736459Y-70761017D02*
X71831697Y-70856256D01*
X71831697Y-70856256D02*
X71974554Y-70903875D01*
X71974554Y-70903875D02*
X72212649Y-70903875D01*
X71212649Y-70380065D02*
X70879316Y-70380065D01*
X70736459Y-70903875D02*
X71212649Y-70903875D01*
X71212649Y-70903875D02*
X71212649Y-69903875D01*
X71212649Y-69903875D02*
X70736459Y-69903875D01*
X77784077Y-71513819D02*
X77212649Y-71513819D01*
X77498363Y-72513819D02*
X77498363Y-71513819D01*
X76688839Y-71513819D02*
X76498363Y-71513819D01*
X76498363Y-71513819D02*
X76403125Y-71561438D01*
X76403125Y-71561438D02*
X76307887Y-71656676D01*
X76307887Y-71656676D02*
X76260268Y-71847152D01*
X76260268Y-71847152D02*
X76260268Y-72180485D01*
X76260268Y-72180485D02*
X76307887Y-72370961D01*
X76307887Y-72370961D02*
X76403125Y-72466200D01*
X76403125Y-72466200D02*
X76498363Y-72513819D01*
X76498363Y-72513819D02*
X76688839Y-72513819D01*
X76688839Y-72513819D02*
X76784077Y-72466200D01*
X76784077Y-72466200D02*
X76879315Y-72370961D01*
X76879315Y-72370961D02*
X76926934Y-72180485D01*
X76926934Y-72180485D02*
X76926934Y-71847152D01*
X76926934Y-71847152D02*
X76879315Y-71656676D01*
X76879315Y-71656676D02*
X76784077Y-71561438D01*
X76784077Y-71561438D02*
X76688839Y-71513819D01*
X75069791Y-72513819D02*
X75069791Y-71513819D01*
X75069791Y-71513819D02*
X74688839Y-71513819D01*
X74688839Y-71513819D02*
X74593601Y-71561438D01*
X74593601Y-71561438D02*
X74545982Y-71609057D01*
X74545982Y-71609057D02*
X74498363Y-71704295D01*
X74498363Y-71704295D02*
X74498363Y-71847152D01*
X74498363Y-71847152D02*
X74545982Y-71942390D01*
X74545982Y-71942390D02*
X74593601Y-71990009D01*
X74593601Y-71990009D02*
X74688839Y-72037628D01*
X74688839Y-72037628D02*
X75069791Y-72037628D01*
X74117410Y-72228104D02*
X73641220Y-72228104D01*
X74212648Y-72513819D02*
X73879315Y-71513819D01*
X73879315Y-71513819D02*
X73545982Y-72513819D01*
X73212648Y-72513819D02*
X73212648Y-71513819D01*
X73212648Y-71513819D02*
X72641220Y-72513819D01*
X72641220Y-72513819D02*
X72641220Y-71513819D01*
X72165029Y-71990009D02*
X71831696Y-71990009D01*
X71688839Y-72513819D02*
X72165029Y-72513819D01*
X72165029Y-72513819D02*
X72165029Y-71513819D01*
X72165029Y-71513819D02*
X71688839Y-71513819D01*
X70784077Y-72513819D02*
X71260267Y-72513819D01*
X71260267Y-72513819D02*
X71260267Y-71513819D01*
X88654819Y-148166666D02*
X89369104Y-148166666D01*
X89369104Y-148166666D02*
X89511961Y-148119047D01*
X89511961Y-148119047D02*
X89607200Y-148023809D01*
X89607200Y-148023809D02*
X89654819Y-147880952D01*
X89654819Y-147880952D02*
X89654819Y-147785714D01*
X88654819Y-148547619D02*
X88654819Y-149166666D01*
X88654819Y-149166666D02*
X89035771Y-148833333D01*
X89035771Y-148833333D02*
X89035771Y-148976190D01*
X89035771Y-148976190D02*
X89083390Y-149071428D01*
X89083390Y-149071428D02*
X89131009Y-149119047D01*
X89131009Y-149119047D02*
X89226247Y-149166666D01*
X89226247Y-149166666D02*
X89464342Y-149166666D01*
X89464342Y-149166666D02*
X89559580Y-149119047D01*
X89559580Y-149119047D02*
X89607200Y-149071428D01*
X89607200Y-149071428D02*
X89654819Y-148976190D01*
X89654819Y-148976190D02*
X89654819Y-148690476D01*
X89654819Y-148690476D02*
X89607200Y-148595238D01*
X89607200Y-148595238D02*
X89559580Y-148547619D01*
X92138200Y-103365667D02*
X92185819Y-103508524D01*
X92185819Y-103508524D02*
X92185819Y-103746619D01*
X92185819Y-103746619D02*
X92138200Y-103841857D01*
X92138200Y-103841857D02*
X92090580Y-103889476D01*
X92090580Y-103889476D02*
X91995342Y-103937095D01*
X91995342Y-103937095D02*
X91900104Y-103937095D01*
X91900104Y-103937095D02*
X91804866Y-103889476D01*
X91804866Y-103889476D02*
X91757247Y-103841857D01*
X91757247Y-103841857D02*
X91709628Y-103746619D01*
X91709628Y-103746619D02*
X91662009Y-103556143D01*
X91662009Y-103556143D02*
X91614390Y-103460905D01*
X91614390Y-103460905D02*
X91566771Y-103413286D01*
X91566771Y-103413286D02*
X91471533Y-103365667D01*
X91471533Y-103365667D02*
X91376295Y-103365667D01*
X91376295Y-103365667D02*
X91281057Y-103413286D01*
X91281057Y-103413286D02*
X91233438Y-103460905D01*
X91233438Y-103460905D02*
X91185819Y-103556143D01*
X91185819Y-103556143D02*
X91185819Y-103794238D01*
X91185819Y-103794238D02*
X91233438Y-103937095D01*
X91185819Y-104270429D02*
X92185819Y-104508524D01*
X92185819Y-104508524D02*
X91471533Y-104699000D01*
X91471533Y-104699000D02*
X92185819Y-104889476D01*
X92185819Y-104889476D02*
X91185819Y-105127572D01*
X92185819Y-106032333D02*
X92185819Y-105460905D01*
X92185819Y-105746619D02*
X91185819Y-105746619D01*
X91185819Y-105746619D02*
X91328676Y-105651381D01*
X91328676Y-105651381D02*
X91423914Y-105556143D01*
X91423914Y-105556143D02*
X91471533Y-105460905D01*
X92150238Y-76739819D02*
X92483571Y-76263628D01*
X92721666Y-76739819D02*
X92721666Y-75739819D01*
X92721666Y-75739819D02*
X92340714Y-75739819D01*
X92340714Y-75739819D02*
X92245476Y-75787438D01*
X92245476Y-75787438D02*
X92197857Y-75835057D01*
X92197857Y-75835057D02*
X92150238Y-75930295D01*
X92150238Y-75930295D02*
X92150238Y-76073152D01*
X92150238Y-76073152D02*
X92197857Y-76168390D01*
X92197857Y-76168390D02*
X92245476Y-76216009D01*
X92245476Y-76216009D02*
X92340714Y-76263628D01*
X92340714Y-76263628D02*
X92721666Y-76263628D01*
X91864523Y-75739819D02*
X91531190Y-76739819D01*
X91531190Y-76739819D02*
X91197857Y-75739819D01*
X90959761Y-75739819D02*
X90340714Y-75739819D01*
X90340714Y-75739819D02*
X90674047Y-76120771D01*
X90674047Y-76120771D02*
X90531190Y-76120771D01*
X90531190Y-76120771D02*
X90435952Y-76168390D01*
X90435952Y-76168390D02*
X90388333Y-76216009D01*
X90388333Y-76216009D02*
X90340714Y-76311247D01*
X90340714Y-76311247D02*
X90340714Y-76549342D01*
X90340714Y-76549342D02*
X90388333Y-76644580D01*
X90388333Y-76644580D02*
X90435952Y-76692200D01*
X90435952Y-76692200D02*
X90531190Y-76739819D01*
X90531190Y-76739819D02*
X90816904Y-76739819D01*
X90816904Y-76739819D02*
X90912142Y-76692200D01*
X90912142Y-76692200D02*
X90959761Y-76644580D01*
X80254819Y-153166666D02*
X80969104Y-153166666D01*
X80969104Y-153166666D02*
X81111961Y-153119047D01*
X81111961Y-153119047D02*
X81207200Y-153023809D01*
X81207200Y-153023809D02*
X81254819Y-152880952D01*
X81254819Y-152880952D02*
X81254819Y-152785714D01*
X80254819Y-154119047D02*
X80254819Y-153642857D01*
X80254819Y-153642857D02*
X80731009Y-153595238D01*
X80731009Y-153595238D02*
X80683390Y-153642857D01*
X80683390Y-153642857D02*
X80635771Y-153738095D01*
X80635771Y-153738095D02*
X80635771Y-153976190D01*
X80635771Y-153976190D02*
X80683390Y-154071428D01*
X80683390Y-154071428D02*
X80731009Y-154119047D01*
X80731009Y-154119047D02*
X80826247Y-154166666D01*
X80826247Y-154166666D02*
X81064342Y-154166666D01*
X81064342Y-154166666D02*
X81159580Y-154119047D01*
X81159580Y-154119047D02*
X81207200Y-154071428D01*
X81207200Y-154071428D02*
X81254819Y-153976190D01*
X81254819Y-153976190D02*
X81254819Y-153738095D01*
X81254819Y-153738095D02*
X81207200Y-153642857D01*
X81207200Y-153642857D02*
X81159580Y-153595238D01*
X109333333Y-95124819D02*
X109333333Y-95839104D01*
X109333333Y-95839104D02*
X109380952Y-95981961D01*
X109380952Y-95981961D02*
X109476190Y-96077200D01*
X109476190Y-96077200D02*
X109619047Y-96124819D01*
X109619047Y-96124819D02*
X109714285Y-96124819D01*
X108428571Y-95124819D02*
X108619047Y-95124819D01*
X108619047Y-95124819D02*
X108714285Y-95172438D01*
X108714285Y-95172438D02*
X108761904Y-95220057D01*
X108761904Y-95220057D02*
X108857142Y-95362914D01*
X108857142Y-95362914D02*
X108904761Y-95553390D01*
X108904761Y-95553390D02*
X108904761Y-95934342D01*
X108904761Y-95934342D02*
X108857142Y-96029580D01*
X108857142Y-96029580D02*
X108809523Y-96077200D01*
X108809523Y-96077200D02*
X108714285Y-96124819D01*
X108714285Y-96124819D02*
X108523809Y-96124819D01*
X108523809Y-96124819D02*
X108428571Y-96077200D01*
X108428571Y-96077200D02*
X108380952Y-96029580D01*
X108380952Y-96029580D02*
X108333333Y-95934342D01*
X108333333Y-95934342D02*
X108333333Y-95696247D01*
X108333333Y-95696247D02*
X108380952Y-95601009D01*
X108380952Y-95601009D02*
X108428571Y-95553390D01*
X108428571Y-95553390D02*
X108523809Y-95505771D01*
X108523809Y-95505771D02*
X108714285Y-95505771D01*
X108714285Y-95505771D02*
X108809523Y-95553390D01*
X108809523Y-95553390D02*
X108857142Y-95601009D01*
X108857142Y-95601009D02*
X108904761Y-95696247D01*
X83690476Y-111068990D02*
X83833333Y-111021371D01*
X83833333Y-111021371D02*
X83880952Y-110973752D01*
X83880952Y-110973752D02*
X83928571Y-110878514D01*
X83928571Y-110878514D02*
X83928571Y-110735657D01*
X83928571Y-110735657D02*
X83880952Y-110640419D01*
X83880952Y-110640419D02*
X83833333Y-110592800D01*
X83833333Y-110592800D02*
X83738095Y-110545180D01*
X83738095Y-110545180D02*
X83357143Y-110545180D01*
X83357143Y-110545180D02*
X83357143Y-111545180D01*
X83357143Y-111545180D02*
X83690476Y-111545180D01*
X83690476Y-111545180D02*
X83785714Y-111497561D01*
X83785714Y-111497561D02*
X83833333Y-111449942D01*
X83833333Y-111449942D02*
X83880952Y-111354704D01*
X83880952Y-111354704D02*
X83880952Y-111259466D01*
X83880952Y-111259466D02*
X83833333Y-111164228D01*
X83833333Y-111164228D02*
X83785714Y-111116609D01*
X83785714Y-111116609D02*
X83690476Y-111068990D01*
X83690476Y-111068990D02*
X83357143Y-111068990D01*
X84214286Y-111545180D02*
X84785714Y-111545180D01*
X84500000Y-110545180D02*
X84500000Y-111545180D01*
X85119048Y-110545180D02*
X85119048Y-111545180D01*
X85119048Y-111545180D02*
X85690476Y-110545180D01*
X85690476Y-110545180D02*
X85690476Y-111545180D01*
X86690476Y-110545180D02*
X86119048Y-110545180D01*
X86404762Y-110545180D02*
X86404762Y-111545180D01*
X86404762Y-111545180D02*
X86309524Y-111402323D01*
X86309524Y-111402323D02*
X86214286Y-111307085D01*
X86214286Y-111307085D02*
X86119048Y-111259466D01*
X70150238Y-51739819D02*
X70483571Y-51263628D01*
X70721666Y-51739819D02*
X70721666Y-50739819D01*
X70721666Y-50739819D02*
X70340714Y-50739819D01*
X70340714Y-50739819D02*
X70245476Y-50787438D01*
X70245476Y-50787438D02*
X70197857Y-50835057D01*
X70197857Y-50835057D02*
X70150238Y-50930295D01*
X70150238Y-50930295D02*
X70150238Y-51073152D01*
X70150238Y-51073152D02*
X70197857Y-51168390D01*
X70197857Y-51168390D02*
X70245476Y-51216009D01*
X70245476Y-51216009D02*
X70340714Y-51263628D01*
X70340714Y-51263628D02*
X70721666Y-51263628D01*
X69864523Y-50739819D02*
X69531190Y-51739819D01*
X69531190Y-51739819D02*
X69197857Y-50739819D01*
X68435952Y-51073152D02*
X68435952Y-51739819D01*
X68674047Y-50692200D02*
X68912142Y-51406485D01*
X68912142Y-51406485D02*
X68293095Y-51406485D01*
X92150238Y-51739819D02*
X92483571Y-51263628D01*
X92721666Y-51739819D02*
X92721666Y-50739819D01*
X92721666Y-50739819D02*
X92340714Y-50739819D01*
X92340714Y-50739819D02*
X92245476Y-50787438D01*
X92245476Y-50787438D02*
X92197857Y-50835057D01*
X92197857Y-50835057D02*
X92150238Y-50930295D01*
X92150238Y-50930295D02*
X92150238Y-51073152D01*
X92150238Y-51073152D02*
X92197857Y-51168390D01*
X92197857Y-51168390D02*
X92245476Y-51216009D01*
X92245476Y-51216009D02*
X92340714Y-51263628D01*
X92340714Y-51263628D02*
X92721666Y-51263628D01*
X91864523Y-50739819D02*
X91531190Y-51739819D01*
X91531190Y-51739819D02*
X91197857Y-50739819D01*
X90912142Y-50835057D02*
X90864523Y-50787438D01*
X90864523Y-50787438D02*
X90769285Y-50739819D01*
X90769285Y-50739819D02*
X90531190Y-50739819D01*
X90531190Y-50739819D02*
X90435952Y-50787438D01*
X90435952Y-50787438D02*
X90388333Y-50835057D01*
X90388333Y-50835057D02*
X90340714Y-50930295D01*
X90340714Y-50930295D02*
X90340714Y-51025533D01*
X90340714Y-51025533D02*
X90388333Y-51168390D01*
X90388333Y-51168390D02*
X90959761Y-51739819D01*
X90959761Y-51739819D02*
X90340714Y-51739819D01*
X70150238Y-76739819D02*
X70483571Y-76263628D01*
X70721666Y-76739819D02*
X70721666Y-75739819D01*
X70721666Y-75739819D02*
X70340714Y-75739819D01*
X70340714Y-75739819D02*
X70245476Y-75787438D01*
X70245476Y-75787438D02*
X70197857Y-75835057D01*
X70197857Y-75835057D02*
X70150238Y-75930295D01*
X70150238Y-75930295D02*
X70150238Y-76073152D01*
X70150238Y-76073152D02*
X70197857Y-76168390D01*
X70197857Y-76168390D02*
X70245476Y-76216009D01*
X70245476Y-76216009D02*
X70340714Y-76263628D01*
X70340714Y-76263628D02*
X70721666Y-76263628D01*
X69864523Y-75739819D02*
X69531190Y-76739819D01*
X69531190Y-76739819D02*
X69197857Y-75739819D01*
X68340714Y-76739819D02*
X68912142Y-76739819D01*
X68626428Y-76739819D02*
X68626428Y-75739819D01*
X68626428Y-75739819D02*
X68721666Y-75882676D01*
X68721666Y-75882676D02*
X68816904Y-75977914D01*
X68816904Y-75977914D02*
X68912142Y-76025533D01*
X143333333Y-95124819D02*
X143333333Y-95839104D01*
X143333333Y-95839104D02*
X143380952Y-95981961D01*
X143380952Y-95981961D02*
X143476190Y-96077200D01*
X143476190Y-96077200D02*
X143619047Y-96124819D01*
X143619047Y-96124819D02*
X143714285Y-96124819D01*
X142714285Y-95553390D02*
X142809523Y-95505771D01*
X142809523Y-95505771D02*
X142857142Y-95458152D01*
X142857142Y-95458152D02*
X142904761Y-95362914D01*
X142904761Y-95362914D02*
X142904761Y-95315295D01*
X142904761Y-95315295D02*
X142857142Y-95220057D01*
X142857142Y-95220057D02*
X142809523Y-95172438D01*
X142809523Y-95172438D02*
X142714285Y-95124819D01*
X142714285Y-95124819D02*
X142523809Y-95124819D01*
X142523809Y-95124819D02*
X142428571Y-95172438D01*
X142428571Y-95172438D02*
X142380952Y-95220057D01*
X142380952Y-95220057D02*
X142333333Y-95315295D01*
X142333333Y-95315295D02*
X142333333Y-95362914D01*
X142333333Y-95362914D02*
X142380952Y-95458152D01*
X142380952Y-95458152D02*
X142428571Y-95505771D01*
X142428571Y-95505771D02*
X142523809Y-95553390D01*
X142523809Y-95553390D02*
X142714285Y-95553390D01*
X142714285Y-95553390D02*
X142809523Y-95601009D01*
X142809523Y-95601009D02*
X142857142Y-95648628D01*
X142857142Y-95648628D02*
X142904761Y-95743866D01*
X142904761Y-95743866D02*
X142904761Y-95934342D01*
X142904761Y-95934342D02*
X142857142Y-96029580D01*
X142857142Y-96029580D02*
X142809523Y-96077200D01*
X142809523Y-96077200D02*
X142714285Y-96124819D01*
X142714285Y-96124819D02*
X142523809Y-96124819D01*
X142523809Y-96124819D02*
X142428571Y-96077200D01*
X142428571Y-96077200D02*
X142380952Y-96029580D01*
X142380952Y-96029580D02*
X142333333Y-95934342D01*
X142333333Y-95934342D02*
X142333333Y-95743866D01*
X142333333Y-95743866D02*
X142380952Y-95648628D01*
X142380952Y-95648628D02*
X142428571Y-95601009D01*
X142428571Y-95601009D02*
X142523809Y-95553390D01*
X88654819Y-132166666D02*
X89369104Y-132166666D01*
X89369104Y-132166666D02*
X89511961Y-132119047D01*
X89511961Y-132119047D02*
X89607200Y-132023809D01*
X89607200Y-132023809D02*
X89654819Y-131880952D01*
X89654819Y-131880952D02*
X89654819Y-131785714D01*
X88988152Y-133071428D02*
X89654819Y-133071428D01*
X88607200Y-132833333D02*
X89321485Y-132595238D01*
X89321485Y-132595238D02*
X89321485Y-133214285D01*
X80254819Y-137166666D02*
X80969104Y-137166666D01*
X80969104Y-137166666D02*
X81111961Y-137119047D01*
X81111961Y-137119047D02*
X81207200Y-137023809D01*
X81207200Y-137023809D02*
X81254819Y-136880952D01*
X81254819Y-136880952D02*
X81254819Y-136785714D01*
X81254819Y-138166666D02*
X81254819Y-137595238D01*
X81254819Y-137880952D02*
X80254819Y-137880952D01*
X80254819Y-137880952D02*
X80397676Y-137785714D01*
X80397676Y-137785714D02*
X80492914Y-137690476D01*
X80492914Y-137690476D02*
X80540533Y-137595238D01*
D11*
%TO.C,J3*%
X90000000Y-146500000D02*
X100500000Y-146500000D01*
X90000000Y-149400000D02*
X90000000Y-146500000D01*
X90000000Y-155500000D02*
X90000000Y-152600000D01*
X90000000Y-155500000D02*
X100500000Y-155500000D01*
X100500000Y-149500000D02*
X100500000Y-146500000D01*
X100500000Y-155500000D02*
X100500000Y-152500000D01*
D12*
X98539999Y-152397000D02*
G75*
G02*
X98539999Y-149603000I-2539999J1397000D01*
G01*
X97800000Y-151000000D02*
G75*
G02*
X94200000Y-151000000I-1800000J0D01*
G01*
X94200000Y-151000000D02*
G75*
G02*
X97800000Y-151000000I1800000J0D01*
G01*
%TO.C,SW1*%
X79031000Y-93269000D02*
X79031000Y-106731000D01*
X79158000Y-106604000D02*
X90842000Y-106604000D01*
X85000000Y-99365000D02*
X85000000Y-100635000D01*
X85635000Y-100000000D02*
X84365000Y-100000000D01*
X90842000Y-106604000D02*
X90842000Y-93396000D01*
X90969000Y-93269000D02*
X79031000Y-93269000D01*
X85635000Y-100000000D02*
G75*
G02*
X84365000Y-100000000I-635000J0D01*
G01*
X84365000Y-100000000D02*
G75*
G02*
X85635000Y-100000000I635000J0D01*
G01*
%TO.C,RV3*%
X91130000Y-77030000D02*
X91130000Y-80090000D01*
X91130000Y-83900000D02*
X91130000Y-88620000D01*
X92620000Y-88620000D02*
X91130000Y-88620000D01*
X95170000Y-88620000D02*
X94340000Y-88620000D01*
X95500000Y-82000000D02*
X96500000Y-82000000D01*
X96000000Y-82500000D02*
X96000000Y-81500000D01*
X97320000Y-88620000D02*
X96790000Y-88620000D01*
X100870000Y-77030000D02*
X91130000Y-77030000D01*
X100870000Y-77030000D02*
X100870000Y-80090000D01*
X100870000Y-88620000D02*
X99690000Y-88620000D01*
X100880000Y-83900000D02*
X100880000Y-88620000D01*
D11*
%TO.C,J5*%
X69500000Y-146500000D02*
X69500000Y-149500000D01*
X69500000Y-152500000D02*
X69500000Y-155500000D01*
X80000000Y-146500000D02*
X69500000Y-146500000D01*
X80000000Y-146500000D02*
X80000000Y-149400000D01*
X80000000Y-152600000D02*
X80000000Y-155500000D01*
X80000000Y-155500000D02*
X69500000Y-155500000D01*
D12*
X71460001Y-149603000D02*
G75*
G02*
X71460001Y-152397000I2539999J-1397000D01*
G01*
X75800000Y-151000000D02*
G75*
G02*
X72200000Y-151000000I-1800000J0D01*
G01*
X72200000Y-151000000D02*
G75*
G02*
X75800000Y-151000000I1800000J0D01*
G01*
%TO.C,J6*%
X107670000Y-99270000D02*
X110330000Y-99270000D01*
X107670000Y-122190000D02*
X107670000Y-99270000D01*
X107670000Y-122190000D02*
X110330000Y-122190000D01*
X109000000Y-96670000D02*
X110330000Y-96670000D01*
X110330000Y-96670000D02*
X110330000Y-98000000D01*
X110330000Y-122190000D02*
X110330000Y-99270000D01*
%TO.C,BTN1*%
X90400000Y-122600000D02*
X90400000Y-117400000D01*
X90400000Y-122600000D02*
G75*
G02*
X90400000Y-117400000I-5405413J2600000D01*
G01*
X89500000Y-120000000D02*
G75*
G02*
X80500000Y-120000000I-4500000J0D01*
G01*
X80500000Y-120000000D02*
G75*
G02*
X89500000Y-120000000I4500000J0D01*
G01*
%TO.C,RV4*%
X69130000Y-52030000D02*
X69130000Y-55090000D01*
X69130000Y-58900000D02*
X69130000Y-63620000D01*
X70620000Y-63620000D02*
X69130000Y-63620000D01*
X73170000Y-63620000D02*
X72340000Y-63620000D01*
X73500000Y-57000000D02*
X74500000Y-57000000D01*
X74000000Y-57500000D02*
X74000000Y-56500000D01*
X75320000Y-63620000D02*
X74790000Y-63620000D01*
X78870000Y-52030000D02*
X69130000Y-52030000D01*
X78870000Y-52030000D02*
X78870000Y-55090000D01*
X78870000Y-63620000D02*
X77690000Y-63620000D01*
X78880000Y-58900000D02*
X78880000Y-63620000D01*
%TO.C,RV2*%
X91130000Y-52030000D02*
X91130000Y-55090000D01*
X91130000Y-58900000D02*
X91130000Y-63620000D01*
X92620000Y-63620000D02*
X91130000Y-63620000D01*
X95170000Y-63620000D02*
X94340000Y-63620000D01*
X95500000Y-57000000D02*
X96500000Y-57000000D01*
X96000000Y-57500000D02*
X96000000Y-56500000D01*
X97320000Y-63620000D02*
X96790000Y-63620000D01*
X100870000Y-52030000D02*
X91130000Y-52030000D01*
X100870000Y-52030000D02*
X100870000Y-55090000D01*
X100870000Y-63620000D02*
X99690000Y-63620000D01*
X100880000Y-58900000D02*
X100880000Y-63620000D01*
%TO.C,RV1*%
X69130000Y-77030000D02*
X69130000Y-80090000D01*
X69130000Y-83900000D02*
X69130000Y-88620000D01*
X70620000Y-88620000D02*
X69130000Y-88620000D01*
X73170000Y-88620000D02*
X72340000Y-88620000D01*
X73500000Y-82000000D02*
X74500000Y-82000000D01*
X74000000Y-82500000D02*
X74000000Y-81500000D01*
X75320000Y-88620000D02*
X74790000Y-88620000D01*
X78870000Y-77030000D02*
X69130000Y-77030000D01*
X78870000Y-77030000D02*
X78870000Y-80090000D01*
X78870000Y-88620000D02*
X77690000Y-88620000D01*
X78880000Y-83900000D02*
X78880000Y-88620000D01*
%TO.C,J8*%
X141670000Y-99270000D02*
X144330000Y-99270000D01*
X141670000Y-122190000D02*
X141670000Y-99270000D01*
X141670000Y-122190000D02*
X144330000Y-122190000D01*
X143000000Y-96670000D02*
X144330000Y-96670000D01*
X144330000Y-96670000D02*
X144330000Y-98000000D01*
X144330000Y-122190000D02*
X144330000Y-99270000D01*
D11*
%TO.C,J4*%
X90000000Y-130500000D02*
X100500000Y-130500000D01*
X90000000Y-133400000D02*
X90000000Y-130500000D01*
X90000000Y-139500000D02*
X90000000Y-136600000D01*
X90000000Y-139500000D02*
X100500000Y-139500000D01*
X100500000Y-133500000D02*
X100500000Y-130500000D01*
X100500000Y-139500000D02*
X100500000Y-136500000D01*
D12*
X98539999Y-136397000D02*
G75*
G02*
X98539999Y-133603000I-2539999J1397000D01*
G01*
X97800000Y-135000000D02*
G75*
G02*
X94200000Y-135000000I-1800000J0D01*
G01*
X94200000Y-135000000D02*
G75*
G02*
X97800000Y-135000000I1800000J0D01*
G01*
D11*
%TO.C,J1*%
X69500000Y-130500000D02*
X69500000Y-133500000D01*
X69500000Y-136500000D02*
X69500000Y-139500000D01*
X80000000Y-130500000D02*
X69500000Y-130500000D01*
X80000000Y-130500000D02*
X80000000Y-133400000D01*
X80000000Y-136600000D02*
X80000000Y-139500000D01*
X80000000Y-139500000D02*
X69500000Y-139500000D01*
D12*
X71460001Y-133603000D02*
G75*
G02*
X71460001Y-136397000I2539999J-1397000D01*
G01*
X75800000Y-135000000D02*
G75*
G02*
X72200000Y-135000000I-1800000J0D01*
G01*
X72200000Y-135000000D02*
G75*
G02*
X75800000Y-135000000I1800000J0D01*
G01*
%TD*%
M02*
