%TF.GenerationSoftware,KiCad,Pcbnew,8.0.3*%
%TF.CreationDate,2024-07-07T15:42:06+01:00*%
%TF.ProjectId,555-adsr,3535352d-6164-4737-922e-6b696361645f,rev01*%
%TF.SameCoordinates,Original*%
%TF.FileFunction,Soldermask,Bot*%
%TF.FilePolarity,Negative*%
%FSLAX46Y46*%
G04 Gerber Fmt 4.6, Leading zero omitted, Abs format (unit mm)*
G04 Created by KiCad (PCBNEW 8.0.3) date 2024-07-07 15:42:06*
%MOMM*%
%LPD*%
G01*
G04 APERTURE LIST*
G04 Aperture macros list*
%AMRoundRect*
0 Rectangle with rounded corners*
0 $1 Rounding radius*
0 $2 $3 $4 $5 $6 $7 $8 $9 X,Y pos of 4 corners*
0 Add a 4 corners polygon primitive as box body*
4,1,4,$2,$3,$4,$5,$6,$7,$8,$9,$2,$3,0*
0 Add four circle primitives for the rounded corners*
1,1,$1+$1,$2,$3*
1,1,$1+$1,$4,$5*
1,1,$1+$1,$6,$7*
1,1,$1+$1,$8,$9*
0 Add four rect primitives between the rounded corners*
20,1,$1+$1,$2,$3,$4,$5,0*
20,1,$1+$1,$4,$5,$6,$7,0*
20,1,$1+$1,$6,$7,$8,$9,0*
20,1,$1+$1,$8,$9,$2,$3,0*%
G04 Aperture macros list end*
%ADD10R,1.600000X1.600000*%
%ADD11O,1.600000X1.600000*%
%ADD12C,1.600000*%
%ADD13R,1.700000X1.700000*%
%ADD14O,1.700000X1.700000*%
%ADD15C,0.500000*%
%ADD16R,2.200000X2.200000*%
%ADD17O,2.200000X2.200000*%
%ADD18C,5.600000*%
%ADD19RoundRect,0.250000X-0.600000X0.600000X-0.600000X-0.600000X0.600000X-0.600000X0.600000X0.600000X0*%
%ADD20C,1.700000*%
%ADD21R,1.500000X1.500000*%
%ADD22C,1.500000*%
%ADD23O,2.300000X3.100000*%
%ADD24RoundRect,0.650000X-0.650000X0.650000X-0.650000X-0.650000X0.650000X-0.650000X0.650000X0.650000X0*%
%ADD25R,3.048000X3.048000*%
%ADD26C,3.048000*%
%ADD27O,2.200000X2.900000*%
%ADD28R,1.800000X1.800000*%
%ADD29C,1.800000*%
%ADD30RoundRect,0.650000X0.650000X-0.650000X0.650000X0.650000X-0.650000X0.650000X-0.650000X-0.650000X0*%
%ADD31C,1.524000*%
G04 APERTURE END LIST*
D10*
%TO.C,D7*%
X130556000Y-108204000D03*
D11*
X138176000Y-108204000D03*
%TD*%
D12*
%TO.C,C8*%
X131699000Y-78359000D03*
X126699000Y-78359000D03*
%TD*%
D10*
%TO.C,C1*%
X114360888Y-72263000D03*
D12*
X116360888Y-72263000D03*
%TD*%
D13*
%TO.C,J7*%
X68000000Y-98000000D03*
D14*
X68000000Y-100540000D03*
X68000000Y-103080000D03*
X68000000Y-105620000D03*
X68000000Y-108160000D03*
X68000000Y-110700000D03*
X68000000Y-113240000D03*
X68000000Y-115780000D03*
X68000000Y-118320000D03*
X68000000Y-120860000D03*
%TD*%
D15*
%TO.C,mouse-bite-2mm-slot*%
X104750000Y-141250000D03*
X106250000Y-141250000D03*
X104750000Y-140500000D03*
X106250000Y-140500000D03*
X104750000Y-139750000D03*
X106250000Y-139750000D03*
%TD*%
D16*
%TO.C,D2*%
X113284000Y-66421000D03*
D17*
X113284000Y-56261000D03*
%TD*%
D18*
%TO.C,H3*%
X126000000Y-143500000D03*
%TD*%
D10*
%TO.C,C3*%
X138236888Y-72263000D03*
D12*
X140236888Y-72263000D03*
%TD*%
%TO.C,R5*%
X82550000Y-75438000D03*
D11*
X82550000Y-85598000D03*
%TD*%
D13*
%TO.C,J9*%
X102000000Y-98000000D03*
D14*
X102000000Y-100540000D03*
X102000000Y-103080000D03*
X102000000Y-105620000D03*
X102000000Y-108160000D03*
X102000000Y-110700000D03*
X102000000Y-113240000D03*
X102000000Y-115780000D03*
X102000000Y-118320000D03*
X102000000Y-120860000D03*
%TD*%
D15*
%TO.C,mouse-bite-2mm-slot*%
X104750000Y-111250000D03*
X106250000Y-111250000D03*
X104750000Y-110500000D03*
X106250000Y-110500000D03*
X104750000Y-109750000D03*
X106250000Y-109750000D03*
%TD*%
D12*
%TO.C,C7*%
X120650000Y-84535000D03*
X120650000Y-89535000D03*
%TD*%
D18*
%TO.C,H2*%
X126000000Y-69250000D03*
%TD*%
D10*
%TO.C,D1*%
X117475000Y-140970000D03*
D11*
X117475000Y-133350000D03*
%TD*%
D10*
%TO.C,U1*%
X121539000Y-115697000D03*
D11*
X121539000Y-118237000D03*
X121539000Y-120777000D03*
X121539000Y-123317000D03*
X129159000Y-123317000D03*
X129159000Y-120777000D03*
X129159000Y-118237000D03*
X129159000Y-115697000D03*
%TD*%
D18*
%TO.C,H1*%
X85000000Y-69250000D03*
%TD*%
D12*
%TO.C,R11*%
X124206000Y-108966000D03*
D11*
X114046000Y-108966000D03*
%TD*%
D19*
%TO.C,J2*%
X131191000Y-58420000D03*
D20*
X131191000Y-60960000D03*
X128651000Y-58420000D03*
X128651000Y-60960000D03*
X126111000Y-58420000D03*
X126111000Y-60960000D03*
X123571000Y-58420000D03*
X123571000Y-60960000D03*
X121031000Y-58420000D03*
X121031000Y-60960000D03*
%TD*%
D21*
%TO.C,Q4*%
X137795000Y-118237000D03*
D22*
X135255000Y-118237000D03*
X132715000Y-118237000D03*
%TD*%
D12*
%TO.C,C4*%
X118411000Y-123317000D03*
X113411000Y-123317000D03*
%TD*%
D10*
%TO.C,U2*%
X131699000Y-89535000D03*
D11*
X131699000Y-86995000D03*
X131699000Y-84455000D03*
X131699000Y-81915000D03*
X124079000Y-81915000D03*
X124079000Y-84455000D03*
X124079000Y-86995000D03*
X124079000Y-89535000D03*
%TD*%
D12*
%TO.C,R2*%
X136779000Y-136398000D03*
D11*
X136779000Y-126238000D03*
%TD*%
D21*
%TO.C,Q1*%
X121158000Y-133096000D03*
D22*
X121158000Y-135636000D03*
X121158000Y-138176000D03*
%TD*%
D12*
%TO.C,R15*%
X108585000Y-140970000D03*
D11*
X108585000Y-130810000D03*
%TD*%
D10*
%TO.C,D5*%
X139573000Y-133858000D03*
D11*
X139573000Y-126238000D03*
%TD*%
D12*
%TO.C,R6*%
X114046000Y-112014000D03*
D11*
X124206000Y-112014000D03*
%TD*%
D12*
%TO.C,R14*%
X118364000Y-143764000D03*
D11*
X108204000Y-143764000D03*
%TD*%
D10*
%TO.C,D6*%
X129413000Y-102616000D03*
D11*
X137033000Y-102616000D03*
%TD*%
D12*
%TO.C,R12*%
X114046000Y-102870000D03*
D11*
X124206000Y-102870000D03*
%TD*%
D12*
%TO.C,C5*%
X137715000Y-123317000D03*
X132715000Y-123317000D03*
%TD*%
D15*
%TO.C,mouse-bite-2mm-slot*%
X104750000Y-96250000D03*
X106250000Y-96250000D03*
X104750000Y-95500000D03*
X106250000Y-95500000D03*
X104750000Y-94750000D03*
X106250000Y-94750000D03*
%TD*%
D16*
%TO.C,D3*%
X141478000Y-56261000D03*
D17*
X141478000Y-66421000D03*
%TD*%
D12*
%TO.C,R13*%
X111633000Y-140970000D03*
D11*
X111633000Y-130810000D03*
%TD*%
D12*
%TO.C,R8*%
X85598000Y-75438000D03*
D11*
X85598000Y-85598000D03*
%TD*%
D21*
%TO.C,Q2*%
X125984000Y-133096000D03*
D22*
X125984000Y-135636000D03*
X125984000Y-138176000D03*
%TD*%
D15*
%TO.C,mouse-bite-2mm-slot*%
X104750000Y-126250000D03*
X106250000Y-126250000D03*
X104750000Y-125500000D03*
X106250000Y-125500000D03*
X104750000Y-124750000D03*
X106250000Y-124750000D03*
%TD*%
D12*
%TO.C,R10*%
X138176000Y-99822000D03*
D11*
X128016000Y-99822000D03*
%TD*%
D21*
%TO.C,Q5*%
X119634000Y-98679000D03*
D22*
X122174000Y-98679000D03*
X124714000Y-98679000D03*
%TD*%
D12*
%TO.C,R1*%
X114681000Y-130810000D03*
D11*
X114681000Y-140970000D03*
%TD*%
D15*
%TO.C,mouse-bite-2mm-slot*%
X104750000Y-81250000D03*
X106250000Y-81250000D03*
X104750000Y-80500000D03*
X106250000Y-80500000D03*
X104750000Y-79750000D03*
X106250000Y-79750000D03*
%TD*%
D12*
%TO.C,R17*%
X93550000Y-114390000D03*
D11*
X93550000Y-124550000D03*
%TD*%
D15*
%TO.C,mouse-bite-2mm-slot*%
X104750000Y-66250000D03*
X106250000Y-66250000D03*
X104750000Y-65500000D03*
X106250000Y-65500000D03*
X104750000Y-64750000D03*
X106250000Y-64750000D03*
%TD*%
D12*
%TO.C,R4*%
X123571000Y-126746000D03*
D11*
X113411000Y-126746000D03*
%TD*%
D21*
%TO.C,Q3*%
X116586000Y-114935000D03*
D22*
X116586000Y-117475000D03*
X116586000Y-120015000D03*
%TD*%
D12*
%TO.C,R16*%
X133731000Y-126238000D03*
D11*
X133731000Y-136398000D03*
%TD*%
D18*
%TO.C,H4*%
X85000000Y-143500000D03*
%TD*%
D10*
%TO.C,C9*%
X109982000Y-90551000D03*
D12*
X109982000Y-88551000D03*
%TD*%
D10*
%TO.C,C2*%
X115824000Y-95504000D03*
D12*
X115824000Y-93504000D03*
%TD*%
%TO.C,R18*%
X114046000Y-105918000D03*
D11*
X124206000Y-105918000D03*
%TD*%
D12*
%TO.C,C6*%
X133016000Y-112014000D03*
X128016000Y-112014000D03*
%TD*%
%TO.C,R7*%
X128016000Y-96774000D03*
D11*
X138176000Y-96774000D03*
%TD*%
D12*
%TO.C,R3*%
X130683000Y-136398000D03*
D11*
X130683000Y-126238000D03*
%TD*%
D12*
%TO.C,R9*%
X138176000Y-105410000D03*
D11*
X128016000Y-105410000D03*
%TD*%
D23*
%TO.C,J3*%
X102480000Y-151000000D03*
D24*
X91080000Y-151000000D03*
X99380000Y-151000000D03*
%TD*%
D25*
%TO.C,SW1*%
X87413000Y-104699000D03*
D26*
X87413000Y-100000000D03*
X87413000Y-95301000D03*
X82587000Y-104699000D03*
X82587000Y-100000000D03*
X82587000Y-95301000D03*
%TD*%
D27*
%TO.C,RV3*%
X100800000Y-82000000D03*
X91200000Y-82000000D03*
D28*
X98500000Y-89500000D03*
D29*
X96000000Y-89500000D03*
X93500000Y-89500000D03*
%TD*%
D23*
%TO.C,J5*%
X67520000Y-151000000D03*
D30*
X78920000Y-151000000D03*
X70620000Y-151000000D03*
%TD*%
D13*
%TO.C,J6*%
X109000000Y-98000000D03*
D14*
X109000000Y-100540000D03*
X109000000Y-103080000D03*
X109000000Y-105620000D03*
X109000000Y-108160000D03*
X109000000Y-110700000D03*
X109000000Y-113240000D03*
X109000000Y-115780000D03*
X109000000Y-118320000D03*
X109000000Y-120860000D03*
%TD*%
D31*
%TO.C,BTN1*%
X82500000Y-122500000D03*
X87500000Y-122500000D03*
X82500000Y-117500000D03*
X87500000Y-117500000D03*
X81900000Y-120000000D03*
X88100000Y-120000000D03*
%TD*%
D27*
%TO.C,RV4*%
X78800000Y-57000000D03*
X69200000Y-57000000D03*
D28*
X76500000Y-64500000D03*
D29*
X74000000Y-64500000D03*
X71500000Y-64500000D03*
%TD*%
D27*
%TO.C,RV2*%
X100800000Y-57000000D03*
X91200000Y-57000000D03*
D28*
X98500000Y-64500000D03*
D29*
X96000000Y-64500000D03*
X93500000Y-64500000D03*
%TD*%
D27*
%TO.C,RV1*%
X78800000Y-82000000D03*
X69200000Y-82000000D03*
D28*
X76500000Y-89500000D03*
D29*
X74000000Y-89500000D03*
X71500000Y-89500000D03*
%TD*%
D13*
%TO.C,J8*%
X143000000Y-98000000D03*
D14*
X143000000Y-100540000D03*
X143000000Y-103080000D03*
X143000000Y-105620000D03*
X143000000Y-108160000D03*
X143000000Y-110700000D03*
X143000000Y-113240000D03*
X143000000Y-115780000D03*
X143000000Y-118320000D03*
X143000000Y-120860000D03*
%TD*%
D23*
%TO.C,J4*%
X102480000Y-135000000D03*
D24*
X91080000Y-135000000D03*
X99380000Y-135000000D03*
%TD*%
D23*
%TO.C,J1*%
X67520000Y-135000000D03*
D30*
X78920000Y-135000000D03*
X70620000Y-135000000D03*
%TD*%
M02*
