%TF.GenerationSoftware,KiCad,Pcbnew,8.0.3*%
%TF.CreationDate,2024-07-07T15:42:06+01:00*%
%TF.ProjectId,555-adsr,3535352d-6164-4737-922e-6b696361645f,rev01*%
%TF.SameCoordinates,Original*%
%TF.FileFunction,Legend,Top*%
%TF.FilePolarity,Positive*%
%FSLAX46Y46*%
G04 Gerber Fmt 4.6, Leading zero omitted, Abs format (unit mm)*
G04 Created by KiCad (PCBNEW 8.0.3) date 2024-07-07 15:42:06*
%MOMM*%
%LPD*%
G01*
G04 APERTURE LIST*
%ADD10C,0.150000*%
%ADD11C,0.120000*%
%ADD12C,1.000000*%
G04 APERTURE END LIST*
D10*
X117002112Y-149542121D02*
X117144969Y-149589740D01*
X117144969Y-149589740D02*
X117192588Y-149637359D01*
X117192588Y-149637359D02*
X117240207Y-149732597D01*
X117240207Y-149732597D02*
X117240207Y-149875454D01*
X117240207Y-149875454D02*
X117192588Y-149970692D01*
X117192588Y-149970692D02*
X117144969Y-150018312D01*
X117144969Y-150018312D02*
X117049731Y-150065931D01*
X117049731Y-150065931D02*
X116668779Y-150065931D01*
X116668779Y-150065931D02*
X116668779Y-149065931D01*
X116668779Y-149065931D02*
X117002112Y-149065931D01*
X117002112Y-149065931D02*
X117097350Y-149113550D01*
X117097350Y-149113550D02*
X117144969Y-149161169D01*
X117144969Y-149161169D02*
X117192588Y-149256407D01*
X117192588Y-149256407D02*
X117192588Y-149351645D01*
X117192588Y-149351645D02*
X117144969Y-149446883D01*
X117144969Y-149446883D02*
X117097350Y-149494502D01*
X117097350Y-149494502D02*
X117002112Y-149542121D01*
X117002112Y-149542121D02*
X116668779Y-149542121D01*
X117668779Y-150065931D02*
X117668779Y-149399264D01*
X117668779Y-149589740D02*
X117716398Y-149494502D01*
X117716398Y-149494502D02*
X117764017Y-149446883D01*
X117764017Y-149446883D02*
X117859255Y-149399264D01*
X117859255Y-149399264D02*
X117954493Y-149399264D01*
X118287827Y-150065931D02*
X118287827Y-149399264D01*
X118287827Y-149065931D02*
X118240208Y-149113550D01*
X118240208Y-149113550D02*
X118287827Y-149161169D01*
X118287827Y-149161169D02*
X118335446Y-149113550D01*
X118335446Y-149113550D02*
X118287827Y-149065931D01*
X118287827Y-149065931D02*
X118287827Y-149161169D01*
X118716398Y-150018312D02*
X118811636Y-150065931D01*
X118811636Y-150065931D02*
X119002112Y-150065931D01*
X119002112Y-150065931D02*
X119097350Y-150018312D01*
X119097350Y-150018312D02*
X119144969Y-149923073D01*
X119144969Y-149923073D02*
X119144969Y-149875454D01*
X119144969Y-149875454D02*
X119097350Y-149780216D01*
X119097350Y-149780216D02*
X119002112Y-149732597D01*
X119002112Y-149732597D02*
X118859255Y-149732597D01*
X118859255Y-149732597D02*
X118764017Y-149684978D01*
X118764017Y-149684978D02*
X118716398Y-149589740D01*
X118716398Y-149589740D02*
X118716398Y-149542121D01*
X118716398Y-149542121D02*
X118764017Y-149446883D01*
X118764017Y-149446883D02*
X118859255Y-149399264D01*
X118859255Y-149399264D02*
X119002112Y-149399264D01*
X119002112Y-149399264D02*
X119097350Y-149446883D01*
X119430684Y-149399264D02*
X119811636Y-149399264D01*
X119573541Y-149065931D02*
X119573541Y-149923073D01*
X119573541Y-149923073D02*
X119621160Y-150018312D01*
X119621160Y-150018312D02*
X119716398Y-150065931D01*
X119716398Y-150065931D02*
X119811636Y-150065931D01*
X120287827Y-150065931D02*
X120192589Y-150018312D01*
X120192589Y-150018312D02*
X120144970Y-149970692D01*
X120144970Y-149970692D02*
X120097351Y-149875454D01*
X120097351Y-149875454D02*
X120097351Y-149589740D01*
X120097351Y-149589740D02*
X120144970Y-149494502D01*
X120144970Y-149494502D02*
X120192589Y-149446883D01*
X120192589Y-149446883D02*
X120287827Y-149399264D01*
X120287827Y-149399264D02*
X120430684Y-149399264D01*
X120430684Y-149399264D02*
X120525922Y-149446883D01*
X120525922Y-149446883D02*
X120573541Y-149494502D01*
X120573541Y-149494502D02*
X120621160Y-149589740D01*
X120621160Y-149589740D02*
X120621160Y-149875454D01*
X120621160Y-149875454D02*
X120573541Y-149970692D01*
X120573541Y-149970692D02*
X120525922Y-150018312D01*
X120525922Y-150018312D02*
X120430684Y-150065931D01*
X120430684Y-150065931D02*
X120287827Y-150065931D01*
X121192589Y-150065931D02*
X121097351Y-150018312D01*
X121097351Y-150018312D02*
X121049732Y-149923073D01*
X121049732Y-149923073D02*
X121049732Y-149065931D01*
X122906875Y-149970692D02*
X122859256Y-150018312D01*
X122859256Y-150018312D02*
X122716399Y-150065931D01*
X122716399Y-150065931D02*
X122621161Y-150065931D01*
X122621161Y-150065931D02*
X122478304Y-150018312D01*
X122478304Y-150018312D02*
X122383066Y-149923073D01*
X122383066Y-149923073D02*
X122335447Y-149827835D01*
X122335447Y-149827835D02*
X122287828Y-149637359D01*
X122287828Y-149637359D02*
X122287828Y-149494502D01*
X122287828Y-149494502D02*
X122335447Y-149304026D01*
X122335447Y-149304026D02*
X122383066Y-149208788D01*
X122383066Y-149208788D02*
X122478304Y-149113550D01*
X122478304Y-149113550D02*
X122621161Y-149065931D01*
X122621161Y-149065931D02*
X122716399Y-149065931D01*
X122716399Y-149065931D02*
X122859256Y-149113550D01*
X122859256Y-149113550D02*
X122906875Y-149161169D01*
X123478304Y-150065931D02*
X123383066Y-150018312D01*
X123383066Y-150018312D02*
X123335447Y-149970692D01*
X123335447Y-149970692D02*
X123287828Y-149875454D01*
X123287828Y-149875454D02*
X123287828Y-149589740D01*
X123287828Y-149589740D02*
X123335447Y-149494502D01*
X123335447Y-149494502D02*
X123383066Y-149446883D01*
X123383066Y-149446883D02*
X123478304Y-149399264D01*
X123478304Y-149399264D02*
X123621161Y-149399264D01*
X123621161Y-149399264D02*
X123716399Y-149446883D01*
X123716399Y-149446883D02*
X123764018Y-149494502D01*
X123764018Y-149494502D02*
X123811637Y-149589740D01*
X123811637Y-149589740D02*
X123811637Y-149875454D01*
X123811637Y-149875454D02*
X123764018Y-149970692D01*
X123764018Y-149970692D02*
X123716399Y-150018312D01*
X123716399Y-150018312D02*
X123621161Y-150065931D01*
X123621161Y-150065931D02*
X123478304Y-150065931D01*
X124240209Y-150065931D02*
X124240209Y-149399264D01*
X124240209Y-149494502D02*
X124287828Y-149446883D01*
X124287828Y-149446883D02*
X124383066Y-149399264D01*
X124383066Y-149399264D02*
X124525923Y-149399264D01*
X124525923Y-149399264D02*
X124621161Y-149446883D01*
X124621161Y-149446883D02*
X124668780Y-149542121D01*
X124668780Y-149542121D02*
X124668780Y-150065931D01*
X124668780Y-149542121D02*
X124716399Y-149446883D01*
X124716399Y-149446883D02*
X124811637Y-149399264D01*
X124811637Y-149399264D02*
X124954494Y-149399264D01*
X124954494Y-149399264D02*
X125049733Y-149446883D01*
X125049733Y-149446883D02*
X125097352Y-149542121D01*
X125097352Y-149542121D02*
X125097352Y-150065931D01*
X125573542Y-150065931D02*
X125573542Y-149399264D01*
X125573542Y-149494502D02*
X125621161Y-149446883D01*
X125621161Y-149446883D02*
X125716399Y-149399264D01*
X125716399Y-149399264D02*
X125859256Y-149399264D01*
X125859256Y-149399264D02*
X125954494Y-149446883D01*
X125954494Y-149446883D02*
X126002113Y-149542121D01*
X126002113Y-149542121D02*
X126002113Y-150065931D01*
X126002113Y-149542121D02*
X126049732Y-149446883D01*
X126049732Y-149446883D02*
X126144970Y-149399264D01*
X126144970Y-149399264D02*
X126287827Y-149399264D01*
X126287827Y-149399264D02*
X126383066Y-149446883D01*
X126383066Y-149446883D02*
X126430685Y-149542121D01*
X126430685Y-149542121D02*
X126430685Y-150065931D01*
X127335446Y-149399264D02*
X127335446Y-150065931D01*
X126906875Y-149399264D02*
X126906875Y-149923073D01*
X126906875Y-149923073D02*
X126954494Y-150018312D01*
X126954494Y-150018312D02*
X127049732Y-150065931D01*
X127049732Y-150065931D02*
X127192589Y-150065931D01*
X127192589Y-150065931D02*
X127287827Y-150018312D01*
X127287827Y-150018312D02*
X127335446Y-149970692D01*
X127811637Y-149399264D02*
X127811637Y-150065931D01*
X127811637Y-149494502D02*
X127859256Y-149446883D01*
X127859256Y-149446883D02*
X127954494Y-149399264D01*
X127954494Y-149399264D02*
X128097351Y-149399264D01*
X128097351Y-149399264D02*
X128192589Y-149446883D01*
X128192589Y-149446883D02*
X128240208Y-149542121D01*
X128240208Y-149542121D02*
X128240208Y-150065931D01*
X129144970Y-150065931D02*
X129144970Y-149542121D01*
X129144970Y-149542121D02*
X129097351Y-149446883D01*
X129097351Y-149446883D02*
X129002113Y-149399264D01*
X129002113Y-149399264D02*
X128811637Y-149399264D01*
X128811637Y-149399264D02*
X128716399Y-149446883D01*
X129144970Y-150018312D02*
X129049732Y-150065931D01*
X129049732Y-150065931D02*
X128811637Y-150065931D01*
X128811637Y-150065931D02*
X128716399Y-150018312D01*
X128716399Y-150018312D02*
X128668780Y-149923073D01*
X128668780Y-149923073D02*
X128668780Y-149827835D01*
X128668780Y-149827835D02*
X128716399Y-149732597D01*
X128716399Y-149732597D02*
X128811637Y-149684978D01*
X128811637Y-149684978D02*
X129049732Y-149684978D01*
X129049732Y-149684978D02*
X129144970Y-149637359D01*
X129764018Y-150065931D02*
X129668780Y-150018312D01*
X129668780Y-150018312D02*
X129621161Y-149923073D01*
X129621161Y-149923073D02*
X129621161Y-149065931D01*
X130906876Y-150065931D02*
X130906876Y-149065931D01*
X130906876Y-149065931D02*
X131240209Y-149780216D01*
X131240209Y-149780216D02*
X131573542Y-149065931D01*
X131573542Y-149065931D02*
X131573542Y-150065931D01*
X132192590Y-150065931D02*
X132097352Y-150018312D01*
X132097352Y-150018312D02*
X132049733Y-149970692D01*
X132049733Y-149970692D02*
X132002114Y-149875454D01*
X132002114Y-149875454D02*
X132002114Y-149589740D01*
X132002114Y-149589740D02*
X132049733Y-149494502D01*
X132049733Y-149494502D02*
X132097352Y-149446883D01*
X132097352Y-149446883D02*
X132192590Y-149399264D01*
X132192590Y-149399264D02*
X132335447Y-149399264D01*
X132335447Y-149399264D02*
X132430685Y-149446883D01*
X132430685Y-149446883D02*
X132478304Y-149494502D01*
X132478304Y-149494502D02*
X132525923Y-149589740D01*
X132525923Y-149589740D02*
X132525923Y-149875454D01*
X132525923Y-149875454D02*
X132478304Y-149970692D01*
X132478304Y-149970692D02*
X132430685Y-150018312D01*
X132430685Y-150018312D02*
X132335447Y-150065931D01*
X132335447Y-150065931D02*
X132192590Y-150065931D01*
X133383066Y-150065931D02*
X133383066Y-149065931D01*
X133383066Y-150018312D02*
X133287828Y-150065931D01*
X133287828Y-150065931D02*
X133097352Y-150065931D01*
X133097352Y-150065931D02*
X133002114Y-150018312D01*
X133002114Y-150018312D02*
X132954495Y-149970692D01*
X132954495Y-149970692D02*
X132906876Y-149875454D01*
X132906876Y-149875454D02*
X132906876Y-149589740D01*
X132906876Y-149589740D02*
X132954495Y-149494502D01*
X132954495Y-149494502D02*
X133002114Y-149446883D01*
X133002114Y-149446883D02*
X133097352Y-149399264D01*
X133097352Y-149399264D02*
X133287828Y-149399264D01*
X133287828Y-149399264D02*
X133383066Y-149446883D01*
X134287828Y-149399264D02*
X134287828Y-150065931D01*
X133859257Y-149399264D02*
X133859257Y-149923073D01*
X133859257Y-149923073D02*
X133906876Y-150018312D01*
X133906876Y-150018312D02*
X134002114Y-150065931D01*
X134002114Y-150065931D02*
X134144971Y-150065931D01*
X134144971Y-150065931D02*
X134240209Y-150018312D01*
X134240209Y-150018312D02*
X134287828Y-149970692D01*
X134906876Y-150065931D02*
X134811638Y-150018312D01*
X134811638Y-150018312D02*
X134764019Y-149923073D01*
X134764019Y-149923073D02*
X134764019Y-149065931D01*
X135716400Y-150065931D02*
X135716400Y-149542121D01*
X135716400Y-149542121D02*
X135668781Y-149446883D01*
X135668781Y-149446883D02*
X135573543Y-149399264D01*
X135573543Y-149399264D02*
X135383067Y-149399264D01*
X135383067Y-149399264D02*
X135287829Y-149446883D01*
X135716400Y-150018312D02*
X135621162Y-150065931D01*
X135621162Y-150065931D02*
X135383067Y-150065931D01*
X135383067Y-150065931D02*
X135287829Y-150018312D01*
X135287829Y-150018312D02*
X135240210Y-149923073D01*
X135240210Y-149923073D02*
X135240210Y-149827835D01*
X135240210Y-149827835D02*
X135287829Y-149732597D01*
X135287829Y-149732597D02*
X135383067Y-149684978D01*
X135383067Y-149684978D02*
X135621162Y-149684978D01*
X135621162Y-149684978D02*
X135716400Y-149637359D01*
X136192591Y-150065931D02*
X136192591Y-149399264D01*
X136192591Y-149589740D02*
X136240210Y-149494502D01*
X136240210Y-149494502D02*
X136287829Y-149446883D01*
X136287829Y-149446883D02*
X136383067Y-149399264D01*
X136383067Y-149399264D02*
X136478305Y-149399264D01*
X117144969Y-150675875D02*
X116668779Y-150675875D01*
X116668779Y-150675875D02*
X116621160Y-151152065D01*
X116621160Y-151152065D02*
X116668779Y-151104446D01*
X116668779Y-151104446D02*
X116764017Y-151056827D01*
X116764017Y-151056827D02*
X117002112Y-151056827D01*
X117002112Y-151056827D02*
X117097350Y-151104446D01*
X117097350Y-151104446D02*
X117144969Y-151152065D01*
X117144969Y-151152065D02*
X117192588Y-151247303D01*
X117192588Y-151247303D02*
X117192588Y-151485398D01*
X117192588Y-151485398D02*
X117144969Y-151580636D01*
X117144969Y-151580636D02*
X117097350Y-151628256D01*
X117097350Y-151628256D02*
X117002112Y-151675875D01*
X117002112Y-151675875D02*
X116764017Y-151675875D01*
X116764017Y-151675875D02*
X116668779Y-151628256D01*
X116668779Y-151628256D02*
X116621160Y-151580636D01*
X118097350Y-150675875D02*
X117621160Y-150675875D01*
X117621160Y-150675875D02*
X117573541Y-151152065D01*
X117573541Y-151152065D02*
X117621160Y-151104446D01*
X117621160Y-151104446D02*
X117716398Y-151056827D01*
X117716398Y-151056827D02*
X117954493Y-151056827D01*
X117954493Y-151056827D02*
X118049731Y-151104446D01*
X118049731Y-151104446D02*
X118097350Y-151152065D01*
X118097350Y-151152065D02*
X118144969Y-151247303D01*
X118144969Y-151247303D02*
X118144969Y-151485398D01*
X118144969Y-151485398D02*
X118097350Y-151580636D01*
X118097350Y-151580636D02*
X118049731Y-151628256D01*
X118049731Y-151628256D02*
X117954493Y-151675875D01*
X117954493Y-151675875D02*
X117716398Y-151675875D01*
X117716398Y-151675875D02*
X117621160Y-151628256D01*
X117621160Y-151628256D02*
X117573541Y-151580636D01*
X119049731Y-150675875D02*
X118573541Y-150675875D01*
X118573541Y-150675875D02*
X118525922Y-151152065D01*
X118525922Y-151152065D02*
X118573541Y-151104446D01*
X118573541Y-151104446D02*
X118668779Y-151056827D01*
X118668779Y-151056827D02*
X118906874Y-151056827D01*
X118906874Y-151056827D02*
X119002112Y-151104446D01*
X119002112Y-151104446D02*
X119049731Y-151152065D01*
X119049731Y-151152065D02*
X119097350Y-151247303D01*
X119097350Y-151247303D02*
X119097350Y-151485398D01*
X119097350Y-151485398D02*
X119049731Y-151580636D01*
X119049731Y-151580636D02*
X119002112Y-151628256D01*
X119002112Y-151628256D02*
X118906874Y-151675875D01*
X118906874Y-151675875D02*
X118668779Y-151675875D01*
X118668779Y-151675875D02*
X118573541Y-151628256D01*
X118573541Y-151628256D02*
X118525922Y-151580636D01*
X120240208Y-151390160D02*
X120716398Y-151390160D01*
X120144970Y-151675875D02*
X120478303Y-150675875D01*
X120478303Y-150675875D02*
X120811636Y-151675875D01*
X121144970Y-151675875D02*
X121144970Y-150675875D01*
X121144970Y-150675875D02*
X121383065Y-150675875D01*
X121383065Y-150675875D02*
X121525922Y-150723494D01*
X121525922Y-150723494D02*
X121621160Y-150818732D01*
X121621160Y-150818732D02*
X121668779Y-150913970D01*
X121668779Y-150913970D02*
X121716398Y-151104446D01*
X121716398Y-151104446D02*
X121716398Y-151247303D01*
X121716398Y-151247303D02*
X121668779Y-151437779D01*
X121668779Y-151437779D02*
X121621160Y-151533017D01*
X121621160Y-151533017D02*
X121525922Y-151628256D01*
X121525922Y-151628256D02*
X121383065Y-151675875D01*
X121383065Y-151675875D02*
X121144970Y-151675875D01*
X122097351Y-151628256D02*
X122240208Y-151675875D01*
X122240208Y-151675875D02*
X122478303Y-151675875D01*
X122478303Y-151675875D02*
X122573541Y-151628256D01*
X122573541Y-151628256D02*
X122621160Y-151580636D01*
X122621160Y-151580636D02*
X122668779Y-151485398D01*
X122668779Y-151485398D02*
X122668779Y-151390160D01*
X122668779Y-151390160D02*
X122621160Y-151294922D01*
X122621160Y-151294922D02*
X122573541Y-151247303D01*
X122573541Y-151247303D02*
X122478303Y-151199684D01*
X122478303Y-151199684D02*
X122287827Y-151152065D01*
X122287827Y-151152065D02*
X122192589Y-151104446D01*
X122192589Y-151104446D02*
X122144970Y-151056827D01*
X122144970Y-151056827D02*
X122097351Y-150961589D01*
X122097351Y-150961589D02*
X122097351Y-150866351D01*
X122097351Y-150866351D02*
X122144970Y-150771113D01*
X122144970Y-150771113D02*
X122192589Y-150723494D01*
X122192589Y-150723494D02*
X122287827Y-150675875D01*
X122287827Y-150675875D02*
X122525922Y-150675875D01*
X122525922Y-150675875D02*
X122668779Y-150723494D01*
X123668779Y-151675875D02*
X123335446Y-151199684D01*
X123097351Y-151675875D02*
X123097351Y-150675875D01*
X123097351Y-150675875D02*
X123478303Y-150675875D01*
X123478303Y-150675875D02*
X123573541Y-150723494D01*
X123573541Y-150723494D02*
X123621160Y-150771113D01*
X123621160Y-150771113D02*
X123668779Y-150866351D01*
X123668779Y-150866351D02*
X123668779Y-151009208D01*
X123668779Y-151009208D02*
X123621160Y-151104446D01*
X123621160Y-151104446D02*
X123573541Y-151152065D01*
X123573541Y-151152065D02*
X123478303Y-151199684D01*
X123478303Y-151199684D02*
X123097351Y-151199684D01*
X124859256Y-151152065D02*
X125192589Y-151152065D01*
X125335446Y-151675875D02*
X124859256Y-151675875D01*
X124859256Y-151675875D02*
X124859256Y-150675875D01*
X124859256Y-150675875D02*
X125335446Y-150675875D01*
X125764018Y-151009208D02*
X125764018Y-151675875D01*
X125764018Y-151104446D02*
X125811637Y-151056827D01*
X125811637Y-151056827D02*
X125906875Y-151009208D01*
X125906875Y-151009208D02*
X126049732Y-151009208D01*
X126049732Y-151009208D02*
X126144970Y-151056827D01*
X126144970Y-151056827D02*
X126192589Y-151152065D01*
X126192589Y-151152065D02*
X126192589Y-151675875D01*
X126573542Y-151009208D02*
X126811637Y-151675875D01*
X126811637Y-151675875D02*
X127049732Y-151009208D01*
X127811637Y-151628256D02*
X127716399Y-151675875D01*
X127716399Y-151675875D02*
X127525923Y-151675875D01*
X127525923Y-151675875D02*
X127430685Y-151628256D01*
X127430685Y-151628256D02*
X127383066Y-151533017D01*
X127383066Y-151533017D02*
X127383066Y-151152065D01*
X127383066Y-151152065D02*
X127430685Y-151056827D01*
X127430685Y-151056827D02*
X127525923Y-151009208D01*
X127525923Y-151009208D02*
X127716399Y-151009208D01*
X127716399Y-151009208D02*
X127811637Y-151056827D01*
X127811637Y-151056827D02*
X127859256Y-151152065D01*
X127859256Y-151152065D02*
X127859256Y-151247303D01*
X127859256Y-151247303D02*
X127383066Y-151342541D01*
X128430685Y-151675875D02*
X128335447Y-151628256D01*
X128335447Y-151628256D02*
X128287828Y-151533017D01*
X128287828Y-151533017D02*
X128287828Y-150675875D01*
X128954495Y-151675875D02*
X128859257Y-151628256D01*
X128859257Y-151628256D02*
X128811638Y-151580636D01*
X128811638Y-151580636D02*
X128764019Y-151485398D01*
X128764019Y-151485398D02*
X128764019Y-151199684D01*
X128764019Y-151199684D02*
X128811638Y-151104446D01*
X128811638Y-151104446D02*
X128859257Y-151056827D01*
X128859257Y-151056827D02*
X128954495Y-151009208D01*
X128954495Y-151009208D02*
X129097352Y-151009208D01*
X129097352Y-151009208D02*
X129192590Y-151056827D01*
X129192590Y-151056827D02*
X129240209Y-151104446D01*
X129240209Y-151104446D02*
X129287828Y-151199684D01*
X129287828Y-151199684D02*
X129287828Y-151485398D01*
X129287828Y-151485398D02*
X129240209Y-151580636D01*
X129240209Y-151580636D02*
X129192590Y-151628256D01*
X129192590Y-151628256D02*
X129097352Y-151675875D01*
X129097352Y-151675875D02*
X128954495Y-151675875D01*
X129716400Y-151009208D02*
X129716400Y-152009208D01*
X129716400Y-151056827D02*
X129811638Y-151009208D01*
X129811638Y-151009208D02*
X130002114Y-151009208D01*
X130002114Y-151009208D02*
X130097352Y-151056827D01*
X130097352Y-151056827D02*
X130144971Y-151104446D01*
X130144971Y-151104446D02*
X130192590Y-151199684D01*
X130192590Y-151199684D02*
X130192590Y-151485398D01*
X130192590Y-151485398D02*
X130144971Y-151580636D01*
X130144971Y-151580636D02*
X130097352Y-151628256D01*
X130097352Y-151628256D02*
X130002114Y-151675875D01*
X130002114Y-151675875D02*
X129811638Y-151675875D01*
X129811638Y-151675875D02*
X129716400Y-151628256D01*
X131002114Y-151628256D02*
X130906876Y-151675875D01*
X130906876Y-151675875D02*
X130716400Y-151675875D01*
X130716400Y-151675875D02*
X130621162Y-151628256D01*
X130621162Y-151628256D02*
X130573543Y-151533017D01*
X130573543Y-151533017D02*
X130573543Y-151152065D01*
X130573543Y-151152065D02*
X130621162Y-151056827D01*
X130621162Y-151056827D02*
X130716400Y-151009208D01*
X130716400Y-151009208D02*
X130906876Y-151009208D01*
X130906876Y-151009208D02*
X131002114Y-151056827D01*
X131002114Y-151056827D02*
X131049733Y-151152065D01*
X131049733Y-151152065D02*
X131049733Y-151247303D01*
X131049733Y-151247303D02*
X130573543Y-151342541D01*
X116668779Y-153285819D02*
X116668779Y-152619152D01*
X116668779Y-152809628D02*
X116716398Y-152714390D01*
X116716398Y-152714390D02*
X116764017Y-152666771D01*
X116764017Y-152666771D02*
X116859255Y-152619152D01*
X116859255Y-152619152D02*
X116954493Y-152619152D01*
X117668779Y-153238200D02*
X117573541Y-153285819D01*
X117573541Y-153285819D02*
X117383065Y-153285819D01*
X117383065Y-153285819D02*
X117287827Y-153238200D01*
X117287827Y-153238200D02*
X117240208Y-153142961D01*
X117240208Y-153142961D02*
X117240208Y-152762009D01*
X117240208Y-152762009D02*
X117287827Y-152666771D01*
X117287827Y-152666771D02*
X117383065Y-152619152D01*
X117383065Y-152619152D02*
X117573541Y-152619152D01*
X117573541Y-152619152D02*
X117668779Y-152666771D01*
X117668779Y-152666771D02*
X117716398Y-152762009D01*
X117716398Y-152762009D02*
X117716398Y-152857247D01*
X117716398Y-152857247D02*
X117240208Y-152952485D01*
X118049732Y-152619152D02*
X118287827Y-153285819D01*
X118287827Y-153285819D02*
X118525922Y-152619152D01*
X119097351Y-152285819D02*
X119192589Y-152285819D01*
X119192589Y-152285819D02*
X119287827Y-152333438D01*
X119287827Y-152333438D02*
X119335446Y-152381057D01*
X119335446Y-152381057D02*
X119383065Y-152476295D01*
X119383065Y-152476295D02*
X119430684Y-152666771D01*
X119430684Y-152666771D02*
X119430684Y-152904866D01*
X119430684Y-152904866D02*
X119383065Y-153095342D01*
X119383065Y-153095342D02*
X119335446Y-153190580D01*
X119335446Y-153190580D02*
X119287827Y-153238200D01*
X119287827Y-153238200D02*
X119192589Y-153285819D01*
X119192589Y-153285819D02*
X119097351Y-153285819D01*
X119097351Y-153285819D02*
X119002113Y-153238200D01*
X119002113Y-153238200D02*
X118954494Y-153190580D01*
X118954494Y-153190580D02*
X118906875Y-153095342D01*
X118906875Y-153095342D02*
X118859256Y-152904866D01*
X118859256Y-152904866D02*
X118859256Y-152666771D01*
X118859256Y-152666771D02*
X118906875Y-152476295D01*
X118906875Y-152476295D02*
X118954494Y-152381057D01*
X118954494Y-152381057D02*
X119002113Y-152333438D01*
X119002113Y-152333438D02*
X119097351Y-152285819D01*
X120383065Y-153285819D02*
X119811637Y-153285819D01*
X120097351Y-153285819D02*
X120097351Y-152285819D01*
X120097351Y-152285819D02*
X120002113Y-152428676D01*
X120002113Y-152428676D02*
X119906875Y-152523914D01*
X119906875Y-152523914D02*
X119811637Y-152571533D01*
X112684160Y-87960200D02*
X112779398Y-88007819D01*
X112779398Y-88007819D02*
X112969874Y-88007819D01*
X112969874Y-88007819D02*
X113065112Y-87960200D01*
X113065112Y-87960200D02*
X113112731Y-87864961D01*
X113112731Y-87864961D02*
X113112731Y-87817342D01*
X113112731Y-87817342D02*
X113065112Y-87722104D01*
X113065112Y-87722104D02*
X112969874Y-87674485D01*
X112969874Y-87674485D02*
X112827017Y-87674485D01*
X112827017Y-87674485D02*
X112731779Y-87626866D01*
X112731779Y-87626866D02*
X112684160Y-87531628D01*
X112684160Y-87531628D02*
X112684160Y-87484009D01*
X112684160Y-87484009D02*
X112731779Y-87388771D01*
X112731779Y-87388771D02*
X112827017Y-87341152D01*
X112827017Y-87341152D02*
X112969874Y-87341152D01*
X112969874Y-87341152D02*
X113065112Y-87388771D01*
X113684160Y-88007819D02*
X113588922Y-87960200D01*
X113588922Y-87960200D02*
X113541303Y-87864961D01*
X113541303Y-87864961D02*
X113541303Y-87007819D01*
X114207970Y-88007819D02*
X114112732Y-87960200D01*
X114112732Y-87960200D02*
X114065113Y-87912580D01*
X114065113Y-87912580D02*
X114017494Y-87817342D01*
X114017494Y-87817342D02*
X114017494Y-87531628D01*
X114017494Y-87531628D02*
X114065113Y-87436390D01*
X114065113Y-87436390D02*
X114112732Y-87388771D01*
X114112732Y-87388771D02*
X114207970Y-87341152D01*
X114207970Y-87341152D02*
X114350827Y-87341152D01*
X114350827Y-87341152D02*
X114446065Y-87388771D01*
X114446065Y-87388771D02*
X114493684Y-87436390D01*
X114493684Y-87436390D02*
X114541303Y-87531628D01*
X114541303Y-87531628D02*
X114541303Y-87817342D01*
X114541303Y-87817342D02*
X114493684Y-87912580D01*
X114493684Y-87912580D02*
X114446065Y-87960200D01*
X114446065Y-87960200D02*
X114350827Y-88007819D01*
X114350827Y-88007819D02*
X114207970Y-88007819D01*
X114874637Y-87341152D02*
X115065113Y-88007819D01*
X115065113Y-88007819D02*
X115255589Y-87531628D01*
X115255589Y-87531628D02*
X115446065Y-88007819D01*
X115446065Y-88007819D02*
X115636541Y-87341152D01*
X118684922Y-93056152D02*
X119065874Y-93056152D01*
X118827779Y-93722819D02*
X118827779Y-92865676D01*
X118827779Y-92865676D02*
X118875398Y-92770438D01*
X118875398Y-92770438D02*
X118970636Y-92722819D01*
X118970636Y-92722819D02*
X119065874Y-92722819D01*
X119827779Y-93722819D02*
X119827779Y-93199009D01*
X119827779Y-93199009D02*
X119780160Y-93103771D01*
X119780160Y-93103771D02*
X119684922Y-93056152D01*
X119684922Y-93056152D02*
X119494446Y-93056152D01*
X119494446Y-93056152D02*
X119399208Y-93103771D01*
X119827779Y-93675200D02*
X119732541Y-93722819D01*
X119732541Y-93722819D02*
X119494446Y-93722819D01*
X119494446Y-93722819D02*
X119399208Y-93675200D01*
X119399208Y-93675200D02*
X119351589Y-93579961D01*
X119351589Y-93579961D02*
X119351589Y-93484723D01*
X119351589Y-93484723D02*
X119399208Y-93389485D01*
X119399208Y-93389485D02*
X119494446Y-93341866D01*
X119494446Y-93341866D02*
X119732541Y-93341866D01*
X119732541Y-93341866D02*
X119827779Y-93294247D01*
X120256351Y-93675200D02*
X120351589Y-93722819D01*
X120351589Y-93722819D02*
X120542065Y-93722819D01*
X120542065Y-93722819D02*
X120637303Y-93675200D01*
X120637303Y-93675200D02*
X120684922Y-93579961D01*
X120684922Y-93579961D02*
X120684922Y-93532342D01*
X120684922Y-93532342D02*
X120637303Y-93437104D01*
X120637303Y-93437104D02*
X120542065Y-93389485D01*
X120542065Y-93389485D02*
X120399208Y-93389485D01*
X120399208Y-93389485D02*
X120303970Y-93341866D01*
X120303970Y-93341866D02*
X120256351Y-93246628D01*
X120256351Y-93246628D02*
X120256351Y-93199009D01*
X120256351Y-93199009D02*
X120303970Y-93103771D01*
X120303970Y-93103771D02*
X120399208Y-93056152D01*
X120399208Y-93056152D02*
X120542065Y-93056152D01*
X120542065Y-93056152D02*
X120637303Y-93103771D01*
X120970637Y-93056152D02*
X121351589Y-93056152D01*
X121113494Y-92722819D02*
X121113494Y-93579961D01*
X121113494Y-93579961D02*
X121161113Y-93675200D01*
X121161113Y-93675200D02*
X121256351Y-93722819D01*
X121256351Y-93722819D02*
X121351589Y-93722819D01*
X133983505Y-108658819D02*
X133983505Y-107658819D01*
X133983505Y-107658819D02*
X134221600Y-107658819D01*
X134221600Y-107658819D02*
X134364457Y-107706438D01*
X134364457Y-107706438D02*
X134459695Y-107801676D01*
X134459695Y-107801676D02*
X134507314Y-107896914D01*
X134507314Y-107896914D02*
X134554933Y-108087390D01*
X134554933Y-108087390D02*
X134554933Y-108230247D01*
X134554933Y-108230247D02*
X134507314Y-108420723D01*
X134507314Y-108420723D02*
X134459695Y-108515961D01*
X134459695Y-108515961D02*
X134364457Y-108611200D01*
X134364457Y-108611200D02*
X134221600Y-108658819D01*
X134221600Y-108658819D02*
X133983505Y-108658819D01*
X134888267Y-107658819D02*
X135554933Y-107658819D01*
X135554933Y-107658819D02*
X135126362Y-108658819D01*
X128992333Y-78718580D02*
X128944714Y-78766200D01*
X128944714Y-78766200D02*
X128801857Y-78813819D01*
X128801857Y-78813819D02*
X128706619Y-78813819D01*
X128706619Y-78813819D02*
X128563762Y-78766200D01*
X128563762Y-78766200D02*
X128468524Y-78670961D01*
X128468524Y-78670961D02*
X128420905Y-78575723D01*
X128420905Y-78575723D02*
X128373286Y-78385247D01*
X128373286Y-78385247D02*
X128373286Y-78242390D01*
X128373286Y-78242390D02*
X128420905Y-78051914D01*
X128420905Y-78051914D02*
X128468524Y-77956676D01*
X128468524Y-77956676D02*
X128563762Y-77861438D01*
X128563762Y-77861438D02*
X128706619Y-77813819D01*
X128706619Y-77813819D02*
X128801857Y-77813819D01*
X128801857Y-77813819D02*
X128944714Y-77861438D01*
X128944714Y-77861438D02*
X128992333Y-77909057D01*
X129563762Y-78242390D02*
X129468524Y-78194771D01*
X129468524Y-78194771D02*
X129420905Y-78147152D01*
X129420905Y-78147152D02*
X129373286Y-78051914D01*
X129373286Y-78051914D02*
X129373286Y-78004295D01*
X129373286Y-78004295D02*
X129420905Y-77909057D01*
X129420905Y-77909057D02*
X129468524Y-77861438D01*
X129468524Y-77861438D02*
X129563762Y-77813819D01*
X129563762Y-77813819D02*
X129754238Y-77813819D01*
X129754238Y-77813819D02*
X129849476Y-77861438D01*
X129849476Y-77861438D02*
X129897095Y-77909057D01*
X129897095Y-77909057D02*
X129944714Y-78004295D01*
X129944714Y-78004295D02*
X129944714Y-78051914D01*
X129944714Y-78051914D02*
X129897095Y-78147152D01*
X129897095Y-78147152D02*
X129849476Y-78194771D01*
X129849476Y-78194771D02*
X129754238Y-78242390D01*
X129754238Y-78242390D02*
X129563762Y-78242390D01*
X129563762Y-78242390D02*
X129468524Y-78290009D01*
X129468524Y-78290009D02*
X129420905Y-78337628D01*
X129420905Y-78337628D02*
X129373286Y-78432866D01*
X129373286Y-78432866D02*
X129373286Y-78623342D01*
X129373286Y-78623342D02*
X129420905Y-78718580D01*
X129420905Y-78718580D02*
X129468524Y-78766200D01*
X129468524Y-78766200D02*
X129563762Y-78813819D01*
X129563762Y-78813819D02*
X129754238Y-78813819D01*
X129754238Y-78813819D02*
X129849476Y-78766200D01*
X129849476Y-78766200D02*
X129897095Y-78718580D01*
X129897095Y-78718580D02*
X129944714Y-78623342D01*
X129944714Y-78623342D02*
X129944714Y-78432866D01*
X129944714Y-78432866D02*
X129897095Y-78337628D01*
X129897095Y-78337628D02*
X129849476Y-78290009D01*
X129849476Y-78290009D02*
X129754238Y-78242390D01*
X119213333Y-71098580D02*
X119165714Y-71146200D01*
X119165714Y-71146200D02*
X119022857Y-71193819D01*
X119022857Y-71193819D02*
X118927619Y-71193819D01*
X118927619Y-71193819D02*
X118784762Y-71146200D01*
X118784762Y-71146200D02*
X118689524Y-71050961D01*
X118689524Y-71050961D02*
X118641905Y-70955723D01*
X118641905Y-70955723D02*
X118594286Y-70765247D01*
X118594286Y-70765247D02*
X118594286Y-70622390D01*
X118594286Y-70622390D02*
X118641905Y-70431914D01*
X118641905Y-70431914D02*
X118689524Y-70336676D01*
X118689524Y-70336676D02*
X118784762Y-70241438D01*
X118784762Y-70241438D02*
X118927619Y-70193819D01*
X118927619Y-70193819D02*
X119022857Y-70193819D01*
X119022857Y-70193819D02*
X119165714Y-70241438D01*
X119165714Y-70241438D02*
X119213333Y-70289057D01*
X120165714Y-71193819D02*
X119594286Y-71193819D01*
X119880000Y-71193819D02*
X119880000Y-70193819D01*
X119880000Y-70193819D02*
X119784762Y-70336676D01*
X119784762Y-70336676D02*
X119689524Y-70431914D01*
X119689524Y-70431914D02*
X119594286Y-70479533D01*
X67666666Y-94684819D02*
X67666666Y-95399104D01*
X67666666Y-95399104D02*
X67619047Y-95541961D01*
X67619047Y-95541961D02*
X67523809Y-95637200D01*
X67523809Y-95637200D02*
X67380952Y-95684819D01*
X67380952Y-95684819D02*
X67285714Y-95684819D01*
X68047619Y-94684819D02*
X68714285Y-94684819D01*
X68714285Y-94684819D02*
X68285714Y-95684819D01*
X113738819Y-61647294D02*
X112738819Y-61647294D01*
X112738819Y-61647294D02*
X112738819Y-61409199D01*
X112738819Y-61409199D02*
X112786438Y-61266342D01*
X112786438Y-61266342D02*
X112881676Y-61171104D01*
X112881676Y-61171104D02*
X112976914Y-61123485D01*
X112976914Y-61123485D02*
X113167390Y-61075866D01*
X113167390Y-61075866D02*
X113310247Y-61075866D01*
X113310247Y-61075866D02*
X113500723Y-61123485D01*
X113500723Y-61123485D02*
X113595961Y-61171104D01*
X113595961Y-61171104D02*
X113691200Y-61266342D01*
X113691200Y-61266342D02*
X113738819Y-61409199D01*
X113738819Y-61409199D02*
X113738819Y-61647294D01*
X112834057Y-60694913D02*
X112786438Y-60647294D01*
X112786438Y-60647294D02*
X112738819Y-60552056D01*
X112738819Y-60552056D02*
X112738819Y-60313961D01*
X112738819Y-60313961D02*
X112786438Y-60218723D01*
X112786438Y-60218723D02*
X112834057Y-60171104D01*
X112834057Y-60171104D02*
X112929295Y-60123485D01*
X112929295Y-60123485D02*
X113024533Y-60123485D01*
X113024533Y-60123485D02*
X113167390Y-60171104D01*
X113167390Y-60171104D02*
X113738819Y-60742532D01*
X113738819Y-60742532D02*
X113738819Y-60123485D01*
X134784221Y-72114580D02*
X134736602Y-72162200D01*
X134736602Y-72162200D02*
X134593745Y-72209819D01*
X134593745Y-72209819D02*
X134498507Y-72209819D01*
X134498507Y-72209819D02*
X134355650Y-72162200D01*
X134355650Y-72162200D02*
X134260412Y-72066961D01*
X134260412Y-72066961D02*
X134212793Y-71971723D01*
X134212793Y-71971723D02*
X134165174Y-71781247D01*
X134165174Y-71781247D02*
X134165174Y-71638390D01*
X134165174Y-71638390D02*
X134212793Y-71447914D01*
X134212793Y-71447914D02*
X134260412Y-71352676D01*
X134260412Y-71352676D02*
X134355650Y-71257438D01*
X134355650Y-71257438D02*
X134498507Y-71209819D01*
X134498507Y-71209819D02*
X134593745Y-71209819D01*
X134593745Y-71209819D02*
X134736602Y-71257438D01*
X134736602Y-71257438D02*
X134784221Y-71305057D01*
X135117555Y-71209819D02*
X135736602Y-71209819D01*
X135736602Y-71209819D02*
X135403269Y-71590771D01*
X135403269Y-71590771D02*
X135546126Y-71590771D01*
X135546126Y-71590771D02*
X135641364Y-71638390D01*
X135641364Y-71638390D02*
X135688983Y-71686009D01*
X135688983Y-71686009D02*
X135736602Y-71781247D01*
X135736602Y-71781247D02*
X135736602Y-72019342D01*
X135736602Y-72019342D02*
X135688983Y-72114580D01*
X135688983Y-72114580D02*
X135641364Y-72162200D01*
X135641364Y-72162200D02*
X135546126Y-72209819D01*
X135546126Y-72209819D02*
X135260412Y-72209819D01*
X135260412Y-72209819D02*
X135165174Y-72162200D01*
X135165174Y-72162200D02*
X135117555Y-72114580D01*
X83004819Y-80684666D02*
X82528628Y-81017999D01*
X83004819Y-81256094D02*
X82004819Y-81256094D01*
X82004819Y-81256094D02*
X82004819Y-80875142D01*
X82004819Y-80875142D02*
X82052438Y-80779904D01*
X82052438Y-80779904D02*
X82100057Y-80732285D01*
X82100057Y-80732285D02*
X82195295Y-80684666D01*
X82195295Y-80684666D02*
X82338152Y-80684666D01*
X82338152Y-80684666D02*
X82433390Y-80732285D01*
X82433390Y-80732285D02*
X82481009Y-80779904D01*
X82481009Y-80779904D02*
X82528628Y-80875142D01*
X82528628Y-80875142D02*
X82528628Y-81256094D01*
X82004819Y-79779904D02*
X82004819Y-80256094D01*
X82004819Y-80256094D02*
X82481009Y-80303713D01*
X82481009Y-80303713D02*
X82433390Y-80256094D01*
X82433390Y-80256094D02*
X82385771Y-80160856D01*
X82385771Y-80160856D02*
X82385771Y-79922761D01*
X82385771Y-79922761D02*
X82433390Y-79827523D01*
X82433390Y-79827523D02*
X82481009Y-79779904D01*
X82481009Y-79779904D02*
X82576247Y-79732285D01*
X82576247Y-79732285D02*
X82814342Y-79732285D01*
X82814342Y-79732285D02*
X82909580Y-79779904D01*
X82909580Y-79779904D02*
X82957200Y-79827523D01*
X82957200Y-79827523D02*
X83004819Y-79922761D01*
X83004819Y-79922761D02*
X83004819Y-80160856D01*
X83004819Y-80160856D02*
X82957200Y-80256094D01*
X82957200Y-80256094D02*
X82909580Y-80303713D01*
X101666666Y-94684819D02*
X101666666Y-95399104D01*
X101666666Y-95399104D02*
X101619047Y-95541961D01*
X101619047Y-95541961D02*
X101523809Y-95637200D01*
X101523809Y-95637200D02*
X101380952Y-95684819D01*
X101380952Y-95684819D02*
X101285714Y-95684819D01*
X102190476Y-95684819D02*
X102380952Y-95684819D01*
X102380952Y-95684819D02*
X102476190Y-95637200D01*
X102476190Y-95637200D02*
X102523809Y-95589580D01*
X102523809Y-95589580D02*
X102619047Y-95446723D01*
X102619047Y-95446723D02*
X102666666Y-95256247D01*
X102666666Y-95256247D02*
X102666666Y-94875295D01*
X102666666Y-94875295D02*
X102619047Y-94780057D01*
X102619047Y-94780057D02*
X102571428Y-94732438D01*
X102571428Y-94732438D02*
X102476190Y-94684819D01*
X102476190Y-94684819D02*
X102285714Y-94684819D01*
X102285714Y-94684819D02*
X102190476Y-94732438D01*
X102190476Y-94732438D02*
X102142857Y-94780057D01*
X102142857Y-94780057D02*
X102095238Y-94875295D01*
X102095238Y-94875295D02*
X102095238Y-95113390D01*
X102095238Y-95113390D02*
X102142857Y-95208628D01*
X102142857Y-95208628D02*
X102190476Y-95256247D01*
X102190476Y-95256247D02*
X102285714Y-95303866D01*
X102285714Y-95303866D02*
X102476190Y-95303866D01*
X102476190Y-95303866D02*
X102571428Y-95256247D01*
X102571428Y-95256247D02*
X102619047Y-95208628D01*
X102619047Y-95208628D02*
X102666666Y-95113390D01*
X121009580Y-87241666D02*
X121057200Y-87289285D01*
X121057200Y-87289285D02*
X121104819Y-87432142D01*
X121104819Y-87432142D02*
X121104819Y-87527380D01*
X121104819Y-87527380D02*
X121057200Y-87670237D01*
X121057200Y-87670237D02*
X120961961Y-87765475D01*
X120961961Y-87765475D02*
X120866723Y-87813094D01*
X120866723Y-87813094D02*
X120676247Y-87860713D01*
X120676247Y-87860713D02*
X120533390Y-87860713D01*
X120533390Y-87860713D02*
X120342914Y-87813094D01*
X120342914Y-87813094D02*
X120247676Y-87765475D01*
X120247676Y-87765475D02*
X120152438Y-87670237D01*
X120152438Y-87670237D02*
X120104819Y-87527380D01*
X120104819Y-87527380D02*
X120104819Y-87432142D01*
X120104819Y-87432142D02*
X120152438Y-87289285D01*
X120152438Y-87289285D02*
X120200057Y-87241666D01*
X120104819Y-86908332D02*
X120104819Y-86241666D01*
X120104819Y-86241666D02*
X121104819Y-86670237D01*
X117929819Y-137542494D02*
X116929819Y-137542494D01*
X116929819Y-137542494D02*
X116929819Y-137304399D01*
X116929819Y-137304399D02*
X116977438Y-137161542D01*
X116977438Y-137161542D02*
X117072676Y-137066304D01*
X117072676Y-137066304D02*
X117167914Y-137018685D01*
X117167914Y-137018685D02*
X117358390Y-136971066D01*
X117358390Y-136971066D02*
X117501247Y-136971066D01*
X117501247Y-136971066D02*
X117691723Y-137018685D01*
X117691723Y-137018685D02*
X117786961Y-137066304D01*
X117786961Y-137066304D02*
X117882200Y-137161542D01*
X117882200Y-137161542D02*
X117929819Y-137304399D01*
X117929819Y-137304399D02*
X117929819Y-137542494D01*
X117929819Y-136018685D02*
X117929819Y-136590113D01*
X117929819Y-136304399D02*
X116929819Y-136304399D01*
X116929819Y-136304399D02*
X117072676Y-136399637D01*
X117072676Y-136399637D02*
X117167914Y-136494875D01*
X117167914Y-136494875D02*
X117215533Y-136590113D01*
X126619095Y-125184819D02*
X126619095Y-125994342D01*
X126619095Y-125994342D02*
X126666714Y-126089580D01*
X126666714Y-126089580D02*
X126714333Y-126137200D01*
X126714333Y-126137200D02*
X126809571Y-126184819D01*
X126809571Y-126184819D02*
X127000047Y-126184819D01*
X127000047Y-126184819D02*
X127095285Y-126137200D01*
X127095285Y-126137200D02*
X127142904Y-126089580D01*
X127142904Y-126089580D02*
X127190523Y-125994342D01*
X127190523Y-125994342D02*
X127190523Y-125184819D01*
X128190523Y-126184819D02*
X127619095Y-126184819D01*
X127904809Y-126184819D02*
X127904809Y-125184819D01*
X127904809Y-125184819D02*
X127809571Y-125327676D01*
X127809571Y-125327676D02*
X127714333Y-125422914D01*
X127714333Y-125422914D02*
X127619095Y-125470533D01*
X118483142Y-109420819D02*
X118149809Y-108944628D01*
X117911714Y-109420819D02*
X117911714Y-108420819D01*
X117911714Y-108420819D02*
X118292666Y-108420819D01*
X118292666Y-108420819D02*
X118387904Y-108468438D01*
X118387904Y-108468438D02*
X118435523Y-108516057D01*
X118435523Y-108516057D02*
X118483142Y-108611295D01*
X118483142Y-108611295D02*
X118483142Y-108754152D01*
X118483142Y-108754152D02*
X118435523Y-108849390D01*
X118435523Y-108849390D02*
X118387904Y-108897009D01*
X118387904Y-108897009D02*
X118292666Y-108944628D01*
X118292666Y-108944628D02*
X117911714Y-108944628D01*
X119435523Y-109420819D02*
X118864095Y-109420819D01*
X119149809Y-109420819D02*
X119149809Y-108420819D01*
X119149809Y-108420819D02*
X119054571Y-108563676D01*
X119054571Y-108563676D02*
X118959333Y-108658914D01*
X118959333Y-108658914D02*
X118864095Y-108706533D01*
X120387904Y-109420819D02*
X119816476Y-109420819D01*
X120102190Y-109420819D02*
X120102190Y-108420819D01*
X120102190Y-108420819D02*
X120006952Y-108563676D01*
X120006952Y-108563676D02*
X119911714Y-108658914D01*
X119911714Y-108658914D02*
X119816476Y-108706533D01*
X125777666Y-64986819D02*
X125777666Y-65701104D01*
X125777666Y-65701104D02*
X125730047Y-65843961D01*
X125730047Y-65843961D02*
X125634809Y-65939200D01*
X125634809Y-65939200D02*
X125491952Y-65986819D01*
X125491952Y-65986819D02*
X125396714Y-65986819D01*
X126206238Y-65082057D02*
X126253857Y-65034438D01*
X126253857Y-65034438D02*
X126349095Y-64986819D01*
X126349095Y-64986819D02*
X126587190Y-64986819D01*
X126587190Y-64986819D02*
X126682428Y-65034438D01*
X126682428Y-65034438D02*
X126730047Y-65082057D01*
X126730047Y-65082057D02*
X126777666Y-65177295D01*
X126777666Y-65177295D02*
X126777666Y-65272533D01*
X126777666Y-65272533D02*
X126730047Y-65415390D01*
X126730047Y-65415390D02*
X126158619Y-65986819D01*
X126158619Y-65986819D02*
X126777666Y-65986819D01*
X131117133Y-50816095D02*
X131117133Y-51578000D01*
X130736180Y-52577999D02*
X130736180Y-52006571D01*
X130736180Y-52292285D02*
X131736180Y-52292285D01*
X131736180Y-52292285D02*
X131593323Y-52197047D01*
X131593323Y-52197047D02*
X131498085Y-52101809D01*
X131498085Y-52101809D02*
X131450466Y-52006571D01*
X131640942Y-52958952D02*
X131688561Y-53006571D01*
X131688561Y-53006571D02*
X131736180Y-53101809D01*
X131736180Y-53101809D02*
X131736180Y-53339904D01*
X131736180Y-53339904D02*
X131688561Y-53435142D01*
X131688561Y-53435142D02*
X131640942Y-53482761D01*
X131640942Y-53482761D02*
X131545704Y-53530380D01*
X131545704Y-53530380D02*
X131450466Y-53530380D01*
X131450466Y-53530380D02*
X131307609Y-53482761D01*
X131307609Y-53482761D02*
X130736180Y-52911333D01*
X130736180Y-52911333D02*
X130736180Y-53530380D01*
X131736180Y-53816095D02*
X130736180Y-54149428D01*
X130736180Y-54149428D02*
X131736180Y-54482761D01*
X120957133Y-50816095D02*
X120957133Y-51578000D01*
X120576180Y-51197047D02*
X121338085Y-51197047D01*
X120576180Y-52577999D02*
X120576180Y-52006571D01*
X120576180Y-52292285D02*
X121576180Y-52292285D01*
X121576180Y-52292285D02*
X121433323Y-52197047D01*
X121433323Y-52197047D02*
X121338085Y-52101809D01*
X121338085Y-52101809D02*
X121290466Y-52006571D01*
X121480942Y-52958952D02*
X121528561Y-53006571D01*
X121528561Y-53006571D02*
X121576180Y-53101809D01*
X121576180Y-53101809D02*
X121576180Y-53339904D01*
X121576180Y-53339904D02*
X121528561Y-53435142D01*
X121528561Y-53435142D02*
X121480942Y-53482761D01*
X121480942Y-53482761D02*
X121385704Y-53530380D01*
X121385704Y-53530380D02*
X121290466Y-53530380D01*
X121290466Y-53530380D02*
X121147609Y-53482761D01*
X121147609Y-53482761D02*
X120576180Y-52911333D01*
X120576180Y-52911333D02*
X120576180Y-53530380D01*
X121576180Y-53816095D02*
X120576180Y-54149428D01*
X120576180Y-54149428D02*
X121576180Y-54482761D01*
X139265819Y-62332857D02*
X138789628Y-62666190D01*
X139265819Y-62904285D02*
X138265819Y-62904285D01*
X138265819Y-62904285D02*
X138265819Y-62523333D01*
X138265819Y-62523333D02*
X138313438Y-62428095D01*
X138313438Y-62428095D02*
X138361057Y-62380476D01*
X138361057Y-62380476D02*
X138456295Y-62332857D01*
X138456295Y-62332857D02*
X138599152Y-62332857D01*
X138599152Y-62332857D02*
X138694390Y-62380476D01*
X138694390Y-62380476D02*
X138742009Y-62428095D01*
X138742009Y-62428095D02*
X138789628Y-62523333D01*
X138789628Y-62523333D02*
X138789628Y-62904285D01*
X138742009Y-61904285D02*
X138742009Y-61570952D01*
X139265819Y-61428095D02*
X139265819Y-61904285D01*
X139265819Y-61904285D02*
X138265819Y-61904285D01*
X138265819Y-61904285D02*
X138265819Y-61428095D01*
X139265819Y-60999523D02*
X138265819Y-60999523D01*
X138265819Y-60999523D02*
X138265819Y-60761428D01*
X138265819Y-60761428D02*
X138313438Y-60618571D01*
X138313438Y-60618571D02*
X138408676Y-60523333D01*
X138408676Y-60523333D02*
X138503914Y-60475714D01*
X138503914Y-60475714D02*
X138694390Y-60428095D01*
X138694390Y-60428095D02*
X138837247Y-60428095D01*
X138837247Y-60428095D02*
X139027723Y-60475714D01*
X139027723Y-60475714D02*
X139122961Y-60523333D01*
X139122961Y-60523333D02*
X139218200Y-60618571D01*
X139218200Y-60618571D02*
X139265819Y-60761428D01*
X139265819Y-60761428D02*
X139265819Y-60999523D01*
X139265819Y-58761428D02*
X139265819Y-59237618D01*
X139265819Y-59237618D02*
X138265819Y-59237618D01*
X139265819Y-58428094D02*
X138265819Y-58428094D01*
X139265819Y-57951904D02*
X138265819Y-57951904D01*
X138265819Y-57951904D02*
X139265819Y-57380476D01*
X139265819Y-57380476D02*
X138265819Y-57380476D01*
X138742009Y-56904285D02*
X138742009Y-56570952D01*
X139265819Y-56428095D02*
X139265819Y-56904285D01*
X139265819Y-56904285D02*
X138265819Y-56904285D01*
X138265819Y-56904285D02*
X138265819Y-56428095D01*
X138969761Y-120692057D02*
X138874523Y-120644438D01*
X138874523Y-120644438D02*
X138779285Y-120549200D01*
X138779285Y-120549200D02*
X138636428Y-120406342D01*
X138636428Y-120406342D02*
X138541190Y-120358723D01*
X138541190Y-120358723D02*
X138445952Y-120358723D01*
X138493571Y-120596819D02*
X138398333Y-120549200D01*
X138398333Y-120549200D02*
X138303095Y-120453961D01*
X138303095Y-120453961D02*
X138255476Y-120263485D01*
X138255476Y-120263485D02*
X138255476Y-119930152D01*
X138255476Y-119930152D02*
X138303095Y-119739676D01*
X138303095Y-119739676D02*
X138398333Y-119644438D01*
X138398333Y-119644438D02*
X138493571Y-119596819D01*
X138493571Y-119596819D02*
X138684047Y-119596819D01*
X138684047Y-119596819D02*
X138779285Y-119644438D01*
X138779285Y-119644438D02*
X138874523Y-119739676D01*
X138874523Y-119739676D02*
X138922142Y-119930152D01*
X138922142Y-119930152D02*
X138922142Y-120263485D01*
X138922142Y-120263485D02*
X138874523Y-120453961D01*
X138874523Y-120453961D02*
X138779285Y-120549200D01*
X138779285Y-120549200D02*
X138684047Y-120596819D01*
X138684047Y-120596819D02*
X138493571Y-120596819D01*
X139779285Y-119930152D02*
X139779285Y-120596819D01*
X139541190Y-119549200D02*
X139303095Y-120263485D01*
X139303095Y-120263485D02*
X139922142Y-120263485D01*
X115704333Y-123676580D02*
X115656714Y-123724200D01*
X115656714Y-123724200D02*
X115513857Y-123771819D01*
X115513857Y-123771819D02*
X115418619Y-123771819D01*
X115418619Y-123771819D02*
X115275762Y-123724200D01*
X115275762Y-123724200D02*
X115180524Y-123628961D01*
X115180524Y-123628961D02*
X115132905Y-123533723D01*
X115132905Y-123533723D02*
X115085286Y-123343247D01*
X115085286Y-123343247D02*
X115085286Y-123200390D01*
X115085286Y-123200390D02*
X115132905Y-123009914D01*
X115132905Y-123009914D02*
X115180524Y-122914676D01*
X115180524Y-122914676D02*
X115275762Y-122819438D01*
X115275762Y-122819438D02*
X115418619Y-122771819D01*
X115418619Y-122771819D02*
X115513857Y-122771819D01*
X115513857Y-122771819D02*
X115656714Y-122819438D01*
X115656714Y-122819438D02*
X115704333Y-122867057D01*
X116561476Y-123105152D02*
X116561476Y-123771819D01*
X116323381Y-122724200D02*
X116085286Y-123438485D01*
X116085286Y-123438485D02*
X116704333Y-123438485D01*
X127127095Y-91319819D02*
X127127095Y-92129342D01*
X127127095Y-92129342D02*
X127174714Y-92224580D01*
X127174714Y-92224580D02*
X127222333Y-92272200D01*
X127222333Y-92272200D02*
X127317571Y-92319819D01*
X127317571Y-92319819D02*
X127508047Y-92319819D01*
X127508047Y-92319819D02*
X127603285Y-92272200D01*
X127603285Y-92272200D02*
X127650904Y-92224580D01*
X127650904Y-92224580D02*
X127698523Y-92129342D01*
X127698523Y-92129342D02*
X127698523Y-91319819D01*
X128127095Y-91415057D02*
X128174714Y-91367438D01*
X128174714Y-91367438D02*
X128269952Y-91319819D01*
X128269952Y-91319819D02*
X128508047Y-91319819D01*
X128508047Y-91319819D02*
X128603285Y-91367438D01*
X128603285Y-91367438D02*
X128650904Y-91415057D01*
X128650904Y-91415057D02*
X128698523Y-91510295D01*
X128698523Y-91510295D02*
X128698523Y-91605533D01*
X128698523Y-91605533D02*
X128650904Y-91748390D01*
X128650904Y-91748390D02*
X128079476Y-92319819D01*
X128079476Y-92319819D02*
X128698523Y-92319819D01*
X137233819Y-131484666D02*
X136757628Y-131817999D01*
X137233819Y-132056094D02*
X136233819Y-132056094D01*
X136233819Y-132056094D02*
X136233819Y-131675142D01*
X136233819Y-131675142D02*
X136281438Y-131579904D01*
X136281438Y-131579904D02*
X136329057Y-131532285D01*
X136329057Y-131532285D02*
X136424295Y-131484666D01*
X136424295Y-131484666D02*
X136567152Y-131484666D01*
X136567152Y-131484666D02*
X136662390Y-131532285D01*
X136662390Y-131532285D02*
X136710009Y-131579904D01*
X136710009Y-131579904D02*
X136757628Y-131675142D01*
X136757628Y-131675142D02*
X136757628Y-132056094D01*
X136329057Y-131103713D02*
X136281438Y-131056094D01*
X136281438Y-131056094D02*
X136233819Y-130960856D01*
X136233819Y-130960856D02*
X136233819Y-130722761D01*
X136233819Y-130722761D02*
X136281438Y-130627523D01*
X136281438Y-130627523D02*
X136329057Y-130579904D01*
X136329057Y-130579904D02*
X136424295Y-130532285D01*
X136424295Y-130532285D02*
X136519533Y-130532285D01*
X136519533Y-130532285D02*
X136662390Y-130579904D01*
X136662390Y-130579904D02*
X137233819Y-131151332D01*
X137233819Y-131151332D02*
X137233819Y-130532285D01*
X121062761Y-131868057D02*
X120967523Y-131820438D01*
X120967523Y-131820438D02*
X120872285Y-131725200D01*
X120872285Y-131725200D02*
X120729428Y-131582342D01*
X120729428Y-131582342D02*
X120634190Y-131534723D01*
X120634190Y-131534723D02*
X120538952Y-131534723D01*
X120586571Y-131772819D02*
X120491333Y-131725200D01*
X120491333Y-131725200D02*
X120396095Y-131629961D01*
X120396095Y-131629961D02*
X120348476Y-131439485D01*
X120348476Y-131439485D02*
X120348476Y-131106152D01*
X120348476Y-131106152D02*
X120396095Y-130915676D01*
X120396095Y-130915676D02*
X120491333Y-130820438D01*
X120491333Y-130820438D02*
X120586571Y-130772819D01*
X120586571Y-130772819D02*
X120777047Y-130772819D01*
X120777047Y-130772819D02*
X120872285Y-130820438D01*
X120872285Y-130820438D02*
X120967523Y-130915676D01*
X120967523Y-130915676D02*
X121015142Y-131106152D01*
X121015142Y-131106152D02*
X121015142Y-131439485D01*
X121015142Y-131439485D02*
X120967523Y-131629961D01*
X120967523Y-131629961D02*
X120872285Y-131725200D01*
X120872285Y-131725200D02*
X120777047Y-131772819D01*
X120777047Y-131772819D02*
X120586571Y-131772819D01*
X121967523Y-131772819D02*
X121396095Y-131772819D01*
X121681809Y-131772819D02*
X121681809Y-130772819D01*
X121681809Y-130772819D02*
X121586571Y-130915676D01*
X121586571Y-130915676D02*
X121491333Y-131010914D01*
X121491333Y-131010914D02*
X121396095Y-131058533D01*
X109039819Y-136532857D02*
X108563628Y-136866190D01*
X109039819Y-137104285D02*
X108039819Y-137104285D01*
X108039819Y-137104285D02*
X108039819Y-136723333D01*
X108039819Y-136723333D02*
X108087438Y-136628095D01*
X108087438Y-136628095D02*
X108135057Y-136580476D01*
X108135057Y-136580476D02*
X108230295Y-136532857D01*
X108230295Y-136532857D02*
X108373152Y-136532857D01*
X108373152Y-136532857D02*
X108468390Y-136580476D01*
X108468390Y-136580476D02*
X108516009Y-136628095D01*
X108516009Y-136628095D02*
X108563628Y-136723333D01*
X108563628Y-136723333D02*
X108563628Y-137104285D01*
X109039819Y-135580476D02*
X109039819Y-136151904D01*
X109039819Y-135866190D02*
X108039819Y-135866190D01*
X108039819Y-135866190D02*
X108182676Y-135961428D01*
X108182676Y-135961428D02*
X108277914Y-136056666D01*
X108277914Y-136056666D02*
X108325533Y-136151904D01*
X108039819Y-134675714D02*
X108039819Y-135151904D01*
X108039819Y-135151904D02*
X108516009Y-135199523D01*
X108516009Y-135199523D02*
X108468390Y-135151904D01*
X108468390Y-135151904D02*
X108420771Y-135056666D01*
X108420771Y-135056666D02*
X108420771Y-134818571D01*
X108420771Y-134818571D02*
X108468390Y-134723333D01*
X108468390Y-134723333D02*
X108516009Y-134675714D01*
X108516009Y-134675714D02*
X108611247Y-134628095D01*
X108611247Y-134628095D02*
X108849342Y-134628095D01*
X108849342Y-134628095D02*
X108944580Y-134675714D01*
X108944580Y-134675714D02*
X108992200Y-134723333D01*
X108992200Y-134723333D02*
X109039819Y-134818571D01*
X109039819Y-134818571D02*
X109039819Y-135056666D01*
X109039819Y-135056666D02*
X108992200Y-135151904D01*
X108992200Y-135151904D02*
X108944580Y-135199523D01*
X140027819Y-130430494D02*
X139027819Y-130430494D01*
X139027819Y-130430494D02*
X139027819Y-130192399D01*
X139027819Y-130192399D02*
X139075438Y-130049542D01*
X139075438Y-130049542D02*
X139170676Y-129954304D01*
X139170676Y-129954304D02*
X139265914Y-129906685D01*
X139265914Y-129906685D02*
X139456390Y-129859066D01*
X139456390Y-129859066D02*
X139599247Y-129859066D01*
X139599247Y-129859066D02*
X139789723Y-129906685D01*
X139789723Y-129906685D02*
X139884961Y-129954304D01*
X139884961Y-129954304D02*
X139980200Y-130049542D01*
X139980200Y-130049542D02*
X140027819Y-130192399D01*
X140027819Y-130192399D02*
X140027819Y-130430494D01*
X139027819Y-128954304D02*
X139027819Y-129430494D01*
X139027819Y-129430494D02*
X139504009Y-129478113D01*
X139504009Y-129478113D02*
X139456390Y-129430494D01*
X139456390Y-129430494D02*
X139408771Y-129335256D01*
X139408771Y-129335256D02*
X139408771Y-129097161D01*
X139408771Y-129097161D02*
X139456390Y-129001923D01*
X139456390Y-129001923D02*
X139504009Y-128954304D01*
X139504009Y-128954304D02*
X139599247Y-128906685D01*
X139599247Y-128906685D02*
X139837342Y-128906685D01*
X139837342Y-128906685D02*
X139932580Y-128954304D01*
X139932580Y-128954304D02*
X139980200Y-129001923D01*
X139980200Y-129001923D02*
X140027819Y-129097161D01*
X140027819Y-129097161D02*
X140027819Y-129335256D01*
X140027819Y-129335256D02*
X139980200Y-129430494D01*
X139980200Y-129430494D02*
X139932580Y-129478113D01*
X118959333Y-112468819D02*
X118626000Y-111992628D01*
X118387905Y-112468819D02*
X118387905Y-111468819D01*
X118387905Y-111468819D02*
X118768857Y-111468819D01*
X118768857Y-111468819D02*
X118864095Y-111516438D01*
X118864095Y-111516438D02*
X118911714Y-111564057D01*
X118911714Y-111564057D02*
X118959333Y-111659295D01*
X118959333Y-111659295D02*
X118959333Y-111802152D01*
X118959333Y-111802152D02*
X118911714Y-111897390D01*
X118911714Y-111897390D02*
X118864095Y-111945009D01*
X118864095Y-111945009D02*
X118768857Y-111992628D01*
X118768857Y-111992628D02*
X118387905Y-111992628D01*
X119816476Y-111468819D02*
X119626000Y-111468819D01*
X119626000Y-111468819D02*
X119530762Y-111516438D01*
X119530762Y-111516438D02*
X119483143Y-111564057D01*
X119483143Y-111564057D02*
X119387905Y-111706914D01*
X119387905Y-111706914D02*
X119340286Y-111897390D01*
X119340286Y-111897390D02*
X119340286Y-112278342D01*
X119340286Y-112278342D02*
X119387905Y-112373580D01*
X119387905Y-112373580D02*
X119435524Y-112421200D01*
X119435524Y-112421200D02*
X119530762Y-112468819D01*
X119530762Y-112468819D02*
X119721238Y-112468819D01*
X119721238Y-112468819D02*
X119816476Y-112421200D01*
X119816476Y-112421200D02*
X119864095Y-112373580D01*
X119864095Y-112373580D02*
X119911714Y-112278342D01*
X119911714Y-112278342D02*
X119911714Y-112040247D01*
X119911714Y-112040247D02*
X119864095Y-111945009D01*
X119864095Y-111945009D02*
X119816476Y-111897390D01*
X119816476Y-111897390D02*
X119721238Y-111849771D01*
X119721238Y-111849771D02*
X119530762Y-111849771D01*
X119530762Y-111849771D02*
X119435524Y-111897390D01*
X119435524Y-111897390D02*
X119387905Y-111945009D01*
X119387905Y-111945009D02*
X119340286Y-112040247D01*
X112641142Y-144218819D02*
X112307809Y-143742628D01*
X112069714Y-144218819D02*
X112069714Y-143218819D01*
X112069714Y-143218819D02*
X112450666Y-143218819D01*
X112450666Y-143218819D02*
X112545904Y-143266438D01*
X112545904Y-143266438D02*
X112593523Y-143314057D01*
X112593523Y-143314057D02*
X112641142Y-143409295D01*
X112641142Y-143409295D02*
X112641142Y-143552152D01*
X112641142Y-143552152D02*
X112593523Y-143647390D01*
X112593523Y-143647390D02*
X112545904Y-143695009D01*
X112545904Y-143695009D02*
X112450666Y-143742628D01*
X112450666Y-143742628D02*
X112069714Y-143742628D01*
X113593523Y-144218819D02*
X113022095Y-144218819D01*
X113307809Y-144218819D02*
X113307809Y-143218819D01*
X113307809Y-143218819D02*
X113212571Y-143361676D01*
X113212571Y-143361676D02*
X113117333Y-143456914D01*
X113117333Y-143456914D02*
X113022095Y-143504533D01*
X114450666Y-143552152D02*
X114450666Y-144218819D01*
X114212571Y-143171200D02*
X113974476Y-143885485D01*
X113974476Y-143885485D02*
X114593523Y-143885485D01*
X132840505Y-103070819D02*
X132840505Y-102070819D01*
X132840505Y-102070819D02*
X133078600Y-102070819D01*
X133078600Y-102070819D02*
X133221457Y-102118438D01*
X133221457Y-102118438D02*
X133316695Y-102213676D01*
X133316695Y-102213676D02*
X133364314Y-102308914D01*
X133364314Y-102308914D02*
X133411933Y-102499390D01*
X133411933Y-102499390D02*
X133411933Y-102642247D01*
X133411933Y-102642247D02*
X133364314Y-102832723D01*
X133364314Y-102832723D02*
X133316695Y-102927961D01*
X133316695Y-102927961D02*
X133221457Y-103023200D01*
X133221457Y-103023200D02*
X133078600Y-103070819D01*
X133078600Y-103070819D02*
X132840505Y-103070819D01*
X134269076Y-102070819D02*
X134078600Y-102070819D01*
X134078600Y-102070819D02*
X133983362Y-102118438D01*
X133983362Y-102118438D02*
X133935743Y-102166057D01*
X133935743Y-102166057D02*
X133840505Y-102308914D01*
X133840505Y-102308914D02*
X133792886Y-102499390D01*
X133792886Y-102499390D02*
X133792886Y-102880342D01*
X133792886Y-102880342D02*
X133840505Y-102975580D01*
X133840505Y-102975580D02*
X133888124Y-103023200D01*
X133888124Y-103023200D02*
X133983362Y-103070819D01*
X133983362Y-103070819D02*
X134173838Y-103070819D01*
X134173838Y-103070819D02*
X134269076Y-103023200D01*
X134269076Y-103023200D02*
X134316695Y-102975580D01*
X134316695Y-102975580D02*
X134364314Y-102880342D01*
X134364314Y-102880342D02*
X134364314Y-102642247D01*
X134364314Y-102642247D02*
X134316695Y-102547009D01*
X134316695Y-102547009D02*
X134269076Y-102499390D01*
X134269076Y-102499390D02*
X134173838Y-102451771D01*
X134173838Y-102451771D02*
X133983362Y-102451771D01*
X133983362Y-102451771D02*
X133888124Y-102499390D01*
X133888124Y-102499390D02*
X133840505Y-102547009D01*
X133840505Y-102547009D02*
X133792886Y-102642247D01*
X118483142Y-103324819D02*
X118149809Y-102848628D01*
X117911714Y-103324819D02*
X117911714Y-102324819D01*
X117911714Y-102324819D02*
X118292666Y-102324819D01*
X118292666Y-102324819D02*
X118387904Y-102372438D01*
X118387904Y-102372438D02*
X118435523Y-102420057D01*
X118435523Y-102420057D02*
X118483142Y-102515295D01*
X118483142Y-102515295D02*
X118483142Y-102658152D01*
X118483142Y-102658152D02*
X118435523Y-102753390D01*
X118435523Y-102753390D02*
X118387904Y-102801009D01*
X118387904Y-102801009D02*
X118292666Y-102848628D01*
X118292666Y-102848628D02*
X117911714Y-102848628D01*
X119435523Y-103324819D02*
X118864095Y-103324819D01*
X119149809Y-103324819D02*
X119149809Y-102324819D01*
X119149809Y-102324819D02*
X119054571Y-102467676D01*
X119054571Y-102467676D02*
X118959333Y-102562914D01*
X118959333Y-102562914D02*
X118864095Y-102610533D01*
X119816476Y-102420057D02*
X119864095Y-102372438D01*
X119864095Y-102372438D02*
X119959333Y-102324819D01*
X119959333Y-102324819D02*
X120197428Y-102324819D01*
X120197428Y-102324819D02*
X120292666Y-102372438D01*
X120292666Y-102372438D02*
X120340285Y-102420057D01*
X120340285Y-102420057D02*
X120387904Y-102515295D01*
X120387904Y-102515295D02*
X120387904Y-102610533D01*
X120387904Y-102610533D02*
X120340285Y-102753390D01*
X120340285Y-102753390D02*
X119768857Y-103324819D01*
X119768857Y-103324819D02*
X120387904Y-103324819D01*
X135008333Y-123676580D02*
X134960714Y-123724200D01*
X134960714Y-123724200D02*
X134817857Y-123771819D01*
X134817857Y-123771819D02*
X134722619Y-123771819D01*
X134722619Y-123771819D02*
X134579762Y-123724200D01*
X134579762Y-123724200D02*
X134484524Y-123628961D01*
X134484524Y-123628961D02*
X134436905Y-123533723D01*
X134436905Y-123533723D02*
X134389286Y-123343247D01*
X134389286Y-123343247D02*
X134389286Y-123200390D01*
X134389286Y-123200390D02*
X134436905Y-123009914D01*
X134436905Y-123009914D02*
X134484524Y-122914676D01*
X134484524Y-122914676D02*
X134579762Y-122819438D01*
X134579762Y-122819438D02*
X134722619Y-122771819D01*
X134722619Y-122771819D02*
X134817857Y-122771819D01*
X134817857Y-122771819D02*
X134960714Y-122819438D01*
X134960714Y-122819438D02*
X135008333Y-122867057D01*
X135913095Y-122771819D02*
X135436905Y-122771819D01*
X135436905Y-122771819D02*
X135389286Y-123248009D01*
X135389286Y-123248009D02*
X135436905Y-123200390D01*
X135436905Y-123200390D02*
X135532143Y-123152771D01*
X135532143Y-123152771D02*
X135770238Y-123152771D01*
X135770238Y-123152771D02*
X135865476Y-123200390D01*
X135865476Y-123200390D02*
X135913095Y-123248009D01*
X135913095Y-123248009D02*
X135960714Y-123343247D01*
X135960714Y-123343247D02*
X135960714Y-123581342D01*
X135960714Y-123581342D02*
X135913095Y-123676580D01*
X135913095Y-123676580D02*
X135865476Y-123724200D01*
X135865476Y-123724200D02*
X135770238Y-123771819D01*
X135770238Y-123771819D02*
X135532143Y-123771819D01*
X135532143Y-123771819D02*
X135436905Y-123724200D01*
X135436905Y-123724200D02*
X135389286Y-123676580D01*
X141932819Y-62510894D02*
X140932819Y-62510894D01*
X140932819Y-62510894D02*
X140932819Y-62272799D01*
X140932819Y-62272799D02*
X140980438Y-62129942D01*
X140980438Y-62129942D02*
X141075676Y-62034704D01*
X141075676Y-62034704D02*
X141170914Y-61987085D01*
X141170914Y-61987085D02*
X141361390Y-61939466D01*
X141361390Y-61939466D02*
X141504247Y-61939466D01*
X141504247Y-61939466D02*
X141694723Y-61987085D01*
X141694723Y-61987085D02*
X141789961Y-62034704D01*
X141789961Y-62034704D02*
X141885200Y-62129942D01*
X141885200Y-62129942D02*
X141932819Y-62272799D01*
X141932819Y-62272799D02*
X141932819Y-62510894D01*
X140932819Y-61606132D02*
X140932819Y-60987085D01*
X140932819Y-60987085D02*
X141313771Y-61320418D01*
X141313771Y-61320418D02*
X141313771Y-61177561D01*
X141313771Y-61177561D02*
X141361390Y-61082323D01*
X141361390Y-61082323D02*
X141409009Y-61034704D01*
X141409009Y-61034704D02*
X141504247Y-60987085D01*
X141504247Y-60987085D02*
X141742342Y-60987085D01*
X141742342Y-60987085D02*
X141837580Y-61034704D01*
X141837580Y-61034704D02*
X141885200Y-61082323D01*
X141885200Y-61082323D02*
X141932819Y-61177561D01*
X141932819Y-61177561D02*
X141932819Y-61463275D01*
X141932819Y-61463275D02*
X141885200Y-61558513D01*
X141885200Y-61558513D02*
X141837580Y-61606132D01*
X112087819Y-136532857D02*
X111611628Y-136866190D01*
X112087819Y-137104285D02*
X111087819Y-137104285D01*
X111087819Y-137104285D02*
X111087819Y-136723333D01*
X111087819Y-136723333D02*
X111135438Y-136628095D01*
X111135438Y-136628095D02*
X111183057Y-136580476D01*
X111183057Y-136580476D02*
X111278295Y-136532857D01*
X111278295Y-136532857D02*
X111421152Y-136532857D01*
X111421152Y-136532857D02*
X111516390Y-136580476D01*
X111516390Y-136580476D02*
X111564009Y-136628095D01*
X111564009Y-136628095D02*
X111611628Y-136723333D01*
X111611628Y-136723333D02*
X111611628Y-137104285D01*
X112087819Y-135580476D02*
X112087819Y-136151904D01*
X112087819Y-135866190D02*
X111087819Y-135866190D01*
X111087819Y-135866190D02*
X111230676Y-135961428D01*
X111230676Y-135961428D02*
X111325914Y-136056666D01*
X111325914Y-136056666D02*
X111373533Y-136151904D01*
X111087819Y-135247142D02*
X111087819Y-134628095D01*
X111087819Y-134628095D02*
X111468771Y-134961428D01*
X111468771Y-134961428D02*
X111468771Y-134818571D01*
X111468771Y-134818571D02*
X111516390Y-134723333D01*
X111516390Y-134723333D02*
X111564009Y-134675714D01*
X111564009Y-134675714D02*
X111659247Y-134628095D01*
X111659247Y-134628095D02*
X111897342Y-134628095D01*
X111897342Y-134628095D02*
X111992580Y-134675714D01*
X111992580Y-134675714D02*
X112040200Y-134723333D01*
X112040200Y-134723333D02*
X112087819Y-134818571D01*
X112087819Y-134818571D02*
X112087819Y-135104285D01*
X112087819Y-135104285D02*
X112040200Y-135199523D01*
X112040200Y-135199523D02*
X111992580Y-135247142D01*
X86052819Y-80684666D02*
X85576628Y-81017999D01*
X86052819Y-81256094D02*
X85052819Y-81256094D01*
X85052819Y-81256094D02*
X85052819Y-80875142D01*
X85052819Y-80875142D02*
X85100438Y-80779904D01*
X85100438Y-80779904D02*
X85148057Y-80732285D01*
X85148057Y-80732285D02*
X85243295Y-80684666D01*
X85243295Y-80684666D02*
X85386152Y-80684666D01*
X85386152Y-80684666D02*
X85481390Y-80732285D01*
X85481390Y-80732285D02*
X85529009Y-80779904D01*
X85529009Y-80779904D02*
X85576628Y-80875142D01*
X85576628Y-80875142D02*
X85576628Y-81256094D01*
X85481390Y-80113237D02*
X85433771Y-80208475D01*
X85433771Y-80208475D02*
X85386152Y-80256094D01*
X85386152Y-80256094D02*
X85290914Y-80303713D01*
X85290914Y-80303713D02*
X85243295Y-80303713D01*
X85243295Y-80303713D02*
X85148057Y-80256094D01*
X85148057Y-80256094D02*
X85100438Y-80208475D01*
X85100438Y-80208475D02*
X85052819Y-80113237D01*
X85052819Y-80113237D02*
X85052819Y-79922761D01*
X85052819Y-79922761D02*
X85100438Y-79827523D01*
X85100438Y-79827523D02*
X85148057Y-79779904D01*
X85148057Y-79779904D02*
X85243295Y-79732285D01*
X85243295Y-79732285D02*
X85290914Y-79732285D01*
X85290914Y-79732285D02*
X85386152Y-79779904D01*
X85386152Y-79779904D02*
X85433771Y-79827523D01*
X85433771Y-79827523D02*
X85481390Y-79922761D01*
X85481390Y-79922761D02*
X85481390Y-80113237D01*
X85481390Y-80113237D02*
X85529009Y-80208475D01*
X85529009Y-80208475D02*
X85576628Y-80256094D01*
X85576628Y-80256094D02*
X85671866Y-80303713D01*
X85671866Y-80303713D02*
X85862342Y-80303713D01*
X85862342Y-80303713D02*
X85957580Y-80256094D01*
X85957580Y-80256094D02*
X86005200Y-80208475D01*
X86005200Y-80208475D02*
X86052819Y-80113237D01*
X86052819Y-80113237D02*
X86052819Y-79922761D01*
X86052819Y-79922761D02*
X86005200Y-79827523D01*
X86005200Y-79827523D02*
X85957580Y-79779904D01*
X85957580Y-79779904D02*
X85862342Y-79732285D01*
X85862342Y-79732285D02*
X85671866Y-79732285D01*
X85671866Y-79732285D02*
X85576628Y-79779904D01*
X85576628Y-79779904D02*
X85529009Y-79827523D01*
X85529009Y-79827523D02*
X85481390Y-79922761D01*
X125888761Y-131868057D02*
X125793523Y-131820438D01*
X125793523Y-131820438D02*
X125698285Y-131725200D01*
X125698285Y-131725200D02*
X125555428Y-131582342D01*
X125555428Y-131582342D02*
X125460190Y-131534723D01*
X125460190Y-131534723D02*
X125364952Y-131534723D01*
X125412571Y-131772819D02*
X125317333Y-131725200D01*
X125317333Y-131725200D02*
X125222095Y-131629961D01*
X125222095Y-131629961D02*
X125174476Y-131439485D01*
X125174476Y-131439485D02*
X125174476Y-131106152D01*
X125174476Y-131106152D02*
X125222095Y-130915676D01*
X125222095Y-130915676D02*
X125317333Y-130820438D01*
X125317333Y-130820438D02*
X125412571Y-130772819D01*
X125412571Y-130772819D02*
X125603047Y-130772819D01*
X125603047Y-130772819D02*
X125698285Y-130820438D01*
X125698285Y-130820438D02*
X125793523Y-130915676D01*
X125793523Y-130915676D02*
X125841142Y-131106152D01*
X125841142Y-131106152D02*
X125841142Y-131439485D01*
X125841142Y-131439485D02*
X125793523Y-131629961D01*
X125793523Y-131629961D02*
X125698285Y-131725200D01*
X125698285Y-131725200D02*
X125603047Y-131772819D01*
X125603047Y-131772819D02*
X125412571Y-131772819D01*
X126222095Y-130868057D02*
X126269714Y-130820438D01*
X126269714Y-130820438D02*
X126364952Y-130772819D01*
X126364952Y-130772819D02*
X126603047Y-130772819D01*
X126603047Y-130772819D02*
X126698285Y-130820438D01*
X126698285Y-130820438D02*
X126745904Y-130868057D01*
X126745904Y-130868057D02*
X126793523Y-130963295D01*
X126793523Y-130963295D02*
X126793523Y-131058533D01*
X126793523Y-131058533D02*
X126745904Y-131201390D01*
X126745904Y-131201390D02*
X126174476Y-131772819D01*
X126174476Y-131772819D02*
X126793523Y-131772819D01*
X132453142Y-100276819D02*
X132119809Y-99800628D01*
X131881714Y-100276819D02*
X131881714Y-99276819D01*
X131881714Y-99276819D02*
X132262666Y-99276819D01*
X132262666Y-99276819D02*
X132357904Y-99324438D01*
X132357904Y-99324438D02*
X132405523Y-99372057D01*
X132405523Y-99372057D02*
X132453142Y-99467295D01*
X132453142Y-99467295D02*
X132453142Y-99610152D01*
X132453142Y-99610152D02*
X132405523Y-99705390D01*
X132405523Y-99705390D02*
X132357904Y-99753009D01*
X132357904Y-99753009D02*
X132262666Y-99800628D01*
X132262666Y-99800628D02*
X131881714Y-99800628D01*
X133405523Y-100276819D02*
X132834095Y-100276819D01*
X133119809Y-100276819D02*
X133119809Y-99276819D01*
X133119809Y-99276819D02*
X133024571Y-99419676D01*
X133024571Y-99419676D02*
X132929333Y-99514914D01*
X132929333Y-99514914D02*
X132834095Y-99562533D01*
X134024571Y-99276819D02*
X134119809Y-99276819D01*
X134119809Y-99276819D02*
X134215047Y-99324438D01*
X134215047Y-99324438D02*
X134262666Y-99372057D01*
X134262666Y-99372057D02*
X134310285Y-99467295D01*
X134310285Y-99467295D02*
X134357904Y-99657771D01*
X134357904Y-99657771D02*
X134357904Y-99895866D01*
X134357904Y-99895866D02*
X134310285Y-100086342D01*
X134310285Y-100086342D02*
X134262666Y-100181580D01*
X134262666Y-100181580D02*
X134215047Y-100229200D01*
X134215047Y-100229200D02*
X134119809Y-100276819D01*
X134119809Y-100276819D02*
X134024571Y-100276819D01*
X134024571Y-100276819D02*
X133929333Y-100229200D01*
X133929333Y-100229200D02*
X133881714Y-100181580D01*
X133881714Y-100181580D02*
X133834095Y-100086342D01*
X133834095Y-100086342D02*
X133786476Y-99895866D01*
X133786476Y-99895866D02*
X133786476Y-99657771D01*
X133786476Y-99657771D02*
X133834095Y-99467295D01*
X133834095Y-99467295D02*
X133881714Y-99372057D01*
X133881714Y-99372057D02*
X133929333Y-99324438D01*
X133929333Y-99324438D02*
X134024571Y-99276819D01*
X122078761Y-95669057D02*
X121983523Y-95621438D01*
X121983523Y-95621438D02*
X121888285Y-95526200D01*
X121888285Y-95526200D02*
X121745428Y-95383342D01*
X121745428Y-95383342D02*
X121650190Y-95335723D01*
X121650190Y-95335723D02*
X121554952Y-95335723D01*
X121602571Y-95573819D02*
X121507333Y-95526200D01*
X121507333Y-95526200D02*
X121412095Y-95430961D01*
X121412095Y-95430961D02*
X121364476Y-95240485D01*
X121364476Y-95240485D02*
X121364476Y-94907152D01*
X121364476Y-94907152D02*
X121412095Y-94716676D01*
X121412095Y-94716676D02*
X121507333Y-94621438D01*
X121507333Y-94621438D02*
X121602571Y-94573819D01*
X121602571Y-94573819D02*
X121793047Y-94573819D01*
X121793047Y-94573819D02*
X121888285Y-94621438D01*
X121888285Y-94621438D02*
X121983523Y-94716676D01*
X121983523Y-94716676D02*
X122031142Y-94907152D01*
X122031142Y-94907152D02*
X122031142Y-95240485D01*
X122031142Y-95240485D02*
X121983523Y-95430961D01*
X121983523Y-95430961D02*
X121888285Y-95526200D01*
X121888285Y-95526200D02*
X121793047Y-95573819D01*
X121793047Y-95573819D02*
X121602571Y-95573819D01*
X122935904Y-94573819D02*
X122459714Y-94573819D01*
X122459714Y-94573819D02*
X122412095Y-95050009D01*
X122412095Y-95050009D02*
X122459714Y-95002390D01*
X122459714Y-95002390D02*
X122554952Y-94954771D01*
X122554952Y-94954771D02*
X122793047Y-94954771D01*
X122793047Y-94954771D02*
X122888285Y-95002390D01*
X122888285Y-95002390D02*
X122935904Y-95050009D01*
X122935904Y-95050009D02*
X122983523Y-95145247D01*
X122983523Y-95145247D02*
X122983523Y-95383342D01*
X122983523Y-95383342D02*
X122935904Y-95478580D01*
X122935904Y-95478580D02*
X122888285Y-95526200D01*
X122888285Y-95526200D02*
X122793047Y-95573819D01*
X122793047Y-95573819D02*
X122554952Y-95573819D01*
X122554952Y-95573819D02*
X122459714Y-95526200D01*
X122459714Y-95526200D02*
X122412095Y-95478580D01*
X115135819Y-136056666D02*
X114659628Y-136389999D01*
X115135819Y-136628094D02*
X114135819Y-136628094D01*
X114135819Y-136628094D02*
X114135819Y-136247142D01*
X114135819Y-136247142D02*
X114183438Y-136151904D01*
X114183438Y-136151904D02*
X114231057Y-136104285D01*
X114231057Y-136104285D02*
X114326295Y-136056666D01*
X114326295Y-136056666D02*
X114469152Y-136056666D01*
X114469152Y-136056666D02*
X114564390Y-136104285D01*
X114564390Y-136104285D02*
X114612009Y-136151904D01*
X114612009Y-136151904D02*
X114659628Y-136247142D01*
X114659628Y-136247142D02*
X114659628Y-136628094D01*
X115135819Y-135104285D02*
X115135819Y-135675713D01*
X115135819Y-135389999D02*
X114135819Y-135389999D01*
X114135819Y-135389999D02*
X114278676Y-135485237D01*
X114278676Y-135485237D02*
X114373914Y-135580475D01*
X114373914Y-135580475D02*
X114421533Y-135675713D01*
X94004819Y-120112857D02*
X93528628Y-120446190D01*
X94004819Y-120684285D02*
X93004819Y-120684285D01*
X93004819Y-120684285D02*
X93004819Y-120303333D01*
X93004819Y-120303333D02*
X93052438Y-120208095D01*
X93052438Y-120208095D02*
X93100057Y-120160476D01*
X93100057Y-120160476D02*
X93195295Y-120112857D01*
X93195295Y-120112857D02*
X93338152Y-120112857D01*
X93338152Y-120112857D02*
X93433390Y-120160476D01*
X93433390Y-120160476D02*
X93481009Y-120208095D01*
X93481009Y-120208095D02*
X93528628Y-120303333D01*
X93528628Y-120303333D02*
X93528628Y-120684285D01*
X94004819Y-119160476D02*
X94004819Y-119731904D01*
X94004819Y-119446190D02*
X93004819Y-119446190D01*
X93004819Y-119446190D02*
X93147676Y-119541428D01*
X93147676Y-119541428D02*
X93242914Y-119636666D01*
X93242914Y-119636666D02*
X93290533Y-119731904D01*
X93004819Y-118827142D02*
X93004819Y-118160476D01*
X93004819Y-118160476D02*
X94004819Y-118589047D01*
X118324333Y-127200819D02*
X117991000Y-126724628D01*
X117752905Y-127200819D02*
X117752905Y-126200819D01*
X117752905Y-126200819D02*
X118133857Y-126200819D01*
X118133857Y-126200819D02*
X118229095Y-126248438D01*
X118229095Y-126248438D02*
X118276714Y-126296057D01*
X118276714Y-126296057D02*
X118324333Y-126391295D01*
X118324333Y-126391295D02*
X118324333Y-126534152D01*
X118324333Y-126534152D02*
X118276714Y-126629390D01*
X118276714Y-126629390D02*
X118229095Y-126677009D01*
X118229095Y-126677009D02*
X118133857Y-126724628D01*
X118133857Y-126724628D02*
X117752905Y-126724628D01*
X119181476Y-126534152D02*
X119181476Y-127200819D01*
X118943381Y-126153200D02*
X118705286Y-126867485D01*
X118705286Y-126867485D02*
X119324333Y-126867485D01*
X118776761Y-114977057D02*
X118681523Y-114929438D01*
X118681523Y-114929438D02*
X118586285Y-114834200D01*
X118586285Y-114834200D02*
X118443428Y-114691342D01*
X118443428Y-114691342D02*
X118348190Y-114643723D01*
X118348190Y-114643723D02*
X118252952Y-114643723D01*
X118300571Y-114881819D02*
X118205333Y-114834200D01*
X118205333Y-114834200D02*
X118110095Y-114738961D01*
X118110095Y-114738961D02*
X118062476Y-114548485D01*
X118062476Y-114548485D02*
X118062476Y-114215152D01*
X118062476Y-114215152D02*
X118110095Y-114024676D01*
X118110095Y-114024676D02*
X118205333Y-113929438D01*
X118205333Y-113929438D02*
X118300571Y-113881819D01*
X118300571Y-113881819D02*
X118491047Y-113881819D01*
X118491047Y-113881819D02*
X118586285Y-113929438D01*
X118586285Y-113929438D02*
X118681523Y-114024676D01*
X118681523Y-114024676D02*
X118729142Y-114215152D01*
X118729142Y-114215152D02*
X118729142Y-114548485D01*
X118729142Y-114548485D02*
X118681523Y-114738961D01*
X118681523Y-114738961D02*
X118586285Y-114834200D01*
X118586285Y-114834200D02*
X118491047Y-114881819D01*
X118491047Y-114881819D02*
X118300571Y-114881819D01*
X119062476Y-113881819D02*
X119681523Y-113881819D01*
X119681523Y-113881819D02*
X119348190Y-114262771D01*
X119348190Y-114262771D02*
X119491047Y-114262771D01*
X119491047Y-114262771D02*
X119586285Y-114310390D01*
X119586285Y-114310390D02*
X119633904Y-114358009D01*
X119633904Y-114358009D02*
X119681523Y-114453247D01*
X119681523Y-114453247D02*
X119681523Y-114691342D01*
X119681523Y-114691342D02*
X119633904Y-114786580D01*
X119633904Y-114786580D02*
X119586285Y-114834200D01*
X119586285Y-114834200D02*
X119491047Y-114881819D01*
X119491047Y-114881819D02*
X119205333Y-114881819D01*
X119205333Y-114881819D02*
X119110095Y-114834200D01*
X119110095Y-114834200D02*
X119062476Y-114786580D01*
X134185819Y-131960857D02*
X133709628Y-132294190D01*
X134185819Y-132532285D02*
X133185819Y-132532285D01*
X133185819Y-132532285D02*
X133185819Y-132151333D01*
X133185819Y-132151333D02*
X133233438Y-132056095D01*
X133233438Y-132056095D02*
X133281057Y-132008476D01*
X133281057Y-132008476D02*
X133376295Y-131960857D01*
X133376295Y-131960857D02*
X133519152Y-131960857D01*
X133519152Y-131960857D02*
X133614390Y-132008476D01*
X133614390Y-132008476D02*
X133662009Y-132056095D01*
X133662009Y-132056095D02*
X133709628Y-132151333D01*
X133709628Y-132151333D02*
X133709628Y-132532285D01*
X134185819Y-131008476D02*
X134185819Y-131579904D01*
X134185819Y-131294190D02*
X133185819Y-131294190D01*
X133185819Y-131294190D02*
X133328676Y-131389428D01*
X133328676Y-131389428D02*
X133423914Y-131484666D01*
X133423914Y-131484666D02*
X133471533Y-131579904D01*
X133185819Y-130151333D02*
X133185819Y-130341809D01*
X133185819Y-130341809D02*
X133233438Y-130437047D01*
X133233438Y-130437047D02*
X133281057Y-130484666D01*
X133281057Y-130484666D02*
X133423914Y-130579904D01*
X133423914Y-130579904D02*
X133614390Y-130627523D01*
X133614390Y-130627523D02*
X133995342Y-130627523D01*
X133995342Y-130627523D02*
X134090580Y-130579904D01*
X134090580Y-130579904D02*
X134138200Y-130532285D01*
X134138200Y-130532285D02*
X134185819Y-130437047D01*
X134185819Y-130437047D02*
X134185819Y-130246571D01*
X134185819Y-130246571D02*
X134138200Y-130151333D01*
X134138200Y-130151333D02*
X134090580Y-130103714D01*
X134090580Y-130103714D02*
X133995342Y-130056095D01*
X133995342Y-130056095D02*
X133757247Y-130056095D01*
X133757247Y-130056095D02*
X133662009Y-130103714D01*
X133662009Y-130103714D02*
X133614390Y-130151333D01*
X133614390Y-130151333D02*
X133566771Y-130246571D01*
X133566771Y-130246571D02*
X133566771Y-130437047D01*
X133566771Y-130437047D02*
X133614390Y-130532285D01*
X133614390Y-130532285D02*
X133662009Y-130579904D01*
X133662009Y-130579904D02*
X133757247Y-130627523D01*
X108532333Y-86261580D02*
X108484714Y-86309200D01*
X108484714Y-86309200D02*
X108341857Y-86356819D01*
X108341857Y-86356819D02*
X108246619Y-86356819D01*
X108246619Y-86356819D02*
X108103762Y-86309200D01*
X108103762Y-86309200D02*
X108008524Y-86213961D01*
X108008524Y-86213961D02*
X107960905Y-86118723D01*
X107960905Y-86118723D02*
X107913286Y-85928247D01*
X107913286Y-85928247D02*
X107913286Y-85785390D01*
X107913286Y-85785390D02*
X107960905Y-85594914D01*
X107960905Y-85594914D02*
X108008524Y-85499676D01*
X108008524Y-85499676D02*
X108103762Y-85404438D01*
X108103762Y-85404438D02*
X108246619Y-85356819D01*
X108246619Y-85356819D02*
X108341857Y-85356819D01*
X108341857Y-85356819D02*
X108484714Y-85404438D01*
X108484714Y-85404438D02*
X108532333Y-85452057D01*
X109008524Y-86356819D02*
X109199000Y-86356819D01*
X109199000Y-86356819D02*
X109294238Y-86309200D01*
X109294238Y-86309200D02*
X109341857Y-86261580D01*
X109341857Y-86261580D02*
X109437095Y-86118723D01*
X109437095Y-86118723D02*
X109484714Y-85928247D01*
X109484714Y-85928247D02*
X109484714Y-85547295D01*
X109484714Y-85547295D02*
X109437095Y-85452057D01*
X109437095Y-85452057D02*
X109389476Y-85404438D01*
X109389476Y-85404438D02*
X109294238Y-85356819D01*
X109294238Y-85356819D02*
X109103762Y-85356819D01*
X109103762Y-85356819D02*
X109008524Y-85404438D01*
X109008524Y-85404438D02*
X108960905Y-85452057D01*
X108960905Y-85452057D02*
X108913286Y-85547295D01*
X108913286Y-85547295D02*
X108913286Y-85785390D01*
X108913286Y-85785390D02*
X108960905Y-85880628D01*
X108960905Y-85880628D02*
X109008524Y-85928247D01*
X109008524Y-85928247D02*
X109103762Y-85975866D01*
X109103762Y-85975866D02*
X109294238Y-85975866D01*
X109294238Y-85975866D02*
X109389476Y-85928247D01*
X109389476Y-85928247D02*
X109437095Y-85880628D01*
X109437095Y-85880628D02*
X109484714Y-85785390D01*
X113990333Y-91545580D02*
X113942714Y-91593200D01*
X113942714Y-91593200D02*
X113799857Y-91640819D01*
X113799857Y-91640819D02*
X113704619Y-91640819D01*
X113704619Y-91640819D02*
X113561762Y-91593200D01*
X113561762Y-91593200D02*
X113466524Y-91497961D01*
X113466524Y-91497961D02*
X113418905Y-91402723D01*
X113418905Y-91402723D02*
X113371286Y-91212247D01*
X113371286Y-91212247D02*
X113371286Y-91069390D01*
X113371286Y-91069390D02*
X113418905Y-90878914D01*
X113418905Y-90878914D02*
X113466524Y-90783676D01*
X113466524Y-90783676D02*
X113561762Y-90688438D01*
X113561762Y-90688438D02*
X113704619Y-90640819D01*
X113704619Y-90640819D02*
X113799857Y-90640819D01*
X113799857Y-90640819D02*
X113942714Y-90688438D01*
X113942714Y-90688438D02*
X113990333Y-90736057D01*
X114371286Y-90736057D02*
X114418905Y-90688438D01*
X114418905Y-90688438D02*
X114514143Y-90640819D01*
X114514143Y-90640819D02*
X114752238Y-90640819D01*
X114752238Y-90640819D02*
X114847476Y-90688438D01*
X114847476Y-90688438D02*
X114895095Y-90736057D01*
X114895095Y-90736057D02*
X114942714Y-90831295D01*
X114942714Y-90831295D02*
X114942714Y-90926533D01*
X114942714Y-90926533D02*
X114895095Y-91069390D01*
X114895095Y-91069390D02*
X114323667Y-91640819D01*
X114323667Y-91640819D02*
X114942714Y-91640819D01*
X118483142Y-106372819D02*
X118149809Y-105896628D01*
X117911714Y-106372819D02*
X117911714Y-105372819D01*
X117911714Y-105372819D02*
X118292666Y-105372819D01*
X118292666Y-105372819D02*
X118387904Y-105420438D01*
X118387904Y-105420438D02*
X118435523Y-105468057D01*
X118435523Y-105468057D02*
X118483142Y-105563295D01*
X118483142Y-105563295D02*
X118483142Y-105706152D01*
X118483142Y-105706152D02*
X118435523Y-105801390D01*
X118435523Y-105801390D02*
X118387904Y-105849009D01*
X118387904Y-105849009D02*
X118292666Y-105896628D01*
X118292666Y-105896628D02*
X117911714Y-105896628D01*
X119435523Y-106372819D02*
X118864095Y-106372819D01*
X119149809Y-106372819D02*
X119149809Y-105372819D01*
X119149809Y-105372819D02*
X119054571Y-105515676D01*
X119054571Y-105515676D02*
X118959333Y-105610914D01*
X118959333Y-105610914D02*
X118864095Y-105658533D01*
X120006952Y-105801390D02*
X119911714Y-105753771D01*
X119911714Y-105753771D02*
X119864095Y-105706152D01*
X119864095Y-105706152D02*
X119816476Y-105610914D01*
X119816476Y-105610914D02*
X119816476Y-105563295D01*
X119816476Y-105563295D02*
X119864095Y-105468057D01*
X119864095Y-105468057D02*
X119911714Y-105420438D01*
X119911714Y-105420438D02*
X120006952Y-105372819D01*
X120006952Y-105372819D02*
X120197428Y-105372819D01*
X120197428Y-105372819D02*
X120292666Y-105420438D01*
X120292666Y-105420438D02*
X120340285Y-105468057D01*
X120340285Y-105468057D02*
X120387904Y-105563295D01*
X120387904Y-105563295D02*
X120387904Y-105610914D01*
X120387904Y-105610914D02*
X120340285Y-105706152D01*
X120340285Y-105706152D02*
X120292666Y-105753771D01*
X120292666Y-105753771D02*
X120197428Y-105801390D01*
X120197428Y-105801390D02*
X120006952Y-105801390D01*
X120006952Y-105801390D02*
X119911714Y-105849009D01*
X119911714Y-105849009D02*
X119864095Y-105896628D01*
X119864095Y-105896628D02*
X119816476Y-105991866D01*
X119816476Y-105991866D02*
X119816476Y-106182342D01*
X119816476Y-106182342D02*
X119864095Y-106277580D01*
X119864095Y-106277580D02*
X119911714Y-106325200D01*
X119911714Y-106325200D02*
X120006952Y-106372819D01*
X120006952Y-106372819D02*
X120197428Y-106372819D01*
X120197428Y-106372819D02*
X120292666Y-106325200D01*
X120292666Y-106325200D02*
X120340285Y-106277580D01*
X120340285Y-106277580D02*
X120387904Y-106182342D01*
X120387904Y-106182342D02*
X120387904Y-105991866D01*
X120387904Y-105991866D02*
X120340285Y-105896628D01*
X120340285Y-105896628D02*
X120292666Y-105849009D01*
X120292666Y-105849009D02*
X120197428Y-105801390D01*
X130309333Y-112373580D02*
X130261714Y-112421200D01*
X130261714Y-112421200D02*
X130118857Y-112468819D01*
X130118857Y-112468819D02*
X130023619Y-112468819D01*
X130023619Y-112468819D02*
X129880762Y-112421200D01*
X129880762Y-112421200D02*
X129785524Y-112325961D01*
X129785524Y-112325961D02*
X129737905Y-112230723D01*
X129737905Y-112230723D02*
X129690286Y-112040247D01*
X129690286Y-112040247D02*
X129690286Y-111897390D01*
X129690286Y-111897390D02*
X129737905Y-111706914D01*
X129737905Y-111706914D02*
X129785524Y-111611676D01*
X129785524Y-111611676D02*
X129880762Y-111516438D01*
X129880762Y-111516438D02*
X130023619Y-111468819D01*
X130023619Y-111468819D02*
X130118857Y-111468819D01*
X130118857Y-111468819D02*
X130261714Y-111516438D01*
X130261714Y-111516438D02*
X130309333Y-111564057D01*
X131166476Y-111468819D02*
X130976000Y-111468819D01*
X130976000Y-111468819D02*
X130880762Y-111516438D01*
X130880762Y-111516438D02*
X130833143Y-111564057D01*
X130833143Y-111564057D02*
X130737905Y-111706914D01*
X130737905Y-111706914D02*
X130690286Y-111897390D01*
X130690286Y-111897390D02*
X130690286Y-112278342D01*
X130690286Y-112278342D02*
X130737905Y-112373580D01*
X130737905Y-112373580D02*
X130785524Y-112421200D01*
X130785524Y-112421200D02*
X130880762Y-112468819D01*
X130880762Y-112468819D02*
X131071238Y-112468819D01*
X131071238Y-112468819D02*
X131166476Y-112421200D01*
X131166476Y-112421200D02*
X131214095Y-112373580D01*
X131214095Y-112373580D02*
X131261714Y-112278342D01*
X131261714Y-112278342D02*
X131261714Y-112040247D01*
X131261714Y-112040247D02*
X131214095Y-111945009D01*
X131214095Y-111945009D02*
X131166476Y-111897390D01*
X131166476Y-111897390D02*
X131071238Y-111849771D01*
X131071238Y-111849771D02*
X130880762Y-111849771D01*
X130880762Y-111849771D02*
X130785524Y-111897390D01*
X130785524Y-111897390D02*
X130737905Y-111945009D01*
X130737905Y-111945009D02*
X130690286Y-112040247D01*
X132929333Y-97228819D02*
X132596000Y-96752628D01*
X132357905Y-97228819D02*
X132357905Y-96228819D01*
X132357905Y-96228819D02*
X132738857Y-96228819D01*
X132738857Y-96228819D02*
X132834095Y-96276438D01*
X132834095Y-96276438D02*
X132881714Y-96324057D01*
X132881714Y-96324057D02*
X132929333Y-96419295D01*
X132929333Y-96419295D02*
X132929333Y-96562152D01*
X132929333Y-96562152D02*
X132881714Y-96657390D01*
X132881714Y-96657390D02*
X132834095Y-96705009D01*
X132834095Y-96705009D02*
X132738857Y-96752628D01*
X132738857Y-96752628D02*
X132357905Y-96752628D01*
X133262667Y-96228819D02*
X133929333Y-96228819D01*
X133929333Y-96228819D02*
X133500762Y-97228819D01*
X131137819Y-131484666D02*
X130661628Y-131817999D01*
X131137819Y-132056094D02*
X130137819Y-132056094D01*
X130137819Y-132056094D02*
X130137819Y-131675142D01*
X130137819Y-131675142D02*
X130185438Y-131579904D01*
X130185438Y-131579904D02*
X130233057Y-131532285D01*
X130233057Y-131532285D02*
X130328295Y-131484666D01*
X130328295Y-131484666D02*
X130471152Y-131484666D01*
X130471152Y-131484666D02*
X130566390Y-131532285D01*
X130566390Y-131532285D02*
X130614009Y-131579904D01*
X130614009Y-131579904D02*
X130661628Y-131675142D01*
X130661628Y-131675142D02*
X130661628Y-132056094D01*
X130137819Y-131151332D02*
X130137819Y-130532285D01*
X130137819Y-130532285D02*
X130518771Y-130865618D01*
X130518771Y-130865618D02*
X130518771Y-130722761D01*
X130518771Y-130722761D02*
X130566390Y-130627523D01*
X130566390Y-130627523D02*
X130614009Y-130579904D01*
X130614009Y-130579904D02*
X130709247Y-130532285D01*
X130709247Y-130532285D02*
X130947342Y-130532285D01*
X130947342Y-130532285D02*
X131042580Y-130579904D01*
X131042580Y-130579904D02*
X131090200Y-130627523D01*
X131090200Y-130627523D02*
X131137819Y-130722761D01*
X131137819Y-130722761D02*
X131137819Y-131008475D01*
X131137819Y-131008475D02*
X131090200Y-131103713D01*
X131090200Y-131103713D02*
X131042580Y-131151332D01*
X132929333Y-105864819D02*
X132596000Y-105388628D01*
X132357905Y-105864819D02*
X132357905Y-104864819D01*
X132357905Y-104864819D02*
X132738857Y-104864819D01*
X132738857Y-104864819D02*
X132834095Y-104912438D01*
X132834095Y-104912438D02*
X132881714Y-104960057D01*
X132881714Y-104960057D02*
X132929333Y-105055295D01*
X132929333Y-105055295D02*
X132929333Y-105198152D01*
X132929333Y-105198152D02*
X132881714Y-105293390D01*
X132881714Y-105293390D02*
X132834095Y-105341009D01*
X132834095Y-105341009D02*
X132738857Y-105388628D01*
X132738857Y-105388628D02*
X132357905Y-105388628D01*
X133405524Y-105864819D02*
X133596000Y-105864819D01*
X133596000Y-105864819D02*
X133691238Y-105817200D01*
X133691238Y-105817200D02*
X133738857Y-105769580D01*
X133738857Y-105769580D02*
X133834095Y-105626723D01*
X133834095Y-105626723D02*
X133881714Y-105436247D01*
X133881714Y-105436247D02*
X133881714Y-105055295D01*
X133881714Y-105055295D02*
X133834095Y-104960057D01*
X133834095Y-104960057D02*
X133786476Y-104912438D01*
X133786476Y-104912438D02*
X133691238Y-104864819D01*
X133691238Y-104864819D02*
X133500762Y-104864819D01*
X133500762Y-104864819D02*
X133405524Y-104912438D01*
X133405524Y-104912438D02*
X133357905Y-104960057D01*
X133357905Y-104960057D02*
X133310286Y-105055295D01*
X133310286Y-105055295D02*
X133310286Y-105293390D01*
X133310286Y-105293390D02*
X133357905Y-105388628D01*
X133357905Y-105388628D02*
X133405524Y-105436247D01*
X133405524Y-105436247D02*
X133500762Y-105483866D01*
X133500762Y-105483866D02*
X133691238Y-105483866D01*
X133691238Y-105483866D02*
X133786476Y-105436247D01*
X133786476Y-105436247D02*
X133834095Y-105388628D01*
X133834095Y-105388628D02*
X133881714Y-105293390D01*
D11*
%TO.C,D7*%
X131596000Y-108204000D02*
X132246000Y-108204000D01*
X132246000Y-107084000D02*
X132246000Y-109324000D01*
X132246000Y-109324000D02*
X136486000Y-109324000D01*
X132846000Y-107084000D02*
X132846000Y-109324000D01*
X132966000Y-107084000D02*
X132966000Y-109324000D01*
X133086000Y-107084000D02*
X133086000Y-109324000D01*
X136486000Y-107084000D02*
X132246000Y-107084000D01*
X136486000Y-109324000D02*
X136486000Y-107084000D01*
X137136000Y-108204000D02*
X136486000Y-108204000D01*
%TO.C,C8*%
X125579000Y-79729000D02*
X125579000Y-76989000D01*
X132819000Y-76989000D02*
X125579000Y-76989000D01*
X132819000Y-79729000D02*
X125579000Y-79729000D01*
X132819000Y-79729000D02*
X132819000Y-76989000D01*
%TO.C,C1*%
X112556113Y-70788000D02*
X113056113Y-70788000D01*
X112806113Y-70538000D02*
X112806113Y-71038000D01*
X115360888Y-69683000D02*
X115360888Y-71223000D01*
X115360888Y-73303000D02*
X115360888Y-74843000D01*
X115400888Y-69683000D02*
X115400888Y-71223000D01*
X115400888Y-73303000D02*
X115400888Y-74843000D01*
X115440888Y-69684000D02*
X115440888Y-71223000D01*
X115440888Y-73303000D02*
X115440888Y-74842000D01*
X115480888Y-69685000D02*
X115480888Y-71223000D01*
X115480888Y-73303000D02*
X115480888Y-74841000D01*
X115520888Y-69687000D02*
X115520888Y-71223000D01*
X115520888Y-73303000D02*
X115520888Y-74839000D01*
X115560888Y-69690000D02*
X115560888Y-71223000D01*
X115560888Y-73303000D02*
X115560888Y-74836000D01*
X115600888Y-69694000D02*
X115600888Y-71223000D01*
X115600888Y-73303000D02*
X115600888Y-74832000D01*
X115640888Y-69698000D02*
X115640888Y-71223000D01*
X115640888Y-73303000D02*
X115640888Y-74828000D01*
X115680888Y-69702000D02*
X115680888Y-71223000D01*
X115680888Y-73303000D02*
X115680888Y-74824000D01*
X115720888Y-69707000D02*
X115720888Y-71223000D01*
X115720888Y-73303000D02*
X115720888Y-74819000D01*
X115760888Y-69713000D02*
X115760888Y-71223000D01*
X115760888Y-73303000D02*
X115760888Y-74813000D01*
X115800888Y-69720000D02*
X115800888Y-71223000D01*
X115800888Y-73303000D02*
X115800888Y-74806000D01*
X115840888Y-69727000D02*
X115840888Y-71223000D01*
X115840888Y-73303000D02*
X115840888Y-74799000D01*
X115880888Y-69735000D02*
X115880888Y-71223000D01*
X115880888Y-73303000D02*
X115880888Y-74791000D01*
X115920888Y-69743000D02*
X115920888Y-71223000D01*
X115920888Y-73303000D02*
X115920888Y-74783000D01*
X115960888Y-69752000D02*
X115960888Y-71223000D01*
X115960888Y-73303000D02*
X115960888Y-74774000D01*
X116000888Y-69762000D02*
X116000888Y-71223000D01*
X116000888Y-73303000D02*
X116000888Y-74764000D01*
X116040888Y-69772000D02*
X116040888Y-71223000D01*
X116040888Y-73303000D02*
X116040888Y-74754000D01*
X116081888Y-69783000D02*
X116081888Y-71223000D01*
X116081888Y-73303000D02*
X116081888Y-74743000D01*
X116121888Y-69795000D02*
X116121888Y-71223000D01*
X116121888Y-73303000D02*
X116121888Y-74731000D01*
X116161888Y-69808000D02*
X116161888Y-71223000D01*
X116161888Y-73303000D02*
X116161888Y-74718000D01*
X116201888Y-69821000D02*
X116201888Y-71223000D01*
X116201888Y-73303000D02*
X116201888Y-74705000D01*
X116241888Y-69835000D02*
X116241888Y-71223000D01*
X116241888Y-73303000D02*
X116241888Y-74691000D01*
X116281888Y-69849000D02*
X116281888Y-71223000D01*
X116281888Y-73303000D02*
X116281888Y-74677000D01*
X116321888Y-69865000D02*
X116321888Y-71223000D01*
X116321888Y-73303000D02*
X116321888Y-74661000D01*
X116361888Y-69881000D02*
X116361888Y-71223000D01*
X116361888Y-73303000D02*
X116361888Y-74645000D01*
X116401888Y-69898000D02*
X116401888Y-71223000D01*
X116401888Y-73303000D02*
X116401888Y-74628000D01*
X116441888Y-69915000D02*
X116441888Y-71223000D01*
X116441888Y-73303000D02*
X116441888Y-74611000D01*
X116481888Y-69934000D02*
X116481888Y-71223000D01*
X116481888Y-73303000D02*
X116481888Y-74592000D01*
X116521888Y-69953000D02*
X116521888Y-71223000D01*
X116521888Y-73303000D02*
X116521888Y-74573000D01*
X116561888Y-69973000D02*
X116561888Y-71223000D01*
X116561888Y-73303000D02*
X116561888Y-74553000D01*
X116601888Y-69995000D02*
X116601888Y-71223000D01*
X116601888Y-73303000D02*
X116601888Y-74531000D01*
X116641888Y-70016000D02*
X116641888Y-71223000D01*
X116641888Y-73303000D02*
X116641888Y-74510000D01*
X116681888Y-70039000D02*
X116681888Y-71223000D01*
X116681888Y-73303000D02*
X116681888Y-74487000D01*
X116721888Y-70063000D02*
X116721888Y-71223000D01*
X116721888Y-73303000D02*
X116721888Y-74463000D01*
X116761888Y-70088000D02*
X116761888Y-71223000D01*
X116761888Y-73303000D02*
X116761888Y-74438000D01*
X116801888Y-70114000D02*
X116801888Y-71223000D01*
X116801888Y-73303000D02*
X116801888Y-74412000D01*
X116841888Y-70141000D02*
X116841888Y-71223000D01*
X116841888Y-73303000D02*
X116841888Y-74385000D01*
X116881888Y-70168000D02*
X116881888Y-71223000D01*
X116881888Y-73303000D02*
X116881888Y-74358000D01*
X116921888Y-70198000D02*
X116921888Y-71223000D01*
X116921888Y-73303000D02*
X116921888Y-74328000D01*
X116961888Y-70228000D02*
X116961888Y-71223000D01*
X116961888Y-73303000D02*
X116961888Y-74298000D01*
X117001888Y-70259000D02*
X117001888Y-71223000D01*
X117001888Y-73303000D02*
X117001888Y-74267000D01*
X117041888Y-70292000D02*
X117041888Y-71223000D01*
X117041888Y-73303000D02*
X117041888Y-74234000D01*
X117081888Y-70326000D02*
X117081888Y-71223000D01*
X117081888Y-73303000D02*
X117081888Y-74200000D01*
X117121888Y-70362000D02*
X117121888Y-71223000D01*
X117121888Y-73303000D02*
X117121888Y-74164000D01*
X117161888Y-70399000D02*
X117161888Y-71223000D01*
X117161888Y-73303000D02*
X117161888Y-74127000D01*
X117201888Y-70437000D02*
X117201888Y-71223000D01*
X117201888Y-73303000D02*
X117201888Y-74089000D01*
X117241888Y-70478000D02*
X117241888Y-71223000D01*
X117241888Y-73303000D02*
X117241888Y-74048000D01*
X117281888Y-70520000D02*
X117281888Y-71223000D01*
X117281888Y-73303000D02*
X117281888Y-74006000D01*
X117321888Y-70564000D02*
X117321888Y-71223000D01*
X117321888Y-73303000D02*
X117321888Y-73962000D01*
X117361888Y-70610000D02*
X117361888Y-71223000D01*
X117361888Y-73303000D02*
X117361888Y-73916000D01*
X117401888Y-70658000D02*
X117401888Y-73868000D01*
X117441888Y-70709000D02*
X117441888Y-73817000D01*
X117481888Y-70763000D02*
X117481888Y-73763000D01*
X117521888Y-70820000D02*
X117521888Y-73706000D01*
X117561888Y-70880000D02*
X117561888Y-73646000D01*
X117601888Y-70944000D02*
X117601888Y-73582000D01*
X117641888Y-71012000D02*
X117641888Y-73514000D01*
X117681888Y-71085000D02*
X117681888Y-73441000D01*
X117721888Y-71165000D02*
X117721888Y-73361000D01*
X117761888Y-71252000D02*
X117761888Y-73274000D01*
X117801888Y-71348000D02*
X117801888Y-73178000D01*
X117841888Y-71458000D02*
X117841888Y-73068000D01*
X117881888Y-71586000D02*
X117881888Y-72940000D01*
X117921888Y-71745000D02*
X117921888Y-72781000D01*
X117961888Y-71979000D02*
X117961888Y-72547000D01*
X117980888Y-72263000D02*
G75*
G02*
X112740888Y-72263000I-2620000J0D01*
G01*
X112740888Y-72263000D02*
G75*
G02*
X117980888Y-72263000I2620000J0D01*
G01*
%TO.C,J7*%
X66670000Y-99270000D02*
X66670000Y-122190000D01*
X66670000Y-99270000D02*
X69330000Y-99270000D01*
X66670000Y-122190000D02*
X69330000Y-122190000D01*
X68000000Y-96670000D02*
X69330000Y-96670000D01*
X69330000Y-96670000D02*
X69330000Y-98000000D01*
X69330000Y-99270000D02*
X69330000Y-122190000D01*
%TO.C,D2*%
X111814000Y-58621000D02*
X111814000Y-64061000D01*
X111814000Y-63041000D02*
X114754000Y-63041000D01*
X111814000Y-63161000D02*
X114754000Y-63161000D01*
X111814000Y-63281000D02*
X114754000Y-63281000D01*
X111814000Y-64061000D02*
X114754000Y-64061000D01*
X113284000Y-57601000D02*
X113284000Y-58621000D01*
X113284000Y-65081000D02*
X113284000Y-64061000D01*
X114754000Y-58621000D02*
X111814000Y-58621000D01*
X114754000Y-64061000D02*
X114754000Y-58621000D01*
%TO.C,C3*%
X136432113Y-70788000D02*
X136932113Y-70788000D01*
X136682113Y-70538000D02*
X136682113Y-71038000D01*
X139236888Y-69683000D02*
X139236888Y-71223000D01*
X139236888Y-73303000D02*
X139236888Y-74843000D01*
X139276888Y-69683000D02*
X139276888Y-71223000D01*
X139276888Y-73303000D02*
X139276888Y-74843000D01*
X139316888Y-69684000D02*
X139316888Y-71223000D01*
X139316888Y-73303000D02*
X139316888Y-74842000D01*
X139356888Y-69685000D02*
X139356888Y-71223000D01*
X139356888Y-73303000D02*
X139356888Y-74841000D01*
X139396888Y-69687000D02*
X139396888Y-71223000D01*
X139396888Y-73303000D02*
X139396888Y-74839000D01*
X139436888Y-69690000D02*
X139436888Y-71223000D01*
X139436888Y-73303000D02*
X139436888Y-74836000D01*
X139476888Y-69694000D02*
X139476888Y-71223000D01*
X139476888Y-73303000D02*
X139476888Y-74832000D01*
X139516888Y-69698000D02*
X139516888Y-71223000D01*
X139516888Y-73303000D02*
X139516888Y-74828000D01*
X139556888Y-69702000D02*
X139556888Y-71223000D01*
X139556888Y-73303000D02*
X139556888Y-74824000D01*
X139596888Y-69707000D02*
X139596888Y-71223000D01*
X139596888Y-73303000D02*
X139596888Y-74819000D01*
X139636888Y-69713000D02*
X139636888Y-71223000D01*
X139636888Y-73303000D02*
X139636888Y-74813000D01*
X139676888Y-69720000D02*
X139676888Y-71223000D01*
X139676888Y-73303000D02*
X139676888Y-74806000D01*
X139716888Y-69727000D02*
X139716888Y-71223000D01*
X139716888Y-73303000D02*
X139716888Y-74799000D01*
X139756888Y-69735000D02*
X139756888Y-71223000D01*
X139756888Y-73303000D02*
X139756888Y-74791000D01*
X139796888Y-69743000D02*
X139796888Y-71223000D01*
X139796888Y-73303000D02*
X139796888Y-74783000D01*
X139836888Y-69752000D02*
X139836888Y-71223000D01*
X139836888Y-73303000D02*
X139836888Y-74774000D01*
X139876888Y-69762000D02*
X139876888Y-71223000D01*
X139876888Y-73303000D02*
X139876888Y-74764000D01*
X139916888Y-69772000D02*
X139916888Y-71223000D01*
X139916888Y-73303000D02*
X139916888Y-74754000D01*
X139957888Y-69783000D02*
X139957888Y-71223000D01*
X139957888Y-73303000D02*
X139957888Y-74743000D01*
X139997888Y-69795000D02*
X139997888Y-71223000D01*
X139997888Y-73303000D02*
X139997888Y-74731000D01*
X140037888Y-69808000D02*
X140037888Y-71223000D01*
X140037888Y-73303000D02*
X140037888Y-74718000D01*
X140077888Y-69821000D02*
X140077888Y-71223000D01*
X140077888Y-73303000D02*
X140077888Y-74705000D01*
X140117888Y-69835000D02*
X140117888Y-71223000D01*
X140117888Y-73303000D02*
X140117888Y-74691000D01*
X140157888Y-69849000D02*
X140157888Y-71223000D01*
X140157888Y-73303000D02*
X140157888Y-74677000D01*
X140197888Y-69865000D02*
X140197888Y-71223000D01*
X140197888Y-73303000D02*
X140197888Y-74661000D01*
X140237888Y-69881000D02*
X140237888Y-71223000D01*
X140237888Y-73303000D02*
X140237888Y-74645000D01*
X140277888Y-69898000D02*
X140277888Y-71223000D01*
X140277888Y-73303000D02*
X140277888Y-74628000D01*
X140317888Y-69915000D02*
X140317888Y-71223000D01*
X140317888Y-73303000D02*
X140317888Y-74611000D01*
X140357888Y-69934000D02*
X140357888Y-71223000D01*
X140357888Y-73303000D02*
X140357888Y-74592000D01*
X140397888Y-69953000D02*
X140397888Y-71223000D01*
X140397888Y-73303000D02*
X140397888Y-74573000D01*
X140437888Y-69973000D02*
X140437888Y-71223000D01*
X140437888Y-73303000D02*
X140437888Y-74553000D01*
X140477888Y-69995000D02*
X140477888Y-71223000D01*
X140477888Y-73303000D02*
X140477888Y-74531000D01*
X140517888Y-70016000D02*
X140517888Y-71223000D01*
X140517888Y-73303000D02*
X140517888Y-74510000D01*
X140557888Y-70039000D02*
X140557888Y-71223000D01*
X140557888Y-73303000D02*
X140557888Y-74487000D01*
X140597888Y-70063000D02*
X140597888Y-71223000D01*
X140597888Y-73303000D02*
X140597888Y-74463000D01*
X140637888Y-70088000D02*
X140637888Y-71223000D01*
X140637888Y-73303000D02*
X140637888Y-74438000D01*
X140677888Y-70114000D02*
X140677888Y-71223000D01*
X140677888Y-73303000D02*
X140677888Y-74412000D01*
X140717888Y-70141000D02*
X140717888Y-71223000D01*
X140717888Y-73303000D02*
X140717888Y-74385000D01*
X140757888Y-70168000D02*
X140757888Y-71223000D01*
X140757888Y-73303000D02*
X140757888Y-74358000D01*
X140797888Y-70198000D02*
X140797888Y-71223000D01*
X140797888Y-73303000D02*
X140797888Y-74328000D01*
X140837888Y-70228000D02*
X140837888Y-71223000D01*
X140837888Y-73303000D02*
X140837888Y-74298000D01*
X140877888Y-70259000D02*
X140877888Y-71223000D01*
X140877888Y-73303000D02*
X140877888Y-74267000D01*
X140917888Y-70292000D02*
X140917888Y-71223000D01*
X140917888Y-73303000D02*
X140917888Y-74234000D01*
X140957888Y-70326000D02*
X140957888Y-71223000D01*
X140957888Y-73303000D02*
X140957888Y-74200000D01*
X140997888Y-70362000D02*
X140997888Y-71223000D01*
X140997888Y-73303000D02*
X140997888Y-74164000D01*
X141037888Y-70399000D02*
X141037888Y-71223000D01*
X141037888Y-73303000D02*
X141037888Y-74127000D01*
X141077888Y-70437000D02*
X141077888Y-71223000D01*
X141077888Y-73303000D02*
X141077888Y-74089000D01*
X141117888Y-70478000D02*
X141117888Y-71223000D01*
X141117888Y-73303000D02*
X141117888Y-74048000D01*
X141157888Y-70520000D02*
X141157888Y-71223000D01*
X141157888Y-73303000D02*
X141157888Y-74006000D01*
X141197888Y-70564000D02*
X141197888Y-71223000D01*
X141197888Y-73303000D02*
X141197888Y-73962000D01*
X141237888Y-70610000D02*
X141237888Y-71223000D01*
X141237888Y-73303000D02*
X141237888Y-73916000D01*
X141277888Y-70658000D02*
X141277888Y-73868000D01*
X141317888Y-70709000D02*
X141317888Y-73817000D01*
X141357888Y-70763000D02*
X141357888Y-73763000D01*
X141397888Y-70820000D02*
X141397888Y-73706000D01*
X141437888Y-70880000D02*
X141437888Y-73646000D01*
X141477888Y-70944000D02*
X141477888Y-73582000D01*
X141517888Y-71012000D02*
X141517888Y-73514000D01*
X141557888Y-71085000D02*
X141557888Y-73441000D01*
X141597888Y-71165000D02*
X141597888Y-73361000D01*
X141637888Y-71252000D02*
X141637888Y-73274000D01*
X141677888Y-71348000D02*
X141677888Y-73178000D01*
X141717888Y-71458000D02*
X141717888Y-73068000D01*
X141757888Y-71586000D02*
X141757888Y-72940000D01*
X141797888Y-71745000D02*
X141797888Y-72781000D01*
X141837888Y-71979000D02*
X141837888Y-72547000D01*
X141856888Y-72263000D02*
G75*
G02*
X136616888Y-72263000I-2620000J0D01*
G01*
X136616888Y-72263000D02*
G75*
G02*
X141856888Y-72263000I2620000J0D01*
G01*
%TO.C,R5*%
X81180000Y-77248000D02*
X81180000Y-83788000D01*
X81180000Y-83788000D02*
X83920000Y-83788000D01*
X82550000Y-76478000D02*
X82550000Y-77248000D01*
X82550000Y-84558000D02*
X82550000Y-83788000D01*
X83920000Y-77248000D02*
X81180000Y-77248000D01*
X83920000Y-83788000D02*
X83920000Y-77248000D01*
%TO.C,J9*%
X100670000Y-99270000D02*
X100670000Y-122190000D01*
X100670000Y-99270000D02*
X103330000Y-99270000D01*
X100670000Y-122190000D02*
X103330000Y-122190000D01*
X102000000Y-96670000D02*
X103330000Y-96670000D01*
X103330000Y-96670000D02*
X103330000Y-98000000D01*
X103330000Y-99270000D02*
X103330000Y-122190000D01*
%TO.C,C7*%
X119280000Y-83415000D02*
X119280000Y-90655000D01*
X122020000Y-83415000D02*
X119280000Y-83415000D01*
X122020000Y-83415000D02*
X122020000Y-90655000D01*
X122020000Y-90655000D02*
X119280000Y-90655000D01*
%TO.C,D1*%
X116355000Y-135040000D02*
X116355000Y-139280000D01*
X116355000Y-138440000D02*
X118595000Y-138440000D01*
X116355000Y-138560000D02*
X118595000Y-138560000D01*
X116355000Y-138680000D02*
X118595000Y-138680000D01*
X116355000Y-139280000D02*
X118595000Y-139280000D01*
X117475000Y-134390000D02*
X117475000Y-135040000D01*
X117475000Y-139930000D02*
X117475000Y-139280000D01*
X118595000Y-135040000D02*
X116355000Y-135040000D01*
X118595000Y-139280000D02*
X118595000Y-135040000D01*
%TO.C,U1*%
X120209000Y-114307000D02*
X120209000Y-124707000D01*
X120209000Y-124707000D02*
X130489000Y-124707000D01*
X122699000Y-114367000D02*
X122699000Y-124647000D01*
X122699000Y-124647000D02*
X127999000Y-124647000D01*
X124349000Y-114367000D02*
X122699000Y-114367000D01*
X127999000Y-114367000D02*
X126349000Y-114367000D01*
X127999000Y-124647000D02*
X127999000Y-114367000D01*
X130489000Y-114307000D02*
X120209000Y-114307000D01*
X130489000Y-124707000D02*
X130489000Y-114307000D01*
X126349000Y-114367000D02*
G75*
G02*
X124349000Y-114367000I-1000000J0D01*
G01*
%TO.C,R11*%
X115086000Y-108966000D02*
X115856000Y-108966000D01*
X115856000Y-107596000D02*
X115856000Y-110336000D01*
X115856000Y-110336000D02*
X122396000Y-110336000D01*
X122396000Y-107596000D02*
X115856000Y-107596000D01*
X122396000Y-110336000D02*
X122396000Y-107596000D01*
X123166000Y-108966000D02*
X122396000Y-108966000D01*
%TO.C,J2*%
X115821000Y-55130000D02*
X136401000Y-55130000D01*
X115821000Y-64250000D02*
X115821000Y-55130000D01*
X117121000Y-56440000D02*
X124061000Y-56440000D01*
X117121000Y-62940000D02*
X117121000Y-56440000D01*
X124061000Y-56440000D02*
X124061000Y-55130000D01*
X124061000Y-56440000D02*
X124061000Y-56440000D01*
X128161000Y-55130000D02*
X128161000Y-56440000D01*
X128161000Y-56440000D02*
X135101000Y-56440000D01*
X135101000Y-56440000D02*
X135101000Y-62940000D01*
X135101000Y-62940000D02*
X117121000Y-62940000D01*
X136401000Y-55130000D02*
X136401000Y-64250000D01*
X136401000Y-64250000D02*
X115821000Y-64250000D01*
D12*
X137541000Y-55118000D02*
X137541000Y-64262000D01*
D11*
%TO.C,Q4*%
X137055000Y-116387000D02*
X133455000Y-116387000D01*
X132930816Y-117114205D02*
G75*
G02*
X133455000Y-116387000I2324184J-1122795D01*
G01*
X135255000Y-120837000D02*
G75*
G02*
X132898600Y-119335807I0J2600000D01*
G01*
X137055000Y-116387000D02*
G75*
G02*
X137579184Y-117114205I-1800000J-1850000D01*
G01*
X137611400Y-119335807D02*
G75*
G02*
X135255000Y-120837000I-2356400J1098807D01*
G01*
%TO.C,C4*%
X112291000Y-124687000D02*
X112291000Y-121947000D01*
X119531000Y-121947000D02*
X112291000Y-121947000D01*
X119531000Y-124687000D02*
X112291000Y-124687000D01*
X119531000Y-124687000D02*
X119531000Y-121947000D01*
%TO.C,U2*%
X122749000Y-80525000D02*
X122749000Y-90925000D01*
X122749000Y-90925000D02*
X133029000Y-90925000D01*
X125239000Y-80585000D02*
X125239000Y-90865000D01*
X125239000Y-90865000D02*
X126889000Y-90865000D01*
X128889000Y-90865000D02*
X130539000Y-90865000D01*
X130539000Y-80585000D02*
X125239000Y-80585000D01*
X130539000Y-90865000D02*
X130539000Y-80585000D01*
X133029000Y-80525000D02*
X122749000Y-80525000D01*
X133029000Y-90925000D02*
X133029000Y-80525000D01*
X126889000Y-90865000D02*
G75*
G02*
X128889000Y-90865000I1000000J0D01*
G01*
%TO.C,R2*%
X135409000Y-128048000D02*
X135409000Y-134588000D01*
X135409000Y-134588000D02*
X138149000Y-134588000D01*
X136779000Y-127278000D02*
X136779000Y-128048000D01*
X136779000Y-135358000D02*
X136779000Y-134588000D01*
X138149000Y-128048000D02*
X135409000Y-128048000D01*
X138149000Y-134588000D02*
X138149000Y-128048000D01*
%TO.C,Q1*%
X119308000Y-133836000D02*
X119308000Y-137436000D01*
X119308000Y-133836000D02*
G75*
G02*
X120035205Y-133311816I1850000J-1800000D01*
G01*
X120035205Y-137960184D02*
G75*
G02*
X119308000Y-137436000I1122795J2324184D01*
G01*
X122256807Y-133279600D02*
G75*
G02*
X123758000Y-135636000I-1098807J-2356400D01*
G01*
X123758000Y-135636000D02*
G75*
G02*
X122256807Y-137992400I-2600000J0D01*
G01*
%TO.C,R15*%
X107215000Y-132620000D02*
X107215000Y-139160000D01*
X107215000Y-139160000D02*
X109955000Y-139160000D01*
X108585000Y-131850000D02*
X108585000Y-132620000D01*
X108585000Y-139930000D02*
X108585000Y-139160000D01*
X109955000Y-132620000D02*
X107215000Y-132620000D01*
X109955000Y-139160000D02*
X109955000Y-132620000D01*
%TO.C,D5*%
X138453000Y-127928000D02*
X138453000Y-132168000D01*
X138453000Y-131328000D02*
X140693000Y-131328000D01*
X138453000Y-131448000D02*
X140693000Y-131448000D01*
X138453000Y-131568000D02*
X140693000Y-131568000D01*
X138453000Y-132168000D02*
X140693000Y-132168000D01*
X139573000Y-127278000D02*
X139573000Y-127928000D01*
X139573000Y-132818000D02*
X139573000Y-132168000D01*
X140693000Y-127928000D02*
X138453000Y-127928000D01*
X140693000Y-132168000D02*
X140693000Y-127928000D01*
%TO.C,R6*%
X115086000Y-112014000D02*
X115856000Y-112014000D01*
X115856000Y-110644000D02*
X115856000Y-113384000D01*
X115856000Y-113384000D02*
X122396000Y-113384000D01*
X122396000Y-110644000D02*
X115856000Y-110644000D01*
X122396000Y-113384000D02*
X122396000Y-110644000D01*
X123166000Y-112014000D02*
X122396000Y-112014000D01*
%TO.C,R14*%
X109244000Y-143764000D02*
X110014000Y-143764000D01*
X110014000Y-142394000D02*
X110014000Y-145134000D01*
X110014000Y-145134000D02*
X116554000Y-145134000D01*
X116554000Y-142394000D02*
X110014000Y-142394000D01*
X116554000Y-145134000D02*
X116554000Y-142394000D01*
X117324000Y-143764000D02*
X116554000Y-143764000D01*
%TO.C,D6*%
X130453000Y-102616000D02*
X131103000Y-102616000D01*
X131103000Y-101496000D02*
X131103000Y-103736000D01*
X131103000Y-103736000D02*
X135343000Y-103736000D01*
X131703000Y-101496000D02*
X131703000Y-103736000D01*
X131823000Y-101496000D02*
X131823000Y-103736000D01*
X131943000Y-101496000D02*
X131943000Y-103736000D01*
X135343000Y-101496000D02*
X131103000Y-101496000D01*
X135343000Y-103736000D02*
X135343000Y-101496000D01*
X135993000Y-102616000D02*
X135343000Y-102616000D01*
%TO.C,R12*%
X115086000Y-102870000D02*
X115856000Y-102870000D01*
X115856000Y-101500000D02*
X115856000Y-104240000D01*
X115856000Y-104240000D02*
X122396000Y-104240000D01*
X122396000Y-101500000D02*
X115856000Y-101500000D01*
X122396000Y-104240000D02*
X122396000Y-101500000D01*
X123166000Y-102870000D02*
X122396000Y-102870000D01*
%TO.C,C5*%
X131595000Y-124687000D02*
X131595000Y-121947000D01*
X138835000Y-121947000D02*
X131595000Y-121947000D01*
X138835000Y-124687000D02*
X131595000Y-124687000D01*
X138835000Y-124687000D02*
X138835000Y-121947000D01*
%TO.C,D3*%
X140008000Y-58621000D02*
X140008000Y-64061000D01*
X140008000Y-64061000D02*
X142948000Y-64061000D01*
X141478000Y-57601000D02*
X141478000Y-58621000D01*
X141478000Y-65081000D02*
X141478000Y-64061000D01*
X142948000Y-58621000D02*
X140008000Y-58621000D01*
X142948000Y-59401000D02*
X140008000Y-59401000D01*
X142948000Y-59521000D02*
X140008000Y-59521000D01*
X142948000Y-59641000D02*
X140008000Y-59641000D01*
X142948000Y-64061000D02*
X142948000Y-58621000D01*
%TO.C,R13*%
X110263000Y-132620000D02*
X110263000Y-139160000D01*
X110263000Y-139160000D02*
X113003000Y-139160000D01*
X111633000Y-131850000D02*
X111633000Y-132620000D01*
X111633000Y-139930000D02*
X111633000Y-139160000D01*
X113003000Y-132620000D02*
X110263000Y-132620000D01*
X113003000Y-139160000D02*
X113003000Y-132620000D01*
%TO.C,R8*%
X84228000Y-77248000D02*
X84228000Y-83788000D01*
X84228000Y-83788000D02*
X86968000Y-83788000D01*
X85598000Y-76478000D02*
X85598000Y-77248000D01*
X85598000Y-84558000D02*
X85598000Y-83788000D01*
X86968000Y-77248000D02*
X84228000Y-77248000D01*
X86968000Y-83788000D02*
X86968000Y-77248000D01*
%TO.C,Q2*%
X124134000Y-133836000D02*
X124134000Y-137436000D01*
X124134000Y-133836000D02*
G75*
G02*
X124861205Y-133311816I1850000J-1800000D01*
G01*
X124861205Y-137960184D02*
G75*
G02*
X124134000Y-137436000I1122795J2324184D01*
G01*
X127082807Y-133279600D02*
G75*
G02*
X128584000Y-135636000I-1098807J-2356400D01*
G01*
X128584000Y-135636000D02*
G75*
G02*
X127082807Y-137992400I-2600000J0D01*
G01*
%TO.C,R10*%
X129056000Y-99822000D02*
X129826000Y-99822000D01*
X129826000Y-98452000D02*
X129826000Y-101192000D01*
X129826000Y-101192000D02*
X136366000Y-101192000D01*
X136366000Y-98452000D02*
X129826000Y-98452000D01*
X136366000Y-101192000D02*
X136366000Y-98452000D01*
X137136000Y-99822000D02*
X136366000Y-99822000D01*
%TO.C,Q5*%
X120374000Y-100529000D02*
X123974000Y-100529000D01*
X119817600Y-97580193D02*
G75*
G02*
X122174000Y-96079000I2356400J-1098807D01*
G01*
X120374000Y-100529000D02*
G75*
G02*
X119849816Y-99801795I1800000J1850000D01*
G01*
X122174000Y-96079000D02*
G75*
G02*
X124530400Y-97580193I0J-2600000D01*
G01*
X124498184Y-99801795D02*
G75*
G02*
X123974000Y-100529000I-2324184J1122795D01*
G01*
%TO.C,R1*%
X113311000Y-132620000D02*
X113311000Y-139160000D01*
X113311000Y-139160000D02*
X116051000Y-139160000D01*
X114681000Y-131850000D02*
X114681000Y-132620000D01*
X114681000Y-139930000D02*
X114681000Y-139160000D01*
X116051000Y-132620000D02*
X113311000Y-132620000D01*
X116051000Y-139160000D02*
X116051000Y-132620000D01*
%TO.C,R17*%
X92180000Y-116200000D02*
X92180000Y-122740000D01*
X92180000Y-122740000D02*
X94920000Y-122740000D01*
X93550000Y-115430000D02*
X93550000Y-116200000D01*
X93550000Y-123510000D02*
X93550000Y-122740000D01*
X94920000Y-116200000D02*
X92180000Y-116200000D01*
X94920000Y-122740000D02*
X94920000Y-116200000D01*
%TO.C,R4*%
X114451000Y-126746000D02*
X115221000Y-126746000D01*
X115221000Y-125376000D02*
X115221000Y-128116000D01*
X115221000Y-128116000D02*
X121761000Y-128116000D01*
X121761000Y-125376000D02*
X115221000Y-125376000D01*
X121761000Y-128116000D02*
X121761000Y-125376000D01*
X122531000Y-126746000D02*
X121761000Y-126746000D01*
%TO.C,Q3*%
X114736000Y-115675000D02*
X114736000Y-119275000D01*
X114736000Y-115675000D02*
G75*
G02*
X115463205Y-115150816I1850000J-1800000D01*
G01*
X115463205Y-119799184D02*
G75*
G02*
X114736000Y-119275000I1122795J2324184D01*
G01*
X117684807Y-115118600D02*
G75*
G02*
X119186000Y-117475000I-1098807J-2356400D01*
G01*
X119186000Y-117475000D02*
G75*
G02*
X117684807Y-119831400I-2600000J0D01*
G01*
%TO.C,R16*%
X132361000Y-128048000D02*
X132361000Y-134588000D01*
X132361000Y-134588000D02*
X135101000Y-134588000D01*
X133731000Y-127278000D02*
X133731000Y-128048000D01*
X133731000Y-135358000D02*
X133731000Y-134588000D01*
X135101000Y-128048000D02*
X132361000Y-128048000D01*
X135101000Y-134588000D02*
X135101000Y-128048000D01*
%TO.C,C9*%
X107402000Y-89511000D02*
X108942000Y-89511000D01*
X107402000Y-89551000D02*
X108942000Y-89551000D01*
X107403000Y-89471000D02*
X108942000Y-89471000D01*
X107404000Y-89431000D02*
X108942000Y-89431000D01*
X107406000Y-89391000D02*
X108942000Y-89391000D01*
X107409000Y-89351000D02*
X108942000Y-89351000D01*
X107413000Y-89311000D02*
X108942000Y-89311000D01*
X107417000Y-89271000D02*
X108942000Y-89271000D01*
X107421000Y-89231000D02*
X108942000Y-89231000D01*
X107426000Y-89191000D02*
X108942000Y-89191000D01*
X107432000Y-89151000D02*
X108942000Y-89151000D01*
X107439000Y-89111000D02*
X108942000Y-89111000D01*
X107446000Y-89071000D02*
X108942000Y-89071000D01*
X107454000Y-89031000D02*
X108942000Y-89031000D01*
X107462000Y-88991000D02*
X108942000Y-88991000D01*
X107471000Y-88951000D02*
X108942000Y-88951000D01*
X107481000Y-88911000D02*
X108942000Y-88911000D01*
X107491000Y-88871000D02*
X108942000Y-88871000D01*
X107502000Y-88830000D02*
X108942000Y-88830000D01*
X107514000Y-88790000D02*
X108942000Y-88790000D01*
X107527000Y-88750000D02*
X108942000Y-88750000D01*
X107540000Y-88710000D02*
X108942000Y-88710000D01*
X107554000Y-88670000D02*
X108942000Y-88670000D01*
X107568000Y-88630000D02*
X108942000Y-88630000D01*
X107584000Y-88590000D02*
X108942000Y-88590000D01*
X107600000Y-88550000D02*
X108942000Y-88550000D01*
X107617000Y-88510000D02*
X108942000Y-88510000D01*
X107634000Y-88470000D02*
X108942000Y-88470000D01*
X107653000Y-88430000D02*
X108942000Y-88430000D01*
X107672000Y-88390000D02*
X108942000Y-88390000D01*
X107692000Y-88350000D02*
X108942000Y-88350000D01*
X107714000Y-88310000D02*
X108942000Y-88310000D01*
X107735000Y-88270000D02*
X108942000Y-88270000D01*
X107758000Y-88230000D02*
X108942000Y-88230000D01*
X107782000Y-88190000D02*
X108942000Y-88190000D01*
X107807000Y-88150000D02*
X108942000Y-88150000D01*
X107833000Y-88110000D02*
X108942000Y-88110000D01*
X107860000Y-88070000D02*
X108942000Y-88070000D01*
X107887000Y-88030000D02*
X108942000Y-88030000D01*
X107917000Y-87990000D02*
X108942000Y-87990000D01*
X107947000Y-87950000D02*
X108942000Y-87950000D01*
X107978000Y-87910000D02*
X108942000Y-87910000D01*
X108011000Y-87870000D02*
X108942000Y-87870000D01*
X108045000Y-87830000D02*
X108942000Y-87830000D01*
X108081000Y-87790000D02*
X108942000Y-87790000D01*
X108118000Y-87750000D02*
X108942000Y-87750000D01*
X108156000Y-87710000D02*
X108942000Y-87710000D01*
X108197000Y-87670000D02*
X108942000Y-87670000D01*
X108239000Y-87630000D02*
X108942000Y-87630000D01*
X108257000Y-92105775D02*
X108757000Y-92105775D01*
X108283000Y-87590000D02*
X108942000Y-87590000D01*
X108329000Y-87550000D02*
X108942000Y-87550000D01*
X108377000Y-87510000D02*
X111587000Y-87510000D01*
X108428000Y-87470000D02*
X111536000Y-87470000D01*
X108482000Y-87430000D02*
X111482000Y-87430000D01*
X108507000Y-92355775D02*
X108507000Y-91855775D01*
X108539000Y-87390000D02*
X111425000Y-87390000D01*
X108599000Y-87350000D02*
X111365000Y-87350000D01*
X108663000Y-87310000D02*
X111301000Y-87310000D01*
X108731000Y-87270000D02*
X111233000Y-87270000D01*
X108804000Y-87230000D02*
X111160000Y-87230000D01*
X108884000Y-87190000D02*
X111080000Y-87190000D01*
X108971000Y-87150000D02*
X110993000Y-87150000D01*
X109067000Y-87110000D02*
X110897000Y-87110000D01*
X109177000Y-87070000D02*
X110787000Y-87070000D01*
X109305000Y-87030000D02*
X110659000Y-87030000D01*
X109464000Y-86990000D02*
X110500000Y-86990000D01*
X109698000Y-86950000D02*
X110266000Y-86950000D01*
X111022000Y-87550000D02*
X111635000Y-87550000D01*
X111022000Y-87590000D02*
X111681000Y-87590000D01*
X111022000Y-87630000D02*
X111725000Y-87630000D01*
X111022000Y-87670000D02*
X111767000Y-87670000D01*
X111022000Y-87710000D02*
X111808000Y-87710000D01*
X111022000Y-87750000D02*
X111846000Y-87750000D01*
X111022000Y-87790000D02*
X111883000Y-87790000D01*
X111022000Y-87830000D02*
X111919000Y-87830000D01*
X111022000Y-87870000D02*
X111953000Y-87870000D01*
X111022000Y-87910000D02*
X111986000Y-87910000D01*
X111022000Y-87950000D02*
X112017000Y-87950000D01*
X111022000Y-87990000D02*
X112047000Y-87990000D01*
X111022000Y-88030000D02*
X112077000Y-88030000D01*
X111022000Y-88070000D02*
X112104000Y-88070000D01*
X111022000Y-88110000D02*
X112131000Y-88110000D01*
X111022000Y-88150000D02*
X112157000Y-88150000D01*
X111022000Y-88190000D02*
X112182000Y-88190000D01*
X111022000Y-88230000D02*
X112206000Y-88230000D01*
X111022000Y-88270000D02*
X112229000Y-88270000D01*
X111022000Y-88310000D02*
X112250000Y-88310000D01*
X111022000Y-88350000D02*
X112272000Y-88350000D01*
X111022000Y-88390000D02*
X112292000Y-88390000D01*
X111022000Y-88430000D02*
X112311000Y-88430000D01*
X111022000Y-88470000D02*
X112330000Y-88470000D01*
X111022000Y-88510000D02*
X112347000Y-88510000D01*
X111022000Y-88550000D02*
X112364000Y-88550000D01*
X111022000Y-88590000D02*
X112380000Y-88590000D01*
X111022000Y-88630000D02*
X112396000Y-88630000D01*
X111022000Y-88670000D02*
X112410000Y-88670000D01*
X111022000Y-88710000D02*
X112424000Y-88710000D01*
X111022000Y-88750000D02*
X112437000Y-88750000D01*
X111022000Y-88790000D02*
X112450000Y-88790000D01*
X111022000Y-88830000D02*
X112462000Y-88830000D01*
X111022000Y-88871000D02*
X112473000Y-88871000D01*
X111022000Y-88911000D02*
X112483000Y-88911000D01*
X111022000Y-88951000D02*
X112493000Y-88951000D01*
X111022000Y-88991000D02*
X112502000Y-88991000D01*
X111022000Y-89031000D02*
X112510000Y-89031000D01*
X111022000Y-89071000D02*
X112518000Y-89071000D01*
X111022000Y-89111000D02*
X112525000Y-89111000D01*
X111022000Y-89151000D02*
X112532000Y-89151000D01*
X111022000Y-89191000D02*
X112538000Y-89191000D01*
X111022000Y-89231000D02*
X112543000Y-89231000D01*
X111022000Y-89271000D02*
X112547000Y-89271000D01*
X111022000Y-89311000D02*
X112551000Y-89311000D01*
X111022000Y-89351000D02*
X112555000Y-89351000D01*
X111022000Y-89391000D02*
X112558000Y-89391000D01*
X111022000Y-89431000D02*
X112560000Y-89431000D01*
X111022000Y-89471000D02*
X112561000Y-89471000D01*
X111022000Y-89511000D02*
X112562000Y-89511000D01*
X111022000Y-89551000D02*
X112562000Y-89551000D01*
X112602000Y-89551000D02*
G75*
G02*
X107362000Y-89551000I-2620000J0D01*
G01*
X107362000Y-89551000D02*
G75*
G02*
X112602000Y-89551000I2620000J0D01*
G01*
%TO.C,C2*%
X113244000Y-94464000D02*
X114784000Y-94464000D01*
X113244000Y-94504000D02*
X114784000Y-94504000D01*
X113245000Y-94424000D02*
X114784000Y-94424000D01*
X113246000Y-94384000D02*
X114784000Y-94384000D01*
X113248000Y-94344000D02*
X114784000Y-94344000D01*
X113251000Y-94304000D02*
X114784000Y-94304000D01*
X113255000Y-94264000D02*
X114784000Y-94264000D01*
X113259000Y-94224000D02*
X114784000Y-94224000D01*
X113263000Y-94184000D02*
X114784000Y-94184000D01*
X113268000Y-94144000D02*
X114784000Y-94144000D01*
X113274000Y-94104000D02*
X114784000Y-94104000D01*
X113281000Y-94064000D02*
X114784000Y-94064000D01*
X113288000Y-94024000D02*
X114784000Y-94024000D01*
X113296000Y-93984000D02*
X114784000Y-93984000D01*
X113304000Y-93944000D02*
X114784000Y-93944000D01*
X113313000Y-93904000D02*
X114784000Y-93904000D01*
X113323000Y-93864000D02*
X114784000Y-93864000D01*
X113333000Y-93824000D02*
X114784000Y-93824000D01*
X113344000Y-93783000D02*
X114784000Y-93783000D01*
X113356000Y-93743000D02*
X114784000Y-93743000D01*
X113369000Y-93703000D02*
X114784000Y-93703000D01*
X113382000Y-93663000D02*
X114784000Y-93663000D01*
X113396000Y-93623000D02*
X114784000Y-93623000D01*
X113410000Y-93583000D02*
X114784000Y-93583000D01*
X113426000Y-93543000D02*
X114784000Y-93543000D01*
X113442000Y-93503000D02*
X114784000Y-93503000D01*
X113459000Y-93463000D02*
X114784000Y-93463000D01*
X113476000Y-93423000D02*
X114784000Y-93423000D01*
X113495000Y-93383000D02*
X114784000Y-93383000D01*
X113514000Y-93343000D02*
X114784000Y-93343000D01*
X113534000Y-93303000D02*
X114784000Y-93303000D01*
X113556000Y-93263000D02*
X114784000Y-93263000D01*
X113577000Y-93223000D02*
X114784000Y-93223000D01*
X113600000Y-93183000D02*
X114784000Y-93183000D01*
X113624000Y-93143000D02*
X114784000Y-93143000D01*
X113649000Y-93103000D02*
X114784000Y-93103000D01*
X113675000Y-93063000D02*
X114784000Y-93063000D01*
X113702000Y-93023000D02*
X114784000Y-93023000D01*
X113729000Y-92983000D02*
X114784000Y-92983000D01*
X113759000Y-92943000D02*
X114784000Y-92943000D01*
X113789000Y-92903000D02*
X114784000Y-92903000D01*
X113820000Y-92863000D02*
X114784000Y-92863000D01*
X113853000Y-92823000D02*
X114784000Y-92823000D01*
X113887000Y-92783000D02*
X114784000Y-92783000D01*
X113923000Y-92743000D02*
X114784000Y-92743000D01*
X113960000Y-92703000D02*
X114784000Y-92703000D01*
X113998000Y-92663000D02*
X114784000Y-92663000D01*
X114039000Y-92623000D02*
X114784000Y-92623000D01*
X114081000Y-92583000D02*
X114784000Y-92583000D01*
X114099000Y-97058775D02*
X114599000Y-97058775D01*
X114125000Y-92543000D02*
X114784000Y-92543000D01*
X114171000Y-92503000D02*
X114784000Y-92503000D01*
X114219000Y-92463000D02*
X117429000Y-92463000D01*
X114270000Y-92423000D02*
X117378000Y-92423000D01*
X114324000Y-92383000D02*
X117324000Y-92383000D01*
X114349000Y-97308775D02*
X114349000Y-96808775D01*
X114381000Y-92343000D02*
X117267000Y-92343000D01*
X114441000Y-92303000D02*
X117207000Y-92303000D01*
X114505000Y-92263000D02*
X117143000Y-92263000D01*
X114573000Y-92223000D02*
X117075000Y-92223000D01*
X114646000Y-92183000D02*
X117002000Y-92183000D01*
X114726000Y-92143000D02*
X116922000Y-92143000D01*
X114813000Y-92103000D02*
X116835000Y-92103000D01*
X114909000Y-92063000D02*
X116739000Y-92063000D01*
X115019000Y-92023000D02*
X116629000Y-92023000D01*
X115147000Y-91983000D02*
X116501000Y-91983000D01*
X115306000Y-91943000D02*
X116342000Y-91943000D01*
X115540000Y-91903000D02*
X116108000Y-91903000D01*
X116864000Y-92503000D02*
X117477000Y-92503000D01*
X116864000Y-92543000D02*
X117523000Y-92543000D01*
X116864000Y-92583000D02*
X117567000Y-92583000D01*
X116864000Y-92623000D02*
X117609000Y-92623000D01*
X116864000Y-92663000D02*
X117650000Y-92663000D01*
X116864000Y-92703000D02*
X117688000Y-92703000D01*
X116864000Y-92743000D02*
X117725000Y-92743000D01*
X116864000Y-92783000D02*
X117761000Y-92783000D01*
X116864000Y-92823000D02*
X117795000Y-92823000D01*
X116864000Y-92863000D02*
X117828000Y-92863000D01*
X116864000Y-92903000D02*
X117859000Y-92903000D01*
X116864000Y-92943000D02*
X117889000Y-92943000D01*
X116864000Y-92983000D02*
X117919000Y-92983000D01*
X116864000Y-93023000D02*
X117946000Y-93023000D01*
X116864000Y-93063000D02*
X117973000Y-93063000D01*
X116864000Y-93103000D02*
X117999000Y-93103000D01*
X116864000Y-93143000D02*
X118024000Y-93143000D01*
X116864000Y-93183000D02*
X118048000Y-93183000D01*
X116864000Y-93223000D02*
X118071000Y-93223000D01*
X116864000Y-93263000D02*
X118092000Y-93263000D01*
X116864000Y-93303000D02*
X118114000Y-93303000D01*
X116864000Y-93343000D02*
X118134000Y-93343000D01*
X116864000Y-93383000D02*
X118153000Y-93383000D01*
X116864000Y-93423000D02*
X118172000Y-93423000D01*
X116864000Y-93463000D02*
X118189000Y-93463000D01*
X116864000Y-93503000D02*
X118206000Y-93503000D01*
X116864000Y-93543000D02*
X118222000Y-93543000D01*
X116864000Y-93583000D02*
X118238000Y-93583000D01*
X116864000Y-93623000D02*
X118252000Y-93623000D01*
X116864000Y-93663000D02*
X118266000Y-93663000D01*
X116864000Y-93703000D02*
X118279000Y-93703000D01*
X116864000Y-93743000D02*
X118292000Y-93743000D01*
X116864000Y-93783000D02*
X118304000Y-93783000D01*
X116864000Y-93824000D02*
X118315000Y-93824000D01*
X116864000Y-93864000D02*
X118325000Y-93864000D01*
X116864000Y-93904000D02*
X118335000Y-93904000D01*
X116864000Y-93944000D02*
X118344000Y-93944000D01*
X116864000Y-93984000D02*
X118352000Y-93984000D01*
X116864000Y-94024000D02*
X118360000Y-94024000D01*
X116864000Y-94064000D02*
X118367000Y-94064000D01*
X116864000Y-94104000D02*
X118374000Y-94104000D01*
X116864000Y-94144000D02*
X118380000Y-94144000D01*
X116864000Y-94184000D02*
X118385000Y-94184000D01*
X116864000Y-94224000D02*
X118389000Y-94224000D01*
X116864000Y-94264000D02*
X118393000Y-94264000D01*
X116864000Y-94304000D02*
X118397000Y-94304000D01*
X116864000Y-94344000D02*
X118400000Y-94344000D01*
X116864000Y-94384000D02*
X118402000Y-94384000D01*
X116864000Y-94424000D02*
X118403000Y-94424000D01*
X116864000Y-94464000D02*
X118404000Y-94464000D01*
X116864000Y-94504000D02*
X118404000Y-94504000D01*
X118444000Y-94504000D02*
G75*
G02*
X113204000Y-94504000I-2620000J0D01*
G01*
X113204000Y-94504000D02*
G75*
G02*
X118444000Y-94504000I2620000J0D01*
G01*
%TO.C,R18*%
X115086000Y-105918000D02*
X115856000Y-105918000D01*
X115856000Y-104548000D02*
X115856000Y-107288000D01*
X115856000Y-107288000D02*
X122396000Y-107288000D01*
X122396000Y-104548000D02*
X115856000Y-104548000D01*
X122396000Y-107288000D02*
X122396000Y-104548000D01*
X123166000Y-105918000D02*
X122396000Y-105918000D01*
%TO.C,C6*%
X126896000Y-113384000D02*
X126896000Y-110644000D01*
X134136000Y-110644000D02*
X126896000Y-110644000D01*
X134136000Y-113384000D02*
X126896000Y-113384000D01*
X134136000Y-113384000D02*
X134136000Y-110644000D01*
%TO.C,R7*%
X129056000Y-96774000D02*
X129826000Y-96774000D01*
X129826000Y-95404000D02*
X129826000Y-98144000D01*
X129826000Y-98144000D02*
X136366000Y-98144000D01*
X136366000Y-95404000D02*
X129826000Y-95404000D01*
X136366000Y-98144000D02*
X136366000Y-95404000D01*
X137136000Y-96774000D02*
X136366000Y-96774000D01*
%TO.C,R3*%
X129313000Y-128048000D02*
X129313000Y-134588000D01*
X129313000Y-134588000D02*
X132053000Y-134588000D01*
X130683000Y-127278000D02*
X130683000Y-128048000D01*
X130683000Y-135358000D02*
X130683000Y-134588000D01*
X132053000Y-128048000D02*
X129313000Y-128048000D01*
X132053000Y-134588000D02*
X132053000Y-128048000D01*
%TO.C,R9*%
X129056000Y-105410000D02*
X129826000Y-105410000D01*
X129826000Y-104040000D02*
X129826000Y-106780000D01*
X129826000Y-106780000D02*
X136366000Y-106780000D01*
X136366000Y-104040000D02*
X129826000Y-104040000D01*
X136366000Y-106780000D02*
X136366000Y-104040000D01*
X137136000Y-105410000D02*
X136366000Y-105410000D01*
%TD*%
M02*
