%TF.GenerationSoftware,KiCad,Pcbnew,8.0.3*%
%TF.CreationDate,2024-07-07T15:48:55+01:00*%
%TF.ProjectId,555-adsr-panel,3535352d-6164-4737-922d-70616e656c2e,rev?*%
%TF.SameCoordinates,Original*%
%TF.FileFunction,Legend,Top*%
%TF.FilePolarity,Positive*%
%FSLAX46Y46*%
G04 Gerber Fmt 4.6, Leading zero omitted, Abs format (unit mm)*
G04 Created by KiCad (PCBNEW 8.0.3) date 2024-07-07 15:48:55*
%MOMM*%
%LPD*%
G01*
G04 APERTURE LIST*
%ADD10C,0.264583*%
%ADD11C,0.000000*%
G04 APERTURE END LIST*
D10*
X82591658Y-150899214D02*
X97408323Y-150899214D01*
D11*
G36*
X104730947Y-65600470D02*
G01*
X104291700Y-65600470D01*
X104012655Y-64954520D01*
X102874052Y-64954520D01*
X102577780Y-65600470D01*
X102145414Y-65600470D01*
X102621783Y-64577277D01*
X103041136Y-64577277D01*
X103849012Y-64577277D01*
X103454550Y-63672942D01*
X103041136Y-64577277D01*
X102621783Y-64577277D01*
X103461439Y-62773780D01*
X104730947Y-65600470D01*
G37*
G36*
X90739388Y-93848270D02*
G01*
X90772465Y-93851419D01*
X90804597Y-93856667D01*
X90835784Y-93864014D01*
X90866027Y-93873461D01*
X90895325Y-93885008D01*
X90923679Y-93898653D01*
X90951088Y-93914398D01*
X90977552Y-93932242D01*
X91003072Y-93952186D01*
X91027646Y-93974229D01*
X91051277Y-93998371D01*
X91073962Y-94024613D01*
X91095703Y-94052954D01*
X91116499Y-94083395D01*
X91136351Y-94115935D01*
X91136358Y-94115935D01*
X90941023Y-94231696D01*
X90934195Y-94220068D01*
X90927408Y-94208957D01*
X90920662Y-94198363D01*
X90913956Y-94188286D01*
X90907290Y-94178725D01*
X90900665Y-94169681D01*
X90894081Y-94161155D01*
X90887537Y-94153145D01*
X90881033Y-94145651D01*
X90874570Y-94138675D01*
X90868147Y-94132216D01*
X90861765Y-94126273D01*
X90855422Y-94120848D01*
X90849120Y-94115939D01*
X90842859Y-94111547D01*
X90836637Y-94107672D01*
X90830060Y-94103666D01*
X90823249Y-94099919D01*
X90816204Y-94096430D01*
X90808924Y-94093200D01*
X90801411Y-94090228D01*
X90793663Y-94087515D01*
X90785681Y-94085060D01*
X90777466Y-94082865D01*
X90769016Y-94080927D01*
X90760332Y-94079248D01*
X90751414Y-94077827D01*
X90742262Y-94076665D01*
X90732876Y-94075761D01*
X90723256Y-94075115D01*
X90713402Y-94074728D01*
X90703314Y-94074599D01*
X90690916Y-94074821D01*
X90678784Y-94075487D01*
X90666918Y-94076598D01*
X90655319Y-94078152D01*
X90643986Y-94080151D01*
X90632919Y-94082593D01*
X90622119Y-94085480D01*
X90611586Y-94088811D01*
X90601318Y-94092585D01*
X90591317Y-94096804D01*
X90581583Y-94101467D01*
X90572115Y-94106573D01*
X90562914Y-94112124D01*
X90553979Y-94118118D01*
X90545311Y-94124556D01*
X90536909Y-94131438D01*
X90528900Y-94138528D01*
X90521408Y-94145844D01*
X90514433Y-94153386D01*
X90507974Y-94161154D01*
X90502032Y-94169148D01*
X90496607Y-94177368D01*
X90491698Y-94185815D01*
X90487306Y-94194487D01*
X90483430Y-94203386D01*
X90480071Y-94212510D01*
X90477229Y-94221861D01*
X90474904Y-94231437D01*
X90473095Y-94241240D01*
X90471803Y-94251268D01*
X90471028Y-94261522D01*
X90470770Y-94272002D01*
X90470939Y-94279257D01*
X90471448Y-94286423D01*
X90472296Y-94293500D01*
X90473483Y-94300488D01*
X90475009Y-94307388D01*
X90476874Y-94314198D01*
X90479078Y-94320920D01*
X90481622Y-94327553D01*
X90484504Y-94334097D01*
X90487726Y-94340553D01*
X90491287Y-94346919D01*
X90495186Y-94353197D01*
X90499425Y-94359386D01*
X90504004Y-94365486D01*
X90508921Y-94371498D01*
X90514177Y-94377420D01*
X90519773Y-94383254D01*
X90525707Y-94388999D01*
X90531981Y-94394655D01*
X90538594Y-94400222D01*
X90552837Y-94411091D01*
X90568437Y-94421604D01*
X90585393Y-94431762D01*
X90603705Y-94441565D01*
X90623374Y-94451012D01*
X90644400Y-94460105D01*
X90803564Y-94525214D01*
X90827445Y-94535170D01*
X90850510Y-94545401D01*
X90872759Y-94555906D01*
X90894193Y-94566685D01*
X90914811Y-94577739D01*
X90934613Y-94589067D01*
X90953600Y-94600669D01*
X90971771Y-94612547D01*
X90989127Y-94624698D01*
X91005667Y-94637125D01*
X91021391Y-94649826D01*
X91036300Y-94662802D01*
X91050394Y-94676052D01*
X91063672Y-94689577D01*
X91076135Y-94703377D01*
X91087782Y-94717452D01*
X91098670Y-94731736D01*
X91108856Y-94746423D01*
X91118340Y-94761515D01*
X91127121Y-94777010D01*
X91135199Y-94792908D01*
X91142576Y-94809211D01*
X91149250Y-94825917D01*
X91155221Y-94843027D01*
X91160490Y-94860540D01*
X91165056Y-94878458D01*
X91168920Y-94896778D01*
X91172081Y-94915503D01*
X91174540Y-94934631D01*
X91176297Y-94954163D01*
X91177351Y-94974098D01*
X91177702Y-94994437D01*
X91177128Y-95021656D01*
X91175408Y-95048277D01*
X91172542Y-95074300D01*
X91168528Y-95099727D01*
X91163368Y-95124556D01*
X91157061Y-95148787D01*
X91149608Y-95172421D01*
X91141008Y-95195457D01*
X91131262Y-95217896D01*
X91120369Y-95239737D01*
X91108329Y-95260981D01*
X91095143Y-95281628D01*
X91080811Y-95301676D01*
X91065332Y-95321127D01*
X91048707Y-95339981D01*
X91030935Y-95358237D01*
X91012183Y-95375759D01*
X90992874Y-95392151D01*
X90973007Y-95407412D01*
X90952583Y-95421543D01*
X90931602Y-95434543D01*
X90910064Y-95446413D01*
X90887969Y-95457152D01*
X90865316Y-95466761D01*
X90842107Y-95475240D01*
X90818340Y-95482588D01*
X90794016Y-95488805D01*
X90769134Y-95493892D01*
X90743696Y-95497849D01*
X90717700Y-95500675D01*
X90691148Y-95502371D01*
X90664038Y-95502936D01*
X90638352Y-95502456D01*
X90613232Y-95501015D01*
X90588678Y-95498613D01*
X90564688Y-95495250D01*
X90541264Y-95490926D01*
X90518406Y-95485641D01*
X90496112Y-95479396D01*
X90474384Y-95472190D01*
X90453221Y-95464022D01*
X90432624Y-95454894D01*
X90412591Y-95444805D01*
X90393124Y-95433754D01*
X90374222Y-95421743D01*
X90355884Y-95408771D01*
X90338113Y-95394837D01*
X90320906Y-95379943D01*
X90304632Y-95364177D01*
X90289141Y-95347629D01*
X90274434Y-95330297D01*
X90260509Y-95312182D01*
X90247368Y-95293284D01*
X90235011Y-95273603D01*
X90223436Y-95253138D01*
X90212644Y-95231890D01*
X90202636Y-95209859D01*
X90193411Y-95187045D01*
X90184969Y-95163448D01*
X90177311Y-95139067D01*
X90170435Y-95113904D01*
X90164343Y-95087957D01*
X90159034Y-95061226D01*
X90154508Y-95033713D01*
X90398420Y-94979972D01*
X90402940Y-95013754D01*
X90408236Y-95044824D01*
X90411175Y-95059341D01*
X90414308Y-95073181D01*
X90417635Y-95086342D01*
X90421156Y-95098824D01*
X90424871Y-95110629D01*
X90428779Y-95121755D01*
X90432881Y-95132203D01*
X90437177Y-95141973D01*
X90441667Y-95151064D01*
X90446350Y-95159478D01*
X90451227Y-95167213D01*
X90456297Y-95174269D01*
X90465865Y-95186785D01*
X90475965Y-95198493D01*
X90486599Y-95209393D01*
X90497766Y-95219486D01*
X90509466Y-95228772D01*
X90521698Y-95237251D01*
X90534464Y-95244921D01*
X90547763Y-95251785D01*
X90561594Y-95257841D01*
X90575959Y-95263090D01*
X90590857Y-95267531D01*
X90606287Y-95271165D01*
X90622250Y-95273991D01*
X90638747Y-95276010D01*
X90655776Y-95277221D01*
X90673338Y-95277625D01*
X90687270Y-95277330D01*
X90700904Y-95276446D01*
X90714239Y-95274972D01*
X90727275Y-95272909D01*
X90740013Y-95270256D01*
X90752451Y-95267014D01*
X90764591Y-95263182D01*
X90776432Y-95258761D01*
X90787974Y-95253751D01*
X90799217Y-95248151D01*
X90810162Y-95241962D01*
X90820808Y-95235184D01*
X90831155Y-95227816D01*
X90841203Y-95219859D01*
X90850952Y-95211313D01*
X90860403Y-95202178D01*
X90869415Y-95192590D01*
X90877845Y-95182687D01*
X90885694Y-95172470D01*
X90892962Y-95161937D01*
X90899647Y-95151088D01*
X90905752Y-95139925D01*
X90911275Y-95128447D01*
X90916217Y-95116654D01*
X90920577Y-95104546D01*
X90924356Y-95092123D01*
X90927553Y-95079386D01*
X90930169Y-95066334D01*
X90932204Y-95052966D01*
X90933657Y-95039285D01*
X90934529Y-95025288D01*
X90934820Y-95010977D01*
X90934610Y-94999479D01*
X90933980Y-94988238D01*
X90932930Y-94977256D01*
X90931460Y-94966531D01*
X90929570Y-94956066D01*
X90927259Y-94945859D01*
X90924529Y-94935911D01*
X90923005Y-94931034D01*
X90921377Y-94926223D01*
X90919765Y-94921341D01*
X90918031Y-94916517D01*
X90916177Y-94911748D01*
X90914202Y-94907037D01*
X90912106Y-94902382D01*
X90909889Y-94897783D01*
X90907551Y-94893241D01*
X90905092Y-94888756D01*
X90902513Y-94884327D01*
X90899812Y-94879955D01*
X90896991Y-94875639D01*
X90894049Y-94871380D01*
X90890986Y-94867178D01*
X90887802Y-94863032D01*
X90884497Y-94858943D01*
X90881071Y-94854911D01*
X90877646Y-94850797D01*
X90874093Y-94846723D01*
X90870410Y-94842690D01*
X90866598Y-94838697D01*
X90862658Y-94834745D01*
X90858588Y-94830833D01*
X90854389Y-94826961D01*
X90850061Y-94823130D01*
X90845604Y-94819340D01*
X90841018Y-94815589D01*
X90836303Y-94811880D01*
X90831459Y-94808210D01*
X90826485Y-94804581D01*
X90821382Y-94800992D01*
X90816150Y-94797444D01*
X90810789Y-94793936D01*
X90799679Y-94786749D01*
X90788051Y-94779659D01*
X90775907Y-94772665D01*
X90763245Y-94765769D01*
X90750067Y-94758970D01*
X90736373Y-94752268D01*
X90722161Y-94745664D01*
X90707434Y-94739157D01*
X90553442Y-94675078D01*
X90513768Y-94657265D01*
X90476653Y-94638452D01*
X90442098Y-94618637D01*
X90410103Y-94597820D01*
X90380668Y-94576003D01*
X90353792Y-94553185D01*
X90329476Y-94529365D01*
X90307719Y-94504544D01*
X90297801Y-94491758D01*
X90288522Y-94478722D01*
X90279884Y-94465435D01*
X90271885Y-94451899D01*
X90264526Y-94438112D01*
X90257807Y-94424074D01*
X90251728Y-94409787D01*
X90246289Y-94395249D01*
X90241490Y-94380460D01*
X90237331Y-94365422D01*
X90233811Y-94350133D01*
X90230932Y-94334594D01*
X90228692Y-94318804D01*
X90227093Y-94302765D01*
X90225813Y-94269934D01*
X90226350Y-94247685D01*
X90227961Y-94225897D01*
X90230646Y-94204568D01*
X90234404Y-94183700D01*
X90239237Y-94163292D01*
X90245144Y-94143344D01*
X90252124Y-94123857D01*
X90260178Y-94104830D01*
X90269307Y-94086262D01*
X90279509Y-94068155D01*
X90290785Y-94050508D01*
X90303134Y-94033322D01*
X90316558Y-94016595D01*
X90331055Y-94000329D01*
X90346627Y-93984522D01*
X90363272Y-93969176D01*
X90380716Y-93954409D01*
X90398685Y-93940594D01*
X90417180Y-93927732D01*
X90436199Y-93915822D01*
X90455743Y-93904866D01*
X90475812Y-93894861D01*
X90496406Y-93885810D01*
X90517525Y-93877711D01*
X90539168Y-93870565D01*
X90561337Y-93864372D01*
X90584030Y-93859131D01*
X90607247Y-93854843D01*
X90630990Y-93851508D01*
X90655257Y-93849126D01*
X90680049Y-93847697D01*
X90705366Y-93847220D01*
X90739388Y-93848270D01*
G37*
G36*
X89037985Y-138878594D02*
G01*
X89076474Y-138880088D01*
X89114639Y-138882577D01*
X89152481Y-138886062D01*
X89190000Y-138890542D01*
X89227195Y-138896019D01*
X89264068Y-138902491D01*
X89300618Y-138909959D01*
X89336845Y-138918422D01*
X89372749Y-138927882D01*
X89408329Y-138938337D01*
X89443587Y-138949789D01*
X89478522Y-138962236D01*
X89513134Y-138975679D01*
X89547422Y-138990118D01*
X89581388Y-139005553D01*
X89613653Y-139022105D01*
X89645850Y-139039895D01*
X89677979Y-139058924D01*
X89710042Y-139079190D01*
X89742036Y-139100695D01*
X89773964Y-139123438D01*
X89805824Y-139147419D01*
X89837617Y-139172639D01*
X89869342Y-139199096D01*
X89901000Y-139226792D01*
X89932591Y-139255727D01*
X89964115Y-139285900D01*
X89995571Y-139317311D01*
X90026960Y-139349960D01*
X90058282Y-139383848D01*
X90089537Y-139418975D01*
X89803602Y-139692855D01*
X89762133Y-139640080D01*
X89719546Y-139590711D01*
X89675843Y-139544747D01*
X89631023Y-139502187D01*
X89585087Y-139463033D01*
X89538033Y-139427283D01*
X89489863Y-139394938D01*
X89440576Y-139365998D01*
X89390171Y-139340463D01*
X89338650Y-139318332D01*
X89286012Y-139299607D01*
X89232256Y-139284286D01*
X89177384Y-139272369D01*
X89121394Y-139263858D01*
X89064287Y-139258751D01*
X89006063Y-139257048D01*
X88953841Y-139258185D01*
X88902681Y-139261597D01*
X88852585Y-139267282D01*
X88803553Y-139275242D01*
X88755583Y-139285476D01*
X88708677Y-139297984D01*
X88662835Y-139312766D01*
X88618055Y-139329823D01*
X88574339Y-139349154D01*
X88531686Y-139370760D01*
X88490096Y-139394640D01*
X88449569Y-139420794D01*
X88410106Y-139449223D01*
X88371705Y-139479926D01*
X88334368Y-139512903D01*
X88298094Y-139548156D01*
X88263468Y-139584466D01*
X88231076Y-139621907D01*
X88200918Y-139660478D01*
X88172994Y-139700179D01*
X88147304Y-139741010D01*
X88123848Y-139782971D01*
X88102625Y-139826062D01*
X88083637Y-139870284D01*
X88066883Y-139915635D01*
X88052362Y-139962117D01*
X88040076Y-140009729D01*
X88030023Y-140058470D01*
X88022204Y-140108342D01*
X88016619Y-140159344D01*
X88013269Y-140211477D01*
X88012152Y-140264739D01*
X88013396Y-140319679D01*
X88017131Y-140373394D01*
X88023355Y-140425884D01*
X88032069Y-140477150D01*
X88043272Y-140527191D01*
X88056965Y-140576007D01*
X88073147Y-140623598D01*
X88091820Y-140669965D01*
X88112982Y-140715106D01*
X88136633Y-140759024D01*
X88162774Y-140801716D01*
X88191405Y-140843184D01*
X88222525Y-140883427D01*
X88256135Y-140922446D01*
X88292235Y-140960240D01*
X88330824Y-140996810D01*
X88368269Y-141029141D01*
X88406105Y-141059386D01*
X88444330Y-141087546D01*
X88482946Y-141113619D01*
X88521952Y-141137607D01*
X88561348Y-141159510D01*
X88601134Y-141179326D01*
X88641311Y-141197057D01*
X88681877Y-141212701D01*
X88722834Y-141226260D01*
X88764182Y-141237733D01*
X88805919Y-141247120D01*
X88848047Y-141254421D01*
X88890566Y-141259636D01*
X88933475Y-141262765D01*
X88976774Y-141263808D01*
X89013573Y-141263027D01*
X89049901Y-141260686D01*
X89085758Y-141256783D01*
X89121144Y-141251320D01*
X89156059Y-141244295D01*
X89190504Y-141235709D01*
X89224477Y-141225562D01*
X89257979Y-141213855D01*
X89291011Y-141200586D01*
X89323571Y-141185756D01*
X89355661Y-141169365D01*
X89387280Y-141151413D01*
X89418428Y-141131900D01*
X89449105Y-141110826D01*
X89479311Y-141088190D01*
X89509046Y-141063994D01*
X89537730Y-141038491D01*
X89564785Y-141012368D01*
X89590211Y-140985627D01*
X89614010Y-140958268D01*
X89636181Y-140930289D01*
X89656723Y-140901692D01*
X89675637Y-140872476D01*
X89692923Y-140842641D01*
X89708581Y-140812187D01*
X89722611Y-140781114D01*
X89735012Y-140749422D01*
X89745786Y-140717112D01*
X89754931Y-140684182D01*
X89762448Y-140650633D01*
X89768336Y-140616466D01*
X89772596Y-140581679D01*
X89109419Y-140581679D01*
X89109434Y-140204467D01*
X90208410Y-140204467D01*
X90208410Y-140292311D01*
X90207307Y-140366165D01*
X90203996Y-140437866D01*
X90198478Y-140507414D01*
X90190753Y-140574809D01*
X90180821Y-140640051D01*
X90168682Y-140703140D01*
X90154337Y-140764076D01*
X90137785Y-140822860D01*
X90128802Y-140849451D01*
X90119078Y-140875827D01*
X90108615Y-140901988D01*
X90097412Y-140927933D01*
X90085468Y-140953664D01*
X90072784Y-140979179D01*
X90059360Y-141004478D01*
X90045196Y-141029563D01*
X90030292Y-141054432D01*
X90014648Y-141079086D01*
X89998264Y-141103524D01*
X89981140Y-141127747D01*
X89963275Y-141151755D01*
X89944670Y-141175548D01*
X89925326Y-141199125D01*
X89905241Y-141222487D01*
X89858159Y-141272967D01*
X89809504Y-141320189D01*
X89759273Y-141364155D01*
X89707469Y-141404863D01*
X89654089Y-141442315D01*
X89599136Y-141476510D01*
X89542608Y-141507449D01*
X89484506Y-141535130D01*
X89424829Y-141559555D01*
X89363578Y-141580723D01*
X89300752Y-141598635D01*
X89236353Y-141613289D01*
X89170379Y-141624687D01*
X89102830Y-141632829D01*
X89033708Y-141637714D01*
X88963011Y-141639342D01*
X88893873Y-141637768D01*
X88825987Y-141633044D01*
X88759353Y-141625172D01*
X88693970Y-141614151D01*
X88629839Y-141599980D01*
X88566959Y-141582661D01*
X88505331Y-141562192D01*
X88444954Y-141538575D01*
X88385829Y-141511808D01*
X88327955Y-141481893D01*
X88271333Y-141448828D01*
X88215962Y-141412614D01*
X88161843Y-141373251D01*
X88108975Y-141330738D01*
X88057359Y-141285077D01*
X88006994Y-141236266D01*
X87958811Y-141185033D01*
X87913736Y-141132535D01*
X87871770Y-141078772D01*
X87832912Y-141023744D01*
X87797163Y-140967451D01*
X87764523Y-140909893D01*
X87734991Y-140851070D01*
X87708568Y-140790982D01*
X87685253Y-140729629D01*
X87665047Y-140667012D01*
X87647949Y-140603130D01*
X87633960Y-140537984D01*
X87623080Y-140471573D01*
X87615308Y-140403898D01*
X87610645Y-140334958D01*
X87609091Y-140264754D01*
X87610672Y-140193094D01*
X87615415Y-140122806D01*
X87623321Y-140053891D01*
X87634390Y-139986348D01*
X87648620Y-139920178D01*
X87666013Y-139855380D01*
X87686569Y-139791955D01*
X87710287Y-139729903D01*
X87737168Y-139669223D01*
X87767211Y-139609916D01*
X87800416Y-139551981D01*
X87836785Y-139495419D01*
X87876315Y-139440230D01*
X87919009Y-139386413D01*
X87964865Y-139333969D01*
X88013883Y-139282897D01*
X88065170Y-139233878D01*
X88117828Y-139188022D01*
X88171860Y-139145328D01*
X88227263Y-139105797D01*
X88284039Y-139069428D01*
X88342188Y-139036221D01*
X88401709Y-139006178D01*
X88462603Y-138979296D01*
X88524870Y-138955578D01*
X88588509Y-138935021D01*
X88653522Y-138917628D01*
X88719906Y-138903396D01*
X88787664Y-138892328D01*
X88856794Y-138884421D01*
X88927298Y-138879678D01*
X88999174Y-138878096D01*
X89037985Y-138878594D01*
G37*
G36*
X93531862Y-47876041D02*
G01*
X93601019Y-47880805D01*
X93668912Y-47888745D01*
X93735539Y-47899861D01*
X93800902Y-47914152D01*
X93865000Y-47931620D01*
X93927832Y-47952263D01*
X93989400Y-47976083D01*
X94049702Y-48003078D01*
X94108740Y-48033249D01*
X94166513Y-48066596D01*
X94223020Y-48103119D01*
X94278263Y-48142818D01*
X94332240Y-48185693D01*
X94384952Y-48231744D01*
X94436399Y-48280970D01*
X94485835Y-48332425D01*
X94532082Y-48385158D01*
X94575139Y-48439169D01*
X94615006Y-48494459D01*
X94651684Y-48551027D01*
X94685173Y-48608874D01*
X94715472Y-48667999D01*
X94742581Y-48728403D01*
X94766502Y-48790085D01*
X94787232Y-48853045D01*
X94804774Y-48917284D01*
X94819126Y-48982801D01*
X94830289Y-49049597D01*
X94838262Y-49117671D01*
X94843046Y-49187024D01*
X94844641Y-49257655D01*
X94843039Y-49328676D01*
X94838235Y-49398338D01*
X94830228Y-49466641D01*
X94819019Y-49533585D01*
X94804606Y-49599169D01*
X94786991Y-49663395D01*
X94766173Y-49726261D01*
X94742152Y-49787768D01*
X94714928Y-49847916D01*
X94684502Y-49906705D01*
X94650873Y-49964134D01*
X94614040Y-50020205D01*
X94574005Y-50074916D01*
X94530767Y-50128268D01*
X94484327Y-50180261D01*
X94434683Y-50230895D01*
X94382555Y-50279496D01*
X94329096Y-50324961D01*
X94274304Y-50367291D01*
X94218179Y-50406486D01*
X94160723Y-50442545D01*
X94101934Y-50475468D01*
X94041812Y-50505256D01*
X93980359Y-50531908D01*
X93917573Y-50555425D01*
X93853455Y-50575806D01*
X93788005Y-50593052D01*
X93721223Y-50607162D01*
X93653108Y-50618137D01*
X93583661Y-50625976D01*
X93512882Y-50630679D01*
X93440771Y-50632247D01*
X93376801Y-50630854D01*
X93313653Y-50626675D01*
X93251325Y-50619711D01*
X93189818Y-50609961D01*
X93129132Y-50597425D01*
X93069266Y-50582104D01*
X93010222Y-50563997D01*
X92951999Y-50543104D01*
X92894596Y-50519426D01*
X92838014Y-50492961D01*
X92782253Y-50463712D01*
X92727313Y-50431676D01*
X92673194Y-50396856D01*
X92619895Y-50359249D01*
X92567417Y-50318857D01*
X92515760Y-50275679D01*
X92461111Y-50225416D01*
X92409987Y-50173241D01*
X92362389Y-50119155D01*
X92318317Y-50063159D01*
X92277770Y-50005252D01*
X92240750Y-49945433D01*
X92207254Y-49883704D01*
X92177285Y-49820064D01*
X92150842Y-49754513D01*
X92127924Y-49687052D01*
X92108532Y-49617679D01*
X92092665Y-49546395D01*
X92080325Y-49473201D01*
X92071510Y-49398095D01*
X92066222Y-49321079D01*
X92064574Y-49247313D01*
X92064574Y-49247309D01*
X92469252Y-49247309D01*
X92469252Y-49247313D01*
X92470409Y-49301822D01*
X92473881Y-49355106D01*
X92479668Y-49407166D01*
X92487769Y-49458001D01*
X92498186Y-49507612D01*
X92510917Y-49555997D01*
X92525962Y-49603159D01*
X92543322Y-49649095D01*
X92562997Y-49693807D01*
X92584987Y-49737295D01*
X92609291Y-49779558D01*
X92635910Y-49820596D01*
X92664844Y-49860409D01*
X92696092Y-49898998D01*
X92729654Y-49936363D01*
X92765531Y-49972502D01*
X92802708Y-50006920D01*
X92840598Y-50039116D01*
X92879200Y-50069093D01*
X92918516Y-50096848D01*
X92958545Y-50122384D01*
X92999287Y-50145698D01*
X93040742Y-50166793D01*
X93082910Y-50185666D01*
X93125792Y-50202320D01*
X93169386Y-50216752D01*
X93213694Y-50228965D01*
X93258715Y-50238957D01*
X93304448Y-50246728D01*
X93350895Y-50252279D01*
X93398055Y-50255610D01*
X93445928Y-50256720D01*
X93497740Y-50255590D01*
X93548528Y-50252199D01*
X93598294Y-50246547D01*
X93647037Y-50238634D01*
X93694757Y-50228460D01*
X93741455Y-50216025D01*
X93787130Y-50201330D01*
X93831782Y-50184373D01*
X93875412Y-50165156D01*
X93918019Y-50143678D01*
X93959603Y-50119939D01*
X94000164Y-50093939D01*
X94039703Y-50065678D01*
X94078218Y-50035156D01*
X94115711Y-50002373D01*
X94152182Y-49967330D01*
X94187015Y-49930229D01*
X94219602Y-49892131D01*
X94249941Y-49853038D01*
X94278033Y-49812949D01*
X94303878Y-49771864D01*
X94327476Y-49729783D01*
X94348826Y-49686706D01*
X94367929Y-49642633D01*
X94384785Y-49597564D01*
X94399393Y-49551500D01*
X94411754Y-49504439D01*
X94421868Y-49456383D01*
X94429734Y-49407331D01*
X94435353Y-49357282D01*
X94438724Y-49306239D01*
X94439848Y-49254199D01*
X94438738Y-49201554D01*
X94435407Y-49149986D01*
X94429856Y-49099494D01*
X94422084Y-49050079D01*
X94412092Y-49001740D01*
X94399879Y-48954478D01*
X94385446Y-48908292D01*
X94368792Y-48863183D01*
X94349918Y-48819151D01*
X94328824Y-48776194D01*
X94305509Y-48734315D01*
X94279974Y-48693511D01*
X94252219Y-48653785D01*
X94222243Y-48615135D01*
X94190047Y-48577561D01*
X94155630Y-48541064D01*
X94119792Y-48506022D01*
X94082904Y-48473240D01*
X94044967Y-48442719D01*
X94005980Y-48414460D01*
X93965944Y-48388460D01*
X93924858Y-48364722D01*
X93882722Y-48343244D01*
X93839538Y-48324027D01*
X93795303Y-48307071D01*
X93750019Y-48292376D01*
X93703686Y-48279941D01*
X93656302Y-48269768D01*
X93607870Y-48261855D01*
X93558387Y-48256203D01*
X93507856Y-48252811D01*
X93456274Y-48251681D01*
X93404888Y-48252811D01*
X93354511Y-48256203D01*
X93305143Y-48261855D01*
X93256784Y-48269768D01*
X93209434Y-48279941D01*
X93163093Y-48292376D01*
X93117761Y-48307071D01*
X93073439Y-48324027D01*
X93030125Y-48343244D01*
X92987821Y-48364722D01*
X92946526Y-48388460D01*
X92906241Y-48414460D01*
X92866965Y-48442719D01*
X92828698Y-48473240D01*
X92791441Y-48506022D01*
X92755194Y-48541064D01*
X92720568Y-48577332D01*
X92688176Y-48614650D01*
X92658018Y-48653017D01*
X92630094Y-48692434D01*
X92604404Y-48732901D01*
X92580948Y-48774417D01*
X92559725Y-48816983D01*
X92540737Y-48860598D01*
X92523983Y-48905263D01*
X92509462Y-48950978D01*
X92497176Y-48997742D01*
X92487123Y-49045556D01*
X92479304Y-49094420D01*
X92473719Y-49144334D01*
X92470369Y-49195297D01*
X92469252Y-49247309D01*
X92064574Y-49247309D01*
X92064459Y-49242152D01*
X92066067Y-49172577D01*
X92070891Y-49104241D01*
X92078932Y-49037142D01*
X92090189Y-48971282D01*
X92104663Y-48906659D01*
X92122353Y-48843275D01*
X92143259Y-48781129D01*
X92167381Y-48720221D01*
X92194720Y-48660551D01*
X92225275Y-48602120D01*
X92259046Y-48544926D01*
X92296034Y-48488970D01*
X92336238Y-48434253D01*
X92379659Y-48380774D01*
X92426295Y-48328533D01*
X92476149Y-48277529D01*
X92528041Y-48228719D01*
X92581225Y-48183058D01*
X92635701Y-48140546D01*
X92691469Y-48101183D01*
X92748529Y-48064969D01*
X92806880Y-48031904D01*
X92866523Y-48001989D01*
X92927458Y-47975222D01*
X92989684Y-47951604D01*
X93053203Y-47931136D01*
X93118013Y-47913816D01*
X93184114Y-47899645D01*
X93251508Y-47888624D01*
X93320193Y-47880751D01*
X93390170Y-47876028D01*
X93461439Y-47874453D01*
X93531862Y-47876041D01*
G37*
G36*
X95152120Y-139307021D02*
G01*
X94085867Y-139307021D01*
X94085867Y-139946089D01*
X95121115Y-139946089D01*
X95121115Y-140323317D01*
X94085867Y-140323317D01*
X94085867Y-141212157D01*
X95152120Y-141212157D01*
X95152120Y-141589400D01*
X93684507Y-141589400D01*
X93684507Y-138929793D01*
X95152120Y-138929793D01*
X95152120Y-139307021D01*
G37*
G36*
X98722090Y-48301635D02*
G01*
X97655836Y-48301635D01*
X97655836Y-48940699D01*
X98691084Y-48940699D01*
X98691084Y-49317931D01*
X97655836Y-49317931D01*
X97655836Y-50206767D01*
X98722090Y-50206767D01*
X98722090Y-50584006D01*
X97254476Y-50584006D01*
X97254476Y-47924395D01*
X98722090Y-47924395D01*
X98722090Y-48301635D01*
G37*
G36*
X91657813Y-43464769D02*
G01*
X91712940Y-43470017D01*
X91766493Y-43478765D01*
X91818472Y-43491011D01*
X91868877Y-43506757D01*
X91917707Y-43526001D01*
X91964962Y-43548744D01*
X92010643Y-43574987D01*
X92054749Y-43604728D01*
X92097281Y-43637968D01*
X92138239Y-43674707D01*
X92177622Y-43714945D01*
X92215431Y-43758681D01*
X92251665Y-43805916D01*
X92286325Y-43856651D01*
X92319410Y-43910884D01*
X92319395Y-43910887D01*
X91993833Y-44103808D01*
X91982455Y-44084430D01*
X91971143Y-44065913D01*
X91959899Y-44048257D01*
X91948722Y-44031462D01*
X91937613Y-44015529D01*
X91926571Y-44000457D01*
X91915596Y-43986246D01*
X91904689Y-43972896D01*
X91893849Y-43960407D01*
X91883076Y-43948780D01*
X91872371Y-43938014D01*
X91861733Y-43928109D01*
X91851162Y-43919065D01*
X91840658Y-43910883D01*
X91830222Y-43903561D01*
X91819853Y-43897101D01*
X91808892Y-43890427D01*
X91797540Y-43884183D01*
X91785798Y-43878370D01*
X91773666Y-43872988D01*
X91761144Y-43868036D01*
X91748231Y-43863514D01*
X91734928Y-43859423D01*
X91721235Y-43855763D01*
X91707152Y-43852533D01*
X91692679Y-43849734D01*
X91677815Y-43847366D01*
X91662562Y-43845428D01*
X91646918Y-43843921D01*
X91630884Y-43842844D01*
X91614460Y-43842198D01*
X91597647Y-43841983D01*
X91576983Y-43842353D01*
X91556764Y-43843463D01*
X91536988Y-43845313D01*
X91517657Y-43847904D01*
X91498769Y-43851234D01*
X91480326Y-43855305D01*
X91462326Y-43860116D01*
X91444771Y-43865667D01*
X91427659Y-43871958D01*
X91410992Y-43878989D01*
X91394768Y-43886761D01*
X91378989Y-43895272D01*
X91363653Y-43904524D01*
X91348762Y-43914516D01*
X91334314Y-43925248D01*
X91320310Y-43936721D01*
X91306961Y-43948536D01*
X91294473Y-43960729D01*
X91282846Y-43973298D01*
X91272081Y-43986244D01*
X91262177Y-43999566D01*
X91253134Y-44013266D01*
X91244952Y-44027342D01*
X91237632Y-44041795D01*
X91231173Y-44056626D01*
X91225575Y-44071832D01*
X91220838Y-44087416D01*
X91216963Y-44103377D01*
X91213949Y-44119715D01*
X91211796Y-44136429D01*
X91210504Y-44153520D01*
X91210073Y-44170989D01*
X91210356Y-44183080D01*
X91211204Y-44195024D01*
X91212617Y-44206819D01*
X91214595Y-44218466D01*
X91217138Y-44229965D01*
X91220247Y-44241317D01*
X91223921Y-44252520D01*
X91228159Y-44263575D01*
X91232964Y-44274482D01*
X91238333Y-44285241D01*
X91244267Y-44295852D01*
X91250767Y-44306316D01*
X91257832Y-44316631D01*
X91265462Y-44326798D01*
X91273658Y-44336817D01*
X91282418Y-44346688D01*
X91291744Y-44356410D01*
X91301635Y-44365985D01*
X91312091Y-44375412D01*
X91323112Y-44384691D01*
X91346851Y-44402805D01*
X91372850Y-44420326D01*
X91401110Y-44437256D01*
X91431631Y-44453593D01*
X91464413Y-44469339D01*
X91499456Y-44484492D01*
X91764738Y-44593013D01*
X91804536Y-44609606D01*
X91842976Y-44626656D01*
X91880057Y-44644164D01*
X91915778Y-44662130D01*
X91950141Y-44680553D01*
X91983145Y-44699434D01*
X92014790Y-44718772D01*
X92045076Y-44738568D01*
X92074003Y-44758821D01*
X92101571Y-44779532D01*
X92127780Y-44800700D01*
X92152630Y-44822326D01*
X92176121Y-44844409D01*
X92198253Y-44866950D01*
X92219026Y-44889949D01*
X92238439Y-44913405D01*
X92256587Y-44937211D01*
X92273563Y-44961689D01*
X92289369Y-44986841D01*
X92304004Y-45012665D01*
X92317468Y-45039163D01*
X92329762Y-45066333D01*
X92340885Y-45094177D01*
X92350837Y-45122693D01*
X92359618Y-45151883D01*
X92367228Y-45181745D01*
X92373668Y-45212280D01*
X92378937Y-45243488D01*
X92383035Y-45275369D01*
X92385962Y-45307923D01*
X92387718Y-45341149D01*
X92388304Y-45375048D01*
X92387348Y-45420413D01*
X92384482Y-45464781D01*
X92379704Y-45508154D01*
X92373016Y-45550531D01*
X92364417Y-45591913D01*
X92353906Y-45632298D01*
X92341485Y-45671688D01*
X92327153Y-45710082D01*
X92310910Y-45747480D01*
X92292756Y-45783882D01*
X92272692Y-45819289D01*
X92250716Y-45853699D01*
X92226830Y-45887114D01*
X92201032Y-45919533D01*
X92173324Y-45950956D01*
X92143705Y-45981383D01*
X92112451Y-46010585D01*
X92080267Y-46037904D01*
X92047156Y-46063338D01*
X92013115Y-46086888D01*
X91978146Y-46108555D01*
X91942249Y-46128337D01*
X91905423Y-46146235D01*
X91867668Y-46162249D01*
X91828985Y-46176379D01*
X91789373Y-46188625D01*
X91748833Y-46198987D01*
X91707364Y-46207465D01*
X91664966Y-46214059D01*
X91621640Y-46218769D01*
X91577385Y-46221595D01*
X91532202Y-46222537D01*
X91489393Y-46221736D01*
X91447526Y-46219334D01*
X91406602Y-46215331D01*
X91366620Y-46209726D01*
X91327580Y-46202520D01*
X91289482Y-46193712D01*
X91252326Y-46183303D01*
X91216113Y-46171293D01*
X91180842Y-46157681D01*
X91146512Y-46142467D01*
X91113125Y-46125653D01*
X91080680Y-46107237D01*
X91049176Y-46087219D01*
X91018615Y-46065600D01*
X90988995Y-46042380D01*
X90960318Y-46017558D01*
X90933194Y-45991282D01*
X90907376Y-45963701D01*
X90882863Y-45934814D01*
X90859655Y-45904622D01*
X90837753Y-45873125D01*
X90817157Y-45840323D01*
X90797865Y-45806215D01*
X90779879Y-45770802D01*
X90763199Y-45734084D01*
X90747824Y-45696060D01*
X90733755Y-45656731D01*
X90720990Y-45616097D01*
X90709532Y-45574157D01*
X90699379Y-45530911D01*
X90690531Y-45486361D01*
X90682989Y-45440505D01*
X91089514Y-45350932D01*
X91097047Y-45407238D01*
X91105874Y-45459021D01*
X91110772Y-45483218D01*
X91115994Y-45506283D01*
X91121539Y-45528219D01*
X91127407Y-45549024D01*
X91133598Y-45568698D01*
X91140112Y-45587243D01*
X91146950Y-45604656D01*
X91154110Y-45620940D01*
X91161593Y-45636093D01*
X91169399Y-45650115D01*
X91177528Y-45663007D01*
X91185980Y-45674769D01*
X91201926Y-45695628D01*
X91218761Y-45715142D01*
X91236484Y-45733309D01*
X91255095Y-45750131D01*
X91274594Y-45765608D01*
X91294982Y-45779738D01*
X91316258Y-45792523D01*
X91338422Y-45803961D01*
X91361474Y-45814055D01*
X91385415Y-45822802D01*
X91410243Y-45830204D01*
X91435961Y-45836260D01*
X91462566Y-45840970D01*
X91490060Y-45844334D01*
X91518442Y-45846353D01*
X91547712Y-45847026D01*
X91570932Y-45846534D01*
X91593655Y-45845061D01*
X91615879Y-45842605D01*
X91637605Y-45839166D01*
X91658834Y-45834746D01*
X91679565Y-45829342D01*
X91699798Y-45822957D01*
X91719533Y-45815589D01*
X91738770Y-45807238D01*
X91757509Y-45797905D01*
X91775750Y-45787590D01*
X91793494Y-45776293D01*
X91810739Y-45764012D01*
X91827487Y-45750750D01*
X91843736Y-45736505D01*
X91859487Y-45721278D01*
X91874507Y-45705296D01*
X91888557Y-45688790D01*
X91901638Y-45671759D01*
X91913750Y-45654204D01*
X91924893Y-45636124D01*
X91935066Y-45617519D01*
X91944271Y-45598389D01*
X91952507Y-45578734D01*
X91959774Y-45558555D01*
X91966071Y-45537850D01*
X91971400Y-45516621D01*
X91975760Y-45494867D01*
X91979151Y-45472588D01*
X91981573Y-45449785D01*
X91983026Y-45426456D01*
X91983511Y-45402602D01*
X91983161Y-45383441D01*
X91982112Y-45364709D01*
X91980363Y-45346408D01*
X91977916Y-45328537D01*
X91974769Y-45311096D01*
X91970923Y-45294085D01*
X91966378Y-45277505D01*
X91963843Y-45269376D01*
X91961134Y-45261355D01*
X91958449Y-45253220D01*
X91955563Y-45245180D01*
X91952475Y-45237233D01*
X91949185Y-45229381D01*
X91945693Y-45221623D01*
X91941999Y-45213959D01*
X91938103Y-45206389D01*
X91934005Y-45198914D01*
X91929705Y-45191532D01*
X91925203Y-45184245D01*
X91920499Y-45177052D01*
X91915593Y-45169954D01*
X91910485Y-45162949D01*
X91905175Y-45156039D01*
X91899663Y-45149223D01*
X91893949Y-45142501D01*
X91888244Y-45135644D01*
X91882323Y-45128855D01*
X91876186Y-45122133D01*
X91869834Y-45115479D01*
X91863267Y-45108892D01*
X91856484Y-45102372D01*
X91849485Y-45095919D01*
X91842272Y-45089534D01*
X91834843Y-45083216D01*
X91827198Y-45076965D01*
X91819339Y-45070782D01*
X91811264Y-45064666D01*
X91802975Y-45058617D01*
X91794470Y-45052635D01*
X91785750Y-45046720D01*
X91776815Y-45040873D01*
X91758300Y-45028895D01*
X91738923Y-45017079D01*
X91718684Y-45005424D01*
X91697583Y-44993932D01*
X91675621Y-44982601D01*
X91652797Y-44971432D01*
X91629113Y-44960425D01*
X91604566Y-44949580D01*
X91347898Y-44842776D01*
X91281775Y-44813090D01*
X91219917Y-44781735D01*
X91162325Y-44748711D01*
X91109000Y-44714018D01*
X91059941Y-44677656D01*
X91015147Y-44639626D01*
X90974620Y-44599927D01*
X90938359Y-44558560D01*
X90921828Y-44537250D01*
X90906364Y-44515523D01*
X90891966Y-44493379D01*
X90878635Y-44470818D01*
X90866370Y-44447840D01*
X90855172Y-44424444D01*
X90845040Y-44400631D01*
X90835975Y-44376402D01*
X90827976Y-44351755D01*
X90821044Y-44326690D01*
X90815179Y-44301209D01*
X90810379Y-44275310D01*
X90806647Y-44248994D01*
X90803980Y-44222262D01*
X90801847Y-44167544D01*
X90802742Y-44130463D01*
X90805427Y-44094148D01*
X90809902Y-44058600D01*
X90816167Y-44023820D01*
X90824221Y-43989806D01*
X90834066Y-43956560D01*
X90845700Y-43924080D01*
X90859124Y-43892368D01*
X90874338Y-43861423D01*
X90891342Y-43831244D01*
X90910135Y-43801833D01*
X90930719Y-43773189D01*
X90953092Y-43745311D01*
X90977255Y-43718201D01*
X91003208Y-43691858D01*
X91030950Y-43666281D01*
X91060024Y-43641667D01*
X91089972Y-43618641D01*
X91120796Y-43597204D01*
X91152494Y-43577354D01*
X91185067Y-43559092D01*
X91218515Y-43542418D01*
X91252838Y-43527332D01*
X91288035Y-43513834D01*
X91324108Y-43501924D01*
X91361055Y-43491603D01*
X91398877Y-43482869D01*
X91437574Y-43475723D01*
X91477146Y-43470165D01*
X91517593Y-43466195D01*
X91558914Y-43463813D01*
X91601110Y-43463019D01*
X91657813Y-43464769D01*
G37*
G36*
X87231001Y-49767527D02*
G01*
X87976858Y-47924407D01*
X88416113Y-47924407D01*
X87222387Y-50783831D01*
X86056227Y-47924407D01*
X86495474Y-47924407D01*
X87231001Y-49767527D01*
G37*
G36*
X76591886Y-63325049D02*
G01*
X75982107Y-63325049D01*
X75982107Y-65607413D01*
X75580755Y-65607413D01*
X75580755Y-63325049D01*
X74969252Y-63325049D01*
X74969252Y-62947806D01*
X76591886Y-62947806D01*
X76591886Y-63325049D01*
G37*
G36*
X87850059Y-154835388D02*
G01*
X87919216Y-154840152D01*
X87987107Y-154848092D01*
X88053734Y-154859209D01*
X88119096Y-154873501D01*
X88183193Y-154890969D01*
X88246025Y-154911613D01*
X88307592Y-154935433D01*
X88367895Y-154962429D01*
X88426932Y-154992601D01*
X88484704Y-155025949D01*
X88541212Y-155062472D01*
X88596454Y-155102172D01*
X88650431Y-155145047D01*
X88703144Y-155191098D01*
X88754591Y-155240325D01*
X88804027Y-155291779D01*
X88850273Y-155344511D01*
X88893330Y-155398522D01*
X88933198Y-155453811D01*
X88969876Y-155510379D01*
X89003364Y-155568226D01*
X89033663Y-155627351D01*
X89060773Y-155687754D01*
X89084693Y-155749436D01*
X89105424Y-155812397D01*
X89122965Y-155876636D01*
X89137317Y-155942154D01*
X89148480Y-156008950D01*
X89156454Y-156077024D01*
X89161238Y-156146378D01*
X89162832Y-156217009D01*
X89161231Y-156288030D01*
X89156427Y-156357691D01*
X89148420Y-156425994D01*
X89137210Y-156492938D01*
X89122798Y-156558522D01*
X89105183Y-156622747D01*
X89084364Y-156685614D01*
X89060344Y-156747121D01*
X89033120Y-156807269D01*
X89002693Y-156866057D01*
X88969064Y-156923487D01*
X88932232Y-156979557D01*
X88892197Y-157034268D01*
X88848959Y-157087620D01*
X88802518Y-157139612D01*
X88752874Y-157190245D01*
X88700747Y-157238848D01*
X88647287Y-157284315D01*
X88592495Y-157326646D01*
X88536371Y-157365841D01*
X88478914Y-157401900D01*
X88420125Y-157434824D01*
X88360004Y-157464611D01*
X88298551Y-157491263D01*
X88235765Y-157514779D01*
X88171647Y-157535160D01*
X88106197Y-157552405D01*
X88039414Y-157566514D01*
X87971300Y-157577488D01*
X87901853Y-157585327D01*
X87831074Y-157590030D01*
X87758963Y-157591597D01*
X87694993Y-157590205D01*
X87631844Y-157586026D01*
X87569516Y-157579062D01*
X87508009Y-157569313D01*
X87447323Y-157556777D01*
X87387458Y-157541456D01*
X87328414Y-157523350D01*
X87270191Y-157502457D01*
X87212789Y-157478779D01*
X87156208Y-157452315D01*
X87100447Y-157423066D01*
X87045508Y-157391030D01*
X86991389Y-157356209D01*
X86938092Y-157318602D01*
X86885615Y-157278209D01*
X86833959Y-157235030D01*
X86779309Y-157184765D01*
X86728184Y-157132589D01*
X86680585Y-157078504D01*
X86636512Y-157022507D01*
X86595964Y-156964600D01*
X86558943Y-156904782D01*
X86525447Y-156843053D01*
X86495478Y-156779414D01*
X86469034Y-156713864D01*
X86446116Y-156646403D01*
X86426723Y-156577031D01*
X86410857Y-156505748D01*
X86398517Y-156432554D01*
X86389702Y-156357449D01*
X86384413Y-156280433D01*
X86382765Y-156206649D01*
X86787451Y-156206649D01*
X86788608Y-156261160D01*
X86792080Y-156314446D01*
X86797866Y-156366508D01*
X86805967Y-156417345D01*
X86816383Y-156466958D01*
X86829113Y-156515346D01*
X86844158Y-156562509D01*
X86861518Y-156608447D01*
X86881192Y-156653160D01*
X86903181Y-156696649D01*
X86927485Y-156738912D01*
X86954103Y-156779950D01*
X86983036Y-156819764D01*
X87014283Y-156858352D01*
X87047846Y-156895715D01*
X87083723Y-156931853D01*
X87120899Y-156966268D01*
X87158789Y-156998464D01*
X87197392Y-157028440D01*
X87236708Y-157056195D01*
X87276737Y-157081731D01*
X87317479Y-157105046D01*
X87358934Y-157126141D01*
X87401103Y-157145016D01*
X87443985Y-157161671D01*
X87487580Y-157176105D01*
X87531888Y-157188319D01*
X87576909Y-157198312D01*
X87622644Y-157206085D01*
X87669092Y-157211637D01*
X87716253Y-157214968D01*
X87764128Y-157216078D01*
X87815939Y-157214948D01*
X87866727Y-157211557D01*
X87916492Y-157205904D01*
X87965235Y-157197991D01*
X88012955Y-157187817D01*
X88059652Y-157175382D01*
X88105326Y-157160686D01*
X88149978Y-157143729D01*
X88193606Y-157124511D01*
X88236213Y-157103032D01*
X88277796Y-157079293D01*
X88318357Y-157053292D01*
X88357895Y-157025030D01*
X88396410Y-156994508D01*
X88433903Y-156961725D01*
X88470373Y-156926680D01*
X88505207Y-156889578D01*
X88537793Y-156851480D01*
X88568133Y-156812387D01*
X88596225Y-156772297D01*
X88622070Y-156731211D01*
X88645667Y-156689130D01*
X88667018Y-156646052D01*
X88686121Y-156601979D01*
X88702977Y-156556910D01*
X88717585Y-156510845D01*
X88729946Y-156463784D01*
X88740060Y-156415728D01*
X88747926Y-156366676D01*
X88753544Y-156316628D01*
X88756916Y-156265585D01*
X88758039Y-156213546D01*
X88756929Y-156160900D01*
X88753599Y-156109331D01*
X88748048Y-156058839D01*
X88740276Y-156009423D01*
X88730285Y-155961084D01*
X88718073Y-155913821D01*
X88703640Y-155867635D01*
X88686987Y-155822526D01*
X88668113Y-155778493D01*
X88647019Y-155735537D01*
X88623704Y-155693657D01*
X88598169Y-155652854D01*
X88570413Y-155613128D01*
X88540437Y-155574479D01*
X88508239Y-155536907D01*
X88473822Y-155500411D01*
X88437983Y-155465367D01*
X88401095Y-155432584D01*
X88363158Y-155402062D01*
X88324171Y-155373801D01*
X88284135Y-155347802D01*
X88243049Y-155324064D01*
X88200914Y-155302586D01*
X88157729Y-155283370D01*
X88113495Y-155266414D01*
X88068211Y-155251720D01*
X88021877Y-155239286D01*
X87974494Y-155229113D01*
X87926061Y-155221201D01*
X87876579Y-155215549D01*
X87826047Y-155212158D01*
X87774465Y-155211028D01*
X87723080Y-155212158D01*
X87672703Y-155215549D01*
X87623335Y-155221201D01*
X87574976Y-155229113D01*
X87527627Y-155239286D01*
X87481286Y-155251720D01*
X87435955Y-155266414D01*
X87391633Y-155283370D01*
X87348320Y-155302586D01*
X87306016Y-155324064D01*
X87264721Y-155347802D01*
X87224436Y-155373801D01*
X87185159Y-155402062D01*
X87146892Y-155432584D01*
X87109634Y-155465367D01*
X87073385Y-155500411D01*
X87038759Y-155536681D01*
X87006368Y-155574000D01*
X86976210Y-155612368D01*
X86948287Y-155651785D01*
X86922597Y-155692252D01*
X86899142Y-155733768D01*
X86877920Y-155776333D01*
X86858932Y-155819947D01*
X86842179Y-155864611D01*
X86827659Y-155910324D01*
X86815373Y-155957087D01*
X86805321Y-156004900D01*
X86797503Y-156053762D01*
X86791918Y-156103675D01*
X86788568Y-156154637D01*
X86787451Y-156206649D01*
X86382765Y-156206649D01*
X86382650Y-156201506D01*
X86384259Y-156131930D01*
X86389083Y-156063593D01*
X86397124Y-155996494D01*
X86408382Y-155930633D01*
X86422856Y-155866010D01*
X86440546Y-155802626D01*
X86461453Y-155740480D01*
X86485576Y-155679572D01*
X86512915Y-155619902D01*
X86543470Y-155561470D01*
X86577241Y-155504276D01*
X86614229Y-155448321D01*
X86654433Y-155393603D01*
X86697852Y-155340123D01*
X86744488Y-155287881D01*
X86794340Y-155236876D01*
X86846233Y-155188068D01*
X86899417Y-155142408D01*
X86953893Y-155099897D01*
X87009661Y-155060535D01*
X87066720Y-155024321D01*
X87125072Y-154991256D01*
X87184715Y-154961340D01*
X87245650Y-154934573D01*
X87307877Y-154910955D01*
X87371396Y-154890485D01*
X87436207Y-154873165D01*
X87502309Y-154858994D01*
X87569704Y-154847972D01*
X87638390Y-154840099D01*
X87708368Y-154835375D01*
X87779638Y-154833800D01*
X87850059Y-154835388D01*
G37*
G36*
X80788008Y-65607413D02*
G01*
X80348761Y-65607413D01*
X80069708Y-64961463D01*
X78931105Y-64961463D01*
X78634832Y-65607413D01*
X78202474Y-65607413D01*
X78678844Y-64584220D01*
X79098196Y-64584220D01*
X79906073Y-64584220D01*
X79511610Y-63679885D01*
X79098196Y-64584220D01*
X78678844Y-64584220D01*
X79518499Y-62780722D01*
X80788008Y-65607413D01*
G37*
G36*
X84219137Y-139307021D02*
G01*
X83609358Y-139307021D01*
X83609358Y-141589400D01*
X83207998Y-141589400D01*
X83207998Y-139307021D01*
X82596495Y-139307021D01*
X82596495Y-138929793D01*
X84219137Y-138929793D01*
X84219137Y-139307021D01*
G37*
G36*
X94627524Y-88905474D02*
G01*
X94689980Y-88907795D01*
X94750148Y-88911664D01*
X94808029Y-88917081D01*
X94863621Y-88924045D01*
X94916926Y-88932557D01*
X94967942Y-88942616D01*
X95016671Y-88954223D01*
X95063112Y-88967378D01*
X95107265Y-88982080D01*
X95149131Y-88998329D01*
X95188708Y-89016126D01*
X95225998Y-89035471D01*
X95261000Y-89056363D01*
X95293714Y-89078803D01*
X95324140Y-89102790D01*
X95355429Y-89130903D01*
X95384699Y-89160120D01*
X95411951Y-89190440D01*
X95437184Y-89221863D01*
X95460398Y-89254390D01*
X95481594Y-89288020D01*
X95500771Y-89322754D01*
X95517929Y-89358591D01*
X95533069Y-89395532D01*
X95546190Y-89433576D01*
X95557292Y-89472724D01*
X95566376Y-89512976D01*
X95573441Y-89554331D01*
X95578488Y-89596790D01*
X95581516Y-89640353D01*
X95582525Y-89685019D01*
X95581893Y-89720021D01*
X95579995Y-89754403D01*
X95576833Y-89788167D01*
X95572406Y-89821311D01*
X95566713Y-89853837D01*
X95559756Y-89885744D01*
X95551534Y-89917032D01*
X95542046Y-89947701D01*
X95531294Y-89977751D01*
X95519277Y-90007183D01*
X95505994Y-90035995D01*
X95491447Y-90064189D01*
X95475635Y-90091764D01*
X95458557Y-90118720D01*
X95440214Y-90145057D01*
X95420607Y-90170775D01*
X95399963Y-90195611D01*
X95378512Y-90219302D01*
X95356253Y-90241850D01*
X95333187Y-90263253D01*
X95309314Y-90283513D01*
X95284634Y-90302629D01*
X95259146Y-90320601D01*
X95232851Y-90337430D01*
X95205748Y-90353114D01*
X95177838Y-90367655D01*
X95149120Y-90381051D01*
X95119594Y-90393304D01*
X95089261Y-90404413D01*
X95058120Y-90414378D01*
X95026171Y-90423199D01*
X94993414Y-90430876D01*
X95816793Y-91564307D01*
X95325865Y-91564307D01*
X94566221Y-90475661D01*
X94493872Y-90475661D01*
X94493872Y-91564307D01*
X94092527Y-91564307D01*
X94092527Y-90125983D01*
X94493872Y-90125983D01*
X94621344Y-90125983D01*
X94690386Y-90124281D01*
X94754974Y-90119174D01*
X94815108Y-90110662D01*
X94870787Y-90098746D01*
X94922013Y-90083425D01*
X94945955Y-90074488D01*
X94968784Y-90064699D01*
X94990499Y-90054060D01*
X95011100Y-90042569D01*
X95030588Y-90030227D01*
X95048962Y-90017034D01*
X95066223Y-90002990D01*
X95082370Y-89988095D01*
X95097404Y-89972348D01*
X95111324Y-89955750D01*
X95124130Y-89938301D01*
X95135823Y-89920001D01*
X95146402Y-89900850D01*
X95155868Y-89880847D01*
X95164220Y-89859994D01*
X95171459Y-89838289D01*
X95177583Y-89815733D01*
X95182595Y-89792325D01*
X95186492Y-89768067D01*
X95189276Y-89742957D01*
X95190947Y-89716996D01*
X95191503Y-89690184D01*
X95190962Y-89665068D01*
X95189337Y-89640748D01*
X95186628Y-89617227D01*
X95182837Y-89594502D01*
X95177962Y-89572575D01*
X95172003Y-89551445D01*
X95164962Y-89531113D01*
X95156837Y-89511578D01*
X95147628Y-89492840D01*
X95137337Y-89474900D01*
X95125962Y-89457757D01*
X95113503Y-89441411D01*
X95099962Y-89425863D01*
X95085337Y-89411112D01*
X95069629Y-89397159D01*
X95052837Y-89384002D01*
X95034962Y-89371644D01*
X95016004Y-89360082D01*
X94995963Y-89349318D01*
X94974838Y-89339351D01*
X94952630Y-89330182D01*
X94929339Y-89321810D01*
X94904965Y-89314235D01*
X94879507Y-89307458D01*
X94852966Y-89301478D01*
X94825341Y-89296295D01*
X94796634Y-89291910D01*
X94766843Y-89288322D01*
X94735969Y-89285531D01*
X94704011Y-89283538D01*
X94670970Y-89282342D01*
X94636846Y-89281943D01*
X94493872Y-89281943D01*
X94493872Y-90125983D01*
X94092527Y-90125983D01*
X94092527Y-89281943D01*
X94092527Y-88904700D01*
X94562780Y-88904700D01*
X94627524Y-88905474D01*
G37*
G36*
X98612478Y-91187072D02*
G01*
X99394514Y-91187072D01*
X99394514Y-91564307D01*
X98211126Y-91564307D01*
X98211126Y-88904700D01*
X98612478Y-88904700D01*
X98612478Y-91187072D01*
G37*
G36*
X92325430Y-105327742D02*
G01*
X92766752Y-104261145D01*
X93028234Y-104261145D01*
X92315100Y-105958197D01*
X91904791Y-104827521D01*
X91476904Y-105959235D01*
X90798910Y-104261145D01*
X91060392Y-104261145D01*
X91475874Y-105327742D01*
X91909956Y-104183631D01*
X92325430Y-105327742D01*
G37*
G36*
X87102674Y-141589400D02*
G01*
X86701315Y-141589400D01*
X86701315Y-138929793D01*
X87102674Y-138929793D01*
X87102674Y-141589400D01*
G37*
G36*
X88526182Y-105630576D02*
G01*
X88995405Y-105630576D01*
X88995405Y-105856917D01*
X88285368Y-105856917D01*
X88285368Y-104261153D01*
X88526182Y-104261153D01*
X88526182Y-105630576D01*
G37*
G36*
X93617338Y-155260970D02*
G01*
X93007551Y-155260970D01*
X93007551Y-157543349D01*
X92606207Y-157543349D01*
X92606207Y-155260970D01*
X91994703Y-155260970D01*
X91994703Y-154883742D01*
X93617338Y-154883742D01*
X93617338Y-155260970D01*
G37*
G36*
X105225195Y-88854753D02*
G01*
X105280323Y-88860001D01*
X105333877Y-88868748D01*
X105385856Y-88880994D01*
X105436261Y-88896739D01*
X105485092Y-88915983D01*
X105532348Y-88938726D01*
X105578030Y-88964967D01*
X105622137Y-88994708D01*
X105664670Y-89027948D01*
X105705628Y-89064686D01*
X105745011Y-89104924D01*
X105782821Y-89148660D01*
X105819055Y-89195896D01*
X105853715Y-89246630D01*
X105886801Y-89300864D01*
X105886800Y-89300865D01*
X105886799Y-89300865D01*
X105886799Y-89300866D01*
X105886798Y-89300866D01*
X105886796Y-89300868D01*
X105886795Y-89300868D01*
X105886793Y-89300869D01*
X105886792Y-89300870D01*
X105886790Y-89300871D01*
X105886788Y-89300872D01*
X105886780Y-89300875D01*
X105886778Y-89300876D01*
X105886776Y-89300877D01*
X105886773Y-89300878D01*
X105886770Y-89300879D01*
X105561209Y-89493804D01*
X105549831Y-89474426D01*
X105538521Y-89455909D01*
X105527278Y-89438254D01*
X105516102Y-89421460D01*
X105504993Y-89405527D01*
X105493952Y-89390455D01*
X105482978Y-89376244D01*
X105472071Y-89362895D01*
X105461231Y-89350406D01*
X105450458Y-89338779D01*
X105439753Y-89328013D01*
X105429115Y-89318108D01*
X105418544Y-89309065D01*
X105408041Y-89300882D01*
X105397605Y-89293561D01*
X105387236Y-89287101D01*
X105376274Y-89280425D01*
X105364923Y-89274180D01*
X105353181Y-89268367D01*
X105341049Y-89262983D01*
X105328526Y-89258031D01*
X105315613Y-89253509D01*
X105302310Y-89249418D01*
X105288617Y-89245758D01*
X105274533Y-89242528D01*
X105260060Y-89239729D01*
X105245195Y-89237361D01*
X105229941Y-89235423D01*
X105214297Y-89233916D01*
X105198262Y-89232839D01*
X105181837Y-89232193D01*
X105165022Y-89231978D01*
X105144360Y-89232348D01*
X105124141Y-89233458D01*
X105104367Y-89235309D01*
X105085036Y-89237899D01*
X105066150Y-89241230D01*
X105047707Y-89245300D01*
X105029708Y-89250111D01*
X105012154Y-89255662D01*
X104995043Y-89261953D01*
X104978376Y-89268984D01*
X104962153Y-89276755D01*
X104946375Y-89285266D01*
X104931040Y-89294518D01*
X104916149Y-89304509D01*
X104901703Y-89315241D01*
X104887701Y-89326712D01*
X104874351Y-89338528D01*
X104861863Y-89350720D01*
X104850236Y-89363289D01*
X104839470Y-89376235D01*
X104829565Y-89389558D01*
X104820522Y-89403257D01*
X104812339Y-89417333D01*
X104805018Y-89431786D01*
X104798559Y-89446616D01*
X104792960Y-89461822D01*
X104788223Y-89477406D01*
X104784347Y-89493366D01*
X104781332Y-89509702D01*
X104779179Y-89526416D01*
X104777887Y-89543506D01*
X104777456Y-89560973D01*
X104777739Y-89573065D01*
X104778587Y-89585008D01*
X104780000Y-89596804D01*
X104781978Y-89608452D01*
X104784522Y-89619951D01*
X104787630Y-89631303D01*
X104791304Y-89642506D01*
X104795543Y-89653561D01*
X104800348Y-89664469D01*
X104805717Y-89675228D01*
X104811652Y-89685839D01*
X104818152Y-89696302D01*
X104825218Y-89706617D01*
X104832848Y-89716784D01*
X104841044Y-89726803D01*
X104849805Y-89736674D01*
X104859131Y-89746397D01*
X104869022Y-89755972D01*
X104879479Y-89765398D01*
X104890500Y-89774677D01*
X104914240Y-89792790D01*
X104940239Y-89810311D01*
X104968500Y-89827240D01*
X104999022Y-89843576D01*
X105031804Y-89859320D01*
X105066847Y-89874472D01*
X105332113Y-89982993D01*
X105371914Y-89999587D01*
X105410356Y-90016637D01*
X105447439Y-90034146D01*
X105483162Y-90052111D01*
X105517526Y-90070534D01*
X105550531Y-90089415D01*
X105582177Y-90108753D01*
X105612464Y-90128548D01*
X105641391Y-90148801D01*
X105668959Y-90169512D01*
X105695168Y-90190681D01*
X105720017Y-90212307D01*
X105743508Y-90234391D01*
X105765639Y-90256932D01*
X105786410Y-90279932D01*
X105805822Y-90303389D01*
X105823968Y-90327195D01*
X105840943Y-90351673D01*
X105856748Y-90376825D01*
X105871382Y-90402649D01*
X105884846Y-90429147D01*
X105897139Y-90456317D01*
X105908261Y-90484161D01*
X105918213Y-90512677D01*
X105926994Y-90541866D01*
X105934604Y-90571728D01*
X105941043Y-90602263D01*
X105946312Y-90633471D01*
X105950410Y-90665351D01*
X105953337Y-90697904D01*
X105955093Y-90731130D01*
X105955679Y-90765029D01*
X105954723Y-90810393D01*
X105951857Y-90854761D01*
X105947079Y-90898134D01*
X105940391Y-90940511D01*
X105931792Y-90981892D01*
X105921282Y-91022277D01*
X105908860Y-91061667D01*
X105894528Y-91100060D01*
X105878285Y-91137458D01*
X105860131Y-91173860D01*
X105840067Y-91209266D01*
X105818091Y-91243676D01*
X105794205Y-91277091D01*
X105768407Y-91309510D01*
X105740699Y-91340932D01*
X105711080Y-91371360D01*
X105679826Y-91400563D01*
X105647643Y-91427882D01*
X105614531Y-91453316D01*
X105580491Y-91476867D01*
X105545522Y-91498534D01*
X105509624Y-91518316D01*
X105472798Y-91536214D01*
X105435043Y-91552229D01*
X105396360Y-91566359D01*
X105356748Y-91578605D01*
X105316208Y-91588967D01*
X105274739Y-91597445D01*
X105232341Y-91604039D01*
X105189015Y-91608749D01*
X105144760Y-91611575D01*
X105099577Y-91612517D01*
X105056769Y-91611716D01*
X105014904Y-91609314D01*
X104973980Y-91605311D01*
X104933999Y-91599706D01*
X104894960Y-91592499D01*
X104856863Y-91583691D01*
X104819708Y-91573282D01*
X104783495Y-91561271D01*
X104748224Y-91547659D01*
X104713895Y-91532446D01*
X104680508Y-91515631D01*
X104648062Y-91497215D01*
X104616559Y-91477198D01*
X104585998Y-91455579D01*
X104556378Y-91432359D01*
X104527700Y-91407538D01*
X104500577Y-91381261D01*
X104474759Y-91353679D01*
X104450246Y-91324791D01*
X104427038Y-91294599D01*
X104405136Y-91263101D01*
X104384539Y-91230299D01*
X104365248Y-91196191D01*
X104347261Y-91160778D01*
X104330581Y-91124059D01*
X104315205Y-91086036D01*
X104301135Y-91046707D01*
X104288370Y-91006073D01*
X104276911Y-90964133D01*
X104266756Y-90920888D01*
X104257908Y-90876337D01*
X104250364Y-90830481D01*
X104656889Y-90740912D01*
X104664424Y-90797217D01*
X104673252Y-90849000D01*
X104678151Y-90873196D01*
X104683373Y-90896262D01*
X104688917Y-90918198D01*
X104694785Y-90939003D01*
X104700976Y-90958677D01*
X104707490Y-90977222D01*
X104714326Y-90994636D01*
X104721486Y-91010919D01*
X104728969Y-91026073D01*
X104736775Y-91040095D01*
X104744903Y-91052988D01*
X104753355Y-91064749D01*
X104769302Y-91085609D01*
X104786136Y-91105122D01*
X104803860Y-91123290D01*
X104822471Y-91140112D01*
X104841971Y-91155588D01*
X104862359Y-91169718D01*
X104883635Y-91182503D01*
X104905800Y-91193942D01*
X104928852Y-91204035D01*
X104952793Y-91212782D01*
X104977622Y-91220184D01*
X105003339Y-91226240D01*
X105029944Y-91230950D01*
X105057437Y-91234314D01*
X105085818Y-91236333D01*
X105115087Y-91237006D01*
X105138309Y-91236515D01*
X105161032Y-91235041D01*
X105183258Y-91232585D01*
X105204985Y-91229147D01*
X105226214Y-91224726D01*
X105246946Y-91219323D01*
X105267179Y-91212937D01*
X105286915Y-91205569D01*
X105306152Y-91197219D01*
X105324892Y-91187886D01*
X105343133Y-91177571D01*
X105360876Y-91166273D01*
X105378122Y-91153993D01*
X105394869Y-91140730D01*
X105411119Y-91126486D01*
X105426870Y-91111258D01*
X105441888Y-91095279D01*
X105455938Y-91078774D01*
X105469018Y-91061744D01*
X105481129Y-91044189D01*
X105492272Y-91026109D01*
X105502446Y-91007504D01*
X105511651Y-90988374D01*
X105519887Y-90968719D01*
X105527154Y-90948539D01*
X105533452Y-90927835D01*
X105538782Y-90906605D01*
X105543142Y-90884851D01*
X105546533Y-90862572D01*
X105548956Y-90839768D01*
X105550409Y-90816439D01*
X105550894Y-90792586D01*
X105550544Y-90773424D01*
X105549495Y-90754692D01*
X105547746Y-90736391D01*
X105545298Y-90718520D01*
X105542150Y-90701080D01*
X105538302Y-90684070D01*
X105533755Y-90667491D01*
X105531220Y-90659363D01*
X105528509Y-90651343D01*
X105525826Y-90643208D01*
X105522941Y-90635167D01*
X105519854Y-90627220D01*
X105516564Y-90619367D01*
X105513073Y-90611608D01*
X105509380Y-90603944D01*
X105505484Y-90596374D01*
X105501387Y-90588898D01*
X105497087Y-90581517D01*
X105492585Y-90574230D01*
X105487882Y-90567037D01*
X105482976Y-90559938D01*
X105477868Y-90552933D01*
X105472558Y-90546023D01*
X105467046Y-90539207D01*
X105461332Y-90532485D01*
X105455626Y-90525629D01*
X105449704Y-90518840D01*
X105443567Y-90512119D01*
X105437215Y-90505464D01*
X105430648Y-90498877D01*
X105423866Y-90492356D01*
X105416868Y-90485903D01*
X105409655Y-90479518D01*
X105402228Y-90473199D01*
X105394584Y-90466948D01*
X105386726Y-90460764D01*
X105378653Y-90454647D01*
X105370364Y-90448598D01*
X105361860Y-90442616D01*
X105353140Y-90436701D01*
X105344206Y-90430854D01*
X105325688Y-90418876D01*
X105306309Y-90407060D01*
X105286068Y-90395405D01*
X105264967Y-90383913D01*
X105243004Y-90372581D01*
X105220180Y-90361411D01*
X105196495Y-90350402D01*
X105171949Y-90339553D01*
X104915289Y-90232756D01*
X104849165Y-90203070D01*
X104787307Y-90171715D01*
X104729716Y-90138691D01*
X104676390Y-90103998D01*
X104627331Y-90067636D01*
X104582538Y-90029605D01*
X104542011Y-89989906D01*
X104505750Y-89948538D01*
X104489219Y-89927228D01*
X104473755Y-89905501D01*
X104459357Y-89883356D01*
X104446026Y-89860795D01*
X104433761Y-89837816D01*
X104422563Y-89814420D01*
X104412431Y-89790607D01*
X104403366Y-89766377D01*
X104395367Y-89741730D01*
X104388435Y-89716665D01*
X104382569Y-89691183D01*
X104377770Y-89665284D01*
X104374037Y-89638968D01*
X104371371Y-89612235D01*
X104369238Y-89557517D01*
X104370133Y-89520435D01*
X104372818Y-89484121D01*
X104377292Y-89448573D01*
X104383557Y-89413793D01*
X104391611Y-89379780D01*
X104401456Y-89346534D01*
X104413090Y-89314055D01*
X104426514Y-89282343D01*
X104441727Y-89251398D01*
X104458730Y-89221220D01*
X104477523Y-89191809D01*
X104498106Y-89163164D01*
X104520478Y-89135287D01*
X104544640Y-89108177D01*
X104570592Y-89081834D01*
X104598333Y-89056258D01*
X104627408Y-89031645D01*
X104657358Y-89008619D01*
X104688182Y-88987182D01*
X104719881Y-88967333D01*
X104752455Y-88949072D01*
X104785903Y-88932398D01*
X104820226Y-88917313D01*
X104855424Y-88903816D01*
X104891496Y-88891907D01*
X104928443Y-88881585D01*
X104966265Y-88872852D01*
X105004962Y-88865706D01*
X105044533Y-88860149D01*
X105084978Y-88856179D01*
X105126298Y-88853797D01*
X105168493Y-88853003D01*
X105225195Y-88854753D01*
G37*
G36*
X90214445Y-48301646D02*
G01*
X89148191Y-48301646D01*
X89148191Y-48940711D01*
X90183439Y-48940711D01*
X90183439Y-49317942D01*
X89148191Y-49317942D01*
X89148191Y-50206778D01*
X90214445Y-50206778D01*
X90214445Y-50584017D01*
X88746832Y-50584017D01*
X88746832Y-47924407D01*
X90214445Y-47924407D01*
X90214445Y-48301646D01*
G37*
G36*
X96214217Y-138930567D02*
G01*
X96276673Y-138932888D01*
X96336841Y-138936757D01*
X96394722Y-138942173D01*
X96450314Y-138949137D01*
X96503618Y-138957648D01*
X96554635Y-138967707D01*
X96603364Y-138979314D01*
X96649805Y-138992468D01*
X96693958Y-139007170D01*
X96735823Y-139023419D01*
X96775401Y-139041216D01*
X96812691Y-139060561D01*
X96847693Y-139081454D01*
X96880407Y-139103894D01*
X96910833Y-139127883D01*
X96942122Y-139155995D01*
X96971392Y-139185210D01*
X96998644Y-139215530D01*
X97023877Y-139246953D01*
X97047091Y-139279479D01*
X97068286Y-139313109D01*
X97087463Y-139347842D01*
X97104622Y-139383679D01*
X97119762Y-139420619D01*
X97132883Y-139458663D01*
X97143985Y-139497811D01*
X97153069Y-139538061D01*
X97160134Y-139579415D01*
X97165181Y-139621872D01*
X97168209Y-139665433D01*
X97169218Y-139710097D01*
X97168585Y-139745101D01*
X97166688Y-139779486D01*
X97163526Y-139813251D01*
X97159098Y-139846397D01*
X97153406Y-139878923D01*
X97146449Y-139910831D01*
X97138227Y-139942119D01*
X97128739Y-139972789D01*
X97117987Y-140002839D01*
X97105970Y-140032270D01*
X97092687Y-140061082D01*
X97078140Y-140089276D01*
X97062327Y-140116850D01*
X97045250Y-140143806D01*
X97026907Y-140170143D01*
X97007299Y-140195861D01*
X96986655Y-140220695D01*
X96965204Y-140244386D01*
X96942946Y-140266933D01*
X96919880Y-140288337D01*
X96896007Y-140308597D01*
X96871327Y-140327713D01*
X96845839Y-140345686D01*
X96819544Y-140362515D01*
X96792441Y-140378200D01*
X96764531Y-140392741D01*
X96735812Y-140406139D01*
X96706287Y-140418392D01*
X96675953Y-140429501D01*
X96644812Y-140439465D01*
X96612863Y-140448286D01*
X96580107Y-140455962D01*
X97403479Y-141589400D01*
X96912558Y-141589400D01*
X96152914Y-140500746D01*
X96080564Y-140500746D01*
X96080564Y-141589400D01*
X95679220Y-141589400D01*
X95679220Y-140151076D01*
X96080564Y-140151076D01*
X96208036Y-140151076D01*
X96277079Y-140149374D01*
X96341667Y-140144266D01*
X96401801Y-140135754D01*
X96457480Y-140123837D01*
X96508705Y-140108515D01*
X96532648Y-140099577D01*
X96555476Y-140089788D01*
X96577192Y-140079148D01*
X96597793Y-140067657D01*
X96617281Y-140055314D01*
X96635655Y-140042121D01*
X96652916Y-140028076D01*
X96669063Y-140013180D01*
X96684097Y-139997433D01*
X96698017Y-139980835D01*
X96710823Y-139963385D01*
X96722516Y-139945085D01*
X96733095Y-139925933D01*
X96742561Y-139905931D01*
X96750913Y-139885077D01*
X96758151Y-139863372D01*
X96764276Y-139840816D01*
X96769287Y-139817409D01*
X96773185Y-139793151D01*
X96775969Y-139768042D01*
X96777639Y-139742081D01*
X96778196Y-139715270D01*
X96777655Y-139690154D01*
X96776030Y-139665835D01*
X96773321Y-139642314D01*
X96769530Y-139619589D01*
X96764654Y-139597662D01*
X96758696Y-139576533D01*
X96751654Y-139556200D01*
X96743529Y-139536665D01*
X96734321Y-139517927D01*
X96724029Y-139499987D01*
X96712655Y-139482844D01*
X96700196Y-139466498D01*
X96686655Y-139450949D01*
X96672030Y-139436198D01*
X96656322Y-139422244D01*
X96639530Y-139409087D01*
X96621655Y-139396728D01*
X96602697Y-139385166D01*
X96582656Y-139374401D01*
X96561531Y-139364434D01*
X96539323Y-139355264D01*
X96516032Y-139346891D01*
X96491657Y-139339316D01*
X96466200Y-139332538D01*
X96439658Y-139326557D01*
X96412034Y-139321374D01*
X96383326Y-139316989D01*
X96353536Y-139313400D01*
X96322661Y-139310609D01*
X96290704Y-139308616D01*
X96257663Y-139307420D01*
X96223539Y-139307021D01*
X96080564Y-139307021D01*
X96080564Y-140151076D01*
X95679220Y-140151076D01*
X95679220Y-139307021D01*
X95679220Y-138929793D01*
X96149473Y-138929793D01*
X96214217Y-138930567D01*
G37*
G36*
X90068891Y-156485701D02*
G01*
X90069329Y-156527831D01*
X90070641Y-156568520D01*
X90072828Y-156607769D01*
X90075889Y-156645578D01*
X90079826Y-156681947D01*
X90084637Y-156716876D01*
X90090323Y-156750365D01*
X90096884Y-156782414D01*
X90104319Y-156813023D01*
X90112629Y-156842192D01*
X90121814Y-156869921D01*
X90131874Y-156896210D01*
X90142808Y-156921059D01*
X90154618Y-156944469D01*
X90167302Y-156966438D01*
X90180860Y-156986968D01*
X90202278Y-157014712D01*
X90224758Y-157040666D01*
X90248301Y-157064830D01*
X90272908Y-157087204D01*
X90298578Y-157107788D01*
X90325311Y-157126582D01*
X90353107Y-157143586D01*
X90381967Y-157158801D01*
X90411889Y-157172225D01*
X90442875Y-157183860D01*
X90474923Y-157193704D01*
X90508035Y-157201759D01*
X90542210Y-157208024D01*
X90577448Y-157212499D01*
X90613749Y-157215184D01*
X90651113Y-157216078D01*
X90688687Y-157215184D01*
X90725184Y-157212499D01*
X90760604Y-157208024D01*
X90794947Y-157201759D01*
X90828214Y-157193704D01*
X90860404Y-157183860D01*
X90891518Y-157172225D01*
X90921554Y-157158801D01*
X90950515Y-157143586D01*
X90978398Y-157126582D01*
X91005205Y-157107788D01*
X91030936Y-157087204D01*
X91055589Y-157064830D01*
X91079166Y-157040666D01*
X91101667Y-157014712D01*
X91123091Y-156986968D01*
X91136649Y-156967044D01*
X91149333Y-156945600D01*
X91161143Y-156922635D01*
X91172077Y-156898150D01*
X91182137Y-156872144D01*
X91191322Y-156844617D01*
X91199632Y-156815569D01*
X91207067Y-156785001D01*
X91213628Y-156752911D01*
X91219314Y-156719301D01*
X91224125Y-156684170D01*
X91228062Y-156647518D01*
X91231123Y-156609345D01*
X91233310Y-156569652D01*
X91234622Y-156528437D01*
X91235060Y-156485701D01*
X91235060Y-154883742D01*
X91636412Y-154883742D01*
X91636412Y-156595946D01*
X91635389Y-156647904D01*
X91632320Y-156698705D01*
X91627206Y-156748349D01*
X91620047Y-156796836D01*
X91610841Y-156844165D01*
X91599591Y-156890337D01*
X91586294Y-156935351D01*
X91570952Y-156979209D01*
X91553565Y-157021909D01*
X91534132Y-157063452D01*
X91512653Y-157103837D01*
X91489129Y-157143065D01*
X91463560Y-157181136D01*
X91435945Y-157218050D01*
X91406284Y-157253806D01*
X91374578Y-157288405D01*
X91337234Y-157325115D01*
X91298839Y-157359457D01*
X91259395Y-157391431D01*
X91218902Y-157421036D01*
X91177358Y-157448273D01*
X91134765Y-157473142D01*
X91091123Y-157495642D01*
X91046430Y-157515774D01*
X91000689Y-157533538D01*
X90953897Y-157548933D01*
X90906056Y-157561960D01*
X90857165Y-157572618D01*
X90807225Y-157580908D01*
X90756235Y-157586830D01*
X90704195Y-157590383D01*
X90651106Y-157591567D01*
X90598025Y-157590383D01*
X90546006Y-157586830D01*
X90495051Y-157580908D01*
X90445158Y-157572618D01*
X90396328Y-157561960D01*
X90348562Y-157548933D01*
X90301858Y-157533538D01*
X90256217Y-157515774D01*
X90211639Y-157495642D01*
X90168124Y-157473142D01*
X90125672Y-157448273D01*
X90084283Y-157421036D01*
X90043957Y-157391431D01*
X90004694Y-157359457D01*
X89966494Y-157325115D01*
X89929357Y-157288405D01*
X89897652Y-157253806D01*
X89867991Y-157218050D01*
X89840377Y-157181136D01*
X89814808Y-157143065D01*
X89791284Y-157103837D01*
X89769806Y-157063452D01*
X89750374Y-157021909D01*
X89732987Y-156979209D01*
X89717646Y-156935351D01*
X89704350Y-156890337D01*
X89693100Y-156844165D01*
X89683896Y-156796836D01*
X89676736Y-156748349D01*
X89671623Y-156698705D01*
X89668555Y-156647904D01*
X89667532Y-156595946D01*
X89667532Y-154883742D01*
X90068891Y-154883742D01*
X90068891Y-156485701D01*
G37*
G36*
X80018896Y-89325148D02*
G01*
X79409109Y-89325148D01*
X79409109Y-91607512D01*
X79007757Y-91607512D01*
X79007757Y-89325148D01*
X78396253Y-89325148D01*
X78396253Y-88947905D01*
X80018896Y-88947905D01*
X80018896Y-89325148D01*
G37*
G36*
X83246931Y-91607512D02*
G01*
X82845587Y-91607512D01*
X82845587Y-88947905D01*
X83246931Y-88947905D01*
X83246931Y-91607512D01*
G37*
G36*
X101242796Y-89281943D02*
G01*
X100176542Y-89281943D01*
X100176542Y-89921004D01*
X101211790Y-89921004D01*
X101211790Y-90298247D01*
X100176542Y-90298247D01*
X100176542Y-91187079D01*
X101242796Y-91187079D01*
X101242796Y-91564315D01*
X99775190Y-91564315D01*
X99775190Y-88904708D01*
X101242796Y-88904708D01*
X101242796Y-89281943D01*
G37*
G36*
X101232381Y-62889950D02*
G01*
X101276885Y-62892231D01*
X101321200Y-62896033D01*
X101365327Y-62901356D01*
X101409265Y-62908199D01*
X101453015Y-62916563D01*
X101496577Y-62926448D01*
X101539950Y-62937854D01*
X101583135Y-62950780D01*
X101626132Y-62965226D01*
X101668940Y-62981194D01*
X101711560Y-62998682D01*
X101753991Y-63017690D01*
X101796234Y-63038219D01*
X101838289Y-63060268D01*
X101880155Y-63083838D01*
X101880148Y-63083838D01*
X101880148Y-63559264D01*
X101836559Y-63524013D01*
X101792782Y-63491036D01*
X101748816Y-63460334D01*
X101704663Y-63431906D01*
X101660320Y-63405752D01*
X101615790Y-63381872D01*
X101571071Y-63360266D01*
X101526164Y-63340934D01*
X101481068Y-63323877D01*
X101435784Y-63309094D01*
X101390312Y-63296586D01*
X101344651Y-63286351D01*
X101298802Y-63278391D01*
X101252764Y-63272705D01*
X101206538Y-63269294D01*
X101160124Y-63268157D01*
X101109383Y-63269307D01*
X101059652Y-63272759D01*
X101010930Y-63278512D01*
X100963217Y-63286566D01*
X100916513Y-63296921D01*
X100870819Y-63309578D01*
X100826134Y-63324536D01*
X100782458Y-63341795D01*
X100739792Y-63361355D01*
X100698135Y-63383216D01*
X100657487Y-63407379D01*
X100617849Y-63433843D01*
X100579220Y-63462609D01*
X100541600Y-63493675D01*
X100504990Y-63527043D01*
X100469389Y-63562712D01*
X100435179Y-63599828D01*
X100403176Y-63637966D01*
X100373381Y-63677127D01*
X100345792Y-63717310D01*
X100320411Y-63758517D01*
X100297237Y-63800746D01*
X100276271Y-63843998D01*
X100257511Y-63888272D01*
X100240959Y-63933569D01*
X100226613Y-63979889D01*
X100214475Y-64027231D01*
X100204543Y-64075596D01*
X100196819Y-64124983D01*
X100191302Y-64175393D01*
X100187991Y-64226826D01*
X100186888Y-64279280D01*
X100187991Y-64331091D01*
X100191302Y-64381880D01*
X100196819Y-64431646D01*
X100204543Y-64480389D01*
X100214475Y-64528109D01*
X100226613Y-64574807D01*
X100240959Y-64620482D01*
X100257511Y-64665134D01*
X100276271Y-64708764D01*
X100297237Y-64751371D01*
X100320411Y-64792955D01*
X100345792Y-64833516D01*
X100373381Y-64873055D01*
X100403176Y-64911570D01*
X100435179Y-64949063D01*
X100469389Y-64985533D01*
X100505198Y-65020367D01*
X100542003Y-65052953D01*
X100579804Y-65083292D01*
X100618601Y-65111384D01*
X100658394Y-65137228D01*
X100699184Y-65160825D01*
X100740969Y-65182175D01*
X100783750Y-65201277D01*
X100827528Y-65218132D01*
X100872301Y-65232740D01*
X100918071Y-65245100D01*
X100964836Y-65255213D01*
X101012597Y-65263079D01*
X101061354Y-65268697D01*
X101111107Y-65272068D01*
X101161856Y-65273192D01*
X101188090Y-65272923D01*
X101213826Y-65272116D01*
X101239065Y-65270770D01*
X101263805Y-65268886D01*
X101288048Y-65266464D01*
X101311793Y-65263504D01*
X101335040Y-65260005D01*
X101357789Y-65255968D01*
X101380040Y-65251392D01*
X101401793Y-65246279D01*
X101423049Y-65240627D01*
X101443806Y-65234436D01*
X101464066Y-65227708D01*
X101483827Y-65220441D01*
X101503091Y-65212635D01*
X101521856Y-65204291D01*
X101542610Y-65195300D01*
X101563524Y-65185556D01*
X101584599Y-65175058D01*
X101605835Y-65163808D01*
X101627231Y-65151804D01*
X101648789Y-65139047D01*
X101670508Y-65125537D01*
X101692388Y-65111274D01*
X101714916Y-65096254D01*
X101737713Y-65080482D01*
X101760779Y-65063956D01*
X101784114Y-65046676D01*
X101807718Y-65028644D01*
X101831592Y-65009857D01*
X101855735Y-64990317D01*
X101880148Y-64970023D01*
X101880148Y-65454062D01*
X101836949Y-65477632D01*
X101793481Y-65499681D01*
X101749744Y-65520210D01*
X101705738Y-65539218D01*
X101661463Y-65556705D01*
X101616919Y-65572672D01*
X101572106Y-65587118D01*
X101527023Y-65600043D01*
X101481672Y-65611448D01*
X101436051Y-65621332D01*
X101390161Y-65629695D01*
X101344002Y-65636538D01*
X101297574Y-65641860D01*
X101250877Y-65645662D01*
X101203911Y-65647943D01*
X101156675Y-65648703D01*
X101086058Y-65647149D01*
X101016747Y-65642486D01*
X100948740Y-65634714D01*
X100882039Y-65623833D01*
X100816643Y-65609843D01*
X100752552Y-65592745D01*
X100689766Y-65572538D01*
X100628286Y-65549223D01*
X100568111Y-65522799D01*
X100509242Y-65493266D01*
X100451678Y-65460625D01*
X100395419Y-65424875D01*
X100340466Y-65386017D01*
X100286818Y-65344050D01*
X100234476Y-65298976D01*
X100183439Y-65250792D01*
X100134839Y-65199978D01*
X100089374Y-65147872D01*
X100047045Y-65094474D01*
X100007851Y-65039783D01*
X99971793Y-64983801D01*
X99938870Y-64926526D01*
X99909083Y-64867960D01*
X99882431Y-64808101D01*
X99858915Y-64746951D01*
X99838534Y-64684508D01*
X99821289Y-64620774D01*
X99807179Y-64555747D01*
X99796205Y-64489429D01*
X99788366Y-64421818D01*
X99783663Y-64352916D01*
X99782095Y-64282721D01*
X99783407Y-64219634D01*
X99787343Y-64157408D01*
X99793903Y-64096043D01*
X99803088Y-64035539D01*
X99814896Y-63975896D01*
X99829329Y-63917115D01*
X99846386Y-63859194D01*
X99866067Y-63802135D01*
X99888372Y-63745937D01*
X99913301Y-63690601D01*
X99940855Y-63636125D01*
X99971033Y-63582511D01*
X100003835Y-63529759D01*
X100039261Y-63477868D01*
X100077312Y-63426838D01*
X100117987Y-63376670D01*
X100170611Y-63317638D01*
X100225133Y-63262416D01*
X100281553Y-63211002D01*
X100339870Y-63163396D01*
X100400085Y-63119599D01*
X100462198Y-63079610D01*
X100526208Y-63043430D01*
X100592115Y-63011059D01*
X100659920Y-62982495D01*
X100729623Y-62957741D01*
X100801224Y-62936794D01*
X100874721Y-62919657D01*
X100950117Y-62906327D01*
X101027410Y-62896806D01*
X101106601Y-62891094D01*
X101187689Y-62889189D01*
X101232381Y-62889950D01*
G37*
G36*
X85825590Y-90796187D02*
G01*
X85825590Y-88947898D01*
X86226934Y-88947898D01*
X86226934Y-91769423D01*
X84287352Y-89745436D01*
X84287352Y-91607505D01*
X83886000Y-91607512D01*
X83886000Y-88767035D01*
X85825590Y-90796187D01*
G37*
G36*
X97684027Y-89281943D02*
G01*
X96617773Y-89281943D01*
X96617773Y-89921004D01*
X97653021Y-89921004D01*
X97653021Y-90298247D01*
X96617773Y-90298247D01*
X96617773Y-91187079D01*
X97684027Y-91187079D01*
X97684027Y-91564315D01*
X96216421Y-91564315D01*
X96216421Y-88904708D01*
X97684027Y-88904708D01*
X97684027Y-89281943D01*
G37*
G36*
X92304243Y-94104560D02*
G01*
X91938375Y-94104560D01*
X91938375Y-95473990D01*
X91697561Y-95473990D01*
X91697561Y-94104560D01*
X91330664Y-94104560D01*
X91330664Y-93878218D01*
X92304243Y-93878218D01*
X92304243Y-94104560D01*
G37*
G36*
X92009374Y-138878594D02*
G01*
X92047861Y-138880088D01*
X92086025Y-138882577D01*
X92123866Y-138886062D01*
X92161384Y-138890542D01*
X92198580Y-138896019D01*
X92235452Y-138902491D01*
X92272002Y-138909959D01*
X92308229Y-138918422D01*
X92344133Y-138927882D01*
X92379714Y-138938337D01*
X92414973Y-138949789D01*
X92449908Y-138962236D01*
X92484521Y-138975679D01*
X92518811Y-138990118D01*
X92552778Y-139005553D01*
X92585041Y-139022105D01*
X92617237Y-139039895D01*
X92649366Y-139058924D01*
X92681428Y-139079190D01*
X92713423Y-139100695D01*
X92745350Y-139123438D01*
X92777211Y-139147419D01*
X92809004Y-139172639D01*
X92840730Y-139199096D01*
X92872388Y-139226792D01*
X92903980Y-139255727D01*
X92935504Y-139285900D01*
X92966960Y-139317311D01*
X92998350Y-139349960D01*
X93029672Y-139383848D01*
X93060926Y-139418975D01*
X92774984Y-139692855D01*
X92733516Y-139640080D01*
X92690931Y-139590711D01*
X92647228Y-139544747D01*
X92602409Y-139502187D01*
X92556472Y-139463033D01*
X92509419Y-139427283D01*
X92461248Y-139394938D01*
X92411961Y-139365998D01*
X92361556Y-139340463D01*
X92310034Y-139318332D01*
X92257395Y-139299607D01*
X92203639Y-139284286D01*
X92148767Y-139272369D01*
X92092777Y-139263858D01*
X92035670Y-139258751D01*
X91977446Y-139257048D01*
X91925224Y-139258185D01*
X91874066Y-139261597D01*
X91823971Y-139267282D01*
X91774939Y-139275242D01*
X91726971Y-139285476D01*
X91680065Y-139297984D01*
X91634223Y-139312766D01*
X91589444Y-139329823D01*
X91545728Y-139349154D01*
X91503075Y-139370760D01*
X91461486Y-139394640D01*
X91420959Y-139420794D01*
X91381496Y-139449223D01*
X91343095Y-139479926D01*
X91305758Y-139512903D01*
X91269483Y-139548156D01*
X91234858Y-139584466D01*
X91202466Y-139621907D01*
X91172308Y-139660478D01*
X91144384Y-139700179D01*
X91118694Y-139741010D01*
X91095238Y-139782971D01*
X91074015Y-139826062D01*
X91055027Y-139870284D01*
X91038272Y-139915635D01*
X91023752Y-139962117D01*
X91011465Y-140009729D01*
X91001413Y-140058470D01*
X90993594Y-140108342D01*
X90988009Y-140159344D01*
X90984658Y-140211477D01*
X90983541Y-140264739D01*
X90984786Y-140319679D01*
X90988520Y-140373394D01*
X90994744Y-140425884D01*
X91003457Y-140477150D01*
X91014660Y-140527191D01*
X91028352Y-140576007D01*
X91044534Y-140623598D01*
X91063206Y-140669965D01*
X91084367Y-140715106D01*
X91108018Y-140759024D01*
X91134158Y-140801716D01*
X91162788Y-140843184D01*
X91193908Y-140883427D01*
X91227517Y-140922446D01*
X91263617Y-140960240D01*
X91302206Y-140996810D01*
X91339653Y-141029141D01*
X91377490Y-141059386D01*
X91415716Y-141087546D01*
X91454333Y-141113619D01*
X91493339Y-141137607D01*
X91532736Y-141159510D01*
X91572523Y-141179326D01*
X91612699Y-141197057D01*
X91653266Y-141212701D01*
X91694224Y-141226260D01*
X91735571Y-141237733D01*
X91777309Y-141247120D01*
X91819437Y-141254421D01*
X91861955Y-141259636D01*
X91904864Y-141262765D01*
X91948164Y-141263808D01*
X91984963Y-141263027D01*
X92021291Y-141260686D01*
X92057148Y-141256783D01*
X92092534Y-141251320D01*
X92127449Y-141244295D01*
X92161893Y-141235709D01*
X92195866Y-141225562D01*
X92229368Y-141213855D01*
X92262399Y-141200586D01*
X92294959Y-141185756D01*
X92327048Y-141169365D01*
X92358666Y-141151413D01*
X92389813Y-141131900D01*
X92420489Y-141110826D01*
X92450695Y-141088190D01*
X92480429Y-141063994D01*
X92509113Y-141038491D01*
X92536169Y-141012368D01*
X92561596Y-140985627D01*
X92585395Y-140958268D01*
X92607566Y-140930289D01*
X92628109Y-140901692D01*
X92647023Y-140872476D01*
X92664308Y-140842641D01*
X92679966Y-140812187D01*
X92693995Y-140781114D01*
X92706396Y-140749422D01*
X92717169Y-140717112D01*
X92726314Y-140684182D01*
X92733830Y-140650633D01*
X92739718Y-140616466D01*
X92743978Y-140581679D01*
X92080801Y-140581679D01*
X92080816Y-140204467D01*
X93179800Y-140204467D01*
X93179800Y-140292311D01*
X93178696Y-140366165D01*
X93175385Y-140437866D01*
X93169867Y-140507414D01*
X93162142Y-140574809D01*
X93152209Y-140640051D01*
X93140069Y-140703140D01*
X93125722Y-140764076D01*
X93109167Y-140822860D01*
X93100185Y-140849451D01*
X93090463Y-140875827D01*
X93080001Y-140901988D01*
X93068798Y-140927933D01*
X93056855Y-140953664D01*
X93044172Y-140979179D01*
X93030748Y-141004478D01*
X93016584Y-141029563D01*
X93001680Y-141054432D01*
X92986036Y-141079086D01*
X92969651Y-141103524D01*
X92952526Y-141127747D01*
X92934661Y-141151755D01*
X92916055Y-141175548D01*
X92896709Y-141199125D01*
X92876623Y-141222487D01*
X92829543Y-141272967D01*
X92780888Y-141320189D01*
X92730659Y-141364155D01*
X92678855Y-141404863D01*
X92625476Y-141442315D01*
X92570523Y-141476510D01*
X92513996Y-141507449D01*
X92455893Y-141535130D01*
X92396217Y-141559555D01*
X92334965Y-141580723D01*
X92272139Y-141598635D01*
X92207739Y-141613289D01*
X92141764Y-141624687D01*
X92074215Y-141632829D01*
X92005091Y-141637714D01*
X91934393Y-141639342D01*
X91865255Y-141637768D01*
X91797370Y-141633044D01*
X91730735Y-141625172D01*
X91665352Y-141614151D01*
X91601221Y-141599980D01*
X91538341Y-141582661D01*
X91476713Y-141562192D01*
X91416337Y-141538575D01*
X91357212Y-141511808D01*
X91299339Y-141481893D01*
X91242717Y-141448828D01*
X91187347Y-141412614D01*
X91133229Y-141373251D01*
X91080362Y-141330738D01*
X91028747Y-141285077D01*
X90978384Y-141236266D01*
X90930199Y-141185033D01*
X90885124Y-141132535D01*
X90843156Y-141078772D01*
X90804298Y-141023744D01*
X90768548Y-140967451D01*
X90735907Y-140909893D01*
X90706374Y-140851070D01*
X90679951Y-140790982D01*
X90656636Y-140729629D01*
X90636429Y-140667012D01*
X90619331Y-140603130D01*
X90605342Y-140537984D01*
X90594462Y-140471573D01*
X90586690Y-140403898D01*
X90582027Y-140334958D01*
X90580473Y-140264754D01*
X90582054Y-140193094D01*
X90586798Y-140122806D01*
X90594704Y-140053891D01*
X90605773Y-139986348D01*
X90620004Y-139920178D01*
X90637398Y-139855380D01*
X90657954Y-139791955D01*
X90681673Y-139729903D01*
X90708554Y-139669223D01*
X90738598Y-139609916D01*
X90771804Y-139551981D01*
X90808173Y-139495419D01*
X90847704Y-139440230D01*
X90890398Y-139386413D01*
X90936254Y-139333969D01*
X90985273Y-139282897D01*
X91036558Y-139233878D01*
X91089216Y-139188022D01*
X91143247Y-139145328D01*
X91198650Y-139105797D01*
X91255426Y-139069428D01*
X91313575Y-139036221D01*
X91373096Y-139006178D01*
X91433990Y-138979296D01*
X91496257Y-138955578D01*
X91559897Y-138935021D01*
X91624910Y-138917628D01*
X91691295Y-138903396D01*
X91759053Y-138892328D01*
X91828184Y-138884421D01*
X91898687Y-138879678D01*
X91970564Y-138878096D01*
X92009374Y-138878594D01*
G37*
G36*
X82513128Y-91607512D02*
G01*
X82073881Y-91607512D01*
X81794836Y-90961562D01*
X80656233Y-90961562D01*
X80359960Y-91607512D01*
X79927595Y-91607512D01*
X80403964Y-90584319D01*
X80823316Y-90584319D01*
X81631193Y-90584319D01*
X81236730Y-89679984D01*
X80823316Y-90584319D01*
X80403964Y-90584319D01*
X81243620Y-88780822D01*
X82513128Y-91607512D01*
G37*
G36*
X75063993Y-65607413D02*
G01*
X74624742Y-65607413D01*
X74345693Y-64961463D01*
X73207090Y-64961463D01*
X72910814Y-65607413D01*
X72478453Y-65607413D01*
X72954823Y-64584220D01*
X73374182Y-64584220D01*
X74182054Y-64584220D01*
X73787588Y-63679885D01*
X73374182Y-64584220D01*
X72954823Y-64584220D01*
X73794481Y-62780722D01*
X75063993Y-65607413D01*
G37*
G36*
X95885091Y-47925122D02*
G01*
X95960964Y-47927302D01*
X96031723Y-47930936D01*
X96097369Y-47936022D01*
X96157901Y-47942563D01*
X96213320Y-47950556D01*
X96263624Y-47960004D01*
X96308813Y-47970904D01*
X96330184Y-47977041D01*
X96351231Y-47983823D01*
X96371956Y-47991252D01*
X96392358Y-47999327D01*
X96412436Y-48008047D01*
X96432192Y-48017414D01*
X96451625Y-48027427D01*
X96470734Y-48038085D01*
X96489521Y-48049390D01*
X96507985Y-48061340D01*
X96526125Y-48073936D01*
X96543943Y-48087178D01*
X96561437Y-48101066D01*
X96578609Y-48115600D01*
X96595457Y-48130780D01*
X96611982Y-48146605D01*
X96639725Y-48175054D01*
X96665677Y-48204417D01*
X96689840Y-48234696D01*
X96712213Y-48265890D01*
X96732795Y-48297999D01*
X96751588Y-48331023D01*
X96768592Y-48364962D01*
X96783805Y-48399817D01*
X96797228Y-48435586D01*
X96808862Y-48472271D01*
X96818706Y-48509871D01*
X96826760Y-48548386D01*
X96833024Y-48587816D01*
X96837498Y-48628161D01*
X96840183Y-48669421D01*
X96841078Y-48711596D01*
X96840122Y-48756652D01*
X96837256Y-48800523D01*
X96832478Y-48843210D01*
X96825790Y-48884713D01*
X96817191Y-48925032D01*
X96806680Y-48964166D01*
X96794259Y-49002116D01*
X96779927Y-49038882D01*
X96763684Y-49074464D01*
X96745530Y-49108861D01*
X96725466Y-49142074D01*
X96703490Y-49174102D01*
X96679604Y-49204947D01*
X96653806Y-49234607D01*
X96626098Y-49263082D01*
X96596479Y-49290374D01*
X96565239Y-49316239D01*
X96532666Y-49340436D01*
X96498761Y-49362963D01*
X96463523Y-49383822D01*
X96426953Y-49403013D01*
X96389051Y-49420534D01*
X96349816Y-49436387D01*
X96309249Y-49450571D01*
X96267349Y-49463087D01*
X96224117Y-49473933D01*
X96179553Y-49483111D01*
X96133656Y-49490620D01*
X96086426Y-49496461D01*
X96037864Y-49500632D01*
X95987970Y-49503136D01*
X95936743Y-49503970D01*
X95750700Y-49503970D01*
X95750700Y-50584006D01*
X95349356Y-50584006D01*
X95349356Y-49131900D01*
X95750700Y-49131900D01*
X95900564Y-49131900D01*
X95967521Y-49130238D01*
X96030158Y-49125252D01*
X96088475Y-49116942D01*
X96142472Y-49105308D01*
X96167851Y-49098244D01*
X96192150Y-49090350D01*
X96215369Y-49081625D01*
X96237507Y-49072068D01*
X96258566Y-49061681D01*
X96278545Y-49050463D01*
X96297445Y-49038413D01*
X96315264Y-49025533D01*
X96332003Y-49011822D01*
X96347662Y-48997279D01*
X96362241Y-48981906D01*
X96375741Y-48965702D01*
X96388160Y-48948667D01*
X96399500Y-48930801D01*
X96409759Y-48912103D01*
X96418939Y-48892575D01*
X96427038Y-48872216D01*
X96434058Y-48851026D01*
X96439998Y-48829005D01*
X96444857Y-48806153D01*
X96448637Y-48782470D01*
X96451337Y-48757956D01*
X96452957Y-48732611D01*
X96453497Y-48706435D01*
X96452940Y-48681106D01*
X96451270Y-48656582D01*
X96448486Y-48632861D01*
X96444588Y-48609945D01*
X96439577Y-48587833D01*
X96433452Y-48566525D01*
X96426214Y-48546021D01*
X96417861Y-48526321D01*
X96408396Y-48507425D01*
X96397817Y-48489333D01*
X96386124Y-48472045D01*
X96373317Y-48455562D01*
X96359397Y-48439882D01*
X96344364Y-48425006D01*
X96328217Y-48410935D01*
X96310956Y-48397668D01*
X96292582Y-48385204D01*
X96273094Y-48373545D01*
X96252492Y-48362690D01*
X96230777Y-48352639D01*
X96207948Y-48343392D01*
X96184006Y-48334949D01*
X96158950Y-48327310D01*
X96132781Y-48320476D01*
X96105498Y-48314445D01*
X96077101Y-48309219D01*
X96047591Y-48304796D01*
X96016967Y-48301178D01*
X95985230Y-48298364D01*
X95952379Y-48296353D01*
X95918415Y-48295147D01*
X95883337Y-48294745D01*
X95750700Y-48294745D01*
X95750700Y-49131900D01*
X95349356Y-49131900D01*
X95349356Y-48294745D01*
X95349356Y-47924395D01*
X95804106Y-47924395D01*
X95885091Y-47925122D01*
G37*
G36*
X105569822Y-64003669D02*
G01*
X106179602Y-62940863D01*
X106641241Y-62940863D01*
X105769636Y-64451537D01*
X105769636Y-65600470D01*
X105368284Y-65600470D01*
X105368292Y-64451537D01*
X104500128Y-62940863D01*
X104961767Y-62940863D01*
X105569822Y-64003669D01*
G37*
G36*
X85112424Y-138930567D02*
G01*
X85174880Y-138932888D01*
X85235047Y-138936757D01*
X85292927Y-138942173D01*
X85348519Y-138949137D01*
X85401824Y-138957648D01*
X85452841Y-138967707D01*
X85501570Y-138979314D01*
X85548011Y-138992468D01*
X85592165Y-139007170D01*
X85634030Y-139023419D01*
X85673608Y-139041216D01*
X85710899Y-139060561D01*
X85745901Y-139081454D01*
X85778615Y-139103894D01*
X85809042Y-139127883D01*
X85840331Y-139155995D01*
X85869601Y-139185210D01*
X85896852Y-139215530D01*
X85922085Y-139246953D01*
X85945299Y-139279479D01*
X85966495Y-139313109D01*
X85985672Y-139347842D01*
X86002830Y-139383679D01*
X86017970Y-139420619D01*
X86031091Y-139458663D01*
X86042194Y-139497811D01*
X86051278Y-139538061D01*
X86058343Y-139579415D01*
X86063389Y-139621872D01*
X86066417Y-139665433D01*
X86067427Y-139710097D01*
X86066794Y-139745101D01*
X86064897Y-139779486D01*
X86061734Y-139813251D01*
X86057307Y-139846397D01*
X86051615Y-139878923D01*
X86044657Y-139910831D01*
X86036435Y-139942119D01*
X86026948Y-139972789D01*
X86016196Y-140002839D01*
X86004178Y-140032270D01*
X85990896Y-140061082D01*
X85976348Y-140089276D01*
X85960536Y-140116850D01*
X85943458Y-140143806D01*
X85925116Y-140170143D01*
X85905508Y-140195861D01*
X85884864Y-140220695D01*
X85863413Y-140244386D01*
X85841155Y-140266933D01*
X85818089Y-140288337D01*
X85794216Y-140308597D01*
X85769536Y-140327713D01*
X85744048Y-140345686D01*
X85717752Y-140362515D01*
X85690650Y-140378200D01*
X85662739Y-140392741D01*
X85634021Y-140406139D01*
X85604495Y-140418392D01*
X85574162Y-140429501D01*
X85543021Y-140439465D01*
X85511072Y-140448286D01*
X85478315Y-140455962D01*
X86301687Y-141589400D01*
X85810766Y-141589400D01*
X85051123Y-140500746D01*
X84978773Y-140500746D01*
X84978773Y-141589400D01*
X84577421Y-141589400D01*
X84577421Y-140151076D01*
X84978773Y-140151076D01*
X85106245Y-140151076D01*
X85175287Y-140149374D01*
X85239875Y-140144266D01*
X85300009Y-140135754D01*
X85355689Y-140123837D01*
X85406914Y-140108515D01*
X85430856Y-140099577D01*
X85453685Y-140089788D01*
X85475400Y-140079148D01*
X85496002Y-140067657D01*
X85515490Y-140055314D01*
X85533864Y-140042121D01*
X85551125Y-140028076D01*
X85567272Y-140013180D01*
X85582305Y-139997433D01*
X85596225Y-139980835D01*
X85609032Y-139963385D01*
X85620725Y-139945085D01*
X85631304Y-139925933D01*
X85640770Y-139905931D01*
X85649122Y-139885077D01*
X85656360Y-139863372D01*
X85662485Y-139840816D01*
X85667496Y-139817409D01*
X85671394Y-139793151D01*
X85674178Y-139768042D01*
X85675848Y-139742081D01*
X85676405Y-139715270D01*
X85675863Y-139690154D01*
X85674238Y-139665835D01*
X85671530Y-139642314D01*
X85667738Y-139619589D01*
X85662863Y-139597662D01*
X85656905Y-139576533D01*
X85649863Y-139556200D01*
X85641738Y-139536665D01*
X85632530Y-139517927D01*
X85622238Y-139499987D01*
X85610863Y-139482844D01*
X85598405Y-139466498D01*
X85584863Y-139450949D01*
X85570238Y-139436198D01*
X85554530Y-139422244D01*
X85537739Y-139409087D01*
X85519864Y-139396728D01*
X85500906Y-139385166D01*
X85480864Y-139374401D01*
X85459740Y-139364434D01*
X85437532Y-139355264D01*
X85414241Y-139346891D01*
X85389866Y-139339316D01*
X85364408Y-139332538D01*
X85337867Y-139326557D01*
X85310243Y-139321374D01*
X85281535Y-139316989D01*
X85251744Y-139313400D01*
X85220870Y-139310609D01*
X85188913Y-139308616D01*
X85155872Y-139307420D01*
X85121748Y-139307021D01*
X84978773Y-139307021D01*
X84978773Y-140151076D01*
X84577421Y-140151076D01*
X84577421Y-139307021D01*
X84577421Y-138929793D01*
X85047682Y-138929793D01*
X85112424Y-138930567D01*
G37*
G36*
X99387625Y-63318099D02*
G01*
X98321371Y-63318099D01*
X98321371Y-63957167D01*
X99356619Y-63957167D01*
X99356619Y-64334410D01*
X98321371Y-64334410D01*
X98321371Y-65223243D01*
X99387625Y-65223243D01*
X99387625Y-65600478D01*
X97920011Y-65600478D01*
X97920011Y-62940871D01*
X99387625Y-62940871D01*
X99387625Y-63318099D01*
G37*
G36*
X82855741Y-48301646D02*
G01*
X81789488Y-48301646D01*
X81789488Y-48940711D01*
X82824736Y-48940711D01*
X82824736Y-49317942D01*
X81789488Y-49317942D01*
X81789488Y-50206778D01*
X82855741Y-50206778D01*
X82855741Y-50584017D01*
X81388136Y-50584017D01*
X81388136Y-47924407D01*
X82855741Y-47924407D01*
X82855741Y-48301646D01*
G37*
G36*
X78293760Y-63325049D02*
G01*
X77683981Y-63325049D01*
X77683981Y-65607413D01*
X77282629Y-65607413D01*
X77282629Y-63325049D01*
X76671125Y-63325049D01*
X76671125Y-62947806D01*
X78293760Y-62947806D01*
X78293760Y-63325049D01*
G37*
G36*
X89959565Y-104232130D02*
G01*
X90001059Y-104234988D01*
X90041795Y-104239752D01*
X90081771Y-104246422D01*
X90120988Y-104254997D01*
X90159447Y-104265478D01*
X90197146Y-104277864D01*
X90234086Y-104292156D01*
X90270267Y-104308353D01*
X90305689Y-104326456D01*
X90340353Y-104346465D01*
X90374257Y-104368379D01*
X90407403Y-104392198D01*
X90439790Y-104417923D01*
X90471418Y-104445553D01*
X90502287Y-104475089D01*
X90531949Y-104505962D01*
X90559697Y-104537603D01*
X90585531Y-104570010D01*
X90609452Y-104603184D01*
X90631459Y-104637125D01*
X90651553Y-104671834D01*
X90669733Y-104707309D01*
X90685999Y-104743551D01*
X90700351Y-104780560D01*
X90712790Y-104818337D01*
X90723315Y-104856880D01*
X90731927Y-104896190D01*
X90738625Y-104936268D01*
X90743409Y-104977112D01*
X90746279Y-105018724D01*
X90747236Y-105061103D01*
X90746275Y-105103716D01*
X90743392Y-105145514D01*
X90738588Y-105186496D01*
X90731861Y-105226663D01*
X90723213Y-105266014D01*
X90712643Y-105304550D01*
X90700152Y-105342270D01*
X90685738Y-105379174D01*
X90669404Y-105415263D01*
X90651147Y-105450536D01*
X90630969Y-105484994D01*
X90608870Y-105518636D01*
X90584849Y-105551463D01*
X90558906Y-105583474D01*
X90531042Y-105614669D01*
X90501257Y-105645049D01*
X90469980Y-105674210D01*
X90437903Y-105701490D01*
X90405028Y-105726888D01*
X90371353Y-105750405D01*
X90336879Y-105772040D01*
X90301606Y-105791794D01*
X90265534Y-105809666D01*
X90228662Y-105825657D01*
X90190991Y-105839766D01*
X90152521Y-105851994D01*
X90113252Y-105862341D01*
X90073183Y-105870806D01*
X90032314Y-105877390D01*
X89990647Y-105882093D01*
X89948179Y-105884915D01*
X89904913Y-105885855D01*
X89866530Y-105885020D01*
X89828639Y-105882513D01*
X89791242Y-105878334D01*
X89754337Y-105872484D01*
X89717925Y-105864963D01*
X89682005Y-105855771D01*
X89646579Y-105844907D01*
X89611645Y-105832371D01*
X89577203Y-105818165D01*
X89543254Y-105802287D01*
X89509798Y-105784737D01*
X89476834Y-105765516D01*
X89444363Y-105744624D01*
X89412385Y-105722061D01*
X89380899Y-105697826D01*
X89349905Y-105671920D01*
X89317115Y-105641762D01*
X89286441Y-105610458D01*
X89257882Y-105578007D01*
X89231439Y-105544409D01*
X89207111Y-105509665D01*
X89184898Y-105473775D01*
X89164801Y-105436737D01*
X89146819Y-105398554D01*
X89130953Y-105359223D01*
X89117202Y-105318746D01*
X89105567Y-105277122D01*
X89096047Y-105234351D01*
X89088642Y-105190434D01*
X89083354Y-105145370D01*
X89080180Y-105099160D01*
X89079191Y-105054892D01*
X89321997Y-105054892D01*
X89322691Y-105087597D01*
X89324774Y-105119567D01*
X89328246Y-105150803D01*
X89333107Y-105181304D01*
X89339357Y-105211070D01*
X89346996Y-105240102D01*
X89356023Y-105268399D01*
X89366440Y-105295961D01*
X89378245Y-105322789D01*
X89391439Y-105348882D01*
X89406022Y-105374240D01*
X89421994Y-105398864D01*
X89439354Y-105422753D01*
X89458104Y-105445907D01*
X89478242Y-105468327D01*
X89499769Y-105490012D01*
X89522074Y-105510662D01*
X89544808Y-105529980D01*
X89567969Y-105547965D01*
X89591558Y-105564619D01*
X89615575Y-105579940D01*
X89640020Y-105593929D01*
X89664893Y-105606586D01*
X89690194Y-105617910D01*
X89715923Y-105627902D01*
X89742080Y-105636562D01*
X89768665Y-105643890D01*
X89795678Y-105649886D01*
X89823119Y-105654549D01*
X89850988Y-105657879D01*
X89879285Y-105659878D01*
X89908010Y-105660544D01*
X89939097Y-105659866D01*
X89969571Y-105657831D01*
X89999430Y-105654440D01*
X90028676Y-105649692D01*
X90057308Y-105643588D01*
X90085326Y-105636127D01*
X90112730Y-105627310D01*
X90139521Y-105617136D01*
X90165697Y-105605605D01*
X90191261Y-105592718D01*
X90216210Y-105578474D01*
X90240546Y-105562874D01*
X90264269Y-105545917D01*
X90287378Y-105527604D01*
X90309873Y-105507934D01*
X90331755Y-105486907D01*
X90352657Y-105464645D01*
X90372210Y-105441787D01*
X90390414Y-105418330D01*
X90407270Y-105394277D01*
X90422777Y-105369626D01*
X90436936Y-105344377D01*
X90449746Y-105318531D01*
X90461207Y-105292087D01*
X90471320Y-105265046D01*
X90480085Y-105237408D01*
X90487500Y-105209171D01*
X90493568Y-105180338D01*
X90498287Y-105150907D01*
X90501658Y-105120878D01*
X90503680Y-105090251D01*
X90504354Y-105059027D01*
X90503688Y-105027441D01*
X90501690Y-104996501D01*
X90498360Y-104966206D01*
X90493697Y-104936557D01*
X90487702Y-104907554D01*
X90480375Y-104879197D01*
X90471715Y-104851485D01*
X90461723Y-104824420D01*
X90450399Y-104798000D01*
X90437742Y-104772226D01*
X90423754Y-104747098D01*
X90408432Y-104722616D01*
X90391778Y-104698780D01*
X90373792Y-104675590D01*
X90354473Y-104653046D01*
X90333822Y-104631148D01*
X90312320Y-104610123D01*
X90290188Y-104590453D01*
X90267426Y-104572140D01*
X90244035Y-104555184D01*
X90220013Y-104539584D01*
X90195362Y-104525340D01*
X90170081Y-104512453D01*
X90144171Y-104500922D01*
X90117630Y-104490748D01*
X90090460Y-104481930D01*
X90062660Y-104474468D01*
X90034230Y-104468364D01*
X90005171Y-104463616D01*
X89975481Y-104460224D01*
X89945162Y-104458189D01*
X89914213Y-104457511D01*
X89883381Y-104458189D01*
X89853154Y-104460224D01*
X89823533Y-104463616D01*
X89794517Y-104468364D01*
X89766106Y-104474468D01*
X89738302Y-104481930D01*
X89711103Y-104490748D01*
X89684509Y-104500922D01*
X89658521Y-104512453D01*
X89633139Y-104525340D01*
X89608363Y-104539584D01*
X89584192Y-104555184D01*
X89560627Y-104572140D01*
X89537668Y-104590453D01*
X89515314Y-104610123D01*
X89493566Y-104631148D01*
X89472790Y-104652908D01*
X89453355Y-104675298D01*
X89435259Y-104698318D01*
X89418505Y-104721968D01*
X89403090Y-104746248D01*
X89389016Y-104771158D01*
X89376282Y-104796698D01*
X89364889Y-104822867D01*
X89354836Y-104849667D01*
X89346124Y-104877096D01*
X89338751Y-104905154D01*
X89332720Y-104933843D01*
X89328028Y-104963161D01*
X89324677Y-104993109D01*
X89322667Y-105023686D01*
X89321997Y-105054892D01*
X89079191Y-105054892D01*
X89079122Y-105051802D01*
X89080087Y-105010057D01*
X89082982Y-104969054D01*
X89087806Y-104928794D01*
X89094559Y-104889278D01*
X89103243Y-104850504D01*
X89113856Y-104812473D01*
X89126399Y-104775185D01*
X89140872Y-104738641D01*
X89157275Y-104702839D01*
X89175607Y-104667780D01*
X89195870Y-104633464D01*
X89218062Y-104599891D01*
X89242184Y-104567061D01*
X89268237Y-104534974D01*
X89296219Y-104503630D01*
X89326132Y-104473029D01*
X89357267Y-104443743D01*
X89389177Y-104416346D01*
X89421863Y-104390838D01*
X89455324Y-104367220D01*
X89489560Y-104345491D01*
X89524571Y-104325652D01*
X89560357Y-104307702D01*
X89596919Y-104291641D01*
X89634256Y-104277470D01*
X89672367Y-104265188D01*
X89711254Y-104254796D01*
X89750915Y-104246293D01*
X89791352Y-104239680D01*
X89832563Y-104234956D01*
X89874550Y-104232122D01*
X89917311Y-104231177D01*
X89959565Y-104232130D01*
G37*
G36*
X87556641Y-104231197D02*
G01*
X87589718Y-104234346D01*
X87621850Y-104239594D01*
X87653037Y-104246941D01*
X87683280Y-104256388D01*
X87712578Y-104267934D01*
X87740931Y-104281580D01*
X87768340Y-104297325D01*
X87794804Y-104315169D01*
X87820323Y-104335113D01*
X87844897Y-104357156D01*
X87868526Y-104381298D01*
X87891211Y-104407540D01*
X87912951Y-104435881D01*
X87933746Y-104466322D01*
X87953596Y-104498862D01*
X87953604Y-104498862D01*
X87758268Y-104614615D01*
X87751441Y-104602988D01*
X87744654Y-104591877D01*
X87737907Y-104581283D01*
X87731201Y-104571206D01*
X87724536Y-104561646D01*
X87717911Y-104552603D01*
X87711326Y-104544076D01*
X87704782Y-104536067D01*
X87698279Y-104528574D01*
X87691815Y-104521598D01*
X87685393Y-104515138D01*
X87679010Y-104509196D01*
X87672668Y-104503770D01*
X87666366Y-104498860D01*
X87660104Y-104494468D01*
X87653883Y-104490592D01*
X87647306Y-104486587D01*
X87640494Y-104482840D01*
X87633449Y-104479353D01*
X87626170Y-104476123D01*
X87618656Y-104473152D01*
X87610909Y-104470440D01*
X87602927Y-104467986D01*
X87594711Y-104465790D01*
X87586261Y-104463853D01*
X87577578Y-104462174D01*
X87568660Y-104460754D01*
X87559508Y-104459592D01*
X87550122Y-104458688D01*
X87540502Y-104458042D01*
X87530647Y-104457655D01*
X87520559Y-104457526D01*
X87508161Y-104457748D01*
X87496029Y-104458414D01*
X87484164Y-104459524D01*
X87472564Y-104461078D01*
X87461232Y-104463076D01*
X87450165Y-104465518D01*
X87439365Y-104468404D01*
X87428832Y-104471735D01*
X87418565Y-104475509D01*
X87408565Y-104479728D01*
X87398831Y-104484390D01*
X87389364Y-104489497D01*
X87380163Y-104495048D01*
X87371230Y-104501043D01*
X87362562Y-104507482D01*
X87354162Y-104514365D01*
X87346152Y-104521455D01*
X87338659Y-104528770D01*
X87331683Y-104536312D01*
X87325223Y-104544080D01*
X87319280Y-104552073D01*
X87313854Y-104560293D01*
X87308945Y-104568739D01*
X87304552Y-104577411D01*
X87300676Y-104586310D01*
X87297317Y-104595434D01*
X87294475Y-104604784D01*
X87292149Y-104614361D01*
X87290341Y-104624164D01*
X87289049Y-104634193D01*
X87288274Y-104644448D01*
X87288015Y-104654929D01*
X87288185Y-104662184D01*
X87288694Y-104669350D01*
X87289541Y-104676427D01*
X87290728Y-104683415D01*
X87292254Y-104690315D01*
X87294119Y-104697125D01*
X87296324Y-104703847D01*
X87298867Y-104710480D01*
X87301750Y-104717024D01*
X87304971Y-104723480D01*
X87308532Y-104729846D01*
X87312432Y-104736124D01*
X87316671Y-104742313D01*
X87321249Y-104748413D01*
X87326166Y-104754425D01*
X87331423Y-104760347D01*
X87337018Y-104766181D01*
X87342953Y-104771926D01*
X87349227Y-104777582D01*
X87355839Y-104783149D01*
X87370082Y-104794018D01*
X87385682Y-104804531D01*
X87402638Y-104814689D01*
X87420951Y-104824491D01*
X87440620Y-104833939D01*
X87461645Y-104843032D01*
X87620809Y-104908141D01*
X87644690Y-104918096D01*
X87667755Y-104928325D01*
X87690005Y-104938830D01*
X87711438Y-104949609D01*
X87732057Y-104960662D01*
X87751859Y-104971990D01*
X87770846Y-104983593D01*
X87789018Y-104995471D01*
X87806374Y-105007623D01*
X87822914Y-105020050D01*
X87838639Y-105032751D01*
X87853549Y-105045727D01*
X87867643Y-105058978D01*
X87880923Y-105072504D01*
X87893386Y-105086304D01*
X87905035Y-105100379D01*
X87915923Y-105114661D01*
X87926109Y-105129348D01*
X87935592Y-105144438D01*
X87944373Y-105159932D01*
X87952451Y-105175830D01*
X87959826Y-105192132D01*
X87966500Y-105208838D01*
X87972470Y-105225948D01*
X87977738Y-105243462D01*
X87982304Y-105261379D01*
X87986167Y-105279700D01*
X87989328Y-105298426D01*
X87991787Y-105317554D01*
X87993543Y-105337087D01*
X87994596Y-105357024D01*
X87994947Y-105377364D01*
X87994374Y-105404583D01*
X87992654Y-105431204D01*
X87989788Y-105457227D01*
X87985775Y-105482654D01*
X87980615Y-105507483D01*
X87974309Y-105531714D01*
X87966857Y-105555348D01*
X87958258Y-105578384D01*
X87948512Y-105600823D01*
X87937620Y-105622664D01*
X87925581Y-105643908D01*
X87912395Y-105664554D01*
X87898063Y-105684603D01*
X87882585Y-105704054D01*
X87865960Y-105722908D01*
X87848188Y-105741164D01*
X87829435Y-105758686D01*
X87810124Y-105775077D01*
X87790257Y-105790338D01*
X87769833Y-105804469D01*
X87748852Y-105817468D01*
X87727313Y-105829338D01*
X87705218Y-105840076D01*
X87682566Y-105849684D01*
X87659356Y-105858162D01*
X87635589Y-105865510D01*
X87611265Y-105871726D01*
X87586383Y-105876813D01*
X87560944Y-105880769D01*
X87534948Y-105883595D01*
X87508394Y-105885290D01*
X87481283Y-105885855D01*
X87455599Y-105885375D01*
X87430480Y-105883934D01*
X87405926Y-105881532D01*
X87381937Y-105878169D01*
X87358513Y-105873846D01*
X87335655Y-105868561D01*
X87313361Y-105862316D01*
X87291633Y-105855110D01*
X87270469Y-105846943D01*
X87249871Y-105837815D01*
X87229838Y-105827727D01*
X87210370Y-105816677D01*
X87191468Y-105804666D01*
X87173130Y-105791695D01*
X87155358Y-105777763D01*
X87138151Y-105762870D01*
X87121877Y-105747104D01*
X87106387Y-105730556D01*
X87091679Y-105713224D01*
X87077755Y-105695109D01*
X87064614Y-105676211D01*
X87052256Y-105656530D01*
X87040681Y-105636065D01*
X87029890Y-105614817D01*
X87019882Y-105592786D01*
X87010657Y-105569972D01*
X87002215Y-105546375D01*
X86994556Y-105521994D01*
X86987681Y-105496831D01*
X86981589Y-105470884D01*
X86976280Y-105444153D01*
X86971754Y-105416640D01*
X87215666Y-105362891D01*
X87220188Y-105396674D01*
X87225485Y-105427744D01*
X87228424Y-105442262D01*
X87231557Y-105456102D01*
X87234884Y-105469264D01*
X87238404Y-105481747D01*
X87242118Y-105493553D01*
X87246026Y-105504680D01*
X87250128Y-105515128D01*
X87254424Y-105524899D01*
X87258913Y-105533991D01*
X87263596Y-105542404D01*
X87268472Y-105550139D01*
X87273542Y-105557196D01*
X87283111Y-105569712D01*
X87293213Y-105581420D01*
X87303847Y-105592320D01*
X87315015Y-105602413D01*
X87326714Y-105611699D01*
X87338947Y-105620177D01*
X87351713Y-105627848D01*
X87365011Y-105634712D01*
X87378842Y-105640768D01*
X87393207Y-105646017D01*
X87408104Y-105650458D01*
X87423534Y-105654092D01*
X87439497Y-105656918D01*
X87455992Y-105658937D01*
X87473021Y-105660148D01*
X87490583Y-105660552D01*
X87504516Y-105660257D01*
X87518150Y-105659373D01*
X87531485Y-105657899D01*
X87544521Y-105655836D01*
X87557258Y-105653183D01*
X87569697Y-105649941D01*
X87581837Y-105646109D01*
X87593678Y-105641688D01*
X87605221Y-105636678D01*
X87616465Y-105631078D01*
X87627410Y-105624889D01*
X87638057Y-105618111D01*
X87648404Y-105610743D01*
X87658454Y-105602786D01*
X87668204Y-105594240D01*
X87677656Y-105585105D01*
X87686667Y-105575516D01*
X87695096Y-105565612D01*
X87702944Y-105555394D01*
X87710210Y-105544860D01*
X87716895Y-105534012D01*
X87722999Y-105522848D01*
X87728522Y-105511370D01*
X87733463Y-105499577D01*
X87737823Y-105487469D01*
X87741602Y-105475046D01*
X87744799Y-105462309D01*
X87747415Y-105449256D01*
X87749450Y-105435889D01*
X87750903Y-105422206D01*
X87751775Y-105408209D01*
X87752066Y-105393897D01*
X87751856Y-105382399D01*
X87751226Y-105371159D01*
X87750176Y-105360178D01*
X87748706Y-105349455D01*
X87746816Y-105338990D01*
X87744505Y-105328785D01*
X87741774Y-105318838D01*
X87740251Y-105313961D01*
X87738623Y-105309149D01*
X87737011Y-105304268D01*
X87735279Y-105299443D01*
X87733425Y-105294675D01*
X87731450Y-105289964D01*
X87729354Y-105285308D01*
X87727137Y-105280710D01*
X87724799Y-105276168D01*
X87722340Y-105271682D01*
X87719761Y-105267254D01*
X87717060Y-105262881D01*
X87714238Y-105258566D01*
X87711295Y-105254307D01*
X87708232Y-105250105D01*
X87705047Y-105245959D01*
X87701742Y-105241870D01*
X87698316Y-105237838D01*
X87694893Y-105233724D01*
X87691340Y-105229650D01*
X87687658Y-105225617D01*
X87683847Y-105221624D01*
X87679906Y-105217672D01*
X87675837Y-105213759D01*
X87671638Y-105209888D01*
X87667310Y-105206056D01*
X87662852Y-105202265D01*
X87658266Y-105198514D01*
X87653550Y-105194804D01*
X87648705Y-105191134D01*
X87643731Y-105187504D01*
X87638628Y-105183914D01*
X87633396Y-105180365D01*
X87628035Y-105176856D01*
X87616924Y-105169671D01*
X87605297Y-105162582D01*
X87593153Y-105155590D01*
X87580492Y-105148695D01*
X87567315Y-105141896D01*
X87553621Y-105135195D01*
X87539412Y-105128591D01*
X87524687Y-105122084D01*
X87370687Y-105058005D01*
X87331013Y-105040192D01*
X87293899Y-105021379D01*
X87259344Y-105001564D01*
X87227349Y-104980747D01*
X87197913Y-104958930D01*
X87171037Y-104936112D01*
X87146721Y-104912292D01*
X87124965Y-104887471D01*
X87115046Y-104874685D01*
X87105768Y-104861649D01*
X87097129Y-104848362D01*
X87089130Y-104834826D01*
X87081772Y-104821039D01*
X87075053Y-104807001D01*
X87068974Y-104792714D01*
X87063535Y-104778176D01*
X87058736Y-104763387D01*
X87054576Y-104748349D01*
X87051057Y-104733060D01*
X87048177Y-104717521D01*
X87045938Y-104701731D01*
X87044338Y-104685692D01*
X87043058Y-104652861D01*
X87043595Y-104630612D01*
X87045206Y-104608823D01*
X87047891Y-104587495D01*
X87051650Y-104566626D01*
X87056483Y-104546218D01*
X87062389Y-104526269D01*
X87069370Y-104506781D01*
X87077424Y-104487754D01*
X87086552Y-104469186D01*
X87096754Y-104451079D01*
X87108030Y-104433432D01*
X87120380Y-104416245D01*
X87133804Y-104399519D01*
X87148301Y-104383253D01*
X87163872Y-104367448D01*
X87180517Y-104352103D01*
X87197961Y-104337336D01*
X87215931Y-104323521D01*
X87234425Y-104310659D01*
X87253444Y-104298749D01*
X87272989Y-104287793D01*
X87293058Y-104277788D01*
X87313652Y-104268737D01*
X87334771Y-104260638D01*
X87356415Y-104253492D01*
X87378584Y-104247298D01*
X87401278Y-104242058D01*
X87424496Y-104237770D01*
X87448240Y-104234435D01*
X87472508Y-104232053D01*
X87497301Y-104230624D01*
X87522619Y-104230147D01*
X87556641Y-104231197D01*
G37*
G36*
X88492590Y-94104567D02*
G01*
X87936552Y-94104567D01*
X87936552Y-94488005D01*
X88472952Y-94488005D01*
X88472952Y-94714354D01*
X87936552Y-94714354D01*
X87936552Y-95473998D01*
X87695745Y-95473998D01*
X87695745Y-93878226D01*
X88492590Y-93878226D01*
X88492590Y-94104567D01*
G37*
G36*
X90034620Y-95473998D02*
G01*
X89771070Y-95473998D01*
X89603636Y-95086425D01*
X88920477Y-95086425D01*
X88742704Y-95473998D01*
X88483290Y-95473998D01*
X88769114Y-94860076D01*
X89020727Y-94860076D01*
X89505453Y-94860076D01*
X89268774Y-94317473D01*
X89020727Y-94860076D01*
X88769114Y-94860076D01*
X89272909Y-93777976D01*
X90034620Y-95473998D01*
G37*
G36*
X93407323Y-43515474D02*
G01*
X93469779Y-43517796D01*
X93529946Y-43521665D01*
X93587826Y-43527081D01*
X93643418Y-43534045D01*
X93696723Y-43542557D01*
X93747740Y-43552616D01*
X93796469Y-43564223D01*
X93842910Y-43577377D01*
X93887064Y-43592079D01*
X93928929Y-43608328D01*
X93968507Y-43626125D01*
X94005798Y-43645470D01*
X94040800Y-43666363D01*
X94073514Y-43688803D01*
X94103941Y-43712790D01*
X94135230Y-43740903D01*
X94164500Y-43770119D01*
X94191751Y-43800439D01*
X94216984Y-43831862D01*
X94240198Y-43864388D01*
X94261394Y-43898018D01*
X94280571Y-43932752D01*
X94297729Y-43968589D01*
X94312869Y-44005530D01*
X94325990Y-44043574D01*
X94337093Y-44082721D01*
X94346177Y-44122972D01*
X94353242Y-44164327D01*
X94358288Y-44206785D01*
X94361316Y-44250347D01*
X94362326Y-44295012D01*
X94361693Y-44330015D01*
X94359796Y-44364398D01*
X94356633Y-44398163D01*
X94352206Y-44431308D01*
X94346514Y-44463834D01*
X94339556Y-44495741D01*
X94331334Y-44527029D01*
X94321847Y-44557698D01*
X94311095Y-44587749D01*
X94299077Y-44617180D01*
X94285795Y-44645992D01*
X94271247Y-44674185D01*
X94255435Y-44701759D01*
X94238357Y-44728714D01*
X94220015Y-44755051D01*
X94200407Y-44780768D01*
X94179763Y-44805604D01*
X94158312Y-44829296D01*
X94136054Y-44851844D01*
X94112988Y-44873249D01*
X94089115Y-44893509D01*
X94064434Y-44912625D01*
X94038947Y-44930598D01*
X94012651Y-44947426D01*
X93985549Y-44963111D01*
X93957638Y-44977651D01*
X93928920Y-44991048D01*
X93899394Y-45003301D01*
X93869061Y-45014410D01*
X93837920Y-45024375D01*
X93805971Y-45033196D01*
X93773214Y-45040873D01*
X93773222Y-45040873D01*
X94596594Y-46174304D01*
X94105673Y-46174304D01*
X93346029Y-45085662D01*
X93273680Y-45085662D01*
X93273680Y-46174304D01*
X92872320Y-46174304D01*
X92872320Y-43891936D01*
X93273680Y-43891936D01*
X93273687Y-44735980D01*
X93401152Y-44735980D01*
X93470194Y-44734277D01*
X93534782Y-44729170D01*
X93594916Y-44720659D01*
X93650595Y-44708742D01*
X93701821Y-44693421D01*
X93725763Y-44684484D01*
X93748592Y-44674695D01*
X93770307Y-44664055D01*
X93790908Y-44652564D01*
X93810396Y-44640222D01*
X93828771Y-44627029D01*
X93846031Y-44612985D01*
X93862178Y-44598089D01*
X93877212Y-44582342D01*
X93891132Y-44565744D01*
X93903938Y-44548295D01*
X93915631Y-44529995D01*
X93926211Y-44510844D01*
X93935676Y-44490841D01*
X93944028Y-44469987D01*
X93951267Y-44448282D01*
X93957391Y-44425726D01*
X93962403Y-44402319D01*
X93966300Y-44378060D01*
X93969084Y-44352950D01*
X93970755Y-44326989D01*
X93971311Y-44300177D01*
X93970770Y-44275061D01*
X93969145Y-44250742D01*
X93966436Y-44227220D01*
X93962645Y-44204496D01*
X93957770Y-44182569D01*
X93951811Y-44161440D01*
X93944770Y-44141107D01*
X93936645Y-44121572D01*
X93927436Y-44102835D01*
X93917145Y-44084894D01*
X93905770Y-44067751D01*
X93893311Y-44051406D01*
X93879770Y-44035858D01*
X93865145Y-44021107D01*
X93849437Y-44007153D01*
X93832645Y-43993997D01*
X93814771Y-43981638D01*
X93795812Y-43970076D01*
X93775771Y-43959312D01*
X93754646Y-43949345D01*
X93732438Y-43940176D01*
X93709147Y-43931804D01*
X93684773Y-43924229D01*
X93659315Y-43917451D01*
X93632774Y-43911471D01*
X93605149Y-43906288D01*
X93576442Y-43901903D01*
X93546651Y-43898315D01*
X93515777Y-43895524D01*
X93483819Y-43893531D01*
X93450778Y-43892335D01*
X93416654Y-43891936D01*
X93273680Y-43891936D01*
X92872320Y-43891936D01*
X92872320Y-43514701D01*
X93342581Y-43514701D01*
X93407323Y-43515474D01*
G37*
G36*
X82314084Y-62896900D02*
G01*
X82358588Y-62899181D01*
X82402903Y-62902983D01*
X82447030Y-62908305D01*
X82490969Y-62915148D01*
X82534719Y-62923511D01*
X82578280Y-62933395D01*
X82621653Y-62944800D01*
X82664838Y-62957725D01*
X82707835Y-62972172D01*
X82750643Y-62988138D01*
X82793263Y-63005625D01*
X82835694Y-63024633D01*
X82877937Y-63045162D01*
X82919992Y-63067211D01*
X82961859Y-63090781D01*
X82961859Y-63566199D01*
X82918270Y-63530948D01*
X82874492Y-63497972D01*
X82830527Y-63467269D01*
X82786372Y-63438841D01*
X82742030Y-63412687D01*
X82697499Y-63388807D01*
X82652780Y-63367201D01*
X82607872Y-63347870D01*
X82562776Y-63330812D01*
X82517492Y-63316029D01*
X82472019Y-63303521D01*
X82426359Y-63293286D01*
X82380510Y-63285326D01*
X82334473Y-63279641D01*
X82288248Y-63276229D01*
X82241835Y-63275092D01*
X82191094Y-63276242D01*
X82141363Y-63279694D01*
X82092640Y-63285447D01*
X82044928Y-63293501D01*
X81998224Y-63303857D01*
X81952530Y-63316513D01*
X81907845Y-63331471D01*
X81864169Y-63348730D01*
X81821503Y-63368290D01*
X81779846Y-63390152D01*
X81739198Y-63414314D01*
X81699559Y-63440778D01*
X81660930Y-63469544D01*
X81623311Y-63500610D01*
X81586701Y-63533978D01*
X81551100Y-63569648D01*
X81516890Y-63606763D01*
X81484887Y-63644901D01*
X81455092Y-63684062D01*
X81427503Y-63724246D01*
X81402122Y-63765452D01*
X81378948Y-63807682D01*
X81357982Y-63850934D01*
X81339222Y-63895209D01*
X81322669Y-63940507D01*
X81308324Y-63986828D01*
X81296185Y-64034171D01*
X81286254Y-64082537D01*
X81278530Y-64131927D01*
X81273012Y-64182338D01*
X81269702Y-64233773D01*
X81268598Y-64286231D01*
X81269702Y-64338042D01*
X81273012Y-64388830D01*
X81278530Y-64438595D01*
X81286254Y-64487337D01*
X81296185Y-64535056D01*
X81308324Y-64581752D01*
X81322669Y-64627426D01*
X81339222Y-64672077D01*
X81357982Y-64715705D01*
X81378948Y-64758311D01*
X81402122Y-64799893D01*
X81427503Y-64840453D01*
X81455092Y-64879991D01*
X81484887Y-64918506D01*
X81516890Y-64955999D01*
X81551100Y-64992469D01*
X81586910Y-65027302D01*
X81623716Y-65059889D01*
X81661517Y-65090228D01*
X81700315Y-65118320D01*
X81740108Y-65144165D01*
X81780898Y-65167763D01*
X81822683Y-65189113D01*
X81865464Y-65208216D01*
X81909241Y-65225072D01*
X81954014Y-65239680D01*
X81999783Y-65252041D01*
X82046548Y-65262155D01*
X82094308Y-65270021D01*
X82143065Y-65275640D01*
X82192818Y-65279011D01*
X82243566Y-65280135D01*
X82269801Y-65279866D01*
X82295537Y-65279058D01*
X82320775Y-65277713D01*
X82345516Y-65275829D01*
X82369759Y-65273407D01*
X82393504Y-65270446D01*
X82416751Y-65266948D01*
X82439500Y-65262911D01*
X82461751Y-65258335D01*
X82483504Y-65253222D01*
X82504760Y-65247569D01*
X82525517Y-65241379D01*
X82545776Y-65234650D01*
X82565538Y-65227383D01*
X82584801Y-65219578D01*
X82603567Y-65211234D01*
X82624321Y-65202245D01*
X82645235Y-65192503D01*
X82666310Y-65182006D01*
X82687546Y-65170756D01*
X82708942Y-65158752D01*
X82730500Y-65145994D01*
X82752219Y-65132482D01*
X82774099Y-65118216D01*
X82796627Y-65103199D01*
X82819424Y-65087429D01*
X82842490Y-65070904D01*
X82865825Y-65053626D01*
X82889429Y-65035593D01*
X82913303Y-65016807D01*
X82937446Y-64997267D01*
X82961859Y-64976973D01*
X82961859Y-65461005D01*
X82918660Y-65484575D01*
X82875192Y-65506624D01*
X82831455Y-65527153D01*
X82787449Y-65546162D01*
X82743174Y-65563649D01*
X82698630Y-65579617D01*
X82653817Y-65594063D01*
X82608734Y-65606990D01*
X82563382Y-65618395D01*
X82517762Y-65628280D01*
X82471872Y-65636644D01*
X82425713Y-65643487D01*
X82379285Y-65648810D01*
X82332588Y-65652612D01*
X82285621Y-65654893D01*
X82238386Y-65655654D01*
X82167769Y-65654099D01*
X82098457Y-65649436D01*
X82030451Y-65641665D01*
X81963750Y-65630784D01*
X81898354Y-65616795D01*
X81834263Y-65599697D01*
X81771477Y-65579491D01*
X81709997Y-65556176D01*
X81649822Y-65529752D01*
X81590953Y-65500220D01*
X81533389Y-65467579D01*
X81477130Y-65431829D01*
X81422177Y-65392970D01*
X81368529Y-65351003D01*
X81316187Y-65305927D01*
X81265150Y-65257743D01*
X81216550Y-65206929D01*
X81171085Y-65154822D01*
X81128756Y-65101424D01*
X81089562Y-65046734D01*
X81053504Y-64990752D01*
X81020581Y-64933477D01*
X80990794Y-64874911D01*
X80964142Y-64815053D01*
X80940625Y-64753903D01*
X80920245Y-64691460D01*
X80902999Y-64627727D01*
X80888890Y-64562701D01*
X80877915Y-64496383D01*
X80870077Y-64428774D01*
X80865373Y-64359872D01*
X80863806Y-64289679D01*
X80865118Y-64226591D01*
X80869054Y-64164364D01*
X80875615Y-64102998D01*
X80884800Y-64042493D01*
X80896609Y-63982849D01*
X80911042Y-63924067D01*
X80928099Y-63866146D01*
X80947781Y-63809087D01*
X80970086Y-63752888D01*
X80995016Y-63697551D01*
X81022569Y-63643076D01*
X81052747Y-63589462D01*
X81085549Y-63536709D01*
X81120974Y-63484818D01*
X81159024Y-63433788D01*
X81199697Y-63383620D01*
X81252322Y-63324589D01*
X81306844Y-63269366D01*
X81363264Y-63217952D01*
X81421581Y-63170346D01*
X81481796Y-63126549D01*
X81543908Y-63086561D01*
X81607918Y-63050381D01*
X81673825Y-63018009D01*
X81741630Y-62989446D01*
X81811332Y-62964691D01*
X81882932Y-62943745D01*
X81956429Y-62926607D01*
X82031824Y-62913278D01*
X82109116Y-62903757D01*
X82188305Y-62898044D01*
X82269392Y-62896140D01*
X82314084Y-62896900D01*
G37*
G36*
X74363779Y-90549872D02*
G01*
X74364216Y-90592000D01*
X74365528Y-90632688D01*
X74367715Y-90671937D01*
X74370777Y-90709745D01*
X74374713Y-90746113D01*
X74379524Y-90781041D01*
X74385210Y-90814530D01*
X74391771Y-90846578D01*
X74399206Y-90877187D01*
X74407516Y-90906356D01*
X74416701Y-90934085D01*
X74426760Y-90960374D01*
X74437694Y-90985223D01*
X74449503Y-91008632D01*
X74462186Y-91030601D01*
X74475744Y-91051131D01*
X74497162Y-91078872D01*
X74519643Y-91104824D01*
X74543186Y-91128986D01*
X74567793Y-91151358D01*
X74593463Y-91171941D01*
X74620196Y-91190734D01*
X74647992Y-91207737D01*
X74676852Y-91222951D01*
X74706774Y-91236375D01*
X74737759Y-91248009D01*
X74769808Y-91257853D01*
X74802919Y-91265907D01*
X74837094Y-91272172D01*
X74872332Y-91276647D01*
X74908633Y-91279331D01*
X74945997Y-91280226D01*
X74983571Y-91279331D01*
X75020067Y-91276647D01*
X75055487Y-91272172D01*
X75089831Y-91265907D01*
X75123098Y-91257853D01*
X75155288Y-91248009D01*
X75186401Y-91236375D01*
X75216438Y-91222951D01*
X75245398Y-91207737D01*
X75273282Y-91190734D01*
X75300089Y-91171941D01*
X75325819Y-91151358D01*
X75350473Y-91128986D01*
X75374050Y-91104824D01*
X75396551Y-91078872D01*
X75417974Y-91051131D01*
X75431533Y-91031209D01*
X75444217Y-91009765D01*
X75456026Y-90986801D01*
X75466961Y-90962315D01*
X75477021Y-90936309D01*
X75486205Y-90908782D01*
X75494516Y-90879734D01*
X75501951Y-90849165D01*
X75508512Y-90817075D01*
X75514198Y-90783465D01*
X75519009Y-90748334D01*
X75522945Y-90711682D01*
X75526007Y-90673510D01*
X75528194Y-90633818D01*
X75529506Y-90592605D01*
X75529943Y-90549872D01*
X75529943Y-88947898D01*
X75931295Y-88947898D01*
X75931295Y-90660109D01*
X75930273Y-90712068D01*
X75927204Y-90762869D01*
X75922091Y-90812513D01*
X75914932Y-90861000D01*
X75905727Y-90908330D01*
X75894477Y-90954502D01*
X75881181Y-90999518D01*
X75865840Y-91043376D01*
X75848453Y-91086076D01*
X75829021Y-91127620D01*
X75807543Y-91168006D01*
X75784019Y-91207235D01*
X75758450Y-91245306D01*
X75730836Y-91282220D01*
X75701176Y-91317977D01*
X75669470Y-91352576D01*
X75632125Y-91389287D01*
X75593731Y-91423631D01*
X75554287Y-91455605D01*
X75513794Y-91485211D01*
X75472251Y-91512449D01*
X75429659Y-91537319D01*
X75386017Y-91559820D01*
X75341325Y-91579952D01*
X75295583Y-91597716D01*
X75248792Y-91613111D01*
X75200951Y-91626138D01*
X75152060Y-91636797D01*
X75102119Y-91645087D01*
X75051128Y-91651008D01*
X74999088Y-91654561D01*
X74945997Y-91655745D01*
X74892915Y-91654561D01*
X74840895Y-91651008D01*
X74789939Y-91645087D01*
X74740046Y-91636797D01*
X74691216Y-91626138D01*
X74643449Y-91613111D01*
X74596745Y-91597716D01*
X74551104Y-91579952D01*
X74506527Y-91559820D01*
X74463013Y-91537319D01*
X74420561Y-91512449D01*
X74379173Y-91485211D01*
X74338849Y-91455605D01*
X74299587Y-91423631D01*
X74261388Y-91389287D01*
X74224253Y-91352576D01*
X74192547Y-91317977D01*
X74162888Y-91282221D01*
X74135273Y-91245307D01*
X74109704Y-91207236D01*
X74086181Y-91168008D01*
X74064703Y-91127622D01*
X74045271Y-91086079D01*
X74027884Y-91043379D01*
X74012543Y-90999521D01*
X73999247Y-90954506D01*
X73987996Y-90908333D01*
X73978791Y-90861003D01*
X73971632Y-90812516D01*
X73966518Y-90762871D01*
X73963450Y-90712069D01*
X73962427Y-90660109D01*
X73962427Y-88947898D01*
X74363779Y-88947898D01*
X74363779Y-90549872D01*
G37*
G36*
X88909999Y-43515939D02*
G01*
X89002423Y-43519653D01*
X89089573Y-43525843D01*
X89171449Y-43534510D01*
X89248049Y-43545652D01*
X89319376Y-43559271D01*
X89385427Y-43575365D01*
X89416474Y-43584341D01*
X89446203Y-43593936D01*
X89477242Y-43604049D01*
X89507918Y-43615010D01*
X89538231Y-43626819D01*
X89568180Y-43639476D01*
X89597766Y-43652981D01*
X89626988Y-43667333D01*
X89655847Y-43682533D01*
X89684342Y-43698581D01*
X89712474Y-43715477D01*
X89740243Y-43733220D01*
X89767648Y-43751812D01*
X89794690Y-43771251D01*
X89821368Y-43791538D01*
X89847683Y-43812672D01*
X89873634Y-43834655D01*
X89899221Y-43857486D01*
X89949074Y-43905347D01*
X89995711Y-43955052D01*
X90039132Y-44006600D01*
X90079337Y-44059992D01*
X90116325Y-44115228D01*
X90150097Y-44172307D01*
X90180653Y-44231231D01*
X90207992Y-44291997D01*
X90232116Y-44354607D01*
X90253022Y-44419061D01*
X90270713Y-44485359D01*
X90285187Y-44553500D01*
X90296445Y-44623485D01*
X90304486Y-44695313D01*
X90309310Y-44768985D01*
X90310919Y-44844500D01*
X90309243Y-44920238D01*
X90304217Y-44994146D01*
X90295839Y-45066224D01*
X90284111Y-45136472D01*
X90269032Y-45204889D01*
X90250602Y-45271476D01*
X90228821Y-45336233D01*
X90203689Y-45399160D01*
X90175206Y-45460257D01*
X90143372Y-45519523D01*
X90108187Y-45576959D01*
X90069652Y-45632564D01*
X90027766Y-45686340D01*
X89982528Y-45738285D01*
X89933941Y-45788400D01*
X89882002Y-45836684D01*
X89855006Y-45859918D01*
X89827849Y-45882251D01*
X89800530Y-45903682D01*
X89773050Y-45924211D01*
X89745408Y-45943839D01*
X89717605Y-45962565D01*
X89689641Y-45980389D01*
X89661515Y-45997312D01*
X89633228Y-46013333D01*
X89604779Y-46028453D01*
X89576170Y-46042671D01*
X89547398Y-46055987D01*
X89518466Y-46068401D01*
X89489372Y-46079914D01*
X89460117Y-46090525D01*
X89430700Y-46100234D01*
X89402419Y-46109203D01*
X89372697Y-46117594D01*
X89341536Y-46125406D01*
X89308935Y-46132639D01*
X89274894Y-46139294D01*
X89239413Y-46145370D01*
X89202493Y-46150867D01*
X89164132Y-46155785D01*
X89124332Y-46160124D01*
X89083091Y-46163885D01*
X88996291Y-46169671D01*
X88903730Y-46173143D01*
X88805410Y-46174300D01*
X88254194Y-46174304D01*
X88254194Y-43891936D01*
X88655531Y-43891936D01*
X88655546Y-45797072D01*
X88836409Y-45797072D01*
X88902593Y-45796184D01*
X88965924Y-45793519D01*
X89026402Y-45789079D01*
X89084026Y-45782861D01*
X89138797Y-45774868D01*
X89190715Y-45765098D01*
X89239781Y-45753552D01*
X89285993Y-45740229D01*
X89308252Y-45732418D01*
X89330242Y-45724054D01*
X89351962Y-45715138D01*
X89373413Y-45705671D01*
X89394595Y-45695652D01*
X89415508Y-45685081D01*
X89436152Y-45673959D01*
X89456527Y-45662284D01*
X89476632Y-45650058D01*
X89496468Y-45637280D01*
X89516035Y-45623950D01*
X89535333Y-45610069D01*
X89554361Y-45595635D01*
X89573120Y-45580650D01*
X89591610Y-45565114D01*
X89609831Y-45549025D01*
X89645708Y-45514581D01*
X89679270Y-45478858D01*
X89710518Y-45441857D01*
X89739451Y-45403577D01*
X89766069Y-45364019D01*
X89790373Y-45323183D01*
X89812362Y-45281067D01*
X89832036Y-45237674D01*
X89849396Y-45193002D01*
X89864440Y-45147052D01*
X89877171Y-45099823D01*
X89887586Y-45051315D01*
X89895687Y-45001529D01*
X89901474Y-44950465D01*
X89904946Y-44898122D01*
X89906103Y-44844500D01*
X89904959Y-44790456D01*
X89901528Y-44737703D01*
X89895808Y-44686242D01*
X89887801Y-44636073D01*
X89877506Y-44587196D01*
X89864924Y-44539611D01*
X89850053Y-44493318D01*
X89832895Y-44448317D01*
X89813449Y-44404607D01*
X89791716Y-44362190D01*
X89767694Y-44321064D01*
X89741385Y-44281230D01*
X89712789Y-44242689D01*
X89681904Y-44205439D01*
X89648732Y-44169480D01*
X89613272Y-44134814D01*
X89579351Y-44105403D01*
X89543480Y-44077889D01*
X89505657Y-44052273D01*
X89465883Y-44028555D01*
X89424158Y-44006734D01*
X89380482Y-43986810D01*
X89334854Y-43968784D01*
X89287275Y-43952656D01*
X89237745Y-43938424D01*
X89186264Y-43926091D01*
X89132831Y-43915655D01*
X89077448Y-43907116D01*
X89020113Y-43900475D01*
X88960827Y-43895731D01*
X88899589Y-43892885D01*
X88836401Y-43891936D01*
X88655531Y-43891936D01*
X88254194Y-43891936D01*
X88254194Y-43514701D01*
X88812300Y-43514701D01*
X88909999Y-43515939D01*
G37*
G36*
X96014399Y-62942101D02*
G01*
X96106824Y-62945816D01*
X96193973Y-62952006D01*
X96275848Y-62960673D01*
X96352448Y-62971816D01*
X96423773Y-62985435D01*
X96489822Y-63001531D01*
X96520869Y-63010507D01*
X96550596Y-63020102D01*
X96581635Y-63030215D01*
X96612311Y-63041176D01*
X96642624Y-63052984D01*
X96672573Y-63065641D01*
X96702159Y-63079145D01*
X96731382Y-63093498D01*
X96760241Y-63108698D01*
X96788737Y-63124746D01*
X96816870Y-63141642D01*
X96844640Y-63159386D01*
X96872046Y-63177977D01*
X96899089Y-63197417D01*
X96925769Y-63217704D01*
X96952086Y-63238839D01*
X96978039Y-63260822D01*
X97003630Y-63283652D01*
X97053483Y-63331513D01*
X97100119Y-63381218D01*
X97143540Y-63432766D01*
X97183744Y-63486158D01*
X97220732Y-63541394D01*
X97254503Y-63598473D01*
X97285058Y-63657396D01*
X97312397Y-63718162D01*
X97336519Y-63780772D01*
X97357425Y-63845226D01*
X97375115Y-63911524D01*
X97389589Y-63979665D01*
X97400846Y-64049650D01*
X97408887Y-64121478D01*
X97413711Y-64195151D01*
X97415319Y-64270667D01*
X97413644Y-64346406D01*
X97408617Y-64420314D01*
X97400240Y-64492392D01*
X97388512Y-64562640D01*
X97373432Y-64631058D01*
X97355002Y-64697645D01*
X97333221Y-64762402D01*
X97308089Y-64825329D01*
X97279606Y-64886425D01*
X97247773Y-64945691D01*
X97212588Y-65003127D01*
X97174052Y-65058733D01*
X97132166Y-65112509D01*
X97086929Y-65164454D01*
X97038341Y-65214569D01*
X96986402Y-65262854D01*
X96959407Y-65286090D01*
X96932249Y-65308424D01*
X96904931Y-65329856D01*
X96877450Y-65350386D01*
X96849809Y-65370014D01*
X96822006Y-65388741D01*
X96794042Y-65406565D01*
X96765916Y-65423488D01*
X96737629Y-65439509D01*
X96709180Y-65454629D01*
X96680570Y-65468846D01*
X96651799Y-65482161D01*
X96622866Y-65494575D01*
X96593773Y-65506087D01*
X96564517Y-65516696D01*
X96535101Y-65526404D01*
X96506819Y-65535373D01*
X96477098Y-65543763D01*
X96445937Y-65551575D01*
X96413336Y-65558808D01*
X96379295Y-65565462D01*
X96343814Y-65571538D01*
X96306894Y-65577035D01*
X96268534Y-65581954D01*
X96228734Y-65586294D01*
X96187494Y-65590055D01*
X96100695Y-65595841D01*
X96008136Y-65599313D01*
X95909819Y-65600470D01*
X95358595Y-65600470D01*
X95358595Y-63318099D01*
X95759939Y-63318099D01*
X95759947Y-65223235D01*
X95940817Y-65223235D01*
X96006999Y-65222347D01*
X96070329Y-65219682D01*
X96130807Y-65215240D01*
X96188432Y-65209022D01*
X96243204Y-65201028D01*
X96295123Y-65191258D01*
X96344189Y-65179711D01*
X96390402Y-65166388D01*
X96412659Y-65158576D01*
X96434647Y-65150213D01*
X96456367Y-65141297D01*
X96477817Y-65131830D01*
X96498999Y-65121811D01*
X96519911Y-65111240D01*
X96540554Y-65100118D01*
X96560928Y-65088443D01*
X96581033Y-65076217D01*
X96600869Y-65063440D01*
X96620436Y-65050110D01*
X96639733Y-65036229D01*
X96658762Y-65021796D01*
X96677521Y-65006812D01*
X96696011Y-64991276D01*
X96714231Y-64975188D01*
X96750109Y-64940743D01*
X96783671Y-64905020D01*
X96814919Y-64868019D01*
X96843852Y-64829739D01*
X96870470Y-64790181D01*
X96894773Y-64749345D01*
X96916762Y-64707230D01*
X96936437Y-64663837D01*
X96953796Y-64619166D01*
X96968841Y-64573216D01*
X96981571Y-64525987D01*
X96991987Y-64477481D01*
X97000088Y-64427695D01*
X97005875Y-64376631D01*
X97009346Y-64324288D01*
X97010504Y-64270667D01*
X97009360Y-64216623D01*
X97005928Y-64163871D01*
X97000209Y-64112410D01*
X96992202Y-64062241D01*
X96981907Y-64013365D01*
X96969324Y-63965779D01*
X96954454Y-63919486D01*
X96937296Y-63874485D01*
X96917850Y-63830775D01*
X96896116Y-63788357D01*
X96872095Y-63747232D01*
X96845786Y-63707398D01*
X96817189Y-63668855D01*
X96786305Y-63631605D01*
X96753132Y-63595647D01*
X96717672Y-63560981D01*
X96683753Y-63531569D01*
X96647883Y-63504056D01*
X96610061Y-63478440D01*
X96570288Y-63454721D01*
X96528564Y-63432899D01*
X96484888Y-63412976D01*
X96439260Y-63394949D01*
X96391682Y-63378820D01*
X96342151Y-63364589D01*
X96290670Y-63352255D01*
X96237237Y-63341818D01*
X96181853Y-63333279D01*
X96124517Y-63326638D01*
X96065230Y-63321894D01*
X96003991Y-63319048D01*
X95940802Y-63318099D01*
X95759939Y-63318099D01*
X95358595Y-63318099D01*
X95358595Y-62940863D01*
X95916700Y-62940863D01*
X96014399Y-62942101D01*
G37*
G36*
X85322431Y-49772696D02*
G01*
X85322431Y-47924407D01*
X85723776Y-47924407D01*
X85723776Y-50745936D01*
X83784193Y-48721949D01*
X83784193Y-50584017D01*
X83382841Y-50584017D01*
X83382841Y-47743541D01*
X85322431Y-49772696D01*
G37*
G36*
X83943701Y-64008887D02*
G01*
X84978949Y-62947798D01*
X85514662Y-62947798D01*
X84312330Y-64151862D01*
X85521559Y-65607405D01*
X84984129Y-65607405D01*
X84026396Y-64424018D01*
X83943708Y-64506697D01*
X83943708Y-65607405D01*
X83542364Y-65607405D01*
X83542364Y-62947798D01*
X83943708Y-62947798D01*
X83943701Y-64008887D01*
G37*
G36*
X87921736Y-46174304D02*
G01*
X87482489Y-46174304D01*
X87203443Y-45528350D01*
X86064840Y-45528350D01*
X85768568Y-46174304D01*
X85336203Y-46174304D01*
X85812568Y-45151118D01*
X86231924Y-45151118D01*
X87039801Y-45151118D01*
X86645338Y-44246783D01*
X86231924Y-45151118D01*
X85812568Y-45151118D01*
X86652227Y-43347613D01*
X87921736Y-46174304D01*
G37*
G36*
X107907316Y-89281943D02*
G01*
X106841062Y-89281943D01*
X106841062Y-89921004D01*
X107876310Y-89921004D01*
X107876310Y-90298247D01*
X106841062Y-90298247D01*
X106841062Y-91187079D01*
X107907316Y-91187079D01*
X107907316Y-91564315D01*
X106439703Y-91564315D01*
X106439703Y-88904708D01*
X107907316Y-88904708D01*
X107907316Y-89281943D01*
G37*
G36*
X72747897Y-88897958D02*
G01*
X72803025Y-88903206D01*
X72856579Y-88911953D01*
X72908558Y-88924199D01*
X72958962Y-88939944D01*
X73007792Y-88959188D01*
X73055048Y-88981931D01*
X73100728Y-89008173D01*
X73144835Y-89037913D01*
X73187367Y-89071153D01*
X73228324Y-89107892D01*
X73267707Y-89148129D01*
X73305515Y-89191866D01*
X73341749Y-89239101D01*
X73376409Y-89289836D01*
X73409494Y-89344069D01*
X73409490Y-89344084D01*
X73083933Y-89537009D01*
X73072555Y-89517630D01*
X73061245Y-89499112D01*
X73050001Y-89481456D01*
X73038825Y-89464661D01*
X73027716Y-89448727D01*
X73016675Y-89433655D01*
X73005700Y-89419444D01*
X72994793Y-89406094D01*
X72983953Y-89393606D01*
X72973180Y-89381979D01*
X72962474Y-89371214D01*
X72951836Y-89361309D01*
X72941265Y-89352266D01*
X72930761Y-89344085D01*
X72920325Y-89336765D01*
X72909956Y-89330306D01*
X72898995Y-89323630D01*
X72887644Y-89317386D01*
X72875903Y-89311572D01*
X72863771Y-89306189D01*
X72851249Y-89301236D01*
X72838337Y-89296714D01*
X72825034Y-89292623D01*
X72811341Y-89288963D01*
X72797258Y-89285733D01*
X72782784Y-89282934D01*
X72767921Y-89280566D01*
X72752667Y-89278628D01*
X72737023Y-89277121D01*
X72720989Y-89276045D01*
X72704564Y-89275399D01*
X72687750Y-89275183D01*
X72667086Y-89275553D01*
X72646866Y-89276664D01*
X72627090Y-89278514D01*
X72607758Y-89281104D01*
X72588870Y-89284435D01*
X72570426Y-89288505D01*
X72552427Y-89293316D01*
X72534871Y-89298867D01*
X72517760Y-89305158D01*
X72501092Y-89312189D01*
X72484869Y-89319960D01*
X72469090Y-89328471D01*
X72453755Y-89337723D01*
X72438863Y-89347714D01*
X72424417Y-89358446D01*
X72410414Y-89369918D01*
X72397064Y-89381733D01*
X72384576Y-89393926D01*
X72372949Y-89406495D01*
X72362184Y-89419441D01*
X72352280Y-89432763D01*
X72343237Y-89446463D01*
X72335055Y-89460539D01*
X72327735Y-89474992D01*
X72321276Y-89489823D01*
X72315678Y-89505029D01*
X72310941Y-89520613D01*
X72307066Y-89536574D01*
X72304052Y-89552912D01*
X72301899Y-89569626D01*
X72300607Y-89586717D01*
X72300177Y-89604186D01*
X72300459Y-89616277D01*
X72301307Y-89628220D01*
X72302720Y-89640015D01*
X72304698Y-89651662D01*
X72307241Y-89663161D01*
X72310350Y-89674512D01*
X72314024Y-89685715D01*
X72318263Y-89696770D01*
X72323067Y-89707677D01*
X72328436Y-89718436D01*
X72334371Y-89729046D01*
X72340870Y-89739509D01*
X72347935Y-89749824D01*
X72355565Y-89759991D01*
X72363761Y-89770010D01*
X72372521Y-89779880D01*
X72381847Y-89789603D01*
X72391738Y-89799178D01*
X72402194Y-89808604D01*
X72413216Y-89817883D01*
X72436954Y-89835996D01*
X72462953Y-89853516D01*
X72491214Y-89870445D01*
X72521735Y-89886781D01*
X72554517Y-89902526D01*
X72589559Y-89917678D01*
X72854830Y-90026198D01*
X72894629Y-90042792D01*
X72933070Y-90059843D01*
X72970151Y-90077352D01*
X73005874Y-90095318D01*
X73040237Y-90113741D01*
X73073241Y-90132622D01*
X73104886Y-90151961D01*
X73135172Y-90171756D01*
X73164098Y-90192010D01*
X73191666Y-90212721D01*
X73217874Y-90233889D01*
X73242723Y-90255515D01*
X73266213Y-90277599D01*
X73288344Y-90300140D01*
X73309115Y-90323138D01*
X73328527Y-90346595D01*
X73346675Y-90370400D01*
X73363652Y-90394879D01*
X73379458Y-90420030D01*
X73394093Y-90445855D01*
X73407557Y-90472352D01*
X73419850Y-90499523D01*
X73430973Y-90527366D01*
X73440924Y-90555882D01*
X73449705Y-90585071D01*
X73457315Y-90614933D01*
X73463754Y-90645468D01*
X73469022Y-90676676D01*
X73473120Y-90708556D01*
X73476046Y-90741109D01*
X73477802Y-90774335D01*
X73478388Y-90808234D01*
X73477432Y-90853598D01*
X73474566Y-90897967D01*
X73469788Y-90941339D01*
X73463100Y-90983716D01*
X73454501Y-91025097D01*
X73443990Y-91065483D01*
X73431569Y-91104873D01*
X73417237Y-91143266D01*
X73400994Y-91180665D01*
X73382839Y-91217067D01*
X73362774Y-91252474D01*
X73340798Y-91286885D01*
X73316912Y-91320300D01*
X73291114Y-91352720D01*
X73263405Y-91384144D01*
X73233786Y-91414572D01*
X73202531Y-91443774D01*
X73170348Y-91471092D01*
X73137236Y-91496526D01*
X73103196Y-91520076D01*
X73068227Y-91541741D01*
X73032329Y-91561523D01*
X72995503Y-91579421D01*
X72957749Y-91595435D01*
X72919066Y-91609565D01*
X72879454Y-91621811D01*
X72838914Y-91632173D01*
X72797445Y-91640650D01*
X72755048Y-91647244D01*
X72711723Y-91651954D01*
X72667468Y-91654780D01*
X72622286Y-91655722D01*
X72579478Y-91654922D01*
X72537612Y-91652519D01*
X72496688Y-91648516D01*
X72456706Y-91642911D01*
X72417666Y-91635704D01*
X72379568Y-91626897D01*
X72342412Y-91616487D01*
X72306199Y-91604477D01*
X72270927Y-91590865D01*
X72236597Y-91575651D01*
X72203209Y-91558837D01*
X72170763Y-91540421D01*
X72139260Y-91520403D01*
X72108698Y-91498785D01*
X72079079Y-91475565D01*
X72050402Y-91450743D01*
X72023278Y-91424467D01*
X71997460Y-91396886D01*
X71972947Y-91367999D01*
X71949739Y-91337807D01*
X71927837Y-91306310D01*
X71907240Y-91273507D01*
X71887949Y-91239399D01*
X71869963Y-91203986D01*
X71853282Y-91167267D01*
X71837906Y-91129243D01*
X71823836Y-91089914D01*
X71811071Y-91049279D01*
X71799612Y-91007339D01*
X71789458Y-90964093D01*
X71780609Y-90919543D01*
X71773065Y-90873687D01*
X72179586Y-90784117D01*
X72187123Y-90840422D01*
X72195951Y-90892205D01*
X72200849Y-90916402D01*
X72206071Y-90939467D01*
X72211615Y-90961403D01*
X72217482Y-90982208D01*
X72223672Y-91001883D01*
X72230185Y-91020427D01*
X72237022Y-91037841D01*
X72244181Y-91054125D01*
X72251663Y-91069278D01*
X72259469Y-91083301D01*
X72267597Y-91096193D01*
X72276049Y-91107955D01*
X72291996Y-91128814D01*
X72308831Y-91148327D01*
X72326555Y-91166495D01*
X72345167Y-91183317D01*
X72364667Y-91198793D01*
X72385055Y-91212924D01*
X72406331Y-91225708D01*
X72428495Y-91237147D01*
X72451548Y-91247240D01*
X72475489Y-91255988D01*
X72500318Y-91263389D01*
X72526035Y-91269445D01*
X72552640Y-91274155D01*
X72580133Y-91277520D01*
X72608515Y-91279538D01*
X72637785Y-91280211D01*
X72661006Y-91279720D01*
X72683728Y-91278246D01*
X72705953Y-91275790D01*
X72727680Y-91272352D01*
X72748909Y-91267931D01*
X72769641Y-91262528D01*
X72789874Y-91256142D01*
X72809609Y-91248774D01*
X72828847Y-91240424D01*
X72847586Y-91231091D01*
X72865828Y-91220776D01*
X72883572Y-91209478D01*
X72900818Y-91197198D01*
X72917566Y-91183936D01*
X72933816Y-91169691D01*
X72949568Y-91154464D01*
X72964586Y-91138484D01*
X72978635Y-91121979D01*
X72991715Y-91104949D01*
X73003827Y-91087394D01*
X73014970Y-91069314D01*
X73025143Y-91050709D01*
X73034348Y-91031579D01*
X73042584Y-91011924D01*
X73049851Y-90991745D01*
X73056150Y-90971040D01*
X73061479Y-90949810D01*
X73065839Y-90928056D01*
X73069231Y-90905777D01*
X73071653Y-90882973D01*
X73073107Y-90859645D01*
X73073591Y-90835791D01*
X73073241Y-90816629D01*
X73072192Y-90797897D01*
X73070443Y-90779596D01*
X73067995Y-90761725D01*
X73064847Y-90744285D01*
X73061000Y-90727276D01*
X73056453Y-90710697D01*
X73053917Y-90702569D01*
X73051206Y-90694548D01*
X73048523Y-90686413D01*
X73045637Y-90678372D01*
X73042549Y-90670425D01*
X73039259Y-90662572D01*
X73035767Y-90654814D01*
X73032073Y-90647149D01*
X73028177Y-90639579D01*
X73024079Y-90632104D01*
X73019779Y-90624722D01*
X73015277Y-90617435D01*
X73010574Y-90610242D01*
X73005668Y-90603143D01*
X73000560Y-90596138D01*
X72995251Y-90589228D01*
X72989739Y-90582412D01*
X72984026Y-90575690D01*
X72978321Y-90568834D01*
X72972400Y-90562045D01*
X72966264Y-90555324D01*
X72959912Y-90548669D01*
X72953346Y-90542082D01*
X72946563Y-90535562D01*
X72939566Y-90529109D01*
X72932353Y-90522723D01*
X72924925Y-90516404D01*
X72917281Y-90510153D01*
X72909422Y-90503969D01*
X72901347Y-90497852D01*
X72893057Y-90491803D01*
X72884552Y-90485821D01*
X72875832Y-90479906D01*
X72866896Y-90474059D01*
X72848378Y-90462083D01*
X72828998Y-90450268D01*
X72808758Y-90438614D01*
X72787657Y-90427121D01*
X72765694Y-90415789D01*
X72742870Y-90404618D01*
X72719185Y-90393607D01*
X72694639Y-90382758D01*
X72437982Y-90275962D01*
X72371859Y-90246275D01*
X72310002Y-90214920D01*
X72252411Y-90181896D01*
X72199086Y-90147203D01*
X72150027Y-90110841D01*
X72105234Y-90072811D01*
X72064707Y-90033112D01*
X72028447Y-89991744D01*
X72011916Y-89970434D01*
X71996452Y-89948707D01*
X71982054Y-89926563D01*
X71968723Y-89904002D01*
X71956458Y-89881024D01*
X71945260Y-89857628D01*
X71935128Y-89833815D01*
X71926063Y-89809586D01*
X71918064Y-89784939D01*
X71911132Y-89759874D01*
X71905266Y-89734393D01*
X71900467Y-89708495D01*
X71896734Y-89682179D01*
X71894068Y-89655446D01*
X71891935Y-89600730D01*
X71892830Y-89563647D01*
X71895515Y-89527331D01*
X71899989Y-89491783D01*
X71906253Y-89457002D01*
X71914307Y-89422988D01*
X71924151Y-89389741D01*
X71935785Y-89357261D01*
X71949208Y-89325549D01*
X71964421Y-89294604D01*
X71981425Y-89264425D01*
X72000218Y-89235014D01*
X72020800Y-89206370D01*
X72043173Y-89178493D01*
X72067336Y-89151383D01*
X72093288Y-89125039D01*
X72121031Y-89099463D01*
X72150105Y-89074850D01*
X72180055Y-89051825D01*
X72210879Y-89030387D01*
X72242578Y-89010538D01*
X72275152Y-88992277D01*
X72308601Y-88975604D01*
X72342924Y-88960518D01*
X72378122Y-88947021D01*
X72414194Y-88935112D01*
X72451142Y-88924791D01*
X72488964Y-88916057D01*
X72527661Y-88908912D01*
X72567232Y-88903354D01*
X72607678Y-88899384D01*
X72648999Y-88897002D01*
X72691194Y-88896208D01*
X72747897Y-88897958D01*
G37*
G36*
X91142897Y-50206778D02*
G01*
X91924932Y-50206778D01*
X91924932Y-50584017D01*
X90741552Y-50584017D01*
X90741552Y-47924407D01*
X91142897Y-47924407D01*
X91142897Y-50206778D01*
G37*
G36*
X104050543Y-91564307D02*
G01*
X103611288Y-91564307D01*
X103332243Y-90918357D01*
X102193647Y-90918357D01*
X101897367Y-91564307D01*
X101465010Y-91564307D01*
X101941376Y-90541114D01*
X102360731Y-90541114D01*
X103168600Y-90541114D01*
X102774137Y-89636779D01*
X102360731Y-90541114D01*
X101941376Y-90541114D01*
X102781027Y-88737616D01*
X104050543Y-91564307D01*
G37*
D10*
X82591658Y-134899993D02*
X97408323Y-134899993D01*
D11*
G36*
X77410826Y-88897958D02*
G01*
X77465954Y-88903206D01*
X77519507Y-88911953D01*
X77571486Y-88924199D01*
X77621890Y-88939944D01*
X77670720Y-88959188D01*
X77717976Y-88981931D01*
X77763657Y-89008173D01*
X77807763Y-89037913D01*
X77850295Y-89071153D01*
X77891253Y-89107892D01*
X77930636Y-89148129D01*
X77968445Y-89191866D01*
X78004679Y-89239101D01*
X78039339Y-89289836D01*
X78072424Y-89344069D01*
X78072421Y-89344072D01*
X78072420Y-89344073D01*
X78072419Y-89344074D01*
X78072419Y-89344075D01*
X78072418Y-89344075D01*
X78072418Y-89344076D01*
X78072417Y-89344076D01*
X78072417Y-89344077D01*
X78072417Y-89344078D01*
X78072417Y-89344079D01*
X78072416Y-89344079D01*
X78072416Y-89344080D01*
X78072416Y-89344081D01*
X78072416Y-89344082D01*
X78072416Y-89344084D01*
X77746855Y-89537009D01*
X77735477Y-89517630D01*
X77724166Y-89499112D01*
X77712923Y-89481456D01*
X77701747Y-89464661D01*
X77690638Y-89448727D01*
X77679596Y-89433655D01*
X77668621Y-89419444D01*
X77657714Y-89406094D01*
X77646874Y-89393606D01*
X77636101Y-89381979D01*
X77625396Y-89371214D01*
X77614758Y-89361309D01*
X77604188Y-89352266D01*
X77593685Y-89344085D01*
X77583249Y-89336765D01*
X77572882Y-89330306D01*
X77561920Y-89323630D01*
X77550569Y-89317386D01*
X77538827Y-89311572D01*
X77526695Y-89306189D01*
X77514172Y-89301236D01*
X77501260Y-89296714D01*
X77487956Y-89292623D01*
X77474263Y-89288963D01*
X77460179Y-89285733D01*
X77445706Y-89282934D01*
X77430842Y-89280566D01*
X77415587Y-89278628D01*
X77399943Y-89277121D01*
X77383908Y-89276045D01*
X77367483Y-89275399D01*
X77350668Y-89275183D01*
X77330004Y-89275553D01*
X77309785Y-89276664D01*
X77290009Y-89278514D01*
X77270678Y-89281104D01*
X77251791Y-89284435D01*
X77233347Y-89288505D01*
X77215348Y-89293316D01*
X77197793Y-89298867D01*
X77180682Y-89305158D01*
X77164015Y-89312189D01*
X77147792Y-89319960D01*
X77132013Y-89328471D01*
X77116678Y-89337723D01*
X77101788Y-89347714D01*
X77087342Y-89358446D01*
X77073339Y-89369918D01*
X77059990Y-89381733D01*
X77047501Y-89393926D01*
X77035874Y-89406495D01*
X77025108Y-89419441D01*
X77015204Y-89432763D01*
X77006160Y-89446463D01*
X76997978Y-89460539D01*
X76990657Y-89474992D01*
X76984197Y-89489823D01*
X76978598Y-89505029D01*
X76973861Y-89520613D01*
X76969985Y-89536574D01*
X76966971Y-89552912D01*
X76964817Y-89569626D01*
X76963525Y-89586717D01*
X76963095Y-89604186D01*
X76963377Y-89616277D01*
X76964225Y-89628220D01*
X76965638Y-89640015D01*
X76967616Y-89651662D01*
X76970160Y-89663161D01*
X76973269Y-89674512D01*
X76976943Y-89685715D01*
X76981182Y-89696770D01*
X76985986Y-89707677D01*
X76991356Y-89718436D01*
X76997291Y-89729046D01*
X77003791Y-89739509D01*
X77010856Y-89749824D01*
X77018487Y-89759991D01*
X77026682Y-89770010D01*
X77035443Y-89779880D01*
X77044769Y-89789603D01*
X77054661Y-89799178D01*
X77065117Y-89808604D01*
X77076139Y-89817883D01*
X77099878Y-89835996D01*
X77125878Y-89853516D01*
X77154139Y-89870445D01*
X77184660Y-89886781D01*
X77217442Y-89902526D01*
X77252485Y-89917678D01*
X77517752Y-90026198D01*
X77557553Y-90042792D01*
X77595994Y-90059843D01*
X77633076Y-90077352D01*
X77668799Y-90095318D01*
X77703163Y-90113741D01*
X77736168Y-90132622D01*
X77767813Y-90151961D01*
X77798098Y-90171756D01*
X77827025Y-90192010D01*
X77854592Y-90212721D01*
X77880801Y-90233889D01*
X77905649Y-90255515D01*
X77929139Y-90277599D01*
X77951270Y-90300140D01*
X77972041Y-90323138D01*
X77991453Y-90346595D01*
X78009600Y-90370400D01*
X78026577Y-90394879D01*
X78042383Y-90420030D01*
X78057018Y-90445855D01*
X78070482Y-90472352D01*
X78082775Y-90499523D01*
X78093898Y-90527366D01*
X78103850Y-90555882D01*
X78112632Y-90585071D01*
X78120242Y-90614933D01*
X78126682Y-90645468D01*
X78131950Y-90676676D01*
X78136048Y-90708556D01*
X78138976Y-90741109D01*
X78140732Y-90774335D01*
X78141317Y-90808234D01*
X78140362Y-90853598D01*
X78137495Y-90897967D01*
X78132718Y-90941339D01*
X78126030Y-90983716D01*
X78117430Y-91025097D01*
X78106920Y-91065483D01*
X78094499Y-91104873D01*
X78080167Y-91143266D01*
X78063924Y-91180665D01*
X78045770Y-91217067D01*
X78025705Y-91252474D01*
X78003730Y-91286885D01*
X77979843Y-91320300D01*
X77954046Y-91352720D01*
X77926338Y-91384144D01*
X77896719Y-91414572D01*
X77865464Y-91443774D01*
X77833281Y-91471092D01*
X77800169Y-91496526D01*
X77766129Y-91520076D01*
X77731160Y-91541741D01*
X77695262Y-91561523D01*
X77658436Y-91579421D01*
X77620681Y-91595435D01*
X77581997Y-91609565D01*
X77542385Y-91621811D01*
X77501844Y-91632173D01*
X77460374Y-91640650D01*
X77417975Y-91647244D01*
X77374648Y-91651954D01*
X77330392Y-91654780D01*
X77285208Y-91655722D01*
X77242400Y-91654922D01*
X77200534Y-91652519D01*
X77159611Y-91648516D01*
X77119629Y-91642911D01*
X77080589Y-91635704D01*
X77042491Y-91626897D01*
X77005336Y-91616487D01*
X76969122Y-91604477D01*
X76933850Y-91590865D01*
X76899520Y-91575651D01*
X76866133Y-91558837D01*
X76833687Y-91540421D01*
X76802183Y-91520403D01*
X76771621Y-91498785D01*
X76742001Y-91475565D01*
X76713324Y-91450743D01*
X76686201Y-91424467D01*
X76660384Y-91396886D01*
X76635872Y-91367999D01*
X76612666Y-91337807D01*
X76590764Y-91306310D01*
X76570168Y-91273507D01*
X76550877Y-91239399D01*
X76532891Y-91203986D01*
X76516211Y-91167267D01*
X76500835Y-91129243D01*
X76486765Y-91089914D01*
X76474001Y-91049279D01*
X76462541Y-91007339D01*
X76452387Y-90964093D01*
X76443538Y-90919543D01*
X76435995Y-90873687D01*
X76842520Y-90784117D01*
X76850055Y-90840422D01*
X76858883Y-90892205D01*
X76863782Y-90916402D01*
X76869003Y-90939467D01*
X76874547Y-90961403D01*
X76880415Y-90982208D01*
X76886605Y-91001883D01*
X76893119Y-91020427D01*
X76899955Y-91037841D01*
X76907114Y-91054125D01*
X76914596Y-91069278D01*
X76922400Y-91083301D01*
X76930528Y-91096193D01*
X76938978Y-91107955D01*
X76954925Y-91128814D01*
X76971760Y-91148327D01*
X76989483Y-91166495D01*
X77008094Y-91183317D01*
X77027594Y-91198793D01*
X77047982Y-91212924D01*
X77069259Y-91225708D01*
X77091423Y-91237147D01*
X77114476Y-91247240D01*
X77138416Y-91255988D01*
X77163245Y-91263389D01*
X77188962Y-91269445D01*
X77215567Y-91274155D01*
X77243060Y-91277520D01*
X77271441Y-91279538D01*
X77300711Y-91280211D01*
X77323932Y-91279720D01*
X77346655Y-91278246D01*
X77368880Y-91275790D01*
X77390607Y-91272352D01*
X77411836Y-91267931D01*
X77432567Y-91262528D01*
X77452800Y-91256142D01*
X77472535Y-91248774D01*
X77491772Y-91240424D01*
X77510511Y-91231091D01*
X77528753Y-91220776D01*
X77546496Y-91209478D01*
X77563742Y-91197198D01*
X77580490Y-91183936D01*
X77596741Y-91169691D01*
X77612493Y-91154464D01*
X77627511Y-91138484D01*
X77641561Y-91121979D01*
X77654641Y-91104949D01*
X77666753Y-91087394D01*
X77677895Y-91069314D01*
X77688069Y-91050709D01*
X77697274Y-91031579D01*
X77705510Y-91011924D01*
X77712777Y-90991745D01*
X77719075Y-90971040D01*
X77724405Y-90949810D01*
X77728765Y-90928056D01*
X77732156Y-90905777D01*
X77734579Y-90882973D01*
X77736032Y-90859645D01*
X77736517Y-90835791D01*
X77736167Y-90816629D01*
X77735118Y-90797897D01*
X77733369Y-90779596D01*
X77730921Y-90761725D01*
X77727773Y-90744285D01*
X77723925Y-90727276D01*
X77719379Y-90710697D01*
X77716843Y-90702569D01*
X77714132Y-90694548D01*
X77711449Y-90686413D01*
X77708564Y-90678372D01*
X77705476Y-90670425D01*
X77702186Y-90662572D01*
X77698695Y-90654814D01*
X77695001Y-90647149D01*
X77691105Y-90639579D01*
X77687007Y-90632104D01*
X77682707Y-90624722D01*
X77678205Y-90617435D01*
X77673501Y-90610242D01*
X77668596Y-90603143D01*
X77663488Y-90596138D01*
X77658179Y-90589228D01*
X77652668Y-90582412D01*
X77646955Y-90575690D01*
X77641250Y-90568834D01*
X77635329Y-90562045D01*
X77629193Y-90555324D01*
X77622841Y-90548669D01*
X77616274Y-90542082D01*
X77609492Y-90535562D01*
X77602494Y-90529109D01*
X77595281Y-90522723D01*
X77587852Y-90516404D01*
X77580208Y-90510153D01*
X77572348Y-90503969D01*
X77564274Y-90497852D01*
X77555984Y-90491803D01*
X77547478Y-90485821D01*
X77538757Y-90479906D01*
X77529821Y-90474059D01*
X77511303Y-90462083D01*
X77491924Y-90450268D01*
X77471684Y-90438614D01*
X77450582Y-90427121D01*
X77428620Y-90415789D01*
X77405796Y-90404618D01*
X77382111Y-90393607D01*
X77357565Y-90382758D01*
X77100904Y-90275962D01*
X77034782Y-90246275D01*
X76972925Y-90214920D01*
X76915335Y-90181896D01*
X76862010Y-90147203D01*
X76812952Y-90110841D01*
X76768159Y-90072811D01*
X76727633Y-90033112D01*
X76691372Y-89991744D01*
X76674841Y-89970434D01*
X76659377Y-89948707D01*
X76644979Y-89926563D01*
X76631648Y-89904002D01*
X76619384Y-89881024D01*
X76608186Y-89857628D01*
X76598054Y-89833815D01*
X76588989Y-89809586D01*
X76580990Y-89784939D01*
X76574058Y-89759874D01*
X76568192Y-89734393D01*
X76563393Y-89708495D01*
X76559660Y-89682179D01*
X76556994Y-89655446D01*
X76554861Y-89600730D01*
X76555756Y-89563647D01*
X76558441Y-89527331D01*
X76562916Y-89491783D01*
X76569180Y-89457002D01*
X76577235Y-89422988D01*
X76587079Y-89389741D01*
X76598714Y-89357261D01*
X76612138Y-89325549D01*
X76627352Y-89294604D01*
X76644355Y-89264425D01*
X76663149Y-89235014D01*
X76683733Y-89206370D01*
X76706106Y-89178493D01*
X76730269Y-89151383D01*
X76756222Y-89125039D01*
X76783964Y-89099463D01*
X76813038Y-89074850D01*
X76842986Y-89051825D01*
X76873809Y-89030387D01*
X76905507Y-89010538D01*
X76938080Y-88992277D01*
X76971528Y-88975604D01*
X77005851Y-88960518D01*
X77041049Y-88947021D01*
X77077121Y-88935112D01*
X77114069Y-88924791D01*
X77151891Y-88916057D01*
X77190588Y-88908912D01*
X77230160Y-88903354D01*
X77270606Y-88899384D01*
X77311928Y-88897002D01*
X77354124Y-88896208D01*
X77410826Y-88897958D01*
G37*
M02*
