%TF.GenerationSoftware,KiCad,Pcbnew,8.0.3*%
%TF.CreationDate,2024-07-07T15:48:55+01:00*%
%TF.ProjectId,555-adsr-panel,3535352d-6164-4737-922d-70616e656c2e,rev?*%
%TF.SameCoordinates,Original*%
%TF.FileFunction,Copper,L1,Top*%
%TF.FilePolarity,Positive*%
%FSLAX46Y46*%
G04 Gerber Fmt 4.6, Leading zero omitted, Abs format (unit mm)*
G04 Created by KiCad (PCBNEW 8.0.3) date 2024-07-07 15:48:55*
%MOMM*%
%LPD*%
G01*
G04 APERTURE LIST*
%TA.AperFunction,EtchedComponent*%
%ADD10C,0.053300*%
%TD*%
%TA.AperFunction,ComponentPad*%
%ADD11O,7.000000X4.000000*%
%TD*%
G04 APERTURE END LIST*
D10*
%TO.C,REF\u002A\u002A*%
X89577656Y-161360943D02*
X89594565Y-161369969D01*
X89604702Y-161385743D01*
X89609216Y-161459016D01*
X89632891Y-161611175D01*
X89647551Y-161754317D01*
X89657688Y-161914381D01*
X89655432Y-161966219D01*
X89643033Y-161985384D01*
X89610351Y-162005670D01*
X89559622Y-162024835D01*
X89457053Y-162036117D01*
X89124542Y-162058660D01*
X88758225Y-162062029D01*
X88714260Y-162049632D01*
X88701863Y-162024835D01*
X88699621Y-161982007D01*
X88697364Y-161901983D01*
X88681576Y-161807303D01*
X88657913Y-161625833D01*
X88660170Y-161525507D01*
X88653399Y-161440969D01*
X88661282Y-161419563D01*
X88696221Y-161417307D01*
X88799924Y-161412795D01*
X88867552Y-161408281D01*
X88987026Y-161391373D01*
X89213581Y-161364333D01*
X89452535Y-161359821D01*
X89577656Y-161360943D01*
%TA.AperFunction,EtchedComponent*%
G36*
X89577656Y-161360943D02*
G01*
X89594565Y-161369969D01*
X89604702Y-161385743D01*
X89609216Y-161459016D01*
X89632891Y-161611175D01*
X89647551Y-161754317D01*
X89657688Y-161914381D01*
X89655432Y-161966219D01*
X89643033Y-161985384D01*
X89610351Y-162005670D01*
X89559622Y-162024835D01*
X89457053Y-162036117D01*
X89124542Y-162058660D01*
X88758225Y-162062029D01*
X88714260Y-162049632D01*
X88701863Y-162024835D01*
X88699621Y-161982007D01*
X88697364Y-161901983D01*
X88681576Y-161807303D01*
X88657913Y-161625833D01*
X88660170Y-161525507D01*
X88653399Y-161440969D01*
X88661282Y-161419563D01*
X88696221Y-161417307D01*
X88799924Y-161412795D01*
X88867552Y-161408281D01*
X88987026Y-161391373D01*
X89213581Y-161364333D01*
X89452535Y-161359821D01*
X89577656Y-161360943D01*
G37*
%TD.AperFunction*%
X89492000Y-160537000D02*
X89516798Y-160553908D01*
X89534828Y-160577571D01*
X89555116Y-160615901D01*
X89569771Y-160682392D01*
X89582166Y-160745522D01*
X89597956Y-160825546D01*
X89618240Y-161048724D01*
X89620497Y-161091552D01*
X89611473Y-161117472D01*
X89595695Y-161138894D01*
X89567511Y-161151291D01*
X89484107Y-161169319D01*
X89307147Y-161199749D01*
X89108768Y-161223426D01*
X88886723Y-161235822D01*
X88826984Y-161247090D01*
X88718772Y-161251602D01*
X88671432Y-161245974D01*
X88641003Y-161225689D01*
X88627479Y-161206525D01*
X88616197Y-161112980D01*
X88615069Y-161007024D01*
X88594769Y-160610263D01*
X88603794Y-160598997D01*
X88612818Y-160592226D01*
X88631969Y-160583215D01*
X88669167Y-160573075D01*
X88723271Y-160559538D01*
X88804434Y-160543760D01*
X88997166Y-160535879D01*
X89138063Y-160533621D01*
X89450278Y-160525723D01*
X89492000Y-160537000D01*
%TA.AperFunction,EtchedComponent*%
G36*
X89492000Y-160537000D02*
G01*
X89516798Y-160553908D01*
X89534828Y-160577571D01*
X89555116Y-160615901D01*
X89569771Y-160682392D01*
X89582166Y-160745522D01*
X89597956Y-160825546D01*
X89618240Y-161048724D01*
X89620497Y-161091552D01*
X89611473Y-161117472D01*
X89595695Y-161138894D01*
X89567511Y-161151291D01*
X89484107Y-161169319D01*
X89307147Y-161199749D01*
X89108768Y-161223426D01*
X88886723Y-161235822D01*
X88826984Y-161247090D01*
X88718772Y-161251602D01*
X88671432Y-161245974D01*
X88641003Y-161225689D01*
X88627479Y-161206525D01*
X88616197Y-161112980D01*
X88615069Y-161007024D01*
X88594769Y-160610263D01*
X88603794Y-160598997D01*
X88612818Y-160592226D01*
X88631969Y-160583215D01*
X88669167Y-160573075D01*
X88723271Y-160559538D01*
X88804434Y-160543760D01*
X88997166Y-160535879D01*
X89138063Y-160533621D01*
X89450278Y-160525723D01*
X89492000Y-160537000D01*
G37*
%TD.AperFunction*%
X90210167Y-158937252D02*
X90413178Y-158952690D01*
X90613236Y-158978111D01*
X90810092Y-159013266D01*
X91003494Y-159057903D01*
X91193190Y-159111771D01*
X91378931Y-159174619D01*
X91560463Y-159246195D01*
X91737537Y-159326249D01*
X91909901Y-159414529D01*
X92077305Y-159510784D01*
X92239495Y-159614762D01*
X92396223Y-159726214D01*
X92547236Y-159844887D01*
X92692283Y-159970530D01*
X92831114Y-160102893D01*
X92963476Y-160241724D01*
X93089119Y-160386771D01*
X93207792Y-160537784D01*
X93319243Y-160694512D01*
X93423222Y-160856703D01*
X93519477Y-161024107D01*
X93607756Y-161196471D01*
X93687810Y-161373545D01*
X93759386Y-161555078D01*
X93822233Y-161740818D01*
X93876101Y-161930515D01*
X93920738Y-162123917D01*
X93955892Y-162320773D01*
X93981314Y-162520831D01*
X93996751Y-162723842D01*
X94001952Y-162929553D01*
X93996751Y-163135263D01*
X93981314Y-163338274D01*
X93955892Y-163538332D01*
X93920738Y-163735188D01*
X93876101Y-163928590D01*
X93822233Y-164118287D01*
X93759386Y-164304027D01*
X93687810Y-164485560D01*
X93607756Y-164662634D01*
X93519477Y-164834998D01*
X93423222Y-165002401D01*
X93319243Y-165164592D01*
X93207792Y-165321320D01*
X93089119Y-165472333D01*
X92963476Y-165617381D01*
X92831113Y-165756211D01*
X92692283Y-165888574D01*
X92547235Y-166014217D01*
X92396222Y-166132890D01*
X92239494Y-166244341D01*
X92077303Y-166348320D01*
X91909900Y-166444575D01*
X91737536Y-166532855D01*
X91560462Y-166612908D01*
X91378929Y-166684485D01*
X91193188Y-166747332D01*
X91003491Y-166801200D01*
X90810089Y-166845837D01*
X90613233Y-166880992D01*
X90413174Y-166906414D01*
X90210164Y-166921851D01*
X90004452Y-166927053D01*
X89798742Y-166921851D01*
X89595731Y-166906414D01*
X89395673Y-166880992D01*
X89198817Y-166845838D01*
X89005415Y-166801201D01*
X88815718Y-166747333D01*
X88629978Y-166684485D01*
X88448445Y-166612909D01*
X88271371Y-166532856D01*
X88099007Y-166444576D01*
X87931603Y-166348321D01*
X87769412Y-166244342D01*
X87612684Y-166132891D01*
X87461671Y-166014218D01*
X87316624Y-165888575D01*
X87177793Y-165756212D01*
X87045430Y-165617381D01*
X86919787Y-165472334D01*
X86801114Y-165321321D01*
X86689663Y-165164593D01*
X86585684Y-165002402D01*
X86489429Y-164834998D01*
X86401149Y-164662634D01*
X86321096Y-164485560D01*
X86249520Y-164304027D01*
X86186672Y-164118287D01*
X86132804Y-163928590D01*
X86088167Y-163735188D01*
X86053013Y-163538332D01*
X86027591Y-163338274D01*
X86012154Y-163135263D01*
X86010240Y-163059558D01*
X86008644Y-162996442D01*
X88372750Y-162996442D01*
X88372750Y-163059558D01*
X88376135Y-163083218D01*
X88387401Y-163120416D01*
X88399800Y-163184666D01*
X88413323Y-163255683D01*
X88412197Y-163367271D01*
X88413323Y-163632143D01*
X88407697Y-163890262D01*
X88412209Y-164078486D01*
X88438129Y-164417764D01*
X88449409Y-164596979D01*
X88449409Y-164804367D01*
X88450537Y-165025290D01*
X88438141Y-165131248D01*
X88439267Y-165194363D01*
X88449407Y-165229305D01*
X88460689Y-165250725D01*
X88476467Y-165271010D01*
X88491121Y-165284535D01*
X88513663Y-165289047D01*
X88533949Y-165290175D01*
X88561003Y-165285664D01*
X88584664Y-165273265D01*
X88602709Y-165257479D01*
X88619605Y-165240579D01*
X88642145Y-165197737D01*
X88650042Y-165148144D01*
X88644402Y-164891157D01*
X88642145Y-164586833D01*
X88643274Y-164138221D01*
X88645531Y-163875604D01*
X88638760Y-163698644D01*
X88627494Y-163525060D01*
X88600442Y-163275963D01*
X88594801Y-163238767D01*
X88600442Y-163209460D01*
X88609453Y-163190294D01*
X88626361Y-163177898D01*
X88653415Y-163168887D01*
X88730060Y-163165501D01*
X88876591Y-163157604D01*
X89105401Y-163146336D01*
X89572032Y-163122661D01*
X89745614Y-163117033D01*
X89795212Y-163122661D01*
X89826772Y-163137315D01*
X89844803Y-163160992D01*
X89854945Y-163194796D01*
X89872975Y-163331183D01*
X89879742Y-163607333D01*
X89886513Y-163997330D01*
X89889884Y-164255449D01*
X89894393Y-164713069D01*
X89892137Y-165132360D01*
X89909049Y-165168436D01*
X89923700Y-165202240D01*
X89962019Y-165230415D01*
X89991326Y-165237183D01*
X90030779Y-165229302D01*
X90069097Y-165203385D01*
X90097270Y-165180842D01*
X90116435Y-165152654D01*
X90128833Y-165105316D01*
X90131090Y-165016268D01*
X90122063Y-164886648D01*
X90111925Y-164770560D01*
X90096151Y-164502297D01*
X90073611Y-164016501D01*
X90062326Y-163540836D01*
X90053315Y-163204946D01*
X90065714Y-163144085D01*
X90081488Y-163119288D01*
X90122063Y-163109148D01*
X90188566Y-163097868D01*
X90275360Y-163091111D01*
X90453439Y-163080974D01*
X90738612Y-163066318D01*
X91125232Y-163050530D01*
X91359672Y-163049404D01*
X91397990Y-163053915D01*
X91420531Y-163062927D01*
X91436321Y-163080970D01*
X91453217Y-163109144D01*
X91467872Y-163144083D01*
X91476896Y-163197055D01*
X91485907Y-163250027D01*
X91492678Y-163394301D01*
X91497192Y-163659189D01*
X91501705Y-164084126D01*
X91507333Y-164281372D01*
X91518614Y-164548499D01*
X91534383Y-164740113D01*
X91554671Y-164932863D01*
X91565951Y-165055715D01*
X91582848Y-165135741D01*
X91594128Y-165171817D01*
X91611036Y-165197735D01*
X91624561Y-165218022D01*
X91649359Y-165233810D01*
X91666267Y-165239436D01*
X91693321Y-165239436D01*
X91713609Y-165237179D01*
X91730517Y-165221405D01*
X91747426Y-165209009D01*
X91766579Y-165178579D01*
X91771093Y-165142504D01*
X91774460Y-165081645D01*
X91769962Y-164982454D01*
X91732766Y-164582315D01*
X91706834Y-164226140D01*
X91675282Y-163798949D01*
X91660627Y-163519420D01*
X91660627Y-163147458D01*
X91662884Y-163115909D01*
X91675278Y-163048267D01*
X91686547Y-162993040D01*
X91692171Y-162937814D01*
X91692171Y-162901738D01*
X91678650Y-162872443D01*
X91663994Y-162853278D01*
X91631308Y-162837500D01*
X91590732Y-162827362D01*
X91449858Y-162828479D01*
X91250357Y-162838618D01*
X90826542Y-162864550D01*
X90384708Y-162892723D01*
X89971050Y-162920897D01*
X89410850Y-162952461D01*
X88965627Y-162952461D01*
X88850663Y-162949090D01*
X88690613Y-162928790D01*
X88538450Y-162901738D01*
X88524913Y-162893855D01*
X88488854Y-162893855D01*
X88451656Y-162900626D01*
X88424603Y-162911906D01*
X88395294Y-162932192D01*
X88379521Y-162955854D01*
X88372750Y-162996442D01*
X86008644Y-162996442D01*
X86006952Y-162929553D01*
X86012154Y-162723842D01*
X86027591Y-162520831D01*
X86053013Y-162320773D01*
X86088167Y-162123917D01*
X86132804Y-161930515D01*
X86186672Y-161740818D01*
X86249520Y-161555078D01*
X86321096Y-161373545D01*
X86401150Y-161196471D01*
X86489430Y-161024106D01*
X86585685Y-160856703D01*
X86689663Y-160694512D01*
X86801115Y-160537784D01*
X86877013Y-160441202D01*
X88424589Y-160441202D01*
X88425716Y-160473886D01*
X88438112Y-160515580D01*
X88440369Y-160719594D01*
X88448266Y-160950661D01*
X88464044Y-161170462D01*
X88473070Y-161376731D01*
X88475312Y-161682176D01*
X88478696Y-162023712D01*
X88483209Y-162122890D01*
X88491090Y-162157829D01*
X88505748Y-162184883D01*
X88518144Y-162206305D01*
X88537295Y-162225468D01*
X88573371Y-162244619D01*
X88602678Y-162251390D01*
X88715388Y-162246876D01*
X88833731Y-162249135D01*
X89109878Y-162240122D01*
X89429995Y-162233353D01*
X89754491Y-162225848D01*
X89826223Y-162222662D01*
X89867665Y-162208316D01*
X89899538Y-162185999D01*
X89913884Y-162157306D01*
X89917068Y-162112685D01*
X89902722Y-162044134D01*
X89877213Y-161883145D01*
X89843742Y-161610567D01*
X89803894Y-161212056D01*
X89772009Y-160912381D01*
X89767227Y-160730659D01*
X89757667Y-160593572D01*
X89759261Y-160501119D01*
X89754596Y-160462846D01*
X90159356Y-160462846D01*
X90168933Y-160548923D01*
X90192836Y-160803961D01*
X90215152Y-161068566D01*
X90219947Y-161347518D01*
X90224729Y-161557933D01*
X90231101Y-161819346D01*
X90219947Y-161852829D01*
X90227917Y-161993098D01*
X90242263Y-162056856D01*
X90258192Y-162103090D01*
X90274136Y-162136559D01*
X90306022Y-162155698D01*
X90403251Y-162157276D01*
X90613666Y-162128585D01*
X90709297Y-162125411D01*
X91256050Y-162138157D01*
X91429802Y-162168446D01*
X91490380Y-162166852D01*
X91523851Y-162155698D01*
X91549348Y-162138157D01*
X91573271Y-162119034D01*
X91592400Y-162093524D01*
X91603566Y-162071205D01*
X91611532Y-162040928D01*
X91606738Y-162002666D01*
X91590810Y-161973973D01*
X91568493Y-161953255D01*
X91539800Y-161937312D01*
X91507915Y-161927750D01*
X91423430Y-161927750D01*
X91268807Y-161956441D01*
X91042459Y-161954861D01*
X90706121Y-161922976D01*
X90554690Y-161919790D01*
X90518023Y-161908633D01*
X90487736Y-161889511D01*
X90465415Y-161838501D01*
X90455855Y-161800240D01*
X90452667Y-161483025D01*
X90462243Y-161427239D01*
X90457461Y-161167412D01*
X90427174Y-160824700D01*
X90417597Y-160695586D01*
X90416003Y-160628632D01*
X90417597Y-160601537D01*
X90423970Y-160574442D01*
X90443106Y-160555319D01*
X90468607Y-160545757D01*
X90518019Y-160542571D01*
X90541934Y-160548959D01*
X90616846Y-160560116D01*
X91244900Y-160558520D01*
X91275187Y-160566488D01*
X91338945Y-160582434D01*
X91364446Y-160591995D01*
X91394733Y-160599949D01*
X91477616Y-160595167D01*
X91495158Y-160587198D01*
X91552540Y-160539383D01*
X91571669Y-160509094D01*
X91584413Y-160470830D01*
X91582835Y-160445331D01*
X91573259Y-160413446D01*
X91550942Y-160392726D01*
X91527027Y-160376797D01*
X91469641Y-160357658D01*
X91305458Y-160357658D01*
X91161997Y-160384755D01*
X90408025Y-160359257D01*
X90307603Y-160346508D01*
X90250209Y-160370380D01*
X90213562Y-160397489D01*
X90186451Y-160411836D01*
X90165733Y-160437335D01*
X90159356Y-160462846D01*
X89754596Y-160462846D01*
X89751294Y-160435763D01*
X89732170Y-160378377D01*
X89705063Y-160338534D01*
X89677968Y-160314619D01*
X89636527Y-160292302D01*
X89599863Y-160284334D01*
X89526533Y-160284334D01*
X89446830Y-160295496D01*
X89067455Y-160336938D01*
X88979794Y-160348104D01*
X88872982Y-160359261D01*
X88817196Y-160356073D01*
X88708801Y-160357669D01*
X88673731Y-160349700D01*
X88598823Y-160344918D01*
X88536645Y-160341732D01*
X88484053Y-160351292D01*
X88476437Y-160358907D01*
X88453894Y-160376952D01*
X88436986Y-160393848D01*
X88424589Y-160441202D01*
X86877013Y-160441202D01*
X86919788Y-160386771D01*
X87045432Y-160241723D01*
X87177794Y-160102892D01*
X87316625Y-159970530D01*
X87461673Y-159844886D01*
X87612686Y-159726213D01*
X87769414Y-159614761D01*
X87931605Y-159510783D01*
X88099009Y-159414528D01*
X88271373Y-159326248D01*
X88448448Y-159246194D01*
X88629981Y-159174618D01*
X88815721Y-159111770D01*
X89005418Y-159057903D01*
X89198820Y-159013266D01*
X89395676Y-158978111D01*
X89595735Y-158952689D01*
X89798745Y-158937252D01*
X90004456Y-158932051D01*
X90210167Y-158937252D01*
%TA.AperFunction,EtchedComponent*%
G36*
X90210167Y-158937252D02*
G01*
X90413178Y-158952690D01*
X90613236Y-158978111D01*
X90810092Y-159013266D01*
X91003494Y-159057903D01*
X91193190Y-159111771D01*
X91378931Y-159174619D01*
X91560463Y-159246195D01*
X91737537Y-159326249D01*
X91909901Y-159414529D01*
X92077305Y-159510784D01*
X92239495Y-159614762D01*
X92396223Y-159726214D01*
X92547236Y-159844887D01*
X92692283Y-159970530D01*
X92831114Y-160102893D01*
X92963476Y-160241724D01*
X93089119Y-160386771D01*
X93207792Y-160537784D01*
X93319243Y-160694512D01*
X93423222Y-160856703D01*
X93519477Y-161024107D01*
X93607756Y-161196471D01*
X93687810Y-161373545D01*
X93759386Y-161555078D01*
X93822233Y-161740818D01*
X93876101Y-161930515D01*
X93920738Y-162123917D01*
X93955892Y-162320773D01*
X93981314Y-162520831D01*
X93996751Y-162723842D01*
X94001952Y-162929553D01*
X93996751Y-163135263D01*
X93981314Y-163338274D01*
X93955892Y-163538332D01*
X93920738Y-163735188D01*
X93876101Y-163928590D01*
X93822233Y-164118287D01*
X93759386Y-164304027D01*
X93687810Y-164485560D01*
X93607756Y-164662634D01*
X93519477Y-164834998D01*
X93423222Y-165002401D01*
X93319243Y-165164592D01*
X93207792Y-165321320D01*
X93089119Y-165472333D01*
X92963476Y-165617381D01*
X92831113Y-165756211D01*
X92692283Y-165888574D01*
X92547235Y-166014217D01*
X92396222Y-166132890D01*
X92239494Y-166244341D01*
X92077303Y-166348320D01*
X91909900Y-166444575D01*
X91737536Y-166532855D01*
X91560462Y-166612908D01*
X91378929Y-166684485D01*
X91193188Y-166747332D01*
X91003491Y-166801200D01*
X90810089Y-166845837D01*
X90613233Y-166880992D01*
X90413174Y-166906414D01*
X90210164Y-166921851D01*
X90004452Y-166927053D01*
X89798742Y-166921851D01*
X89595731Y-166906414D01*
X89395673Y-166880992D01*
X89198817Y-166845838D01*
X89005415Y-166801201D01*
X88815718Y-166747333D01*
X88629978Y-166684485D01*
X88448445Y-166612909D01*
X88271371Y-166532856D01*
X88099007Y-166444576D01*
X87931603Y-166348321D01*
X87769412Y-166244342D01*
X87612684Y-166132891D01*
X87461671Y-166014218D01*
X87316624Y-165888575D01*
X87177793Y-165756212D01*
X87045430Y-165617381D01*
X86919787Y-165472334D01*
X86801114Y-165321321D01*
X86689663Y-165164593D01*
X86585684Y-165002402D01*
X86489429Y-164834998D01*
X86401149Y-164662634D01*
X86321096Y-164485560D01*
X86249520Y-164304027D01*
X86186672Y-164118287D01*
X86132804Y-163928590D01*
X86088167Y-163735188D01*
X86053013Y-163538332D01*
X86027591Y-163338274D01*
X86012154Y-163135263D01*
X86010240Y-163059558D01*
X86008644Y-162996442D01*
X88372750Y-162996442D01*
X88372750Y-163059558D01*
X88376135Y-163083218D01*
X88387401Y-163120416D01*
X88399800Y-163184666D01*
X88413323Y-163255683D01*
X88412197Y-163367271D01*
X88413323Y-163632143D01*
X88407697Y-163890262D01*
X88412209Y-164078486D01*
X88438129Y-164417764D01*
X88449409Y-164596979D01*
X88449409Y-164804367D01*
X88450537Y-165025290D01*
X88438141Y-165131248D01*
X88439267Y-165194363D01*
X88449407Y-165229305D01*
X88460689Y-165250725D01*
X88476467Y-165271010D01*
X88491121Y-165284535D01*
X88513663Y-165289047D01*
X88533949Y-165290175D01*
X88561003Y-165285664D01*
X88584664Y-165273265D01*
X88602709Y-165257479D01*
X88619605Y-165240579D01*
X88642145Y-165197737D01*
X88650042Y-165148144D01*
X88644402Y-164891157D01*
X88642145Y-164586833D01*
X88643274Y-164138221D01*
X88645531Y-163875604D01*
X88638760Y-163698644D01*
X88627494Y-163525060D01*
X88600442Y-163275963D01*
X88594801Y-163238767D01*
X88600442Y-163209460D01*
X88609453Y-163190294D01*
X88626361Y-163177898D01*
X88653415Y-163168887D01*
X88730060Y-163165501D01*
X88876591Y-163157604D01*
X89105401Y-163146336D01*
X89572032Y-163122661D01*
X89745614Y-163117033D01*
X89795212Y-163122661D01*
X89826772Y-163137315D01*
X89844803Y-163160992D01*
X89854945Y-163194796D01*
X89872975Y-163331183D01*
X89879742Y-163607333D01*
X89886513Y-163997330D01*
X89889884Y-164255449D01*
X89894393Y-164713069D01*
X89892137Y-165132360D01*
X89909049Y-165168436D01*
X89923700Y-165202240D01*
X89962019Y-165230415D01*
X89991326Y-165237183D01*
X90030779Y-165229302D01*
X90069097Y-165203385D01*
X90097270Y-165180842D01*
X90116435Y-165152654D01*
X90128833Y-165105316D01*
X90131090Y-165016268D01*
X90122063Y-164886648D01*
X90111925Y-164770560D01*
X90096151Y-164502297D01*
X90073611Y-164016501D01*
X90062326Y-163540836D01*
X90053315Y-163204946D01*
X90065714Y-163144085D01*
X90081488Y-163119288D01*
X90122063Y-163109148D01*
X90188566Y-163097868D01*
X90275360Y-163091111D01*
X90453439Y-163080974D01*
X90738612Y-163066318D01*
X91125232Y-163050530D01*
X91359672Y-163049404D01*
X91397990Y-163053915D01*
X91420531Y-163062927D01*
X91436321Y-163080970D01*
X91453217Y-163109144D01*
X91467872Y-163144083D01*
X91476896Y-163197055D01*
X91485907Y-163250027D01*
X91492678Y-163394301D01*
X91497192Y-163659189D01*
X91501705Y-164084126D01*
X91507333Y-164281372D01*
X91518614Y-164548499D01*
X91534383Y-164740113D01*
X91554671Y-164932863D01*
X91565951Y-165055715D01*
X91582848Y-165135741D01*
X91594128Y-165171817D01*
X91611036Y-165197735D01*
X91624561Y-165218022D01*
X91649359Y-165233810D01*
X91666267Y-165239436D01*
X91693321Y-165239436D01*
X91713609Y-165237179D01*
X91730517Y-165221405D01*
X91747426Y-165209009D01*
X91766579Y-165178579D01*
X91771093Y-165142504D01*
X91774460Y-165081645D01*
X91769962Y-164982454D01*
X91732766Y-164582315D01*
X91706834Y-164226140D01*
X91675282Y-163798949D01*
X91660627Y-163519420D01*
X91660627Y-163147458D01*
X91662884Y-163115909D01*
X91675278Y-163048267D01*
X91686547Y-162993040D01*
X91692171Y-162937814D01*
X91692171Y-162901738D01*
X91678650Y-162872443D01*
X91663994Y-162853278D01*
X91631308Y-162837500D01*
X91590732Y-162827362D01*
X91449858Y-162828479D01*
X91250357Y-162838618D01*
X90826542Y-162864550D01*
X90384708Y-162892723D01*
X89971050Y-162920897D01*
X89410850Y-162952461D01*
X88965627Y-162952461D01*
X88850663Y-162949090D01*
X88690613Y-162928790D01*
X88538450Y-162901738D01*
X88524913Y-162893855D01*
X88488854Y-162893855D01*
X88451656Y-162900626D01*
X88424603Y-162911906D01*
X88395294Y-162932192D01*
X88379521Y-162955854D01*
X88372750Y-162996442D01*
X86008644Y-162996442D01*
X86006952Y-162929553D01*
X86012154Y-162723842D01*
X86027591Y-162520831D01*
X86053013Y-162320773D01*
X86088167Y-162123917D01*
X86132804Y-161930515D01*
X86186672Y-161740818D01*
X86249520Y-161555078D01*
X86321096Y-161373545D01*
X86401150Y-161196471D01*
X86489430Y-161024106D01*
X86585685Y-160856703D01*
X86689663Y-160694512D01*
X86801115Y-160537784D01*
X86877013Y-160441202D01*
X88424589Y-160441202D01*
X88425716Y-160473886D01*
X88438112Y-160515580D01*
X88440369Y-160719594D01*
X88448266Y-160950661D01*
X88464044Y-161170462D01*
X88473070Y-161376731D01*
X88475312Y-161682176D01*
X88478696Y-162023712D01*
X88483209Y-162122890D01*
X88491090Y-162157829D01*
X88505748Y-162184883D01*
X88518144Y-162206305D01*
X88537295Y-162225468D01*
X88573371Y-162244619D01*
X88602678Y-162251390D01*
X88715388Y-162246876D01*
X88833731Y-162249135D01*
X89109878Y-162240122D01*
X89429995Y-162233353D01*
X89754491Y-162225848D01*
X89826223Y-162222662D01*
X89867665Y-162208316D01*
X89899538Y-162185999D01*
X89913884Y-162157306D01*
X89917068Y-162112685D01*
X89902722Y-162044134D01*
X89877213Y-161883145D01*
X89843742Y-161610567D01*
X89803894Y-161212056D01*
X89772009Y-160912381D01*
X89767227Y-160730659D01*
X89757667Y-160593572D01*
X89759261Y-160501119D01*
X89754596Y-160462846D01*
X90159356Y-160462846D01*
X90168933Y-160548923D01*
X90192836Y-160803961D01*
X90215152Y-161068566D01*
X90219947Y-161347518D01*
X90224729Y-161557933D01*
X90231101Y-161819346D01*
X90219947Y-161852829D01*
X90227917Y-161993098D01*
X90242263Y-162056856D01*
X90258192Y-162103090D01*
X90274136Y-162136559D01*
X90306022Y-162155698D01*
X90403251Y-162157276D01*
X90613666Y-162128585D01*
X90709297Y-162125411D01*
X91256050Y-162138157D01*
X91429802Y-162168446D01*
X91490380Y-162166852D01*
X91523851Y-162155698D01*
X91549348Y-162138157D01*
X91573271Y-162119034D01*
X91592400Y-162093524D01*
X91603566Y-162071205D01*
X91611532Y-162040928D01*
X91606738Y-162002666D01*
X91590810Y-161973973D01*
X91568493Y-161953255D01*
X91539800Y-161937312D01*
X91507915Y-161927750D01*
X91423430Y-161927750D01*
X91268807Y-161956441D01*
X91042459Y-161954861D01*
X90706121Y-161922976D01*
X90554690Y-161919790D01*
X90518023Y-161908633D01*
X90487736Y-161889511D01*
X90465415Y-161838501D01*
X90455855Y-161800240D01*
X90452667Y-161483025D01*
X90462243Y-161427239D01*
X90457461Y-161167412D01*
X90427174Y-160824700D01*
X90417597Y-160695586D01*
X90416003Y-160628632D01*
X90417597Y-160601537D01*
X90423970Y-160574442D01*
X90443106Y-160555319D01*
X90468607Y-160545757D01*
X90518019Y-160542571D01*
X90541934Y-160548959D01*
X90616846Y-160560116D01*
X91244900Y-160558520D01*
X91275187Y-160566488D01*
X91338945Y-160582434D01*
X91364446Y-160591995D01*
X91394733Y-160599949D01*
X91477616Y-160595167D01*
X91495158Y-160587198D01*
X91552540Y-160539383D01*
X91571669Y-160509094D01*
X91584413Y-160470830D01*
X91582835Y-160445331D01*
X91573259Y-160413446D01*
X91550942Y-160392726D01*
X91527027Y-160376797D01*
X91469641Y-160357658D01*
X91305458Y-160357658D01*
X91161997Y-160384755D01*
X90408025Y-160359257D01*
X90307603Y-160346508D01*
X90250209Y-160370380D01*
X90213562Y-160397489D01*
X90186451Y-160411836D01*
X90165733Y-160437335D01*
X90159356Y-160462846D01*
X89754596Y-160462846D01*
X89751294Y-160435763D01*
X89732170Y-160378377D01*
X89705063Y-160338534D01*
X89677968Y-160314619D01*
X89636527Y-160292302D01*
X89599863Y-160284334D01*
X89526533Y-160284334D01*
X89446830Y-160295496D01*
X89067455Y-160336938D01*
X88979794Y-160348104D01*
X88872982Y-160359261D01*
X88817196Y-160356073D01*
X88708801Y-160357669D01*
X88673731Y-160349700D01*
X88598823Y-160344918D01*
X88536645Y-160341732D01*
X88484053Y-160351292D01*
X88476437Y-160358907D01*
X88453894Y-160376952D01*
X88436986Y-160393848D01*
X88424589Y-160441202D01*
X86877013Y-160441202D01*
X86919788Y-160386771D01*
X87045432Y-160241723D01*
X87177794Y-160102892D01*
X87316625Y-159970530D01*
X87461673Y-159844886D01*
X87612686Y-159726213D01*
X87769414Y-159614761D01*
X87931605Y-159510783D01*
X88099009Y-159414528D01*
X88271373Y-159326248D01*
X88448448Y-159246194D01*
X88629981Y-159174618D01*
X88815721Y-159111770D01*
X89005418Y-159057903D01*
X89198820Y-159013266D01*
X89395676Y-158978111D01*
X89595735Y-158952689D01*
X89798745Y-158937252D01*
X90004456Y-158932051D01*
X90210167Y-158937252D01*
G37*
%TD.AperFunction*%
%TD*%
D11*
%TO.P,REF\u002A\u002A,*%
%TO.N,*%
X77350000Y-42900000D03*
%TD*%
%TO.P,REF\u002A\u002A,*%
%TO.N,*%
X77350000Y-165400000D03*
%TD*%
%TO.P,REF\u002A\u002A,*%
%TO.N,*%
X102650000Y-165400000D03*
%TD*%
%TO.P,REF\u002A\u002A,*%
%TO.N,*%
X102650000Y-42900000D03*
%TD*%
M02*
