%TF.GenerationSoftware,KiCad,Pcbnew,8.0.3*%
%TF.CreationDate,2024-07-07T15:48:55+01:00*%
%TF.ProjectId,555-adsr-panel,3535352d-6164-4737-922d-70616e656c2e,rev?*%
%TF.SameCoordinates,Original*%
%TF.FileFunction,Profile,NP*%
%FSLAX46Y46*%
G04 Gerber Fmt 4.6, Leading zero omitted, Abs format (unit mm)*
G04 Created by KiCad (PCBNEW 8.0.3) date 2024-07-07 15:48:55*
%MOMM*%
%LPD*%
G01*
G04 APERTURE LIST*
%TA.AperFunction,Profile*%
%ADD10C,0.100000*%
%TD*%
%TA.AperFunction,Profile*%
%ADD11C,0.050000*%
%TD*%
G04 APERTURE END LIST*
D10*
X69850000Y-168399993D02*
X69850000Y-39900000D01*
D11*
X104000000Y-134900000D02*
G75*
G02*
X98000000Y-134900000I-3000000J0D01*
G01*
X98000000Y-134900000D02*
G75*
G02*
X104000000Y-134900000I3000000J0D01*
G01*
X104000000Y-150900000D02*
G75*
G02*
X98000000Y-150900000I-3000000J0D01*
G01*
X98000000Y-150900000D02*
G75*
G02*
X104000000Y-150900000I3000000J0D01*
G01*
D10*
X110150000Y-39900000D02*
X110150000Y-168399993D01*
D11*
X82000000Y-134900000D02*
G75*
G02*
X76000000Y-134900000I-3000000J0D01*
G01*
X76000000Y-134900000D02*
G75*
G02*
X82000000Y-134900000I3000000J0D01*
G01*
X104600000Y-56900000D02*
G75*
G02*
X97400000Y-56900000I-3600000J0D01*
G01*
X97400000Y-56900000D02*
G75*
G02*
X104600000Y-56900000I3600000J0D01*
G01*
X94750000Y-119900000D02*
G75*
G02*
X85250000Y-119900000I-4750000J0D01*
G01*
X85250000Y-119900000D02*
G75*
G02*
X94750000Y-119900000I4750000J0D01*
G01*
D10*
X110150000Y-168399993D02*
X69850000Y-168399993D01*
X69850000Y-39900000D02*
X110150000Y-39900000D01*
D11*
X82600000Y-81900000D02*
G75*
G02*
X75400000Y-81900000I-3600000J0D01*
G01*
X75400000Y-81900000D02*
G75*
G02*
X82600000Y-81900000I3600000J0D01*
G01*
X93150000Y-99900000D02*
G75*
G02*
X86850000Y-99900000I-3150000J0D01*
G01*
X86850000Y-99900000D02*
G75*
G02*
X93150000Y-99900000I3150000J0D01*
G01*
X104600000Y-81900000D02*
G75*
G02*
X97400000Y-81900000I-3600000J0D01*
G01*
X97400000Y-81900000D02*
G75*
G02*
X104600000Y-81900000I3600000J0D01*
G01*
X82600000Y-56900000D02*
G75*
G02*
X75400000Y-56900000I-3600000J0D01*
G01*
X75400000Y-56900000D02*
G75*
G02*
X82600000Y-56900000I3600000J0D01*
G01*
X82000000Y-150900000D02*
G75*
G02*
X76000000Y-150900000I-3000000J0D01*
G01*
X76000000Y-150900000D02*
G75*
G02*
X82000000Y-150900000I3000000J0D01*
G01*
M02*
