999
"DXF R12 Output" (www.mydxf.blogspot.com)
 0 
SECTION
 2 
HEADER
 9 
$ACADVER
 1 
AC1009
 9 
$EXTMIN
 10 
 0 
 20 
 0 
 9 
$EXTMAX
 10 
 8.5 
 20 
 11 
 0 
ENDSEC
 0 
SECTION
 2 
ENTITIES
0
LINE
8
Layer 1
10
0.793749
20
297.793749
11
-0.793749
21
296.206251
0
LINE
8
Layer 1
10
0.000000
20
298.322915
11
0.000000
21
295.677085
0
LINE
8
Layer 1
10
2.116664
20
295.941668
11
1.058332
21
294.883336
0
LINE
8
Layer 1
10
1.587498
20
296.470834
11
0.529166
21
295.412502
0
LINE
8
Layer 1
10
1.058332
20
297.000000
11
0.000000
21
295.941668
0
LINE
8
contour007
10
99.524882
20
244.708506
11
99.524882
21
116.208666
0
LINE
8
contour007
10
99.524882
20
116.208666
11
59.224933
21
116.208666
0
LINE
8
contour007
10
59.224933
20
116.208666
11
59.224933
21
244.708506
0
LINE
8
contour007
10
59.224933
20
244.708506
11
99.524882
21
244.708506
0
LINE
8
contour007
10
71.974916
20
227.708527
11
71.850300
21
228.647830
0
LINE
8
contour007
10
71.850300
20
228.647830
11
71.492608
21
229.508525
0
LINE
8
contour007
10
71.492608
20
229.508525
11
70.926070
21
230.248644
0
LINE
8
contour007
10
70.926070
20
230.248644
11
70.174918
21
230.826215
0
LINE
8
contour007
10
70.174918
20
230.826215
11
69.299150
21
231.187946
0
LINE
8
contour007
10
69.299150
20
231.187946
11
68.374920
21
231.308523
0
LINE
8
contour007
10
68.374920
20
231.308523
11
67.450690
21
231.187946
0
LINE
8
contour007
10
67.450690
20
231.187946
11
66.574922
21
230.826215
0
LINE
8
contour007
10
66.574922
20
230.826215
11
65.823770
21
230.248644
0
LINE
8
contour007
10
65.823770
20
230.248644
11
65.257232
21
229.508525
0
LINE
8
contour007
10
65.257232
20
229.508525
11
64.899540
21
228.647830
0
LINE
8
contour007
10
64.899540
20
228.647830
11
64.774924
21
227.708527
0
LINE
8
contour007
10
64.774924
20
227.708527
11
64.899540
21
226.769225
0
LINE
8
contour007
10
64.899540
20
226.769225
11
65.257232
21
225.908530
0
LINE
8
contour007
10
65.257232
20
225.908530
11
65.823770
21
225.168411
0
LINE
8
contour007
10
65.823770
20
225.168411
11
66.574922
21
224.590840
0
LINE
8
contour007
10
66.574922
20
224.590840
11
67.450690
21
224.229109
0
LINE
8
contour007
10
67.450690
20
224.229109
11
68.374920
21
224.108532
0
LINE
8
contour007
10
68.374920
20
224.108532
11
69.299150
21
224.229109
0
LINE
8
contour007
10
69.299150
20
224.229109
11
70.174918
21
224.590840
0
LINE
8
contour007
10
70.174918
20
224.590840
11
70.926070
21
225.168411
0
LINE
8
contour007
10
70.926070
20
225.168411
11
71.492608
21
225.908530
0
LINE
8
contour007
10
71.492608
20
225.908530
11
71.850300
21
226.769225
0
LINE
8
contour007
10
71.850300
20
226.769225
11
71.974916
21
227.708527
0
LINE
8
contour007
10
71.974916
20
227.708527
11
71.974916
21
227.708527
0
LINE
8
contour007
10
93.974889
20
227.708527
11
93.850273
21
228.647830
0
LINE
8
contour007
10
93.850273
20
228.647830
11
93.492581
21
229.508525
0
LINE
8
contour007
10
93.492581
20
229.508525
11
92.926043
21
230.248644
0
LINE
8
contour007
10
92.926043
20
230.248644
11
92.174891
21
230.826215
0
LINE
8
contour007
10
92.174891
20
230.826215
11
91.299124
21
231.187946
0
LINE
8
contour007
10
91.299124
20
231.187946
11
90.374893
21
231.308523
0
LINE
8
contour007
10
90.374893
20
231.308523
11
89.450663
21
231.187946
0
LINE
8
contour007
10
89.450663
20
231.187946
11
88.574895
21
230.826215
0
LINE
8
contour007
10
88.574895
20
230.826215
11
87.823743
21
230.248644
0
LINE
8
contour007
10
87.823743
20
230.248644
11
87.257206
21
229.508525
0
LINE
8
contour007
10
87.257206
20
229.508525
11
86.899513
21
228.647830
0
LINE
8
contour007
10
86.899513
20
228.647830
11
86.774898
21
227.708527
0
LINE
8
contour007
10
86.774898
20
227.708527
11
86.899513
21
226.769225
0
LINE
8
contour007
10
86.899513
20
226.769225
11
87.257206
21
225.908530
0
LINE
8
contour007
10
87.257206
20
225.908530
11
87.823743
21
225.168411
0
LINE
8
contour007
10
87.823743
20
225.168411
11
88.574895
21
224.590840
0
LINE
8
contour007
10
88.574895
20
224.590840
11
89.450663
21
224.229109
0
LINE
8
contour007
10
89.450663
20
224.229109
11
90.374893
21
224.108532
0
LINE
8
contour007
10
90.374893
20
224.108532
11
91.299124
21
224.229109
0
LINE
8
contour007
10
91.299124
20
224.229109
11
92.174891
21
224.590840
0
LINE
8
contour007
10
92.174891
20
224.590840
11
92.926043
21
225.168411
0
LINE
8
contour007
10
92.926043
20
225.168411
11
93.492581
21
225.908530
0
LINE
8
contour007
10
93.492581
20
225.908530
11
93.850273
21
226.769225
0
LINE
8
contour007
10
93.850273
20
226.769225
11
93.974889
21
227.708527
0
LINE
8
contour007
10
93.974889
20
227.708527
11
93.974889
21
227.708527
0
LINE
8
contour007
10
71.974916
20
202.708559
11
71.850300
21
203.647861
0
LINE
8
contour007
10
71.850300
20
203.647861
11
71.492608
21
204.508557
0
LINE
8
contour007
10
71.492608
20
204.508557
11
70.926070
21
205.248675
0
LINE
8
contour007
10
70.926070
20
205.248675
11
70.174918
21
205.826246
0
LINE
8
contour007
10
70.174918
20
205.826246
11
69.299150
21
206.187977
0
LINE
8
contour007
10
69.299150
20
206.187977
11
68.374920
21
206.308554
0
LINE
8
contour007
10
68.374920
20
206.308554
11
67.450690
21
206.187977
0
LINE
8
contour007
10
67.450690
20
206.187977
11
66.574922
21
205.826246
0
LINE
8
contour007
10
66.574922
20
205.826246
11
65.823770
21
205.248675
0
LINE
8
contour007
10
65.823770
20
205.248675
11
65.257232
21
204.508557
0
LINE
8
contour007
10
65.257232
20
204.508557
11
64.899540
21
203.647861
0
LINE
8
contour007
10
64.899540
20
203.647861
11
64.774924
21
202.708559
0
LINE
8
contour007
10
64.774924
20
202.708559
11
64.899540
21
201.769256
0
LINE
8
contour007
10
64.899540
20
201.769256
11
65.257232
21
200.908561
0
LINE
8
contour007
10
65.257232
20
200.908561
11
65.823770
21
200.168442
0
LINE
8
contour007
10
65.823770
20
200.168442
11
66.574922
21
199.590871
0
LINE
8
contour007
10
66.574922
20
199.590871
11
67.450690
21
199.229140
0
LINE
8
contour007
10
67.450690
20
199.229140
11
68.374920
21
199.108563
0
LINE
8
contour007
10
68.374920
20
199.108563
11
69.299150
21
199.229140
0
LINE
8
contour007
10
69.299150
20
199.229140
11
70.174918
21
199.590871
0
LINE
8
contour007
10
70.174918
20
199.590871
11
70.926070
21
200.168442
0
LINE
8
contour007
10
70.926070
20
200.168442
11
71.492608
21
200.908561
0
LINE
8
contour007
10
71.492608
20
200.908561
11
71.850300
21
201.769256
0
LINE
8
contour007
10
71.850300
20
201.769256
11
71.974916
21
202.708559
0
LINE
8
contour007
10
71.974916
20
202.708559
11
71.974916
21
202.708559
0
LINE
8
contour007
10
93.974889
20
202.708559
11
93.850273
21
203.647861
0
LINE
8
contour007
10
93.850273
20
203.647861
11
93.492581
21
204.508557
0
LINE
8
contour007
10
93.492581
20
204.508557
11
92.926043
21
205.248675
0
LINE
8
contour007
10
92.926043
20
205.248675
11
92.174891
21
205.826246
0
LINE
8
contour007
10
92.174891
20
205.826246
11
91.299124
21
206.187977
0
LINE
8
contour007
10
91.299124
20
206.187977
11
90.374893
21
206.308554
0
LINE
8
contour007
10
90.374893
20
206.308554
11
89.450663
21
206.187977
0
LINE
8
contour007
10
89.450663
20
206.187977
11
88.574895
21
205.826246
0
LINE
8
contour007
10
88.574895
20
205.826246
11
87.823743
21
205.248675
0
LINE
8
contour007
10
87.823743
20
205.248675
11
87.257206
21
204.508557
0
LINE
8
contour007
10
87.257206
20
204.508557
11
86.899513
21
203.647861
0
LINE
8
contour007
10
86.899513
20
203.647861
11
86.774898
21
202.708559
0
LINE
8
contour007
10
86.774898
20
202.708559
11
86.899513
21
201.769256
0
LINE
8
contour007
10
86.899513
20
201.769256
11
87.257206
21
200.908561
0
LINE
8
contour007
10
87.257206
20
200.908561
11
87.823743
21
200.168442
0
LINE
8
contour007
10
87.823743
20
200.168442
11
88.574895
21
199.590871
0
LINE
8
contour007
10
88.574895
20
199.590871
11
89.450663
21
199.229140
0
LINE
8
contour007
10
89.450663
20
199.229140
11
90.374893
21
199.108563
0
LINE
8
contour007
10
90.374893
20
199.108563
11
91.299124
21
199.229140
0
LINE
8
contour007
10
91.299124
20
199.229140
11
92.174891
21
199.590871
0
LINE
8
contour007
10
92.174891
20
199.590871
11
92.926043
21
200.168442
0
LINE
8
contour007
10
92.926043
20
200.168442
11
93.492581
21
200.908561
0
LINE
8
contour007
10
93.492581
20
200.908561
11
93.850273
21
201.769256
0
LINE
8
contour007
10
93.850273
20
201.769256
11
93.974889
21
202.708559
0
LINE
8
contour007
10
93.974889
20
202.708559
11
93.974889
21
202.708559
0
LINE
8
contour007
10
93.374889
20
133.708646
11
93.138506
21
134.875679
0
LINE
8
contour007
10
93.138506
20
134.875679
11
92.495439
21
135.828553
0
LINE
8
contour007
10
92.495439
20
135.828553
11
91.542098
21
136.470927
0
LINE
8
contour007
10
91.542098
20
136.470927
11
90.374893
21
136.706460
0
LINE
8
contour007
10
90.374893
20
136.706460
11
89.207688
21
136.470927
0
LINE
8
contour007
10
89.207688
20
136.470927
11
88.254347
21
135.828553
0
LINE
8
contour007
10
88.254347
20
135.828553
11
87.611280
21
134.875679
0
LINE
8
contour007
10
87.611280
20
134.875679
11
87.374898
21
133.708646
0
LINE
8
contour007
10
87.374898
20
133.708646
11
87.611280
21
132.541613
0
LINE
8
contour007
10
87.611280
20
132.541613
11
88.254347
21
131.588739
0
LINE
8
contour007
10
88.254347
20
131.588739
11
89.207688
21
130.946366
0
LINE
8
contour007
10
89.207688
20
130.946366
11
90.374893
21
130.710832
0
LINE
8
contour007
10
90.374893
20
130.710832
11
91.542098
21
130.946366
0
LINE
8
contour007
10
91.542098
20
130.946366
11
92.495439
21
131.588739
0
LINE
8
contour007
10
92.495439
20
131.588739
11
93.138506
21
132.541613
0
LINE
8
contour007
10
93.138506
20
132.541613
11
93.374889
21
133.708646
0
LINE
8
contour007
10
93.374889
20
133.708646
11
93.374889
21
133.708646
0
LINE
8
contour007
10
71.374918
20
149.708626
11
71.271072
21
150.491378
0
LINE
8
contour007
10
71.271072
20
150.491378
11
70.972995
21
151.208624
0
LINE
8
contour007
10
70.972995
20
151.208624
11
70.500880
21
151.825389
0
LINE
8
contour007
10
70.500880
20
151.825389
11
69.874920
21
152.306699
0
LINE
8
contour007
10
69.874920
20
152.306699
11
69.145113
21
152.608142
0
LINE
8
contour007
10
69.145113
20
152.608142
11
68.374921
21
152.708622
0
LINE
8
contour007
10
68.374921
20
152.708622
11
67.604729
21
152.608142
0
LINE
8
contour007
10
67.604729
20
152.608142
11
66.874923
21
152.306699
0
LINE
8
contour007
10
66.874923
20
152.306699
11
66.248963
21
151.825389
0
LINE
8
contour007
10
66.248963
20
151.825389
11
65.776848
21
151.208624
0
LINE
8
contour007
10
65.776848
20
151.208624
11
65.478771
21
150.491378
0
LINE
8
contour007
10
65.478771
20
150.491378
11
65.374924
21
149.708626
0
LINE
8
contour007
10
65.374924
20
149.708626
11
65.478771
21
148.925873
0
LINE
8
contour007
10
65.478771
20
148.925873
11
65.776848
21
148.208627
0
LINE
8
contour007
10
65.776848
20
148.208627
11
66.248963
21
147.591862
0
LINE
8
contour007
10
66.248963
20
147.591862
11
66.874923
21
147.110552
0
LINE
8
contour007
10
66.874923
20
147.110552
11
67.604729
21
146.809110
0
LINE
8
contour007
10
67.604729
20
146.809110
11
68.374921
21
146.708629
0
LINE
8
contour007
10
68.374921
20
146.708629
11
69.145113
21
146.809110
0
LINE
8
contour007
10
69.145113
20
146.809110
11
69.874920
21
147.110552
0
LINE
8
contour007
10
69.874920
20
147.110552
11
70.500880
21
147.591862
0
LINE
8
contour007
10
70.500880
20
147.591862
11
70.972995
21
148.208627
0
LINE
8
contour007
10
70.972995
20
148.208627
11
71.271072
21
148.925873
0
LINE
8
contour007
10
71.271072
20
148.925873
11
71.374918
21
149.708626
0
LINE
8
contour007
10
71.374918
20
149.708626
11
71.374918
21
149.708626
0
LINE
8
contour007
10
93.374889
20
149.708626
11
93.138506
21
150.875659
0
LINE
8
contour007
10
93.138506
20
150.875659
11
92.495439
21
151.828532
0
LINE
8
contour007
10
92.495439
20
151.828532
11
91.542098
21
152.470906
0
LINE
8
contour007
10
91.542098
20
152.470906
11
90.374893
21
152.706440
0
LINE
8
contour007
10
90.374893
20
152.706440
11
89.207688
21
152.470906
0
LINE
8
contour007
10
89.207688
20
152.470906
11
88.254347
21
151.828532
0
LINE
8
contour007
10
88.254347
20
151.828532
11
87.611280
21
150.875659
0
LINE
8
contour007
10
87.611280
20
150.875659
11
87.374898
21
149.708626
0
LINE
8
contour007
10
87.374898
20
149.708626
11
87.611280
21
148.541592
0
LINE
8
contour007
10
87.611280
20
148.541592
11
88.254347
21
147.588719
0
LINE
8
contour007
10
88.254347
20
147.588719
11
89.207688
21
146.946345
0
LINE
8
contour007
10
89.207688
20
146.946345
11
90.374893
21
146.710812
0
LINE
8
contour007
10
90.374893
20
146.710812
11
91.542098
21
146.946345
0
LINE
8
contour007
10
91.542098
20
146.946345
11
92.495439
21
147.588719
0
LINE
8
contour007
10
92.495439
20
147.588719
11
93.138506
21
148.541592
0
LINE
8
contour007
10
93.138506
20
148.541592
11
93.374889
21
149.708626
0
LINE
8
contour007
10
93.374889
20
149.708626
11
93.374889
21
149.708626
0
LINE
8
contour007
10
82.524903
20
184.708580
11
82.276836
21
185.934115
0
LINE
8
contour007
10
82.276836
20
185.934115
11
81.601646
21
186.934784
0
LINE
8
contour007
10
81.601646
20
186.934784
11
80.600586
21
187.609393
0
LINE
8
contour007
10
80.600586
20
187.609393
11
79.374908
21
187.856751
0
LINE
8
contour007
10
79.374908
20
187.856751
11
78.149230
21
187.609393
0
LINE
8
contour007
10
78.149230
20
187.609393
11
77.148170
21
186.934784
0
LINE
8
contour007
10
77.148170
20
186.934784
11
76.472980
21
185.934115
0
LINE
8
contour007
10
76.472980
20
185.934115
11
76.224912
21
184.708580
0
LINE
8
contour007
10
76.224912
20
184.708580
11
76.472980
21
183.483046
0
LINE
8
contour007
10
76.472980
20
183.483046
11
77.148170
21
182.482377
0
LINE
8
contour007
10
77.148170
20
182.482377
11
78.149230
21
181.807767
0
LINE
8
contour007
10
78.149230
20
181.807767
11
79.374908
21
181.560410
0
LINE
8
contour007
10
79.374908
20
181.560410
11
80.600586
21
181.807767
0
LINE
8
contour007
10
80.600586
20
181.807767
11
81.601646
21
182.482377
0
LINE
8
contour007
10
81.601646
20
182.482377
11
82.276836
21
183.483046
0
LINE
8
contour007
10
82.276836
20
183.483046
11
82.524903
21
184.708580
0
LINE
8
contour007
10
82.524903
20
184.708580
11
82.524903
21
184.708580
0
LINE
8
contour007
10
71.374918
20
133.708646
11
71.271072
21
134.491398
0
LINE
8
contour007
10
71.271072
20
134.491398
11
70.972995
21
135.208644
0
LINE
8
contour007
10
70.972995
20
135.208644
11
70.500880
21
135.825410
0
LINE
8
contour007
10
70.500880
20
135.825410
11
69.874920
21
136.306720
0
LINE
8
contour007
10
69.874920
20
136.306720
11
69.145113
21
136.608162
0
LINE
8
contour007
10
69.145113
20
136.608162
11
68.374921
21
136.708643
0
LINE
8
contour007
10
68.374921
20
136.708643
11
67.604729
21
136.608162
0
LINE
8
contour007
10
67.604729
20
136.608162
11
66.874923
21
136.306720
0
LINE
8
contour007
10
66.874923
20
136.306720
11
66.248963
21
135.825410
0
LINE
8
contour007
10
66.248963
20
135.825410
11
65.776848
21
135.208644
0
LINE
8
contour007
10
65.776848
20
135.208644
11
65.478771
21
134.491398
0
LINE
8
contour007
10
65.478771
20
134.491398
11
65.374924
21
133.708646
0
LINE
8
contour007
10
65.374924
20
133.708646
11
65.478771
21
132.925894
0
LINE
8
contour007
10
65.478771
20
132.925894
11
65.776848
21
132.208648
0
LINE
8
contour007
10
65.776848
20
132.208648
11
66.248963
21
131.591882
0
LINE
8
contour007
10
66.248963
20
131.591882
11
66.874923
21
131.110573
0
LINE
8
contour007
10
66.874923
20
131.110573
11
67.604729
21
130.809130
0
LINE
8
contour007
10
67.604729
20
130.809130
11
68.374921
21
130.708649
0
LINE
8
contour007
10
68.374921
20
130.708649
11
69.145113
21
130.809130
0
LINE
8
contour007
10
69.145113
20
130.809130
11
69.874920
21
131.110573
0
LINE
8
contour007
10
69.874920
20
131.110573
11
70.500880
21
131.591882
0
LINE
8
contour007
10
70.500880
20
131.591882
11
70.972995
21
132.208648
0
LINE
8
contour007
10
70.972995
20
132.208648
11
71.271072
21
132.925894
0
LINE
8
contour007
10
71.271072
20
132.925894
11
71.374918
21
133.708646
0
LINE
8
contour007
10
71.374918
20
133.708646
11
71.374918
21
133.708646
0
LINE
8
contour007
10
84.124900
20
164.708606
11
84.028121
21
165.665649
0
LINE
8
contour007
10
84.028121
20
165.665649
11
83.751166
21
166.557009
0
LINE
8
contour007
10
83.751166
20
166.557009
11
83.313128
21
167.363599
0
LINE
8
contour007
10
83.313128
20
167.363599
11
82.733099
21
168.066334
0
LINE
8
contour007
10
82.733099
20
168.066334
11
82.030170
21
168.646128
0
LINE
8
contour007
10
82.030170
20
168.646128
11
81.223434
21
169.083897
0
LINE
8
contour007
10
81.223434
20
169.083897
11
80.331982
21
169.360554
0
LINE
8
contour007
10
80.331982
20
169.360554
11
79.374907
21
169.457014
0
LINE
8
contour007
10
79.374907
20
169.457014
11
78.417831
21
169.360554
0
LINE
8
contour007
10
78.417831
20
169.360554
11
77.526379
21
169.083897
0
LINE
8
contour007
10
77.526379
20
169.083897
11
76.719643
21
168.646128
0
LINE
8
contour007
10
76.719643
20
168.646128
11
76.016714
21
168.066334
0
LINE
8
contour007
10
76.016714
20
168.066334
11
75.436685
21
167.363599
0
LINE
8
contour007
10
75.436685
20
167.363599
11
74.998647
21
166.557009
0
LINE
8
contour007
10
74.998647
20
166.557009
11
74.721693
21
165.665649
0
LINE
8
contour007
10
74.721693
20
165.665649
11
74.624913
21
164.708606
0
LINE
8
contour007
10
74.624913
20
164.708606
11
74.721693
21
163.751562
0
LINE
8
contour007
10
74.721693
20
163.751562
11
74.998647
21
162.860203
0
LINE
8
contour007
10
74.998647
20
162.860203
11
75.436685
21
162.053613
0
LINE
8
contour007
10
75.436685
20
162.053613
11
76.016714
21
161.350878
0
LINE
8
contour007
10
76.016714
20
161.350878
11
76.719643
21
160.771083
0
LINE
8
contour007
10
76.719643
20
160.771083
11
77.526379
21
160.333315
0
LINE
8
contour007
10
77.526379
20
160.333315
11
78.417831
21
160.056657
0
LINE
8
contour007
10
78.417831
20
160.056657
11
79.374907
21
159.960197
0
LINE
8
contour007
10
79.374907
20
159.960197
11
80.331982
21
160.056657
0
LINE
8
contour007
10
80.331982
20
160.056657
11
81.223434
21
160.333315
0
LINE
8
contour007
10
81.223434
20
160.333315
11
82.030170
21
160.771083
0
LINE
8
contour007
10
82.030170
20
160.771083
11
82.733099
21
161.350878
0
LINE
8
contour007
10
82.733099
20
161.350878
11
83.313128
21
162.053613
0
LINE
8
contour007
10
83.313128
20
162.053613
11
83.751166
21
162.860203
0
LINE
8
contour007
10
83.751166
20
162.860203
11
84.028121
21
163.751562
0
LINE
8
contour007
10
84.028121
20
163.751562
11
84.124900
21
164.708606
0
LINE
8
contour007
10
84.124900
20
164.708606
11
84.124900
21
164.708606
0
LINE
8
reference_cross001
10
69.124915
20
227.708623
11
67.624914
21
227.708623
0
LINE
8
reference_cross001
10
68.374928
20
226.958530
11
68.374928
21
228.458451
0
LINE
8
reference_cross001
10
91.124912
20
227.708623
11
89.624991
21
227.708623
0
LINE
8
reference_cross001
10
90.374819
20
226.958530
11
90.374819
21
228.458451
0
LINE
8
reference_cross001
10
69.124915
20
202.708440
11
67.624914
21
202.708440
0
LINE
8
reference_cross001
10
68.374928
20
201.958611
11
68.374928
21
203.458532
0
LINE
8
reference_cross001
10
91.124912
20
202.708440
11
89.624991
21
202.708440
0
LINE
8
reference_cross001
10
90.374819
20
201.958611
11
90.374819
21
203.458532
0
LINE
8
reference_cross001
10
91.124912
20
133.708104
11
89.624991
21
133.708104
0
LINE
8
reference_cross001
10
90.374819
20
132.959334
11
90.374819
21
134.459519
0
LINE
8
reference_cross001
10
69.124915
20
149.708496
11
67.624914
21
149.708496
0
LINE
8
reference_cross001
10
68.374928
20
148.958668
11
68.374928
21
150.458589
0
LINE
8
reference_cross001
10
91.124912
20
149.708496
11
89.624991
21
149.708496
0
LINE
8
reference_cross001
10
90.374819
20
148.958668
11
90.374819
21
150.458589
0
LINE
8
reference_cross001
10
80.124900
20
184.708594
11
78.624900
21
184.708594
0
LINE
8
reference_cross001
10
79.374913
20
183.958501
11
79.374913
21
185.458686
0
LINE
8
reference_cross001
10
69.124915
20
133.708104
11
67.624914
21
133.708104
0
LINE
8
reference_cross001
10
68.374928
20
132.959334
11
68.374928
21
134.459519
0
LINE
8
reference_cross001
10
80.124900
20
164.708500
11
78.624900
21
164.708500
0
LINE
8
reference_cross001
10
79.374913
20
163.958672
11
79.374913
21
165.458593
0
LINE
8
reference_cross001
10
72.175536
20
237.472029
11
71.109282
21
237.472029
0
LINE
8
reference_cross001
10
71.109282
20
237.472029
11
71.109282
21
236.832969
0
LINE
8
reference_cross001
10
71.109282
20
236.832969
11
72.144529
21
236.832969
0
LINE
8
reference_cross001
10
72.144529
20
236.832969
11
72.144529
21
236.455731
0
LINE
8
reference_cross001
10
72.144529
20
236.455731
11
71.109282
21
236.455731
0
LINE
8
reference_cross001
10
71.109282
20
236.455731
11
71.109282
21
235.566899
0
LINE
8
reference_cross001
10
71.109282
20
235.566899
11
72.175536
21
235.566899
0
LINE
8
reference_cross001
10
72.175536
20
235.566899
11
72.175536
21
235.189662
0
LINE
8
reference_cross001
10
72.175536
20
235.189662
11
70.707931
21
235.189662
0
LINE
8
reference_cross001
10
70.707931
20
235.189662
11
70.707931
21
237.849266
0
LINE
8
reference_cross001
10
70.707931
20
237.849266
11
72.175536
21
237.849266
0
LINE
8
reference_cross001
10
72.175536
20
237.849266
11
72.175536
21
237.472029
0
LINE
8
reference_cross001
10
72.702633
20
235.189662
11
72.702633
21
238.030133
0
LINE
8
reference_cross001
10
72.702633
20
238.030133
11
74.642214
21
236.000979
0
LINE
8
reference_cross001
10
74.642214
20
236.000979
11
74.642214
21
237.849266
0
LINE
8
reference_cross001
10
74.642214
20
237.849266
11
75.043565
21
237.849266
0
LINE
8
reference_cross001
10
75.043565
20
237.849266
11
75.043565
21
235.027745
0
LINE
8
reference_cross001
10
75.043565
20
235.027745
11
73.103984
21
237.051731
0
LINE
8
reference_cross001
10
73.103984
20
237.051731
11
73.103984
21
235.189662
0
LINE
8
reference_cross001
10
73.103984
20
235.189662
11
72.702633
21
235.189662
0
LINE
8
reference_cross001
10
75.815264
20
237.849266
11
76.550789
21
236.006147
0
LINE
8
reference_cross001
10
76.550789
20
236.006147
11
77.296651
21
237.849266
0
LINE
8
reference_cross001
10
77.296651
20
237.849266
11
77.735898
21
237.849266
0
LINE
8
reference_cross001
10
77.735898
20
237.849266
11
76.542177
21
234.989849
0
LINE
8
reference_cross001
10
76.542177
20
234.989849
11
75.376016
21
237.849266
0
LINE
8
reference_cross001
10
75.376016
20
237.849266
11
75.815264
21
237.849266
0
LINE
8
reference_cross001
10
79.534232
20
237.472029
11
78.467978
21
237.472029
0
LINE
8
reference_cross001
10
78.467978
20
237.472029
11
78.467978
21
236.832969
0
LINE
8
reference_cross001
10
78.467978
20
236.832969
11
79.503225
21
236.832969
0
LINE
8
reference_cross001
10
79.503225
20
236.832969
11
79.503225
21
236.455731
0
LINE
8
reference_cross001
10
79.503225
20
236.455731
11
78.467978
21
236.455731
0
LINE
8
reference_cross001
10
78.467978
20
236.455731
11
78.467978
21
235.566899
0
LINE
8
reference_cross001
10
78.467978
20
235.566899
11
79.534232
21
235.566899
0
LINE
8
reference_cross001
10
79.534232
20
235.566899
11
79.534232
21
235.189662
0
LINE
8
reference_cross001
10
79.534232
20
235.189662
11
78.066627
21
235.189662
0
LINE
8
reference_cross001
10
78.066627
20
235.189662
11
78.066627
21
237.849266
0
LINE
8
reference_cross001
10
78.066627
20
237.849266
11
79.534232
21
237.849266
0
LINE
8
reference_cross001
10
79.534232
20
237.849266
11
79.534232
21
237.472029
0
LINE
8
reference_cross001
10
80.462680
20
237.849266
11
80.462680
21
235.566899
0
LINE
8
reference_cross001
10
80.462680
20
235.566899
11
81.244713
21
235.566899
0
LINE
8
reference_cross001
10
81.244713
20
235.566899
11
81.244713
21
235.189662
0
LINE
8
reference_cross001
10
81.244713
20
235.189662
11
80.061329
21
235.189662
0
LINE
8
reference_cross001
10
80.061329
20
235.189662
11
80.061329
21
237.849266
0
LINE
8
reference_cross001
10
80.061329
20
237.849266
11
80.462680
21
237.849266
0
LINE
8
reference_cross001
10
81.384241
20
236.531524
11
81.487163
21
237.053454
0
LINE
8
reference_cross001
10
81.487163
20
237.053454
11
81.795927
21
237.496146
0
LINE
8
reference_cross001
10
81.795927
20
237.496146
11
82.247234
21
237.798451
0
LINE
8
reference_cross001
10
82.247234
20
237.798451
11
82.781221
21
237.899220
0
LINE
8
reference_cross001
10
82.781221
20
237.899220
11
83.309180
21
237.797590
0
LINE
8
reference_cross001
10
83.309180
20
237.797590
11
83.756180
21
237.492701
0
LINE
8
reference_cross001
10
83.756180
20
237.492701
11
84.062361
21
237.045270
0
LINE
8
reference_cross001
10
84.062361
20
237.045270
11
84.164421
21
236.516019
0
LINE
8
reference_cross001
10
84.164421
20
236.516019
11
84.061930
21
235.985908
0
LINE
8
reference_cross001
10
84.061930
20
235.985908
11
83.754458
21
235.542785
0
LINE
8
reference_cross001
10
83.754458
20
235.542785
11
83.300137
21
235.241770
0
LINE
8
reference_cross001
10
83.300137
20
235.241770
11
82.760552
21
235.141431
0
LINE
8
reference_cross001
10
82.760552
20
235.141431
11
82.271780
21
235.230573
0
LINE
8
reference_cross001
10
82.271780
20
235.230573
11
81.835546
21
235.497999
0
LINE
8
reference_cross001
10
81.835546
20
235.497999
11
81.497067
21
235.953611
0
LINE
8
reference_cross001
10
81.497067
20
235.953611
11
81.384241
21
236.531524
0
LINE
8
reference_cross001
10
81.384241
20
236.531524
11
81.384241
21
236.531524
0
LINE
8
reference_cross001
10
81.789037
20
236.526364
11
81.863107
21
236.124583
0
LINE
8
reference_cross001
10
81.863107
20
236.124583
11
82.085315
21
235.801177
0
LINE
8
reference_cross001
10
82.085315
20
235.801177
11
82.765719
21
235.516957
0
LINE
8
reference_cross001
10
82.765719
20
235.516957
11
83.151567
21
235.589303
0
LINE
8
reference_cross001
10
83.151567
20
235.589303
11
83.471960
21
235.806344
0
LINE
8
reference_cross001
10
83.471960
20
235.806344
11
83.687709
21
236.131043
0
LINE
8
reference_cross001
10
83.687709
20
236.131043
11
83.759625
21
236.519475
0
LINE
8
reference_cross001
10
83.759625
20
236.519475
11
83.688570
21
236.910492
0
LINE
8
reference_cross001
10
83.688570
20
236.910492
11
83.475405
21
237.232608
0
LINE
8
reference_cross001
10
83.475405
20
237.232608
11
83.159319
21
237.449649
0
LINE
8
reference_cross001
10
83.159319
20
237.449649
11
82.776054
21
237.521996
0
LINE
8
reference_cross001
10
82.776054
20
237.521996
11
82.393219
21
237.449649
0
LINE
8
reference_cross001
10
82.393219
20
237.449649
11
82.074980
21
237.232608
0
LINE
8
reference_cross001
10
82.074980
20
237.232608
11
81.860523
21
236.913076
0
LINE
8
reference_cross001
10
81.860523
20
236.913076
11
81.789037
21
236.526364
0
LINE
8
reference_cross001
10
81.789037
20
236.526364
11
81.789037
21
236.526364
0
LINE
8
reference_cross001
10
85.070478
20
236.269706
11
85.070478
21
235.189673
0
LINE
8
reference_cross001
10
85.070478
20
235.189673
11
84.669126
21
235.189673
0
LINE
8
reference_cross001
10
84.669126
20
235.189673
11
84.669126
21
237.849277
0
LINE
8
reference_cross001
10
84.669126
20
237.849277
11
85.123876
21
237.849277
0
LINE
8
reference_cross001
10
85.123876
20
237.849277
11
85.628581
21
237.802768
0
LINE
8
reference_cross001
10
85.628581
20
237.802768
11
85.931748
21
237.627069
0
LINE
8
reference_cross001
10
85.931748
20
237.627069
11
86.160848
21
237.062076
0
LINE
8
reference_cross001
10
86.160848
20
237.062076
11
85.916246
21
236.483301
0
LINE
8
reference_cross001
10
85.916246
20
236.483301
11
85.256514
21
236.269706
0
LINE
8
reference_cross001
10
85.256514
20
236.269706
11
85.070478
21
236.269706
0
LINE
8
reference_cross001
10
85.070478
20
236.641776
11
85.220340
21
236.641776
0
LINE
8
reference_cross001
10
85.220340
20
236.641776
11
85.635042
21
236.748143
0
LINE
8
reference_cross001
10
85.635042
20
236.748143
11
85.773276
21
237.067244
0
LINE
8
reference_cross001
10
85.773276
20
237.067244
11
85.630736
21
237.376010
0
LINE
8
reference_cross001
10
85.630736
20
237.376010
11
85.203113
21
237.478932
0
LINE
8
reference_cross001
10
85.203113
20
237.478932
11
85.070478
21
237.478932
0
LINE
8
reference_cross001
10
85.070478
20
237.478932
11
85.070478
21
236.641776
0
LINE
8
reference_cross001
10
88.041861
20
237.472040
11
86.975610
21
237.472040
0
LINE
8
reference_cross001
10
86.975610
20
237.472040
11
86.975610
21
236.832979
0
LINE
8
reference_cross001
10
86.975610
20
236.832979
11
88.010857
21
236.832979
0
LINE
8
reference_cross001
10
88.010857
20
236.832979
11
88.010857
21
236.455742
0
LINE
8
reference_cross001
10
88.010857
20
236.455742
11
86.975610
21
236.455742
0
LINE
8
reference_cross001
10
86.975610
20
236.455742
11
86.975610
21
235.566910
0
LINE
8
reference_cross001
10
86.975610
20
235.566910
11
88.041861
21
235.566910
0
LINE
8
reference_cross001
10
88.041861
20
235.566910
11
88.041861
21
235.189673
0
LINE
8
reference_cross001
10
88.041861
20
235.189673
11
86.574256
21
235.189673
0
LINE
8
reference_cross001
10
86.574256
20
235.189673
11
86.574256
21
237.849277
0
LINE
8
reference_cross001
10
86.574256
20
237.849277
11
88.041861
21
237.849277
0
LINE
8
reference_cross001
10
88.041861
20
237.849277
11
88.041861
21
237.472040
0
LINE
8
reference_cross001
10
63.720617
20
219.647072
11
62.582018
21
219.647072
0
LINE
8
reference_cross001
10
62.582018
20
219.647072
11
62.285741
21
219.001119
0
LINE
8
reference_cross001
10
62.285741
20
219.001119
11
61.853383
21
219.001119
0
LINE
8
reference_cross001
10
61.853383
20
219.001119
11
63.169406
21
221.827810
0
LINE
8
reference_cross001
10
63.169406
20
221.827810
11
64.438917
21
219.001119
0
LINE
8
reference_cross001
10
64.438917
20
219.001119
11
63.999670
21
219.001119
0
LINE
8
reference_cross001
10
63.999670
20
219.001119
11
63.720617
21
219.647072
0
LINE
8
reference_cross001
10
63.556977
20
220.024310
11
63.162513
21
220.928644
0
LINE
8
reference_cross001
10
63.162513
20
220.928644
11
62.749105
21
220.024310
0
LINE
8
reference_cross001
10
62.749105
20
220.024310
11
63.556977
21
220.024310
0
LINE
8
reference_cross001
10
65.357031
20
221.283486
11
65.357031
21
219.001119
0
LINE
8
reference_cross001
10
65.357031
20
219.001119
11
64.955679
21
219.001119
0
LINE
8
reference_cross001
10
64.955679
20
219.001119
11
64.955679
21
221.283486
0
LINE
8
reference_cross001
10
64.955679
20
221.283486
11
64.344178
21
221.283486
0
LINE
8
reference_cross001
10
64.344178
20
221.283486
11
64.344178
21
221.660724
0
LINE
8
reference_cross001
10
64.344178
20
221.660724
11
65.966813
21
221.660724
0
LINE
8
reference_cross001
10
65.966813
20
221.660724
11
65.966813
21
221.283486
0
LINE
8
reference_cross001
10
65.966813
20
221.283486
11
65.357031
21
221.283486
0
LINE
8
reference_cross001
10
67.058903
20
221.283486
11
67.058903
21
219.001119
0
LINE
8
reference_cross001
10
67.058903
20
219.001119
11
66.657551
21
219.001119
0
LINE
8
reference_cross001
10
66.657551
20
219.001119
11
66.657551
21
221.283486
0
LINE
8
reference_cross001
10
66.657551
20
221.283486
11
66.046047
21
221.283486
0
LINE
8
reference_cross001
10
66.046047
20
221.283486
11
66.046047
21
221.660724
0
LINE
8
reference_cross001
10
66.046047
20
221.660724
11
67.668682
21
221.660724
0
LINE
8
reference_cross001
10
67.668682
20
221.660724
11
67.668682
21
221.283486
0
LINE
8
reference_cross001
10
67.668682
20
221.283486
11
67.058903
21
221.283486
0
LINE
8
reference_cross001
10
69.444621
20
219.647072
11
68.306023
21
219.647072
0
LINE
8
reference_cross001
10
68.306023
20
219.647072
11
68.009745
21
219.001119
0
LINE
8
reference_cross001
10
68.009745
20
219.001119
11
67.577387
21
219.001119
0
LINE
8
reference_cross001
10
67.577387
20
219.001119
11
68.893410
21
221.827810
0
LINE
8
reference_cross001
10
68.893410
20
221.827810
11
70.162922
21
219.001119
0
LINE
8
reference_cross001
10
70.162922
20
219.001119
11
69.723674
21
219.001119
0
LINE
8
reference_cross001
10
69.723674
20
219.001119
11
69.444621
21
219.647072
0
LINE
8
reference_cross001
10
69.280982
20
220.024310
11
68.886518
21
220.928644
0
LINE
8
reference_cross001
10
68.886518
20
220.928644
11
68.473109
21
220.024310
0
LINE
8
reference_cross001
10
68.473109
20
220.024310
11
69.280982
21
220.024310
0
LINE
8
reference_cross001
10
72.336770
20
221.517754
11
72.336770
21
221.042332
0
LINE
8
reference_cross001
10
72.336770
20
221.042332
11
71.616747
21
221.333442
0
LINE
8
reference_cross001
10
71.616747
20
221.333442
11
71.239079
21
221.259804
0
LINE
8
reference_cross001
10
71.239079
20
221.259804
11
70.926008
21
221.038887
0
LINE
8
reference_cross001
10
70.926008
20
221.038887
11
70.714135
21
220.713327
0
LINE
8
reference_cross001
10
70.714135
20
220.713327
11
70.643510
21
220.322309
0
LINE
8
reference_cross001
10
70.643510
20
220.322309
11
70.714135
21
219.936460
0
LINE
8
reference_cross001
10
70.714135
20
219.936460
11
70.926008
21
219.616069
0
LINE
8
reference_cross001
10
70.926008
20
219.616069
11
71.240371
21
219.400320
0
LINE
8
reference_cross001
10
71.240371
20
219.400320
11
71.618469
21
219.328403
0
LINE
8
reference_cross001
10
71.618469
20
219.328403
11
71.978480
21
219.397306
0
LINE
8
reference_cross001
10
71.978480
20
219.397306
11
72.149011
21
219.490323
0
LINE
8
reference_cross001
10
72.149011
20
219.490323
11
72.336770
21
219.631570
0
LINE
8
reference_cross001
10
72.336770
20
219.631570
11
72.336770
21
219.147537
0
LINE
8
reference_cross001
10
72.336770
20
219.147537
11
71.613302
21
218.952889
0
LINE
8
reference_cross001
10
71.613302
20
218.952889
11
71.084913
21
219.052366
0
LINE
8
reference_cross001
10
71.084913
20
219.052366
11
70.640065
21
219.350798
0
LINE
8
reference_cross001
10
70.640065
20
219.350798
11
70.339052
21
219.793490
0
LINE
8
reference_cross001
10
70.339052
20
219.793490
11
70.238714
21
220.318865
0
LINE
8
reference_cross001
10
70.238714
20
220.318865
11
70.322688
21
220.799454
0
LINE
8
reference_cross001
10
70.322688
20
220.799454
11
70.574610
21
221.224921
0
LINE
8
reference_cross001
10
70.574610
20
221.224921
11
71.048738
21
221.590530
0
LINE
8
reference_cross001
10
71.048738
20
221.590530
11
71.644306
21
221.712399
0
LINE
8
reference_cross001
10
71.644306
20
221.712399
11
72.336770
21
221.517754
0
LINE
8
reference_cross001
10
72.336770
20
221.517754
11
72.336770
21
221.517754
0
LINE
8
reference_cross001
10
73.318616
20
220.599640
11
74.353863
21
221.660724
0
LINE
8
reference_cross001
10
74.353863
20
221.660724
11
74.889575
21
221.660724
0
LINE
8
reference_cross001
10
74.889575
20
221.660724
11
73.687241
21
220.456667
0
LINE
8
reference_cross001
10
73.687241
20
220.456667
11
74.896465
21
219.001119
0
LINE
8
reference_cross001
10
74.896465
20
219.001119
11
74.359033
21
219.001119
0
LINE
8
reference_cross001
10
74.359033
20
219.001119
11
73.401298
21
220.184507
0
LINE
8
reference_cross001
10
73.401298
20
220.184507
11
73.318616
21
220.101824
0
LINE
8
reference_cross001
10
73.318616
20
220.101824
11
73.318616
21
219.001119
0
LINE
8
reference_cross001
10
73.318616
20
219.001119
11
72.917265
21
219.001119
0
LINE
8
reference_cross001
10
72.917265
20
219.001119
11
72.917265
21
221.660724
0
LINE
8
reference_cross001
10
72.917265
20
221.660724
11
73.318616
21
221.660724
0
LINE
8
reference_cross001
10
73.318616
20
221.660724
11
73.318616
21
220.599640
0
LINE
8
reference_cross001
10
84.733494
20
219.008065
11
84.733494
21
221.667669
0
LINE
8
reference_cross001
10
84.733494
20
221.667669
11
85.291598
21
221.667669
0
LINE
8
reference_cross001
10
85.291598
20
221.667669
11
85.925491
21
221.588432
0
LINE
8
reference_cross001
10
85.925491
20
221.588432
11
86.378520
21
221.324883
0
LINE
8
reference_cross001
10
86.378520
20
221.324883
11
86.687287
21
220.890372
0
LINE
8
reference_cross001
10
86.687287
20
220.890372
11
86.790209
21
220.337867
0
LINE
8
reference_cross001
10
86.790209
20
220.337867
11
86.682981
21
219.783209
0
LINE
8
reference_cross001
10
86.682981
20
219.783209
11
86.361296
21
219.345683
0
LINE
8
reference_cross001
10
86.361296
20
219.345683
11
85.909989
21
219.082135
0
LINE
8
reference_cross001
10
85.909989
20
219.082135
11
85.284708
21
219.008065
0
LINE
8
reference_cross001
10
85.284708
20
219.008065
11
84.733494
21
219.008065
0
LINE
8
reference_cross001
10
85.134845
20
219.385302
11
85.315712
21
219.385302
0
LINE
8
reference_cross001
10
85.315712
20
219.385302
11
85.765296
21
219.442145
0
LINE
8
reference_cross001
10
85.765296
20
219.442145
11
86.089133
21
219.633346
0
LINE
8
reference_cross001
10
86.089133
20
219.633346
11
86.311341
21
219.944697
0
LINE
8
reference_cross001
10
86.311341
20
219.944697
11
86.385410
21
220.337867
0
LINE
8
reference_cross001
10
86.385410
20
220.337867
11
86.312202
21
220.734051
0
LINE
8
reference_cross001
10
86.312202
20
220.734051
11
86.092578
21
221.047553
0
LINE
8
reference_cross001
10
86.092578
20
221.047553
11
85.766587
21
221.229712
0
LINE
8
reference_cross001
10
85.766587
20
221.229712
11
85.315712
21
221.290432
0
LINE
8
reference_cross001
10
85.315712
20
221.290432
11
85.134845
21
221.290432
0
LINE
8
reference_cross001
10
85.134845
20
221.290432
11
85.134845
21
219.385302
0
LINE
8
reference_cross001
10
88.762517
20
221.290432
11
87.696266
21
221.290432
0
LINE
8
reference_cross001
10
87.696266
20
221.290432
11
87.696266
21
220.651369
0
LINE
8
reference_cross001
10
87.696266
20
220.651369
11
88.731513
21
220.651369
0
LINE
8
reference_cross001
10
88.731513
20
220.651369
11
88.731513
21
220.274131
0
LINE
8
reference_cross001
10
88.731513
20
220.274131
11
87.696266
21
220.274131
0
LINE
8
reference_cross001
10
87.696266
20
220.274131
11
87.696266
21
219.385302
0
LINE
8
reference_cross001
10
87.696266
20
219.385302
11
88.762517
21
219.385302
0
LINE
8
reference_cross001
10
88.762517
20
219.385302
11
88.762517
21
219.008065
0
LINE
8
reference_cross001
10
88.762517
20
219.008065
11
87.294912
21
219.008065
0
LINE
8
reference_cross001
10
87.294912
20
219.008065
11
87.294912
21
221.667669
0
LINE
8
reference_cross001
10
87.294912
20
221.667669
11
88.762517
21
221.667669
0
LINE
8
reference_cross001
10
88.762517
20
221.667669
11
88.762517
21
221.290432
0
LINE
8
reference_cross001
10
91.255034
20
221.524696
11
91.255034
21
221.049275
0
LINE
8
reference_cross001
10
91.255034
20
221.049275
11
90.535014
21
221.340385
0
LINE
8
reference_cross001
10
90.535014
20
221.340385
11
90.157346
21
221.266746
0
LINE
8
reference_cross001
10
90.157346
20
221.266746
11
89.844275
21
221.045830
0
LINE
8
reference_cross001
10
89.844275
20
221.045830
11
89.632401
21
220.720270
0
LINE
8
reference_cross001
10
89.632401
20
220.720270
11
89.561777
21
220.329255
0
LINE
8
reference_cross001
10
89.561777
20
220.329255
11
89.632401
21
219.943405
0
LINE
8
reference_cross001
10
89.632401
20
219.943405
11
89.844275
21
219.623011
0
LINE
8
reference_cross001
10
89.844275
20
219.623011
11
90.158638
21
219.407264
0
LINE
8
reference_cross001
10
90.158638
20
219.407264
11
90.536736
21
219.335349
0
LINE
8
reference_cross001
10
90.536736
20
219.335349
11
90.896746
21
219.404249
0
LINE
8
reference_cross001
10
90.896746
20
219.404249
11
91.067278
21
219.497265
0
LINE
8
reference_cross001
10
91.067278
20
219.497265
11
91.255034
21
219.638516
0
LINE
8
reference_cross001
10
91.255034
20
219.638516
11
91.255034
21
219.154480
0
LINE
8
reference_cross001
10
91.255034
20
219.154480
11
90.531566
21
218.959834
0
LINE
8
reference_cross001
10
90.531566
20
218.959834
11
90.003177
21
219.059311
0
LINE
8
reference_cross001
10
90.003177
20
219.059311
11
89.558332
21
219.357740
0
LINE
8
reference_cross001
10
89.558332
20
219.357740
11
89.257318
21
219.800433
0
LINE
8
reference_cross001
10
89.257318
20
219.800433
11
89.156981
21
220.325810
0
LINE
8
reference_cross001
10
89.156981
20
220.325810
11
89.240954
21
220.806398
0
LINE
8
reference_cross001
10
89.240954
20
220.806398
11
89.492874
21
221.231866
0
LINE
8
reference_cross001
10
89.492874
20
221.231866
11
89.967004
21
221.597475
0
LINE
8
reference_cross001
10
89.967004
20
221.597475
11
90.562573
21
221.719345
0
LINE
8
reference_cross001
10
90.562573
20
221.719345
11
91.255034
21
221.524696
0
LINE
8
reference_cross001
10
91.255034
20
221.524696
11
91.255034
21
221.524696
0
LINE
8
reference_cross001
10
93.387541
20
219.654018
11
92.248940
21
219.654018
0
LINE
8
reference_cross001
10
92.248940
20
219.654018
11
91.952665
21
219.008065
0
LINE
8
reference_cross001
10
91.952665
20
219.008065
11
91.520305
21
219.008065
0
LINE
8
reference_cross001
10
91.520305
20
219.008065
11
92.836327
21
221.834756
0
LINE
8
reference_cross001
10
92.836327
20
221.834756
11
94.105842
21
219.008065
0
LINE
8
reference_cross001
10
94.105842
20
219.008065
11
93.666592
21
219.008065
0
LINE
8
reference_cross001
10
93.666592
20
219.008065
11
93.387541
21
219.654018
0
LINE
8
reference_cross001
10
93.223899
20
220.031255
11
92.829438
21
220.935589
0
LINE
8
reference_cross001
10
92.829438
20
220.935589
11
92.416027
21
220.031255
0
LINE
8
reference_cross001
10
92.416027
20
220.031255
11
93.223899
21
220.031255
0
LINE
8
reference_cross001
10
94.743180
20
220.157001
11
93.875019
21
221.667669
0
LINE
8
reference_cross001
10
93.875019
20
221.667669
11
94.336661
21
221.667669
0
LINE
8
reference_cross001
10
94.336661
20
221.667669
11
94.944718
21
220.604860
0
LINE
8
reference_cross001
10
94.944718
20
220.604860
11
95.554497
21
221.667669
0
LINE
8
reference_cross001
10
95.554497
20
221.667669
11
96.016139
21
221.667669
0
LINE
8
reference_cross001
10
96.016139
20
221.667669
11
95.144534
21
220.157001
0
LINE
8
reference_cross001
10
95.144534
20
220.157001
11
95.144534
21
219.008065
0
LINE
8
reference_cross001
10
95.144534
20
219.008065
11
94.743180
21
219.008065
0
LINE
8
reference_cross001
10
94.743180
20
219.008065
11
94.743180
21
220.157001
0
LINE
8
reference_cross001
10
62.784416
20
195.264479
11
62.458857
21
195.071556
0
LINE
8
reference_cross001
10
62.458857
20
195.071556
11
62.284881
21
195.278261
0
LINE
8
reference_cross001
10
62.284881
20
195.278261
11
62.062673
21
195.333382
0
LINE
8
reference_cross001
10
62.062673
20
195.333382
11
61.785343
21
195.238642
0
LINE
8
reference_cross001
10
61.785343
20
195.238642
11
61.675102
21
195.004375
0
LINE
8
reference_cross001
10
61.675102
20
195.004375
11
61.964487
21
194.690874
0
LINE
8
reference_cross001
10
61.964487
20
194.690874
11
62.229758
21
194.582355
0
LINE
8
reference_cross001
10
62.229758
20
194.582355
11
62.703456
21
194.261961
0
LINE
8
reference_cross001
10
62.703456
20
194.261961
11
62.853319
21
193.800319
0
LINE
8
reference_cross001
10
62.853319
20
193.800319
11
62.608717
21
193.193985
0
LINE
8
reference_cross001
10
62.608717
20
193.193985
11
61.997216
21
192.952830
0
LINE
8
reference_cross001
10
61.997216
20
192.952830
11
61.425333
21
193.157811
0
LINE
8
reference_cross001
10
61.425333
20
193.157811
11
61.148002
21
193.734864
0
LINE
8
reference_cross001
10
61.148002
20
193.734864
11
61.554523
21
193.824436
0
LINE
8
reference_cross001
10
61.554523
20
193.824436
11
61.650985
21
193.500597
0
LINE
8
reference_cross001
10
61.650985
20
193.500597
11
62.012717
21
193.328343
0
LINE
8
reference_cross001
10
62.012717
20
193.328343
11
62.324499
21
193.454088
0
LINE
8
reference_cross001
10
62.324499
20
193.454088
11
62.448523
21
193.772760
0
LINE
8
reference_cross001
10
62.448523
20
193.772760
11
62.426139
21
193.914008
0
LINE
8
reference_cross001
10
62.426139
20
193.914008
11
62.358959
21
194.032864
0
LINE
8
reference_cross001
10
62.358959
20
194.032864
11
62.241828
21
194.134493
0
LINE
8
reference_cross001
10
62.241828
20
194.134493
11
62.069574
21
194.225787
0
LINE
8
reference_cross001
10
62.069574
20
194.225787
11
61.812915
21
194.332586
0
LINE
8
reference_cross001
10
61.812915
20
194.332586
11
61.403380
21
194.616804
0
LINE
8
reference_cross001
10
61.403380
20
194.616804
11
61.266869
21
195.007820
0
LINE
8
reference_cross001
10
61.266869
20
195.007820
11
61.495966
21
195.509081
0
LINE
8
reference_cross001
10
61.495966
20
195.509081
11
62.066129
21
195.712341
0
LINE
8
reference_cross001
10
62.066129
20
195.712341
11
62.475662
21
195.600376
0
LINE
8
reference_cross001
10
62.475662
20
195.600376
11
62.784427
21
195.264479
0
LINE
8
reference_cross001
10
62.784427
20
195.264479
11
62.784416
21
195.264479
0
LINE
8
reference_cross001
10
63.738706
20
195.660666
11
63.738706
21
194.058700
0
LINE
8
reference_cross001
10
63.738706
20
194.058700
11
63.850670
21
193.557442
0
LINE
8
reference_cross001
10
63.850670
20
193.557442
11
64.320924
21
193.328343
0
LINE
8
reference_cross001
10
64.320924
20
193.328343
11
64.792900
21
193.557442
0
LINE
8
reference_cross001
10
64.792900
20
193.557442
11
64.904866
21
194.058700
0
LINE
8
reference_cross001
10
64.904866
20
194.058700
11
64.904866
21
195.660666
0
LINE
8
reference_cross001
10
64.904866
20
195.660666
11
65.306218
21
195.660666
0
LINE
8
reference_cross001
10
65.306218
20
195.660666
11
65.306218
21
193.948459
0
LINE
8
reference_cross001
10
65.306218
20
193.948459
11
65.044392
21
193.255998
0
LINE
8
reference_cross001
10
65.044392
20
193.255998
11
64.716247
21
193.028622
0
LINE
8
reference_cross001
10
64.716247
20
193.028622
11
64.320924
21
192.952830
0
LINE
8
reference_cross001
10
64.320924
20
192.952830
11
63.926031
21
193.028622
0
LINE
8
reference_cross001
10
63.926031
20
193.028622
11
63.599178
21
193.255998
0
LINE
8
reference_cross001
10
63.599178
20
193.255998
11
63.337352
21
193.948459
0
LINE
8
reference_cross001
10
63.337352
20
193.948459
11
63.337352
21
195.660666
0
LINE
8
reference_cross001
10
63.337352
20
195.660666
11
63.738706
21
195.660666
0
LINE
8
reference_cross001
10
67.447337
20
195.264479
11
67.121776
21
195.071556
0
LINE
8
reference_cross001
10
67.121776
20
195.071556
11
66.947799
21
195.278261
0
LINE
8
reference_cross001
10
66.947799
20
195.278261
11
66.725592
21
195.333382
0
LINE
8
reference_cross001
10
66.725592
20
195.333382
11
66.448261
21
195.238642
0
LINE
8
reference_cross001
10
66.448261
20
195.238642
11
66.338020
21
195.004375
0
LINE
8
reference_cross001
10
66.338020
20
195.004375
11
66.627407
21
194.690874
0
LINE
8
reference_cross001
10
66.627407
20
194.690874
11
66.892678
21
194.582355
0
LINE
8
reference_cross001
10
66.892678
20
194.582355
11
67.366377
21
194.261961
0
LINE
8
reference_cross001
10
67.366377
20
194.261961
11
67.516237
21
193.800319
0
LINE
8
reference_cross001
10
67.516237
20
193.800319
11
67.271638
21
193.193985
0
LINE
8
reference_cross001
10
67.271638
20
193.193985
11
66.660134
21
192.952830
0
LINE
8
reference_cross001
10
66.660134
20
192.952830
11
66.088251
21
193.157811
0
LINE
8
reference_cross001
10
66.088251
20
193.157811
11
65.810923
21
193.734864
0
LINE
8
reference_cross001
10
65.810923
20
193.734864
11
66.217441
21
193.824436
0
LINE
8
reference_cross001
10
66.217441
20
193.824436
11
66.313903
21
193.500597
0
LINE
8
reference_cross001
10
66.313903
20
193.500597
11
66.675638
21
193.328343
0
LINE
8
reference_cross001
10
66.675638
20
193.328343
11
66.987418
21
193.454088
0
LINE
8
reference_cross001
10
66.987418
20
193.454088
11
67.111441
21
193.772760
0
LINE
8
reference_cross001
10
67.111441
20
193.772760
11
67.089057
21
193.914008
0
LINE
8
reference_cross001
10
67.089057
20
193.914008
11
67.021880
21
194.032864
0
LINE
8
reference_cross001
10
67.021880
20
194.032864
11
66.904746
21
194.134493
0
LINE
8
reference_cross001
10
66.904746
20
194.134493
11
66.732492
21
194.225787
0
LINE
8
reference_cross001
10
66.732492
20
194.225787
11
66.475833
21
194.332586
0
LINE
8
reference_cross001
10
66.475833
20
194.332586
11
66.066298
21
194.616804
0
LINE
8
reference_cross001
10
66.066298
20
194.616804
11
65.929787
21
195.007820
0
LINE
8
reference_cross001
10
65.929787
20
195.007820
11
66.158887
21
195.509081
0
LINE
8
reference_cross001
10
66.158887
20
195.509081
11
66.729047
21
195.712341
0
LINE
8
reference_cross001
10
66.729047
20
195.712341
11
67.138582
21
195.600376
0
LINE
8
reference_cross001
10
67.138582
20
195.600376
11
67.447348
21
195.264479
0
LINE
8
reference_cross001
10
67.447348
20
195.264479
11
67.447337
21
195.264479
0
LINE
8
reference_cross001
10
68.784029
20
195.283423
11
68.784029
21
193.001056
0
LINE
8
reference_cross001
10
68.784029
20
193.001056
11
68.382675
21
193.001056
0
LINE
8
reference_cross001
10
68.382675
20
193.001056
11
68.382675
21
195.283423
0
LINE
8
reference_cross001
10
68.382675
20
195.283423
11
67.771173
21
195.283423
0
LINE
8
reference_cross001
10
67.771173
20
195.283423
11
67.771173
21
195.660660
0
LINE
8
reference_cross001
10
67.771173
20
195.660660
11
69.393808
21
195.660660
0
LINE
8
reference_cross001
10
69.393808
20
195.660660
11
69.393808
21
195.283423
0
LINE
8
reference_cross001
10
69.393808
20
195.283423
11
68.784029
21
195.283423
0
LINE
8
reference_cross001
10
71.169747
20
193.647009
11
70.031149
21
193.647009
0
LINE
8
reference_cross001
10
70.031149
20
193.647009
11
69.734871
21
193.001056
0
LINE
8
reference_cross001
10
69.734871
20
193.001056
11
69.302514
21
193.001056
0
LINE
8
reference_cross001
10
69.302514
20
193.001056
11
70.618534
21
195.827744
0
LINE
8
reference_cross001
10
70.618534
20
195.827744
11
71.888048
21
193.001056
0
LINE
8
reference_cross001
10
71.888048
20
193.001056
11
71.448800
21
193.001056
0
LINE
8
reference_cross001
10
71.448800
20
193.001056
11
71.169747
21
193.647009
0
LINE
8
reference_cross001
10
71.006105
20
194.024246
11
70.611644
21
194.928580
0
LINE
8
reference_cross001
10
70.611644
20
194.928580
11
70.198236
21
194.024246
0
LINE
8
reference_cross001
10
70.198236
20
194.024246
11
71.006105
21
194.024246
0
LINE
8
reference_cross001
10
72.621850
20
195.660660
11
72.621850
21
193.001056
0
LINE
8
reference_cross001
10
72.621850
20
193.001056
11
72.220499
21
193.001056
0
LINE
8
reference_cross001
10
72.220499
20
193.001056
11
72.220499
21
195.660660
0
LINE
8
reference_cross001
10
72.220499
20
195.660660
11
72.621850
21
195.660660
0
LINE
8
reference_cross001
10
73.260913
20
193.001056
11
73.260913
21
195.841532
0
LINE
8
reference_cross001
10
73.260913
20
195.841532
11
75.200495
21
193.812379
0
LINE
8
reference_cross001
10
75.200495
20
193.812379
11
75.200495
21
195.660666
0
LINE
8
reference_cross001
10
75.200495
20
195.660666
11
75.601846
21
195.660666
0
LINE
8
reference_cross001
10
75.601846
20
195.660666
11
75.601846
21
192.839142
0
LINE
8
reference_cross001
10
75.601846
20
192.839142
11
73.662265
21
194.863128
0
LINE
8
reference_cross001
10
73.662265
20
194.863128
11
73.662265
21
193.001061
0
LINE
8
reference_cross001
10
73.662265
20
193.001061
11
73.260913
21
193.001056
0
LINE
8
reference_cross001
10
84.368311
20
194.177691
11
85.191686
21
193.044260
0
LINE
8
reference_cross001
10
85.191686
20
193.044260
11
84.700763
21
193.044260
0
LINE
8
reference_cross001
10
84.700763
20
193.044260
11
83.941121
21
194.132905
0
LINE
8
reference_cross001
10
83.941121
20
194.132905
11
83.868773
21
194.132905
0
LINE
8
reference_cross001
10
83.868773
20
194.132905
11
83.868773
21
193.044260
0
LINE
8
reference_cross001
10
83.868773
20
193.044260
11
83.467422
21
193.044260
0
LINE
8
reference_cross001
10
83.467422
20
193.044260
11
83.467422
21
195.703861
0
LINE
8
reference_cross001
10
83.467422
20
195.703861
11
83.937676
21
195.703861
0
LINE
8
reference_cross001
10
83.937676
20
195.703861
11
84.699040
21
195.505771
0
LINE
8
reference_cross001
10
84.699040
20
195.505771
11
84.957421
21
194.923551
0
LINE
8
reference_cross001
10
84.957421
20
194.923551
11
84.795502
21
194.437795
0
LINE
8
reference_cross001
10
84.795502
20
194.437795
11
84.368311
21
194.177691
0
LINE
8
reference_cross001
10
84.368311
20
194.177691
11
84.368311
21
194.177691
0
LINE
8
reference_cross001
10
83.868773
20
194.482581
11
83.996242
21
194.482581
0
LINE
8
reference_cross001
10
83.996242
20
194.482581
11
84.423864
21
194.591531
0
LINE
8
reference_cross001
10
84.423864
20
194.591531
11
84.566405
21
194.918383
0
LINE
8
reference_cross001
10
84.566405
20
194.918383
11
84.427740
21
195.224566
0
LINE
8
reference_cross001
10
84.427740
20
195.224566
11
84.011746
21
195.326627
0
LINE
8
reference_cross001
10
84.011746
20
195.326627
11
83.868773
21
195.326627
0
LINE
8
reference_cross001
10
83.868773
20
195.326627
11
83.868773
21
194.482581
0
LINE
8
reference_cross001
10
87.058922
20
195.326627
11
85.992669
21
195.326627
0
LINE
8
reference_cross001
10
85.992669
20
195.326627
11
85.992669
21
194.687564
0
LINE
8
reference_cross001
10
85.992669
20
194.687564
11
87.027916
21
194.687564
0
LINE
8
reference_cross001
10
87.027916
20
194.687564
11
87.027916
21
194.310326
0
LINE
8
reference_cross001
10
87.027916
20
194.310326
11
85.992669
21
194.310326
0
LINE
8
reference_cross001
10
85.992669
20
194.310326
11
85.992669
21
193.421494
0
LINE
8
reference_cross001
10
85.992669
20
193.421494
11
87.058922
21
193.421494
0
LINE
8
reference_cross001
10
87.058922
20
193.421494
11
87.058922
21
193.044260
0
LINE
8
reference_cross001
10
87.058922
20
193.044260
11
85.591315
21
193.044260
0
LINE
8
reference_cross001
10
85.591315
20
193.044260
11
85.591315
21
195.703861
0
LINE
8
reference_cross001
10
85.591315
20
195.703861
11
87.058922
21
195.703861
0
LINE
8
reference_cross001
10
87.058922
20
195.703861
11
87.058922
21
195.326627
0
LINE
8
reference_cross001
10
87.987370
20
195.703861
11
87.987370
21
193.421494
0
LINE
8
reference_cross001
10
87.987370
20
193.421494
11
88.769404
21
193.421494
0
LINE
8
reference_cross001
10
88.769404
20
193.421494
11
88.769404
21
193.044260
0
LINE
8
reference_cross001
10
88.769404
20
193.044260
11
87.586019
21
193.044260
0
LINE
8
reference_cross001
10
87.586019
20
193.044260
11
87.586019
21
195.703861
0
LINE
8
reference_cross001
10
87.586019
20
195.703861
11
87.987370
21
195.703861
0
LINE
8
reference_cross001
10
90.617690
20
195.326627
11
89.551437
21
195.326627
0
LINE
8
reference_cross001
10
89.551437
20
195.326627
11
89.551437
21
194.687564
0
LINE
8
reference_cross001
10
89.551437
20
194.687564
11
90.586684
21
194.687564
0
LINE
8
reference_cross001
10
90.586684
20
194.687564
11
90.586684
21
194.310326
0
LINE
8
reference_cross001
10
90.586684
20
194.310326
11
89.551437
21
194.310326
0
LINE
8
reference_cross001
10
89.551437
20
194.310326
11
89.551437
21
193.421494
0
LINE
8
reference_cross001
10
89.551437
20
193.421494
11
90.617690
21
193.421494
0
LINE
8
reference_cross001
10
90.617690
20
193.421494
11
90.617690
21
193.044260
0
LINE
8
reference_cross001
10
90.617690
20
193.044260
11
89.150086
21
193.044260
0
LINE
8
reference_cross001
10
89.150086
20
193.044260
11
89.150086
21
195.703861
0
LINE
8
reference_cross001
10
89.150086
20
195.703861
11
90.617690
21
195.703861
0
LINE
8
reference_cross001
10
90.617690
20
195.703861
11
90.617690
21
195.326627
0
LINE
8
reference_cross001
10
92.707134
20
193.690213
11
91.568533
21
193.690213
0
LINE
8
reference_cross001
10
91.568533
20
193.690213
11
91.272256
21
193.044260
0
LINE
8
reference_cross001
10
91.272256
20
193.044260
11
90.839898
21
193.044260
0
LINE
8
reference_cross001
10
90.839898
20
193.044260
11
92.155920
21
195.870948
0
LINE
8
reference_cross001
10
92.155920
20
195.870948
11
93.425432
21
193.044260
0
LINE
8
reference_cross001
10
93.425432
20
193.044260
11
92.986185
21
193.044260
0
LINE
8
reference_cross001
10
92.986185
20
193.044260
11
92.707134
21
193.690213
0
LINE
8
reference_cross001
10
92.543492
20
194.067447
11
92.149031
21
194.971781
0
LINE
8
reference_cross001
10
92.149031
20
194.971781
11
91.735620
21
194.067447
0
LINE
8
reference_cross001
10
91.735620
20
194.067447
11
92.543492
21
194.067447
0
LINE
8
reference_cross001
10
95.261662
20
195.307677
11
94.936103
21
195.114754
0
LINE
8
reference_cross001
10
94.936103
20
195.114754
11
94.762127
21
195.321460
0
LINE
8
reference_cross001
10
94.762127
20
195.321460
11
94.539916
21
195.376580
0
LINE
8
reference_cross001
10
94.539916
20
195.376580
11
94.262589
21
195.281841
0
LINE
8
reference_cross001
10
94.262589
20
195.281841
11
94.152345
21
195.047574
0
LINE
8
reference_cross001
10
94.152345
20
195.047574
11
94.441732
21
194.734072
0
LINE
8
reference_cross001
10
94.441732
20
194.734072
11
94.707003
21
194.625551
0
LINE
8
reference_cross001
10
94.707003
20
194.625551
11
95.180702
21
194.305159
0
LINE
8
reference_cross001
10
95.180702
20
194.305159
11
95.330565
21
193.843517
0
LINE
8
reference_cross001
10
95.330565
20
193.843517
11
95.085963
21
193.237183
0
LINE
8
reference_cross001
10
95.085963
20
193.237183
11
94.474461
21
192.996029
0
LINE
8
reference_cross001
10
94.474461
20
192.996029
11
93.902578
21
193.201009
0
LINE
8
reference_cross001
10
93.902578
20
193.201009
11
93.625248
21
193.778062
0
LINE
8
reference_cross001
10
93.625248
20
193.778062
11
94.031769
21
193.867634
0
LINE
8
reference_cross001
10
94.031769
20
193.867634
11
94.128231
21
193.543795
0
LINE
8
reference_cross001
10
94.128231
20
193.543795
11
94.489963
21
193.371541
0
LINE
8
reference_cross001
10
94.489963
20
193.371541
11
94.801745
21
193.497287
0
LINE
8
reference_cross001
10
94.801745
20
193.497287
11
94.925766
21
193.815958
0
LINE
8
reference_cross001
10
94.925766
20
193.815958
11
94.903382
21
193.957206
0
LINE
8
reference_cross001
10
94.903382
20
193.957206
11
94.836202
21
194.076062
0
LINE
8
reference_cross001
10
94.836202
20
194.076062
11
94.719071
21
194.177691
0
LINE
8
reference_cross001
10
94.719071
20
194.177691
11
94.546817
21
194.268985
0
LINE
8
reference_cross001
10
94.546817
20
194.268985
11
94.290158
21
194.375784
0
LINE
8
reference_cross001
10
94.290158
20
194.375784
11
93.880623
21
194.660003
0
LINE
8
reference_cross001
10
93.880623
20
194.660003
11
93.744112
21
195.051019
0
LINE
8
reference_cross001
10
93.744112
20
195.051019
11
93.973209
21
195.552279
0
LINE
8
reference_cross001
10
93.973209
20
195.552279
11
94.543372
21
195.755540
0
LINE
8
reference_cross001
10
94.543372
20
195.755540
11
94.952905
21
195.643574
0
LINE
8
reference_cross001
10
94.952905
20
195.643574
11
95.261670
21
195.307677
0
LINE
8
reference_cross001
10
95.261670
20
195.307677
11
95.261662
21
195.307677
0
LINE
8
reference_cross001
10
97.282203
20
195.326622
11
96.215949
21
195.326622
0
LINE
8
reference_cross001
10
96.215949
20
195.326622
11
96.215949
21
194.687558
0
LINE
8
reference_cross001
10
96.215949
20
194.687558
11
97.251196
21
194.687558
0
LINE
8
reference_cross001
10
97.251196
20
194.687558
11
97.251196
21
194.310321
0
LINE
8
reference_cross001
10
97.251196
20
194.310321
11
96.215949
21
194.310321
0
LINE
8
reference_cross001
10
96.215949
20
194.310321
11
96.215949
21
193.421489
0
LINE
8
reference_cross001
10
96.215949
20
193.421489
11
97.282203
21
193.421489
0
LINE
8
reference_cross001
10
97.282203
20
193.421489
11
97.282203
21
193.044255
0
LINE
8
reference_cross001
10
97.282203
20
193.044255
11
95.814598
21
193.044255
0
LINE
8
reference_cross001
10
95.814598
20
193.044255
11
95.814598
21
195.703856
0
LINE
8
reference_cross001
10
95.814598
20
195.703856
11
97.282203
21
195.703856
0
LINE
8
reference_cross001
10
97.282203
20
195.703856
11
97.282203
21
195.326622
0
LINE
8
reference_cross001
10
77.677259
20
181.369220
11
77.121222
21
181.369220
0
LINE
8
reference_cross001
10
77.121222
20
181.369220
11
77.121222
21
180.985781
0
LINE
8
reference_cross001
10
77.121222
20
180.985781
11
77.657621
21
180.985781
0
LINE
8
reference_cross001
10
77.657621
20
180.985781
11
77.657621
21
180.759438
0
LINE
8
reference_cross001
10
77.657621
20
180.759438
11
77.121222
21
180.759438
0
LINE
8
reference_cross001
10
77.121222
20
180.759438
11
77.121222
21
179.999797
0
LINE
8
reference_cross001
10
77.121222
20
179.999797
11
76.880409
21
179.999797
0
LINE
8
reference_cross001
10
76.880409
20
179.999797
11
76.880409
21
181.595563
0
LINE
8
reference_cross001
10
76.880409
20
181.595563
11
77.677259
21
181.595563
0
LINE
8
reference_cross001
10
77.677259
20
181.595563
11
77.677259
21
181.369220
0
LINE
8
reference_cross001
10
78.788301
20
180.387368
11
78.105140
21
180.387368
0
LINE
8
reference_cross001
10
78.105140
20
180.387368
11
77.927372
21
179.999797
0
LINE
8
reference_cross001
10
77.927372
20
179.999797
11
77.667956
21
179.999797
0
LINE
8
reference_cross001
10
77.667956
20
179.999797
11
78.457572
21
181.695813
0
LINE
8
reference_cross001
10
78.457572
20
181.695813
11
79.219280
21
179.999797
0
LINE
8
reference_cross001
10
79.219280
20
179.999797
11
78.955732
21
179.999797
0
LINE
8
reference_cross001
10
78.955732
20
179.999797
11
78.788301
21
180.387368
0
LINE
8
reference_cross001
10
78.690114
20
180.613711
11
78.453437
21
181.156313
0
LINE
8
reference_cross001
10
78.453437
20
181.156313
11
78.205390
21
180.613711
0
LINE
8
reference_cross001
10
78.205390
20
180.613711
11
78.690114
21
180.613711
0
LINE
8
reference_cross001
10
80.321022
20
181.357851
11
80.125686
21
181.242096
0
LINE
8
reference_cross001
10
80.125686
20
181.242096
11
80.021297
21
181.366119
0
LINE
8
reference_cross001
10
80.021297
20
181.366119
11
79.887974
21
181.399192
0
LINE
8
reference_cross001
10
79.887974
20
181.399192
11
79.721575
21
181.342346
0
LINE
8
reference_cross001
10
79.721575
20
181.342346
11
79.655429
21
181.201787
0
LINE
8
reference_cross001
10
79.655429
20
181.201787
11
79.829062
21
181.013687
0
LINE
8
reference_cross001
10
79.829062
20
181.013687
11
79.988225
21
180.948573
0
LINE
8
reference_cross001
10
79.988225
20
180.948573
11
80.272445
21
180.756337
0
LINE
8
reference_cross001
10
80.272445
20
180.756337
11
80.362363
21
180.479353
0
LINE
8
reference_cross001
10
80.362363
20
180.479353
11
80.215602
21
180.115552
0
LINE
8
reference_cross001
10
80.215602
20
180.115552
11
79.848699
21
179.970857
0
LINE
8
reference_cross001
10
79.848699
20
179.970857
11
79.505570
21
180.093845
0
LINE
8
reference_cross001
10
79.505570
20
180.093845
11
79.339171
21
180.440079
0
LINE
8
reference_cross001
10
79.339171
20
180.440079
11
79.583082
21
180.493821
0
LINE
8
reference_cross001
10
79.583082
20
180.493821
11
79.640959
21
180.299519
0
LINE
8
reference_cross001
10
79.640959
20
180.299519
11
79.858002
21
180.196165
0
LINE
8
reference_cross001
10
79.858002
20
180.196165
11
80.045070
21
180.271613
0
LINE
8
reference_cross001
10
80.045070
20
180.271613
11
80.119484
21
180.462817
0
LINE
8
reference_cross001
10
80.119484
20
180.462817
11
80.106043
21
180.547566
0
LINE
8
reference_cross001
10
80.106043
20
180.547566
11
80.065734
21
180.618879
0
LINE
8
reference_cross001
10
80.065734
20
180.618879
11
79.995456
21
180.679857
0
LINE
8
reference_cross001
10
79.995456
20
180.679857
11
79.892102
21
180.734634
0
LINE
8
reference_cross001
10
79.892102
20
180.734634
11
79.738106
21
180.798713
0
LINE
8
reference_cross001
10
79.738106
20
180.798713
11
79.492385
21
180.969244
0
LINE
8
reference_cross001
10
79.492385
20
180.969244
11
79.410478
21
181.203856
0
LINE
8
reference_cross001
10
79.410478
20
181.203856
11
79.547937
21
181.504612
0
LINE
8
reference_cross001
10
79.547937
20
181.504612
11
79.890035
21
181.626567
0
LINE
8
reference_cross001
10
79.890035
20
181.626567
11
80.321017
21
181.357851
0
LINE
8
reference_cross001
10
80.321017
20
181.357851
11
80.321022
21
181.357851
0
LINE
8
reference_cross001
10
81.123040
20
181.369228
11
81.123040
21
179.999805
0
LINE
8
reference_cross001
10
81.123040
20
179.999805
11
80.882227
21
179.999805
0
LINE
8
reference_cross001
10
80.882227
20
179.999805
11
80.882227
21
181.369228
0
LINE
8
reference_cross001
10
80.882227
20
181.369228
11
80.515324
21
181.369228
0
LINE
8
reference_cross001
10
80.515324
20
181.369228
11
80.515324
21
181.595571
0
LINE
8
reference_cross001
10
80.515324
20
181.595571
11
81.488908
21
181.595571
0
LINE
8
reference_cross001
10
81.488908
20
181.595571
11
81.488908
21
181.369228
0
LINE
8
reference_cross001
10
81.488908
20
181.369228
11
81.123040
21
181.369228
0
LINE
8
reference_cross001
10
77.328515
20
190.550729
11
77.133178
21
190.434974
0
LINE
8
reference_cross001
10
77.133178
20
190.434974
11
77.028792
21
190.558997
0
LINE
8
reference_cross001
10
77.028792
20
190.558997
11
76.895469
21
190.592070
0
LINE
8
reference_cross001
10
76.895469
20
190.592070
11
76.729070
21
190.535227
0
LINE
8
reference_cross001
10
76.729070
20
190.535227
11
76.662924
21
190.394667
0
LINE
8
reference_cross001
10
76.662924
20
190.394667
11
76.836557
21
190.206565
0
LINE
8
reference_cross001
10
76.836557
20
190.206565
11
76.995719
21
190.141451
0
LINE
8
reference_cross001
10
76.995719
20
190.141451
11
77.279940
21
189.949215
0
LINE
8
reference_cross001
10
77.279940
20
189.949215
11
77.369856
21
189.672231
0
LINE
8
reference_cross001
10
77.369856
20
189.672231
11
77.223097
21
189.308430
0
LINE
8
reference_cross001
10
77.223097
20
189.308430
11
76.856194
21
189.163735
0
LINE
8
reference_cross001
10
76.856194
20
189.163735
11
76.513062
21
189.286726
0
LINE
8
reference_cross001
10
76.513062
20
189.286726
11
76.346666
21
189.632957
0
LINE
8
reference_cross001
10
76.346666
20
189.632957
11
76.590577
21
189.686699
0
LINE
8
reference_cross001
10
76.590577
20
189.686699
11
76.648454
21
189.492397
0
LINE
8
reference_cross001
10
76.648454
20
189.492397
11
76.865494
21
189.389043
0
LINE
8
reference_cross001
10
76.865494
20
189.389043
11
77.052565
21
189.464491
0
LINE
8
reference_cross001
10
77.052565
20
189.464491
11
77.126979
21
189.655695
0
LINE
8
reference_cross001
10
77.126979
20
189.655695
11
77.113538
21
189.740444
0
LINE
8
reference_cross001
10
77.113538
20
189.740444
11
77.073232
21
189.811757
0
LINE
8
reference_cross001
10
77.073232
20
189.811757
11
77.002953
21
189.872735
0
LINE
8
reference_cross001
10
77.002953
20
189.872735
11
76.899599
21
189.927512
0
LINE
8
reference_cross001
10
76.899599
20
189.927512
11
76.745604
21
189.991591
0
LINE
8
reference_cross001
10
76.745604
20
189.991591
11
76.499883
21
190.162123
0
LINE
8
reference_cross001
10
76.499883
20
190.162123
11
76.417976
21
190.396734
0
LINE
8
reference_cross001
10
76.417976
20
190.396734
11
76.555435
21
190.697491
0
LINE
8
reference_cross001
10
76.555435
20
190.697491
11
76.897533
21
190.819445
0
LINE
8
reference_cross001
10
76.897533
20
190.819445
11
77.328512
21
190.550729
0
LINE
8
reference_cross001
10
77.328512
20
190.550729
11
77.328515
21
190.550729
0
LINE
8
reference_cross001
10
77.901091
20
190.788441
11
77.901091
21
189.419018
0
LINE
8
reference_cross001
10
77.901091
20
189.419018
11
78.370310
21
189.419018
0
LINE
8
reference_cross001
10
78.370310
20
189.419018
11
78.370310
21
189.192675
0
LINE
8
reference_cross001
10
78.370310
20
189.192675
11
77.660278
21
189.192675
0
LINE
8
reference_cross001
10
77.660278
20
189.192675
11
77.660278
21
190.788441
0
LINE
8
reference_cross001
10
77.660278
20
190.788441
11
77.901091
21
190.788441
0
LINE
8
reference_cross001
10
78.454027
20
189.997793
11
78.701039
21
190.576568
0
LINE
8
reference_cross001
10
78.701039
20
190.576568
11
79.292218
21
190.818413
0
LINE
8
reference_cross001
10
79.292218
20
190.818413
11
79.877195
21
190.574499
0
LINE
8
reference_cross001
10
79.877195
20
190.574499
11
80.122141
21
189.988490
0
LINE
8
reference_cross001
10
80.122141
20
189.988490
11
79.876160
21
189.404548
0
LINE
8
reference_cross001
10
79.876160
20
189.404548
11
79.279814
21
189.163735
0
LINE
8
reference_cross001
10
79.279814
20
189.163735
11
78.724812
21
189.377677
0
LINE
8
reference_cross001
10
78.724812
20
189.377677
11
78.521723
21
189.651044
0
LINE
8
reference_cross001
10
78.521723
20
189.651044
11
78.454027
21
189.997793
0
LINE
8
reference_cross001
10
78.454027
20
189.997793
11
78.454027
21
189.997793
0
LINE
8
reference_cross001
10
78.696906
20
189.994697
11
78.874671
21
189.559583
0
LINE
8
reference_cross001
10
78.874671
20
189.559583
11
79.282915
21
189.389048
0
LINE
8
reference_cross001
10
79.282915
20
189.389048
11
79.706663
21
189.562681
0
LINE
8
reference_cross001
10
79.706663
20
189.562681
11
79.879261
21
189.990562
0
LINE
8
reference_cross001
10
79.879261
20
189.990562
11
79.708730
21
190.418443
0
LINE
8
reference_cross001
10
79.708730
20
190.418443
11
79.289117
21
190.592075
0
LINE
8
reference_cross001
10
79.289117
20
190.592075
11
78.868472
21
190.418443
0
LINE
8
reference_cross001
10
78.868472
20
190.418443
11
78.696906
21
189.994697
0
LINE
8
reference_cross001
10
78.696906
20
189.994697
11
78.696906
21
189.994697
0
LINE
8
reference_cross001
10
80.435298
20
190.788446
11
80.850776
21
189.721846
0
LINE
8
reference_cross001
10
80.850776
20
189.721846
11
81.284859
21
190.865961
0
LINE
8
reference_cross001
10
81.284859
20
190.865961
11
81.700336
21
189.721846
0
LINE
8
reference_cross001
10
81.700336
20
189.721846
11
82.141652
21
190.788446
0
LINE
8
reference_cross001
10
82.141652
20
190.788446
11
82.403134
21
190.788446
0
LINE
8
reference_cross001
10
82.403134
20
190.788446
11
81.690001
21
189.091392
0
LINE
8
reference_cross001
10
81.690001
20
189.091392
11
81.279691
21
190.222072
0
LINE
8
reference_cross001
10
81.279691
20
190.222072
11
80.851810
21
189.090361
0
LINE
8
reference_cross001
10
80.851810
20
189.090361
11
80.173816
21
190.788446
0
LINE
8
reference_cross001
10
80.173816
20
190.788446
11
80.435298
21
190.788446
0
LINE
8
reference_cross001
10
72.984273
20
145.301602
11
72.984273
21
143.019234
0
LINE
8
reference_cross001
10
72.984273
20
143.019234
11
72.582919
21
143.019234
0
LINE
8
reference_cross001
10
72.582919
20
143.019234
11
72.582919
21
145.301602
0
LINE
8
reference_cross001
10
72.582919
20
145.301602
11
71.971418
21
145.301602
0
LINE
8
reference_cross001
10
71.971418
20
145.301602
11
71.971418
21
145.678839
0
LINE
8
reference_cross001
10
71.971418
20
145.678839
11
73.594052
21
145.678839
0
LINE
8
reference_cross001
10
73.594052
20
145.678839
11
73.594052
21
145.301602
0
LINE
8
reference_cross001
10
73.594052
20
145.301602
11
72.984273
21
145.301602
0
LINE
8
reference_cross001
10
74.853229
20
144.152666
11
75.676604
21
143.019234
0
LINE
8
reference_cross001
10
75.676604
20
143.019234
11
75.185681
21
143.019234
0
LINE
8
reference_cross001
10
75.185681
20
143.019234
11
74.426039
21
144.107880
0
LINE
8
reference_cross001
10
74.426039
20
144.107880
11
74.353691
21
144.107880
0
LINE
8
reference_cross001
10
74.353691
20
144.107880
11
74.353691
21
143.019234
0
LINE
8
reference_cross001
10
74.353691
20
143.019234
11
73.952340
21
143.019234
0
LINE
8
reference_cross001
10
73.952340
20
143.019234
11
73.952340
21
145.678839
0
LINE
8
reference_cross001
10
73.952340
20
145.678839
11
74.422594
21
145.678839
0
LINE
8
reference_cross001
10
74.422594
20
145.678839
11
75.183958
21
145.480745
0
LINE
8
reference_cross001
10
75.183958
20
145.480745
11
75.442339
21
144.898528
0
LINE
8
reference_cross001
10
75.442339
20
144.898528
11
75.280420
21
144.412769
0
LINE
8
reference_cross001
10
75.280420
20
144.412769
11
74.853229
21
144.152666
0
LINE
8
reference_cross001
10
74.853229
20
144.152666
11
74.853229
21
144.152666
0
LINE
8
reference_cross001
10
74.353691
20
144.457555
11
74.481160
21
144.457555
0
LINE
8
reference_cross001
10
74.481160
20
144.457555
11
74.908782
21
144.566506
0
LINE
8
reference_cross001
10
74.908782
20
144.566506
11
75.051323
21
144.893358
0
LINE
8
reference_cross001
10
75.051323
20
144.893358
11
74.912658
21
145.199541
0
LINE
8
reference_cross001
10
74.912658
20
145.199541
11
74.496664
21
145.301602
0
LINE
8
reference_cross001
10
74.496664
20
145.301602
11
74.353691
21
145.301602
0
LINE
8
reference_cross001
10
74.353691
20
145.301602
11
74.353691
21
144.457555
0
LINE
8
reference_cross001
10
76.477587
20
145.678839
11
76.477587
21
143.019234
0
LINE
8
reference_cross001
10
76.477587
20
143.019234
11
76.076233
21
143.019234
0
LINE
8
reference_cross001
10
76.076233
20
143.019234
11
76.076233
21
145.678839
0
LINE
8
reference_cross001
10
76.076233
20
145.678839
11
76.477587
21
145.678839
0
LINE
8
reference_cross001
10
78.484345
20
144.404157
11
79.583328
21
144.404157
0
LINE
8
reference_cross001
10
79.583328
20
144.404157
11
79.583328
21
144.316308
0
LINE
8
reference_cross001
10
79.583328
20
144.316308
11
79.512703
21
143.785766
0
LINE
8
reference_cross001
10
79.512703
20
143.785766
11
79.280161
21
143.386134
0
LINE
8
reference_cross001
10
79.280161
20
143.386134
11
78.859429
21
143.073495
0
LINE
8
reference_cross001
10
78.859429
20
143.073495
11
78.337930
21
142.969281
0
LINE
8
reference_cross001
10
78.337930
20
142.969281
11
77.819876
21
143.070050
0
LINE
8
reference_cross001
10
77.819876
20
143.070050
11
77.381921
21
143.372355
0
LINE
8
reference_cross001
10
77.381921
20
143.372355
11
77.083489
21
143.817633
0
LINE
8
reference_cross001
10
77.083489
20
143.817633
11
76.984012
21
144.343869
0
LINE
8
reference_cross001
10
76.984012
20
144.343869
11
77.085211
21
144.878718
0
LINE
8
reference_cross001
10
77.085211
20
144.878718
11
77.388810
21
145.325718
0
LINE
8
reference_cross001
10
77.388810
20
145.325718
11
77.837532
21
145.629315
0
LINE
8
reference_cross001
10
77.837532
20
145.629315
11
78.374104
21
145.730514
0
LINE
8
reference_cross001
10
78.374104
20
145.730514
11
78.956322
21
145.603046
0
LINE
8
reference_cross001
10
78.956322
20
145.603046
11
79.464472
21
145.189635
0
LINE
8
reference_cross001
10
79.464472
20
145.189635
11
79.178529
21
144.915752
0
LINE
8
reference_cross001
10
79.178529
20
144.915752
11
78.815505
21
145.242604
0
LINE
8
reference_cross001
10
78.815505
20
145.242604
11
78.380994
21
145.351555
0
LINE
8
reference_cross001
10
78.380994
20
145.351555
11
77.992991
21
145.278777
0
LINE
8
reference_cross001
10
77.992991
20
145.278777
11
77.673028
21
145.060445
0
LINE
8
reference_cross001
10
77.673028
20
145.060445
11
77.458573
21
144.738331
0
LINE
8
reference_cross001
10
77.458573
20
144.738331
11
77.387088
21
144.343869
0
LINE
8
reference_cross001
10
77.387088
20
144.343869
11
77.466755
21
143.938641
0
LINE
8
reference_cross001
10
77.466755
20
143.938641
11
77.705757
21
143.611789
0
LINE
8
reference_cross001
10
77.705757
20
143.611789
11
78.351710
21
143.344793
0
LINE
8
reference_cross001
10
78.351710
20
143.344793
11
78.883977
21
143.544609
0
LINE
8
reference_cross001
10
78.883977
20
143.544609
11
79.147525
21
144.026920
0
LINE
8
reference_cross001
10
79.147525
20
144.026920
11
78.484345
21
144.026920
0
LINE
8
reference_cross001
10
78.484345
20
144.026920
11
78.484345
21
144.404157
0
LINE
8
reference_cross001
10
81.455729
20
144.404157
11
82.554711
21
144.404157
0
LINE
8
reference_cross001
10
82.554711
20
144.404157
11
82.554711
21
144.316308
0
LINE
8
reference_cross001
10
82.554711
20
144.316308
11
82.484086
21
143.785766
0
LINE
8
reference_cross001
10
82.484086
20
143.785766
11
82.251544
21
143.386134
0
LINE
8
reference_cross001
10
82.251544
20
143.386134
11
81.830813
21
143.073495
0
LINE
8
reference_cross001
10
81.830813
20
143.073495
11
81.309314
21
142.969281
0
LINE
8
reference_cross001
10
81.309314
20
142.969281
11
80.791260
21
143.070050
0
LINE
8
reference_cross001
10
80.791260
20
143.070050
11
80.353304
21
143.372355
0
LINE
8
reference_cross001
10
80.353304
20
143.372355
11
80.054872
21
143.817633
0
LINE
8
reference_cross001
10
80.054872
20
143.817633
11
79.955395
21
144.343869
0
LINE
8
reference_cross001
10
79.955395
20
144.343869
11
80.056595
21
144.878718
0
LINE
8
reference_cross001
10
80.056595
20
144.878718
11
80.360194
21
145.325718
0
LINE
8
reference_cross001
10
80.360194
20
145.325718
11
80.808915
21
145.629315
0
LINE
8
reference_cross001
10
80.808915
20
145.629315
11
81.345488
21
145.730514
0
LINE
8
reference_cross001
10
81.345488
20
145.730514
11
81.927705
21
145.603046
0
LINE
8
reference_cross001
10
81.927705
20
145.603046
11
82.435855
21
145.189635
0
LINE
8
reference_cross001
10
82.435855
20
145.189635
11
82.149913
21
144.915752
0
LINE
8
reference_cross001
10
82.149913
20
144.915752
11
81.786888
21
145.242604
0
LINE
8
reference_cross001
10
81.786888
20
145.242604
11
81.352377
21
145.351555
0
LINE
8
reference_cross001
10
81.352377
20
145.351555
11
80.964374
21
145.278777
0
LINE
8
reference_cross001
10
80.964374
20
145.278777
11
80.644412
21
145.060445
0
LINE
8
reference_cross001
10
80.644412
20
145.060445
11
80.429956
21
144.738331
0
LINE
8
reference_cross001
10
80.429956
20
144.738331
11
80.358471
21
144.343869
0
LINE
8
reference_cross001
10
80.358471
20
144.343869
11
80.438139
21
143.938641
0
LINE
8
reference_cross001
10
80.438139
20
143.938641
11
80.677140
21
143.611789
0
LINE
8
reference_cross001
10
80.677140
20
143.611789
11
81.323093
21
143.344793
0
LINE
8
reference_cross001
10
81.323093
20
143.344793
11
81.855360
21
143.544609
0
LINE
8
reference_cross001
10
81.855360
20
143.544609
11
82.118909
21
144.026920
0
LINE
8
reference_cross001
10
82.118909
20
144.026920
11
81.455729
21
144.026920
0
LINE
8
reference_cross001
10
81.455729
20
144.026920
11
81.455729
21
144.404157
0
LINE
8
reference_cross001
10
84.527022
20
145.301602
11
83.460768
21
145.301602
0
LINE
8
reference_cross001
10
83.460768
20
145.301602
11
83.460768
21
144.662538
0
LINE
8
reference_cross001
10
83.460768
20
144.662538
11
84.496015
21
144.662538
0
LINE
8
reference_cross001
10
84.496015
20
144.662538
11
84.496015
21
144.285301
0
LINE
8
reference_cross001
10
84.496015
20
144.285301
11
83.460768
21
144.285301
0
LINE
8
reference_cross001
10
83.460768
20
144.285301
11
83.460768
21
143.396472
0
LINE
8
reference_cross001
10
83.460768
20
143.396472
11
84.527022
21
143.396472
0
LINE
8
reference_cross001
10
84.527022
20
143.396472
11
84.527022
21
143.019234
0
LINE
8
reference_cross001
10
84.527022
20
143.019234
11
83.059417
21
143.019234
0
LINE
8
reference_cross001
10
83.059417
20
143.019234
11
83.059417
21
145.678839
0
LINE
8
reference_cross001
10
83.059417
20
145.678839
11
84.527022
21
145.678839
0
LINE
8
reference_cross001
10
84.527022
20
145.678839
11
84.527022
21
145.301602
0
LINE
8
reference_cross001
10
85.955008
20
144.152666
11
86.778382
21
143.019234
0
LINE
8
reference_cross001
10
86.778382
20
143.019234
11
86.287459
21
143.019234
0
LINE
8
reference_cross001
10
86.287459
20
143.019234
11
85.527817
21
144.107880
0
LINE
8
reference_cross001
10
85.527817
20
144.107880
11
85.455470
21
144.107880
0
LINE
8
reference_cross001
10
85.455470
20
144.107880
11
85.455470
21
143.019234
0
LINE
8
reference_cross001
10
85.455470
20
143.019234
11
85.054119
21
143.019234
0
LINE
8
reference_cross001
10
85.054119
20
143.019234
11
85.054119
21
145.678839
0
LINE
8
reference_cross001
10
85.054119
20
145.678839
11
85.524372
21
145.678839
0
LINE
8
reference_cross001
10
85.524372
20
145.678839
11
86.285734
21
145.480745
0
LINE
8
reference_cross001
10
86.285734
20
145.480745
11
86.544115
21
144.898528
0
LINE
8
reference_cross001
10
86.544115
20
144.898528
11
86.382198
21
144.412769
0
LINE
8
reference_cross001
10
86.382198
20
144.412769
11
85.955008
21
144.152666
0
LINE
8
reference_cross001
10
85.955008
20
144.152666
11
85.955008
21
144.152666
0
LINE
8
reference_cross001
10
85.455470
20
144.457555
11
85.582938
21
144.457555
0
LINE
8
reference_cross001
10
85.582938
20
144.457555
11
86.010558
21
144.566506
0
LINE
8
reference_cross001
10
86.010558
20
144.566506
11
86.153098
21
144.893358
0
LINE
8
reference_cross001
10
86.153098
20
144.893358
11
86.014434
21
145.199541
0
LINE
8
reference_cross001
10
86.014434
20
145.199541
11
85.598442
21
145.301602
0
LINE
8
reference_cross001
10
85.598442
20
145.301602
11
85.455470
21
145.301602
0
LINE
8
reference_cross001
10
85.455470
20
145.301602
11
85.455470
21
144.457555
0
LINE
8
reference_cross001
10
75.757561
20
128.407146
11
75.860483
21
128.929076
0
LINE
8
reference_cross001
10
75.860483
20
128.929076
11
76.169249
21
129.371768
0
LINE
8
reference_cross001
10
76.169249
20
129.371768
11
76.620555
21
129.674075
0
LINE
8
reference_cross001
10
76.620555
20
129.674075
11
77.154543
21
129.774845
0
LINE
8
reference_cross001
10
77.154543
20
129.774845
11
77.682501
21
129.673214
0
LINE
8
reference_cross001
10
77.682501
20
129.673214
11
78.129500
21
129.368323
0
LINE
8
reference_cross001
10
78.129500
20
129.368323
11
78.435683
21
128.920894
0
LINE
8
reference_cross001
10
78.435683
20
128.920894
11
78.537744
21
128.391644
0
LINE
8
reference_cross001
10
78.537744
20
128.391644
11
78.435252
21
127.861531
0
LINE
8
reference_cross001
10
78.435252
20
127.861531
11
78.127777
21
127.418407
0
LINE
8
reference_cross001
10
78.127777
20
127.418407
11
77.673458
21
127.117394
0
LINE
8
reference_cross001
10
77.673458
20
127.117394
11
77.133871
21
127.017056
0
LINE
8
reference_cross001
10
77.133871
20
127.017056
11
76.645101
21
127.106198
0
LINE
8
reference_cross001
10
76.645101
20
127.106198
11
76.208868
21
127.373621
0
LINE
8
reference_cross001
10
76.208868
20
127.373621
11
75.870388
21
127.829233
0
LINE
8
reference_cross001
10
75.870388
20
127.829233
11
75.757561
21
128.407146
0
LINE
8
reference_cross001
10
75.757561
20
128.407146
11
75.757561
21
128.407146
0
LINE
8
reference_cross001
10
76.162360
20
128.401987
11
76.236429
21
128.000204
0
LINE
8
reference_cross001
10
76.236429
20
128.000204
11
76.458637
21
127.676797
0
LINE
8
reference_cross001
10
76.458637
20
127.676797
11
77.139039
21
127.392576
0
LINE
8
reference_cross001
10
77.139039
20
127.392576
11
77.524889
21
127.464923
0
LINE
8
reference_cross001
10
77.524889
20
127.464923
11
77.845282
21
127.681964
0
LINE
8
reference_cross001
10
77.845282
20
127.681964
11
78.061031
21
128.006663
0
LINE
8
reference_cross001
10
78.061031
20
128.006663
11
78.132947
21
128.395097
0
LINE
8
reference_cross001
10
78.132947
20
128.395097
11
78.061892
21
128.786114
0
LINE
8
reference_cross001
10
78.061892
20
128.786114
11
77.848727
21
129.108228
0
LINE
8
reference_cross001
10
77.848727
20
129.108228
11
77.532640
21
129.325268
0
LINE
8
reference_cross001
10
77.532640
20
129.325268
11
77.149376
21
129.397615
0
LINE
8
reference_cross001
10
77.149376
20
129.397615
11
76.766540
21
129.325268
0
LINE
8
reference_cross001
10
76.766540
20
129.325268
11
76.448300
21
129.108228
0
LINE
8
reference_cross001
10
76.448300
20
129.108228
11
76.233845
21
128.788697
0
LINE
8
reference_cross001
10
76.233845
20
128.788697
11
76.162360
21
128.401987
0
LINE
8
reference_cross001
10
76.162360
20
128.401987
11
76.162360
21
128.401987
0
LINE
8
reference_cross001
10
79.443800
20
129.724899
11
79.443800
21
128.122934
0
LINE
8
reference_cross001
10
79.443800
20
128.122934
11
79.555766
21
127.621676
0
LINE
8
reference_cross001
10
79.555766
20
127.621676
11
80.026020
21
127.392576
0
LINE
8
reference_cross001
10
80.026020
20
127.392576
11
80.497994
21
127.621676
0
LINE
8
reference_cross001
10
80.497994
20
127.621676
11
80.609960
21
128.122934
0
LINE
8
reference_cross001
10
80.609960
20
128.122934
11
80.609960
21
129.724899
0
LINE
8
reference_cross001
10
80.609960
20
129.724899
11
81.011311
21
129.724899
0
LINE
8
reference_cross001
10
81.011311
20
129.724899
11
81.011311
21
128.012693
0
LINE
8
reference_cross001
10
81.011311
20
128.012693
11
80.749485
21
127.320231
0
LINE
8
reference_cross001
10
80.749485
20
127.320231
11
80.421342
21
127.092856
0
LINE
8
reference_cross001
10
80.421342
20
127.092856
11
80.026020
21
127.017064
0
LINE
8
reference_cross001
10
80.026020
20
127.017064
11
79.631127
21
127.092856
0
LINE
8
reference_cross001
10
79.631127
20
127.092856
11
79.304275
21
127.320231
0
LINE
8
reference_cross001
10
79.304275
20
127.320231
11
79.042449
21
128.012693
0
LINE
8
reference_cross001
10
79.042449
20
128.012693
11
79.042449
21
129.724899
0
LINE
8
reference_cross001
10
79.042449
20
129.724899
11
79.443800
21
129.724899
0
LINE
8
reference_cross001
10
82.382455
20
129.347662
11
82.382455
21
127.065295
0
LINE
8
reference_cross001
10
82.382455
20
127.065295
11
81.981103
21
127.065295
0
LINE
8
reference_cross001
10
81.981103
20
127.065295
11
81.981103
21
129.347662
0
LINE
8
reference_cross001
10
81.981103
20
129.347662
11
81.369602
21
129.347662
0
LINE
8
reference_cross001
10
81.369602
20
129.347662
11
81.369602
21
129.724899
0
LINE
8
reference_cross001
10
81.369602
20
129.724899
11
82.992234
21
129.724899
0
LINE
8
reference_cross001
10
82.992234
20
129.724899
11
82.992234
21
129.347662
0
LINE
8
reference_cross001
10
82.992234
20
129.347662
11
82.382455
21
129.347662
 0 
ENDSEC
 0 
EOF