<?xml version="1.0" encoding="UTF-8" standalone="no"?>
<svg
   viewBox="0 0 793.7007874015749 1122.5196850393702"
   width="793.7007874015749"
   height="1122.5196850393702"
   version="1.1"
   id="svg35"
   sodipodi:docname="panel-graphics.svg"
   inkscape:version="1.3.2 (091e20e, 2023-11-25)"
   xmlns:inkscape="http://www.inkscape.org/namespaces/inkscape"
   xmlns:sodipodi="http://sodipodi.sourceforge.net/DTD/sodipodi-0.dtd"
   xmlns="http://www.w3.org/2000/svg"
   xmlns:svg="http://www.w3.org/2000/svg">
  <sodipodi:namedview
     id="namedview35"
     pagecolor="#ffffff"
     bordercolor="#666666"
     borderopacity="1.0"
     inkscape:showpageshadow="2"
     inkscape:pageopacity="0.0"
     inkscape:pagecheckerboard="0"
     inkscape:deskcolor="#d1d1d1"
     showgrid="false"
     showguides="true"
     inkscape:zoom="5.3821065"
     inkscape:cx="291.89315"
     inkscape:cy="617.41625"
     inkscape:window-width="2560"
     inkscape:window-height="1387"
     inkscape:window-x="0"
     inkscape:window-y="25"
     inkscape:window-maximized="0"
     inkscape:current-layer="g35"
     inkscape:document-units="px">
    <sodipodi:guide
       position="300,1022.5197"
       orientation="-1,0"
       id="guide35"
       inkscape:locked="false"
       inkscape:label=""
       inkscape:color="rgb(0,134,229)" />
    <sodipodi:guide
       position="250,622.51965"
       orientation="0,1"
       id="guide36"
       inkscape:locked="false"
       inkscape:label=""
       inkscape:color="rgb(0,134,229)" />
    <sodipodi:guide
       position="340.93129,540.47241"
       orientation="0,1"
       id="guide44"
       inkscape:locked="false"
       inkscape:label=""
       inkscape:color="rgb(0,134,229)" />
    <sodipodi:guide
       position="258.42524,479.99997"
       orientation="0,1"
       id="guide45"
       inkscape:locked="false"
       inkscape:label=""
       inkscape:color="rgb(0,134,229)" />
    <sodipodi:guide
       position="223.84254,924.88229"
       orientation="0,-1"
       id="guide46"
       inkscape:locked="false" />
    <sodipodi:guide
       position="294.81906,888.18895"
       orientation="0,1"
       id="guide47"
       inkscape:locked="false"
       inkscape:label=""
       inkscape:color="rgb(0,134,229)" />
    <sodipodi:guide
       position="258.26485,827.71651"
       orientation="0,1"
       id="guide48"
       inkscape:locked="false"
       inkscape:label=""
       inkscape:color="rgb(0,134,229)" />
    <sodipodi:guide
       position="258.42524,860.63018"
       orientation="1,0"
       id="guide49"
       inkscape:locked="false" />
    <sodipodi:guide
       position="341.57454,860.63018"
       orientation="1,0"
       id="guide50"
       inkscape:locked="false" />
    <sodipodi:guide
       position="258.42523,846.88224"
       orientation="0,-1"
       id="guide51"
       inkscape:locked="false" />
    <sodipodi:guide
       position="258.29562,752.53644"
       orientation="0,-1"
       id="guide52"
       inkscape:locked="false" />
    <sodipodi:guide
       position="258.42523,729.44879"
       orientation="0,1"
       id="guide53"
       inkscape:locked="false"
       inkscape:label=""
       inkscape:color="rgb(0,134,229)" />
    <sodipodi:guide
       position="258.42524,565.82717"
       orientation="0,-1"
       id="guide1"
       inkscape:locked="false" />
    <sodipodi:guide
       position="258.42524,505.35767"
       orientation="0,-1"
       id="guide2"
       inkscape:locked="false" />
    <sodipodi:guide
       position="272,622.51965"
       orientation="-1,0"
       id="guide3"
       inkscape:locked="false"
       inkscape:label=""
       inkscape:color="rgb(0,134,229)" />
    <sodipodi:guide
       position="328,590.16367"
       orientation="-1,0"
       id="guide4"
       inkscape:locked="false"
       inkscape:label=""
       inkscape:color="rgb(0,134,229)" />
  </sodipodi:namedview>
  <desc
     id="desc1">panel-holes.dxf - scale = 1.000000, origin = (0.000000, 0.000000), method = file</desc>
  <defs
     id="defs4">
    <marker
       id="DistanceX"
       orient="auto"
       refX="0.0"
       refY="0.0"
       style="overflow:visible">
      <path
         d="M 3,-3 L -3,3 M 0,-5 L  0,5"
         style="stroke:#000000; stroke-width:0.5"
         id="path1" />
    </marker>
    <pattern
       id="Hatch"
       patternUnits="userSpaceOnUse"
       width="8"
       height="8"
       x="0"
       y="0">
      <path
         d="M8 4 l-4,4"
         stroke="#000000"
         stroke-width="0.25"
         linecap="square"
         id="path2" />
      <path
         d="M6 2 l-4,4"
         stroke="#000000"
         stroke-width="0.25"
         linecap="square"
         id="path3" />
      <path
         d="M4 0 l-4,4"
         stroke="#000000"
         stroke-width="0.25"
         linecap="square"
         id="path4" />
    </pattern>
    <symbol
       id="*Model_Space" />
    <symbol
       id="*Paper_Space" />
  </defs>
  <g
     inkscape:groupmode="layer"
     inkscape:label="0"
     id="g4" />
  <g
     inkscape:groupmode="layer"
     inkscape:label="contour007"
     id="g15">
    <path
       d="m 376.15751,197.63739 v 485.6693 H 223.84255 v -485.6693 h 152.31496"
       style="fill:none;stroke:#000000"
       id="path5" />
    <path
       d="m 272.03152,261.88936 a 13.6063,13.6063 0 0 0 -27.2126,0 13.6063,13.6063 0 0 0 27.2126,0 z"
       style="fill:none;stroke:#000000"
       id="path6" />
    <path
       d="m 355.18113,261.88936 a 13.6063,13.6063 0 0 0 -27.2126,0 13.6063,13.6063 0 0 0 27.2126,0 z"
       style="fill:none;stroke:#000000"
       id="path7" />
    <path
       d="m 272.03152,356.37755 a 13.6063,13.6063 0 0 0 -27.2126,0 13.6063,13.6063 0 0 0 27.2126,0 z"
       style="fill:none;stroke:#000000"
       id="path8" />
    <path
       d="m 355.18113,356.37755 a 13.6063,13.6063 0 0 0 -27.2126,0 13.6063,13.6063 0 0 0 27.2126,0 z"
       style="fill:none;stroke:#000000"
       id="path9" />
    <path
       d="m 352.91341,617.16495 a 11.338583,11.338583 0 0 0 -22.67716,0 11.338583,11.338583 0 0 0 22.67716,0 z"
       style="fill:none;stroke:#000000"
       id="path10" />
    <path
       d="m 269.76381,556.69251 a 11.338585,11.338585 0 0 0 -22.67717,0 11.338585,11.338585 0 0 0 22.67717,0 z"
       style="fill:none;stroke:#000000"
       id="path11" />
    <path
       d="m 352.91341,556.69251 a 11.338583,11.338583 0 0 0 -22.67716,0 11.338583,11.338583 0 0 0 22.67716,0 z"
       style="fill:none;stroke:#000000"
       id="path12" />
    <path
       d="m 311.90554,424.40905 a 11.905512,11.905512 0 0 0 -23.81102,0 11.905512,11.905512 0 0 0 23.81102,0 z"
       style="fill:none;stroke:#000000"
       id="path13" />
    <path
       d="m 269.76381,617.16495 a 11.338585,11.338585 0 0 0 -22.67717,0 11.338585,11.338585 0 0 0 22.67717,0 z"
       style="fill:none;stroke:#000000"
       id="path14" />
    <path
       d="m 317.95278,499.9996 a 17.952756,17.952756 0 0 0 -35.90551,0 17.952756,17.952756 0 0 0 35.90551,0 z"
       style="fill:none;stroke:#000000"
       id="path15" />
  </g>
  <g
     inkscape:groupmode="layer"
     inkscape:label="reference_cross001"
     id="g35">
    <path
       style="fill:none;stroke:#ff0000"
       d="m 261.25985,261.889 h -5.6693"
       id="path16" />
    <path
       style="fill:none;stroke:#ff0000"
       d="m 258.42525,264.724 v -5.669"
       id="path17" />
    <path
       style="fill:none;stroke:#ff0000"
       d="m 344.40955,261.889 h -5.669"
       id="path18" />
    <path
       style="fill:none;stroke:#ff0000"
       d="m 341.57455,264.724 v -5.669"
       id="path19" />
    <path
       style="fill:none;stroke:#ff0000"
       d="m 261.25985,356.378 h -5.6693"
       id="path20" />
    <path
       style="fill:none;stroke:#ff0000"
       d="m 258.42525,359.212 v -5.669"
       id="path21" />
    <path
       style="fill:none;stroke:#ff0000"
       d="m 344.40955,356.378 h -5.669"
       id="path22" />
    <path
       style="fill:none;stroke:#ff0000"
       d="m 341.57455,359.212 v -5.669"
       id="path23" />
    <path
       style="fill:none;stroke:#ff0000"
       d="m 344.40955,617.167 h -5.669"
       id="path24" />
    <path
       style="fill:none;stroke:#ff0000"
       d="m 341.57455,619.997 v -5.67"
       id="path25" />
    <path
       style="fill:none;stroke:#ff0000"
       d="m 261.25985,556.693 h -5.6693"
       id="path26" />
    <path
       style="fill:none;stroke:#ff0000"
       d="m 258.42525,559.527 v -5.669"
       id="path27" />
    <path
       style="fill:none;stroke:#ff0000"
       d="m 344.40955,556.693 h -5.669"
       id="path28" />
    <path
       style="fill:none;stroke:#ff0000"
       d="m 341.57455,559.527 v -5.669"
       id="path29" />
    <path
       style="fill:none;stroke:#ff0000"
       d="m 302.83465,424.409 h -5.6693"
       id="path30" />
    <path
       style="fill:none;stroke:#ff0000"
       d="m 300.00005,427.244 v -5.67"
       id="path31" />
    <path
       style="fill:none;stroke:#ff0000"
       d="m 261.25985,617.167 h -5.6693"
       id="path32" />
    <path
       style="fill:none;stroke:#ff0000"
       d="m 258.42525,619.997 v -5.67"
       id="path33" />
    <path
       style="fill:none;stroke:#ff0000"
       d="m 302.83465,500 h -5.6693"
       id="path34" />
    <path
       style="fill:none;stroke:#ff0000"
       d="m 300.00005,502.834 v -5.669"
       id="path35" />
    <g
       id="text36"
       style="font-size:13.3333px;line-height:1.25;font-family:Futura;-inkscape-font-specification:'Futura, Normal'"
       aria-label="ADSR&#10;ENVELOPE">
      <path
         style="text-align:center;text-anchor:middle"
         d="m 289.43037,218.9099 h -4.30338 l -1.11979,2.4414 h -1.63411 l 4.97395,-10.68356 4.79816,10.68356 h -1.66015 z m -0.61849,-1.42577 -1.49088,-3.41796 -1.5625,3.41796 z m 4.58983,3.86717 v -10.05205 h 2.10937 q 1.51692,0 2.39583,0.29947 0.944,0.29297 1.71223,0.99609 1.55599,1.41927 1.55599,3.73046 0,2.31771 -1.62109,3.74999 -0.8138,0.71615 -1.70573,0.9961 -0.83333,0.27994 -2.36327,0.27994 z m 1.51692,-1.42577 h 0.68359 q 1.02214,0 1.69922,-0.21485 0.67708,-0.22786 1.22395,-0.72265 1.11979,-1.02214 1.11979,-2.66276 0,-1.65364 -1.10677,-2.68228 -0.99609,-0.91797 -2.93619,-0.91797 h -0.68359 z m 13.84762,-7.12889 -1.23046,0.72916 q -0.34505,-0.59895 -0.65755,-0.78125 -0.32552,-0.20833 -0.83984,-0.20833 -0.63151,0 -1.04818,0.35807 -0.41666,0.35156 -0.41666,0.88542 0,0.73567 1.09374,1.18489 l 1.00261,0.41016 q 1.22395,0.49479 1.79036,1.21093 0.5664,0.70963 0.5664,1.74479 0,1.38671 -0.92448,2.29166 -0.93098,0.91145 -2.31119,0.91145 -1.30859,0 -2.16145,-0.77473 -0.83984,-0.77474 -1.04818,-2.18099 l 1.53646,-0.33854 q 0.10417,0.88542 0.36458,1.22396 0.46875,0.65104 1.36719,0.65104 0.70963,0 1.17838,-0.47526 0.46875,-0.47526 0.46875,-1.20443 0,-0.29296 -0.0846,-0.53385 -0.0781,-0.24739 -0.2539,-0.44922 -0.16927,-0.20833 -0.44271,-0.38411 -0.27344,-0.18229 -0.65104,-0.34505 l -0.97005,-0.40365 q -2.0638,-0.87239 -2.0638,-2.55207 0,-1.13281 0.86589,-1.89453 0.86588,-0.76823 2.15494,-0.76823 1.73827,0 2.71483,1.69271 z m 5.49478,4.27082 3.11197,4.28384 h -1.85546 l -2.87109,-4.11457 h -0.27343 v 4.11457 h -1.51693 v -10.05205 h 1.77734 q 1.99218,0 2.8776,0.74869 0.97656,0.83333 0.97656,2.20052 0,1.0677 -0.61198,1.83593 -0.61198,0.76823 -1.61458,0.98307 z m -1.88801,-1.15234 h 0.48176 q 2.15495,0 2.15495,-1.64713 0,-1.54297 -2.09635,-1.54297 h -0.54036 z"
         id="path45" />
      <path
         style="text-align:center;text-anchor:middle"
         d="m 272.99812,229.39165 h -4.02994 v 2.41536 h 3.91275 v 1.42577 h -3.91275 v 3.35937 h 4.02994 v 1.42578 h -5.54687 v -10.05206 h 5.54687 z m 1.99218,8.62628 v -10.73565 l 7.33071,7.66925 v -6.98566 h 1.51692 v 10.66404 l -7.33071,-7.64972 v 7.03774 z m 11.76429,-10.05206 2.77994,6.96613 2.819,-6.96613 h 1.66016 l -4.51171,10.80726 -4.40754,-10.80726 z m 14.05595,1.42578 h -4.02993 v 2.41536 h 3.91275 v 1.42577 h -3.91275 v 3.35937 h 4.02993 v 1.42578 h -5.54686 v -10.05206 h 5.54686 z m 3.50911,-1.42578 v 8.62628 h 2.95572 v 1.42578 h -4.47264 v -10.05206 z m 3.48306,4.98046 q 0,-2.12239 1.55599,-3.64583 1.54947,-1.52343 3.72395,-1.52343 2.14843,0 3.68488,1.53645 1.54297,1.53646 1.54297,3.6914 0,2.16796 -1.54948,3.67838 -1.55598,1.51692 -3.7565,1.51692 -1.94661,0 -3.49608,-1.34765 -1.70573,-1.49089 -1.70573,-3.90624 z m 1.52995,0.0195 q 0,1.66666 1.11979,2.74088 1.11327,1.07421 2.5716,1.07421 1.58203,0 2.66927,-1.09375 1.08724,-1.10676 1.08724,-2.6953 0,-1.60807 -1.07422,-2.69531 -1.06771,-1.09374 -2.64322,-1.09374 -1.56901,0 -2.64974,1.09374 -1.08072,1.08073 -1.08072,2.66927 z m 12.40231,0.97005 v 4.08202 h -1.51692 v -10.05206 h 1.71874 q 1.26302,0 1.90755,0.17578 0.65104,0.17578 1.14583,0.66406 0.86588,0.84635 0.86588,2.13541 0,1.38021 -0.92447,2.1875 -0.92448,0.80729 -2.49349,0.80729 z m 0,-1.40625 h 0.5664 q 2.08984,0 2.08984,-1.60807 0,-1.55598 -2.15494,-1.55598 h -0.5013 z m 11.23044,-3.13801 h -4.02994 v 2.41536 h 3.91275 v 1.42577 h -3.91275 v 3.35937 h 4.02994 v 1.42578 h -5.54686 v -10.05206 h 5.54686 z"
         id="path46" />
    </g>
    <path
       d="m 240.83413,292.35789 h -4.30337 l -1.11979,2.4414 h -1.63411 l 4.97395,-10.68357 4.79816,10.68357 h -1.66015 z m -0.61848,-1.42578 -1.49089,-3.41796 -1.56249,3.41796 z m 6.80336,-4.7591 v 8.62628 h -1.51692 v -8.62628 h -2.31119 v -1.42578 h 6.1328 v 1.42578 z m 6.43228,0 v 8.62628 h -1.51692 v -8.62628 h -2.3112 v -1.42578 h 6.1328 v 1.42578 z m 9.0169,6.18488 h -4.30337 l -1.11979,2.4414 h -1.63411 l 4.97395,-10.68357 4.79816,10.68357 h -1.66015 z m -0.61848,-1.42578 -1.49089,-3.41796 -1.56249,3.41796 z m 11.54945,-5.64452 v 1.79687 q -1.31511,-1.10026 -2.72135,-1.10026 -1.54948,0 -2.61067,1.11328 -1.06771,1.10677 -1.06771,2.70833 0,1.58203 1.06771,2.66926 1.0677,1.08724 2.61718,1.08724 0.80078,0 1.36067,-0.26042 0.3125,-0.1302 0.64453,-0.35156 0.33854,-0.22135 0.70964,-0.53385 v 1.82942 q -1.30208,0.73568 -2.73437,0.73568 -2.15494,0 -3.67838,-1.50391 -1.51692,-1.51692 -1.51692,-3.65884 0,-1.92057 1.26953,-3.42447 1.56249,-1.84244 4.04295,-1.84244 1.35417,0 2.61719,0.73567 z m 3.71092,3.47004 3.91275,-4.0104 h 2.02474 l -4.54426,4.55077 4.5703,5.50129 h -2.03124 l -3.61979,-4.47265 -0.3125,0.3125 v 4.16015 h -1.51692 v -10.05206 h 1.51692 z"
       id="text37"
       style="font-size:13.3333px;line-height:1.25;font-family:Futura;-inkscape-font-specification:'Futura, Normal'"
       aria-label="ATTACK" />
    <path
       d="m 320.25298,294.77304 v -10.05206 h 2.10937 q 1.51692,0 2.39582,0.29948 0.94401,0.29297 1.71224,0.99609 1.55599,1.41927 1.55599,3.73046 0,2.3177 -1.62109,3.74999 -0.8138,0.71615 -1.70573,0.99609 -0.83333,0.27995 -2.36327,0.27995 z m 1.51692,-1.42578 h 0.68359 q 1.02214,0 1.69922,-0.21484 0.67708,-0.22786 1.22395,-0.72265 1.11979,-1.02214 1.11979,-2.66276 0,-1.65364 -1.10677,-2.68228 -0.99609,-0.91797 -2.93619,-0.91797 h -0.68359 z m 13.7109,-7.2005 h -4.02993 v 2.41536 h 3.91275 v 1.42578 h -3.91275 v 3.35936 h 4.02993 v 1.42578 h -5.54686 v -10.05206 h 5.54686 z m 9.42055,-0.88541 v 1.79687 q -1.3151,-1.10026 -2.72134,-1.10026 -1.54948,0 -2.61067,1.11328 -1.06771,1.10677 -1.06771,2.70832 0,1.58203 1.06771,2.66927 1.0677,1.08723 2.61718,1.08723 0.80078,0 1.36067,-0.26041 0.3125,-0.13021 0.64453,-0.35156 0.33854,-0.22136 0.70963,-0.53386 v 1.82943 q -1.30208,0.73567 -2.73437,0.73567 -2.15494,0 -3.67837,-1.5039 -1.51692,-1.51692 -1.51692,-3.65885 0,-1.92056 1.26952,-3.42447 1.5625,-1.84244 4.04296,-1.84244 1.35417,0 2.61718,0.73568 z m 8.05988,7.07029 h -4.30338 l -1.11978,2.4414 h -1.63412 l 4.97395,-10.68357 4.79817,10.68357 h -1.66016 z m -0.61849,-1.42578 -1.49088,-3.41796 -1.5625,3.41796 z m 5.74217,-0.47526 -3.28124,-5.70962 h 1.74479 l 2.29817,4.01692 2.30468,-4.01692 h 1.74479 l -3.29426,5.70962 v 4.34244 h -1.51693 z"
       id="text38"
       style="font-size:13.3333px;line-height:1.25;font-family:Futura;-inkscape-font-specification:'Futura, Normal'"
       aria-label="DECAY" />
    <path
       d="m 237.29573,384.51269 -1.23046,0.72916 q -0.34505,-0.59896 -0.65755,-0.78125 -0.32552,-0.20833 -0.83984,-0.20833 -0.63151,0 -1.04818,0.35807 -0.41666,0.35156 -0.41666,0.88542 0,0.73567 1.09374,1.18489 l 1.0026,0.41015 q 1.22396,0.4948 1.79036,1.21094 0.56641,0.70963 0.56641,1.74479 0,1.38671 -0.92448,2.29166 -0.93098,0.91145 -2.31119,0.91145 -1.30859,0 -2.16145,-0.77473 -0.83984,-0.77474 -1.04818,-2.18099 l 1.53646,-0.33854 q 0.10416,0.88542 0.36458,1.22396 0.46875,0.65104 1.36718,0.65104 0.70964,0 1.17839,-0.47526 0.46875,-0.47526 0.46875,-1.20443 0,-0.29297 -0.0846,-0.53385 -0.0781,-0.2474 -0.25391,-0.44922 -0.16927,-0.20833 -0.4427,-0.38411 -0.27344,-0.18229 -0.65104,-0.34505 l -0.97005,-0.40365 q -2.0638,-0.87239 -2.0638,-2.55207 0,-1.13281 0.86588,-1.89453 0.86589,-0.76823 2.15495,-0.76823 1.73827,0 2.71483,1.69271 z m 3.60677,-1.4974 v 6.05468 q 0,1.29557 0.42317,1.89452 0.63151,0.86589 1.77734,0.86589 1.15234,0 1.78385,-0.86589 0.42318,-0.57942 0.42318,-1.89452 v -6.05468 h 1.51692 v 6.47134 q 0,1.58854 -0.98958,2.61718 -1.11328,1.14583 -2.73437,1.14583 -1.62109,0 -2.72786,-1.14583 -0.98958,-1.02864 -0.98958,-2.61718 v -6.47134 z m 14.01689,1.4974 -1.23047,0.72916 q -0.34505,-0.59896 -0.65755,-0.78125 -0.32552,-0.20833 -0.83984,-0.20833 -0.63151,0 -1.04818,0.35807 -0.41666,0.35156 -0.41666,0.88542 0,0.73567 1.09375,1.18489 l 1.0026,0.41015 q 1.22395,0.4948 1.79036,1.21094 0.5664,0.70963 0.5664,1.74479 0,1.38671 -0.92447,2.29166 -0.93099,0.91145 -2.3112,0.91145 -1.30859,0 -2.16145,-0.77473 -0.83984,-0.77474 -1.04817,-2.18099 l 1.53645,-0.33854 q 0.10417,0.88542 0.36458,1.22396 0.46875,0.65104 1.36719,0.65104 0.70963,0 1.17838,-0.47526 0.46875,-0.47526 0.46875,-1.20443 0,-0.29297 -0.0846,-0.53385 -0.0781,-0.2474 -0.2539,-0.44922 -0.16927,-0.20833 -0.44271,-0.38411 -0.27344,-0.18229 -0.65104,-0.34505 l -0.97005,-0.40365 q -2.0638,-0.87239 -2.0638,-2.55207 0,-1.13281 0.86589,-1.89453 0.86588,-0.76823 2.15494,-0.76823 1.73828,0 2.71484,1.69271 z m 5.05207,-0.0716 v 8.62628 h -1.51693 v -8.62628 h -2.31119 v -1.42578 h 6.1328 v 1.42578 z m 9.0169,6.18488 h -4.30337 l -1.11979,2.4414 h -1.63411 l 4.97394,-10.68356 4.79817,10.68356 h -1.66015 z m -0.61849,-1.42578 -1.49088,-3.41796 -1.56249,3.41796 z m 6.10676,-6.18488 v 10.05206 h -1.51692 v -10.05206 z m 2.41536,10.05206 V 382.3317 l 7.33071,7.66925 v -6.98566 h 1.51692 v 10.66404 l -7.33071,-7.64972 v 7.03774 z"
       id="text39"
       style="font-size:13.3333px;line-height:1.25;font-family:Futura;-inkscape-font-specification:'Futura, Normal'"
       aria-label="SUSTAIN" />
    <path
       d="m 318.87276,388.62024 3.11197,4.28384 h -1.85546 l -2.87109,-4.11457 h -0.27344 v 4.11457 h -1.51692 v -10.05205 h 1.77734 q 1.99218,0 2.8776,0.74869 0.97656,0.83333 0.97656,2.20052 0,1.0677 -0.61198,1.83593 -0.61198,0.76823 -1.61458,0.98307 z m -1.88802,-1.15234 h 0.48177 q 2.15495,0 2.15495,-1.64713 0,-1.54297 -2.09635,-1.54297 h -0.54037 z m 12.05727,-3.1901 h -4.02994 v 2.41536 h 3.91275 v 1.42578 h -3.91275 v 3.35937 h 4.02994 v 1.42577 h -5.54687 v -10.05205 h 5.54687 z m 3.5091,-1.42577 v 8.62628 h 2.95572 v 1.42577 h -4.47264 v -10.05205 z m 9.94138,1.42577 h -4.02994 v 2.41536 h 3.91275 v 1.42578 h -3.91275 v 3.35937 h 4.02994 v 1.42577 h -5.54686 v -10.05205 h 5.54686 z m 7.89712,6.18488 h -4.30338 l -1.11979,2.4414 h -1.63411 l 4.97395,-10.68356 4.79816,10.68356 h -1.66015 z m -0.61849,-1.42577 -1.49088,-3.41796 -1.5625,3.41796 z m 10.27341,-4.68749 -1.23046,0.72916 q -0.34505,-0.59895 -0.65755,-0.78125 -0.32552,-0.20833 -0.83985,-0.20833 -0.6315,0 -1.04817,0.35807 -0.41667,0.35156 -0.41667,0.88542 0,0.73567 1.09375,1.18489 l 1.0026,0.41016 q 1.22396,0.49479 1.79036,1.21093 0.56641,0.70963 0.56641,1.74479 0,1.38671 -0.92448,2.29166 -0.93099,0.91145 -2.31119,0.91145 -1.30859,0 -2.16145,-0.77473 -0.83985,-0.77474 -1.04818,-2.18099 l 1.53646,-0.33854 q 0.10416,0.88542 0.36458,1.22396 0.46875,0.65104 1.36718,0.65104 0.70964,0 1.17839,-0.47526 0.46874,-0.47526 0.46874,-1.20443 0,-0.29296 -0.0846,-0.53385 -0.0781,-0.24739 -0.25391,-0.44922 -0.16927,-0.20833 -0.4427,-0.38411 -0.27344,-0.18229 -0.65104,-0.34505 l -0.97005,-0.40365 q -2.0638,-0.87239 -2.0638,-2.55207 0,-1.13281 0.86588,-1.89453 0.86589,-0.76823 2.15495,-0.76823 1.73827,0 2.71483,1.69271 z m 7.6367,-0.0716 h -4.02994 v 2.41536 h 3.91275 v 1.42578 h -3.91275 v 3.35937 h 4.02994 v 1.42577 h -5.54686 v -10.05205 h 5.54686 z"
       id="text40"
       style="font-size:13.3333px;line-height:1.25;font-family:Futura;-inkscape-font-specification:'Futura, Normal'"
       aria-label="RELEASE" />
    <path
       d="m 294.30273,402.50507 h -2.10156 v 1.44921 h 2.02735 v 0.85547 h -2.02735 v 2.8711 h -0.91015 v -6.03125 h 3.01171 z m 4.19922,3.71093 h -2.58203 l -0.67187,1.46485 h -0.98047 l 2.98437,-6.41016 2.87891,6.41016 h -0.99609 z m -0.37109,-0.85547 -0.89453,-2.05078 -0.9375,2.05078 z m 6.16406,-2.8125 -0.73828,0.4375 q -0.20703,-0.35937 -0.39453,-0.46875 -0.19531,-0.125 -0.50391,-0.125 -0.3789,0 -0.6289,0.21485 -0.25,0.21094 -0.25,0.53125 0,0.4414 0.65625,0.71094 l 0.60156,0.24609 q 0.73437,0.29687 1.07422,0.72656 0.33984,0.42578 0.33984,1.04688 0,0.83203 -0.55469,1.375 -0.55859,0.54687 -1.38671,0.54687 -0.78516,0 -1.29688,-0.46484 -0.50391,-0.46485 -0.62891,-1.3086 l 0.92188,-0.20312 q 0.0625,0.53125 0.21875,0.73437 0.28125,0.39063 0.82031,0.39063 0.42578,0 0.70703,-0.28516 0.28125,-0.28515 0.28125,-0.72265 0,-0.17578 -0.0508,-0.32032 -0.0469,-0.14843 -0.15234,-0.26953 -0.10156,-0.125 -0.26563,-0.23047 -0.16406,-0.10937 -0.39062,-0.20703 l -0.58203,-0.24218 q -1.23828,-0.52344 -1.23828,-1.53125 0,-0.67969 0.51953,-1.13672 0.51953,-0.46094 1.29297,-0.46094 1.04296,0 1.6289,1.01562 z m 3.03125,-0.043 v 5.17578 h -0.91015 v -5.17578 h -1.38672 v -0.85547 h 3.67968 v 0.85547 z"
       id="text41"
       style="font-size:8px;line-height:1.25;font-family:Futura;-inkscape-font-specification:'Futura, Normal'"
       aria-label="FAST" />
    <path
       d="m 292.26562,441.79059 -0.73828,0.4375 q -0.20703,-0.35938 -0.39453,-0.46875 -0.19531,-0.125 -0.5039,-0.125 -0.37891,0 -0.62891,0.21484 -0.25,0.21094 -0.25,0.53125 0,0.44141 0.65625,0.71094 l 0.60156,0.24609 q 0.73438,0.29688 1.07422,0.72657 0.33984,0.42578 0.33984,1.04687 0,0.83203 -0.55468,1.375 -0.5586,0.54688 -1.38672,0.54688 -0.78516,0 -1.29688,-0.46485 -0.5039,-0.46484 -0.6289,-1.30859 l 0.92187,-0.20313 q 0.0625,0.53125 0.21875,0.73438 0.28125,0.39062 0.82031,0.39062 0.42579,0 0.70704,-0.28515 0.28125,-0.28516 0.28125,-0.72266 0,-0.17578 -0.0508,-0.32031 -0.0469,-0.14844 -0.15234,-0.26953 -0.10156,-0.125 -0.26562,-0.23047 -0.16407,-0.10938 -0.39063,-0.20703 l -0.58203,-0.24219 q -1.23828,-0.52344 -1.23828,-1.53125 0,-0.67969 0.51953,-1.13672 0.51953,-0.46094 1.29297,-0.46094 1.04297,0 1.6289,1.01563 z m 2.16407,-0.89844 v 5.17578 h 1.77343 v 0.85547 h -2.68359 v -6.03125 z m 2.08984,2.98828 q 0,-1.27344 0.93359,-2.1875 0.92969,-0.91406 2.23438,-0.91406 1.28906,0 2.21094,0.92187 0.92578,0.92188 0.92578,2.21485 0,1.30078 -0.92969,2.20703 -0.93359,0.91016 -2.25391,0.91016 -1.16796,0 -2.09765,-0.8086 -1.02344,-0.89453 -1.02344,-2.34375 z m 0.91797,0.0117 q 0,1 0.67187,1.64453 0.66797,0.64453 1.54297,0.64453 0.94922,0 1.60157,-0.65625 0.65234,-0.66406 0.65234,-1.61718 0,-0.96485 -0.64453,-1.61719 -0.64063,-0.65625 -1.58594,-0.65625 -0.94141,0 -1.58984,0.65625 -0.64844,0.64844 -0.64844,1.60156 z m 6.57031,-3 1.57031,4.03125 1.64063,-4.32422 1.57031,4.32422 1.66797,-4.03125 h 0.98828 l -2.69531,6.41406 -1.55078,-4.27343 -1.61719,4.27734 -2.5625,-6.41797 z"
       id="text42"
       style="font-size:8px;line-height:1.25;font-family:Futura;-inkscape-font-specification:'Futura, Normal'"
       aria-label="SLOW" />
    <path
       d="m 275.84642,573.349 v 8.62628 h -1.51693 V 573.349 h -2.31119 v -1.42578 h 6.1328 v 1.42578 z m 7.06378,4.34244 3.11197,4.28384 h -1.85546 l -2.87109,-4.11457 h -0.27344 v 4.11457 h -1.51692 v -10.05206 h 1.77734 q 1.99218,0 2.8776,0.7487 0.97656,0.83333 0.97656,2.20051 0,1.06771 -0.61198,1.83594 -0.61198,0.76822 -1.61458,0.98307 z m -1.88802,-1.15234 h 0.48177 q 2.15495,0 2.15495,-1.64713 0,-1.54297 -2.09635,-1.54297 h -0.54037 z m 8.02733,-4.61588 v 10.05206 h -1.51693 v -10.05206 z m 7.58461,4.8177 h 4.15364 v 0.33203 q 0,1.13281 -0.26693,2.0052 -0.26041,0.80729 -0.8789,1.51042 -1.39974,1.57551 -3.56119,1.57551 -2.10937,0 -3.61327,-1.52343 -1.50391,-1.52995 -1.50391,-3.67187 0,-2.18749 1.52995,-3.71093 1.52994,-1.52994 3.72395,-1.52994 1.17838,0 2.20051,0.48177 0.97656,0.48177 1.92057,1.5625 l -1.08073,1.03515 q -1.23697,-1.64713 -3.01431,-1.64713 -1.59505,0 -2.67578,1.10026 -1.08072,1.08072 -1.08072,2.70832 0,1.67969 1.20442,2.76692 1.1263,1.00912 2.4414,1.00912 1.11979,0 2.01172,-0.75521 0.89192,-0.76172 0.99609,-1.82291 h -2.50651 z m 11.23044,0 h 4.15364 v 0.33203 q 0,1.13281 -0.26693,2.0052 -0.26041,0.80729 -0.8789,1.51042 -1.39974,1.57551 -3.56119,1.57551 -2.10937,0 -3.61327,-1.52343 -1.50391,-1.52995 -1.50391,-3.67187 0,-2.18749 1.52995,-3.71093 1.52994,-1.52994 3.72395,-1.52994 1.17838,0 2.20051,0.48177 0.97656,0.48177 1.92057,1.5625 l -1.08073,1.03515 q -1.23697,-1.64713 -3.01431,-1.64713 -1.59505,0 -2.67578,1.10026 -1.08072,1.08072 -1.08072,2.70832 0,1.67969 1.20442,2.76692 1.1263,1.00912 2.4414,1.00912 1.11979,0 2.01172,-0.75521 0.89192,-0.76172 0.99609,-1.82291 h -2.50651 z m 11.60805,-3.39192 h -4.02994 v 2.41536 h 3.91275 v 1.42578 h -3.91275 v 3.35936 h 4.02994 v 1.42578 h -5.54686 v -10.05206 h 5.54686 z m 5.39712,4.34244 3.11197,4.28384 h -1.85546 l -2.87109,-4.11457 h -0.27344 v 4.11457 h -1.51692 v -10.05206 h 1.77734 q 1.99218,0 2.87759,0.7487 0.97656,0.83333 0.97656,2.20051 0,1.06771 -0.61197,1.83594 -0.61198,0.76822 -1.61458,0.98307 z m -1.88802,-1.15234 h 0.48177 q 2.15494,0 2.15494,-1.64713 0,-1.54297 -2.09634,-1.54297 h -0.54037 z"
       id="text43"
       style="font-size:13.3333px;line-height:1.25;font-family:Futura;-inkscape-font-specification:'Futura, Normal'"
       aria-label="TRIGGER" />
    <path
       d="m 286.32815,637.20214 q 0,-2.12239 1.55599,-3.64582 1.54947,-1.52344 3.72395,-1.52344 2.14843,0 3.68488,1.53646 1.54297,1.53645 1.54297,3.69139 0,2.16797 -1.54948,3.67838 -1.55598,1.51692 -3.7565,1.51692 -1.94661,0 -3.49608,-1.34765 -1.70573,-1.49088 -1.70573,-3.90624 z m 1.52995,0.0195 q 0,1.66666 1.11979,2.74088 1.11328,1.07422 2.5716,1.07422 1.58203,0 2.66927,-1.09375 1.08724,-1.10677 1.08724,-2.69531 0,-1.60807 -1.07422,-2.6953 -1.06771,-1.09375 -2.64322,-1.09375 -1.56901,0 -2.64974,1.09375 -1.08072,1.08072 -1.08072,2.66926 z m 12.40231,-4.99999 v 6.05468 q 0,1.29557 0.42318,1.89452 0.6315,0.86589 1.77734,0.86589 1.15234,0 1.78384,-0.86589 0.42318,-0.57942 0.42318,-1.89452 v -6.05468 h 1.51692 v 6.47134 q 0,1.58854 -0.98958,2.61718 -1.11328,1.14583 -2.73436,1.14583 -1.62109,0 -2.72786,-1.14583 -0.98958,-1.02864 -0.98958,-2.61718 v -6.47134 z m 11.10674,1.42578 v 8.62628 h -1.51692 v -8.62628 h -2.31119 v -1.42578 h 6.13279 v 1.42578 z"
       id="text44"
       style="font-size:13.3333px;line-height:1.25;font-family:Futura;-inkscape-font-specification:'Futura, Normal'"
       aria-label="OUT" />
    <path
       style="fill:none;stroke:#000000;stroke-width:1px;stroke-linecap:round;stroke-linejoin:miter;stroke-opacity:1"
       d="m 272,556.69248 56,0"
       id="path36"
       sodipodi:nodetypes="cc" />
    <path
       style="fill:none;stroke:#000000;stroke-width:1px;stroke-linecap:round;stroke-linejoin:miter;stroke-opacity:1"
       d="m 272,617.16198 56,0"
       id="path37"
       sodipodi:nodetypes="cc" />
  </g>
</svg>
